<?xml version="1.0" encoding="utf-8" standalone="no"?>
<!DOCTYPE svg PUBLIC "-//W3C//DTD SVG 1.1//EN"
  "http://www.w3.org/Graphics/SVG/1.1/DTD/svg11.dtd">
<!-- Created with matplotlib (http://matplotlib.org/) -->
<svg height="84pt" version="1.1" viewBox="0 0 124 84" width="124pt" xmlns="http://www.w3.org/2000/svg" xmlns:xlink="http://www.w3.org/1999/xlink">
 <defs>
  <style type="text/css">
*{stroke-linecap:butt;stroke-linejoin:round;}
  </style>
 </defs>
 <g id="figure_1">
  <g id="patch_1">
   <path d="M -0 84.331537 
L 124.25644 84.331537 
L 124.25644 -0 
L -0 -0 
z
" style="fill:#ffffff;"/>
  </g>
  <g id="axes_1">
   <g id="patch_2">
    <path d="M 22.1525 67.824662 
L 117.05644 67.824662 
L 117.05644 9.552419 
L 22.1525 9.552419 
z
" style="fill:#ffffff;"/>
   </g>
   <g id="matplotlib.axis_1">
    <g id="xtick_1">
     <g id="line2d_1">
      <path clip-path="url(#p2c8fb5d956)" d="M 42.696663 67.824662 
L 42.696663 9.552419 
" style="fill:none;opacity:0.1;stroke:#b0b0b0;stroke-linecap:square;stroke-width:0.1;"/>
     </g>
     <g id="line2d_2">
      <defs>
       <path d="M 0 0 
L 0 -2 
" id="m4c77120dd8" style="stroke:#000000;stroke-width:0.3;"/>
      </defs>
      <g>
       <use style="stroke:#000000;stroke-width:0.3;" x="42.696663" xlink:href="#m4c77120dd8" y="67.824662"/>
      </g>
     </g>
     <g id="text_1">
      <!-- 5.50 -->
      <defs>
       <path d="M 10.796875 72.90625 
L 49.515625 72.90625 
L 49.515625 64.59375 
L 19.828125 64.59375 
L 19.828125 46.734375 
Q 21.96875 47.46875 24.109375 47.828125 
Q 26.265625 48.1875 28.421875 48.1875 
Q 40.625 48.1875 47.75 41.5 
Q 54.890625 34.8125 54.890625 23.390625 
Q 54.890625 11.625 47.5625 5.09375 
Q 40.234375 -1.421875 26.90625 -1.421875 
Q 22.3125 -1.421875 17.546875 -0.640625 
Q 12.796875 0.140625 7.71875 1.703125 
L 7.71875 11.625 
Q 12.109375 9.234375 16.796875 8.0625 
Q 21.484375 6.890625 26.703125 6.890625 
Q 35.15625 6.890625 40.078125 11.328125 
Q 45.015625 15.765625 45.015625 23.390625 
Q 45.015625 31 40.078125 35.4375 
Q 35.15625 39.890625 26.703125 39.890625 
Q 22.75 39.890625 18.8125 39.015625 
Q 14.890625 38.140625 10.796875 36.28125 
z
" id="DejaVuSans-35"/>
       <path d="M 10.6875 12.40625 
L 21 12.40625 
L 21 0 
L 10.6875 0 
z
" id="DejaVuSans-2e"/>
       <path d="M 31.78125 66.40625 
Q 24.171875 66.40625 20.328125 58.90625 
Q 16.5 51.421875 16.5 36.375 
Q 16.5 21.390625 20.328125 13.890625 
Q 24.171875 6.390625 31.78125 6.390625 
Q 39.453125 6.390625 43.28125 13.890625 
Q 47.125 21.390625 47.125 36.375 
Q 47.125 51.421875 43.28125 58.90625 
Q 39.453125 66.40625 31.78125 66.40625 
z
M 31.78125 74.21875 
Q 44.046875 74.21875 50.515625 64.515625 
Q 56.984375 54.828125 56.984375 36.375 
Q 56.984375 17.96875 50.515625 8.265625 
Q 44.046875 -1.421875 31.78125 -1.421875 
Q 19.53125 -1.421875 13.0625 8.265625 
Q 6.59375 17.96875 6.59375 36.375 
Q 6.59375 54.828125 13.0625 64.515625 
Q 19.53125 74.21875 31.78125 74.21875 
z
" id="DejaVuSans-30"/>
      </defs>
      <g transform="translate(36.016976 75.883725)scale(0.06 -0.06)">
       <use xlink:href="#DejaVuSans-35"/>
       <use x="63.623047" xlink:href="#DejaVuSans-2e"/>
       <use x="95.410156" xlink:href="#DejaVuSans-35"/>
       <use x="159.033203" xlink:href="#DejaVuSans-30"/>
      </g>
     </g>
    </g>
    <g id="xtick_2">
     <g id="line2d_3">
      <path clip-path="url(#p2c8fb5d956)" d="M 65.145277 67.824662 
L 65.145277 9.552419 
" style="fill:none;opacity:0.1;stroke:#b0b0b0;stroke-linecap:square;stroke-width:0.1;"/>
     </g>
     <g id="line2d_4">
      <g>
       <use style="stroke:#000000;stroke-width:0.3;" x="65.145277" xlink:href="#m4c77120dd8" y="67.824662"/>
      </g>
     </g>
     <g id="text_2">
      <!-- 5.75 -->
      <defs>
       <path d="M 8.203125 72.90625 
L 55.078125 72.90625 
L 55.078125 68.703125 
L 28.609375 0 
L 18.3125 0 
L 43.21875 64.59375 
L 8.203125 64.59375 
z
" id="DejaVuSans-37"/>
      </defs>
      <g transform="translate(58.46559 75.883725)scale(0.06 -0.06)">
       <use xlink:href="#DejaVuSans-35"/>
       <use x="63.623047" xlink:href="#DejaVuSans-2e"/>
       <use x="95.410156" xlink:href="#DejaVuSans-37"/>
       <use x="159.033203" xlink:href="#DejaVuSans-35"/>
      </g>
     </g>
    </g>
    <g id="xtick_3">
     <g id="line2d_5">
      <path clip-path="url(#p2c8fb5d956)" d="M 87.593891 67.824662 
L 87.593891 9.552419 
" style="fill:none;opacity:0.1;stroke:#b0b0b0;stroke-linecap:square;stroke-width:0.1;"/>
     </g>
     <g id="line2d_6">
      <g>
       <use style="stroke:#000000;stroke-width:0.3;" x="87.593891" xlink:href="#m4c77120dd8" y="67.824662"/>
      </g>
     </g>
     <g id="text_3">
      <!-- 6.00 -->
      <defs>
       <path d="M 33.015625 40.375 
Q 26.375 40.375 22.484375 35.828125 
Q 18.609375 31.296875 18.609375 23.390625 
Q 18.609375 15.53125 22.484375 10.953125 
Q 26.375 6.390625 33.015625 6.390625 
Q 39.65625 6.390625 43.53125 10.953125 
Q 47.40625 15.53125 47.40625 23.390625 
Q 47.40625 31.296875 43.53125 35.828125 
Q 39.65625 40.375 33.015625 40.375 
z
M 52.59375 71.296875 
L 52.59375 62.3125 
Q 48.875 64.0625 45.09375 64.984375 
Q 41.3125 65.921875 37.59375 65.921875 
Q 27.828125 65.921875 22.671875 59.328125 
Q 17.53125 52.734375 16.796875 39.40625 
Q 19.671875 43.65625 24.015625 45.921875 
Q 28.375 48.1875 33.59375 48.1875 
Q 44.578125 48.1875 50.953125 41.515625 
Q 57.328125 34.859375 57.328125 23.390625 
Q 57.328125 12.15625 50.6875 5.359375 
Q 44.046875 -1.421875 33.015625 -1.421875 
Q 20.359375 -1.421875 13.671875 8.265625 
Q 6.984375 17.96875 6.984375 36.375 
Q 6.984375 53.65625 15.1875 63.9375 
Q 23.390625 74.21875 37.203125 74.21875 
Q 40.921875 74.21875 44.703125 73.484375 
Q 48.484375 72.75 52.59375 71.296875 
z
" id="DejaVuSans-36"/>
      </defs>
      <g transform="translate(80.914204 75.883725)scale(0.06 -0.06)">
       <use xlink:href="#DejaVuSans-36"/>
       <use x="63.623047" xlink:href="#DejaVuSans-2e"/>
       <use x="95.410156" xlink:href="#DejaVuSans-30"/>
       <use x="159.033203" xlink:href="#DejaVuSans-30"/>
      </g>
     </g>
    </g>
    <g id="xtick_4">
     <g id="line2d_7">
      <path clip-path="url(#p2c8fb5d956)" d="M 110.042505 67.824662 
L 110.042505 9.552419 
" style="fill:none;opacity:0.1;stroke:#b0b0b0;stroke-linecap:square;stroke-width:0.1;"/>
     </g>
     <g id="line2d_8">
      <g>
       <use style="stroke:#000000;stroke-width:0.3;" x="110.042505" xlink:href="#m4c77120dd8" y="67.824662"/>
      </g>
     </g>
     <g id="text_4">
      <!-- 6.25 -->
      <defs>
       <path d="M 19.1875 8.296875 
L 53.609375 8.296875 
L 53.609375 0 
L 7.328125 0 
L 7.328125 8.296875 
Q 12.9375 14.109375 22.625 23.890625 
Q 32.328125 33.6875 34.8125 36.53125 
Q 39.546875 41.84375 41.421875 45.53125 
Q 43.3125 49.21875 43.3125 52.78125 
Q 43.3125 58.59375 39.234375 62.25 
Q 35.15625 65.921875 28.609375 65.921875 
Q 23.96875 65.921875 18.8125 64.3125 
Q 13.671875 62.703125 7.8125 59.421875 
L 7.8125 69.390625 
Q 13.765625 71.78125 18.9375 73 
Q 24.125 74.21875 28.421875 74.21875 
Q 39.75 74.21875 46.484375 68.546875 
Q 53.21875 62.890625 53.21875 53.421875 
Q 53.21875 48.921875 51.53125 44.890625 
Q 49.859375 40.875 45.40625 35.40625 
Q 44.1875 33.984375 37.640625 27.21875 
Q 31.109375 20.453125 19.1875 8.296875 
z
" id="DejaVuSans-32"/>
      </defs>
      <g transform="translate(103.362818 75.883725)scale(0.06 -0.06)">
       <use xlink:href="#DejaVuSans-36"/>
       <use x="63.623047" xlink:href="#DejaVuSans-2e"/>
       <use x="95.410156" xlink:href="#DejaVuSans-32"/>
       <use x="159.033203" xlink:href="#DejaVuSans-35"/>
      </g>
     </g>
    </g>
   </g>
   <g id="matplotlib.axis_2">
    <g id="ytick_1">
     <g id="line2d_9">
      <path clip-path="url(#p2c8fb5d956)" d="M 22.1525 52.32291 
L 117.05644 52.32291 
" style="fill:none;opacity:0.1;stroke:#b0b0b0;stroke-linecap:square;stroke-width:0.1;"/>
     </g>
     <g id="line2d_10">
      <defs>
       <path d="M 0 0 
L 2 0 
" id="m75fb91f05c" style="stroke:#000000;stroke-width:0.3;"/>
      </defs>
      <g>
       <use style="stroke:#000000;stroke-width:0.3;" x="22.1525" xlink:href="#m75fb91f05c" y="52.32291"/>
      </g>
     </g>
     <g id="text_5">
      <!-- 140 -->
      <defs>
       <path d="M 12.40625 8.296875 
L 28.515625 8.296875 
L 28.515625 63.921875 
L 10.984375 60.40625 
L 10.984375 69.390625 
L 28.421875 72.90625 
L 38.28125 72.90625 
L 38.28125 8.296875 
L 54.390625 8.296875 
L 54.390625 0 
L 12.40625 0 
z
" id="DejaVuSans-31"/>
       <path d="M 37.796875 64.3125 
L 12.890625 25.390625 
L 37.796875 25.390625 
z
M 35.203125 72.90625 
L 47.609375 72.90625 
L 47.609375 25.390625 
L 58.015625 25.390625 
L 58.015625 17.1875 
L 47.609375 17.1875 
L 47.609375 0 
L 37.796875 0 
L 37.796875 17.1875 
L 4.890625 17.1875 
L 4.890625 26.703125 
z
" id="DejaVuSans-34"/>
      </defs>
      <g transform="translate(7.2 54.602442)scale(0.06 -0.06)">
       <use xlink:href="#DejaVuSans-31"/>
       <use x="63.623047" xlink:href="#DejaVuSans-34"/>
       <use x="127.246094" xlink:href="#DejaVuSans-30"/>
      </g>
     </g>
    </g>
    <g id="ytick_2">
     <g id="line2d_11">
      <path clip-path="url(#p2c8fb5d956)" d="M 22.1525 30.901221 
L 117.05644 30.901221 
" style="fill:none;opacity:0.1;stroke:#b0b0b0;stroke-linecap:square;stroke-width:0.1;"/>
     </g>
     <g id="line2d_12">
      <g>
       <use style="stroke:#000000;stroke-width:0.3;" x="22.1525" xlink:href="#m75fb91f05c" y="30.901221"/>
      </g>
     </g>
     <g id="text_6">
      <!-- 160 -->
      <g transform="translate(7.2 33.180752)scale(0.06 -0.06)">
       <use xlink:href="#DejaVuSans-31"/>
       <use x="63.623047" xlink:href="#DejaVuSans-36"/>
       <use x="127.246094" xlink:href="#DejaVuSans-30"/>
      </g>
     </g>
    </g>
    <g id="ytick_3">
     <g id="line2d_13">
      <path clip-path="url(#p2c8fb5d956)" d="M 22.1525 9.479531 
L 117.05644 9.479531 
" style="fill:none;opacity:0.1;stroke:#b0b0b0;stroke-linecap:square;stroke-width:0.1;"/>
     </g>
     <g id="line2d_14">
      <g>
       <use style="stroke:#000000;stroke-width:0.3;" x="22.1525" xlink:href="#m75fb91f05c" y="9.479531"/>
      </g>
     </g>
     <g id="text_7">
      <!-- 180 -->
      <defs>
       <path d="M 31.78125 34.625 
Q 24.75 34.625 20.71875 30.859375 
Q 16.703125 27.09375 16.703125 20.515625 
Q 16.703125 13.921875 20.71875 10.15625 
Q 24.75 6.390625 31.78125 6.390625 
Q 38.8125 6.390625 42.859375 10.171875 
Q 46.921875 13.96875 46.921875 20.515625 
Q 46.921875 27.09375 42.890625 30.859375 
Q 38.875 34.625 31.78125 34.625 
z
M 21.921875 38.8125 
Q 15.578125 40.375 12.03125 44.71875 
Q 8.5 49.078125 8.5 55.328125 
Q 8.5 64.0625 14.71875 69.140625 
Q 20.953125 74.21875 31.78125 74.21875 
Q 42.671875 74.21875 48.875 69.140625 
Q 55.078125 64.0625 55.078125 55.328125 
Q 55.078125 49.078125 51.53125 44.71875 
Q 48 40.375 41.703125 38.8125 
Q 48.828125 37.15625 52.796875 32.3125 
Q 56.78125 27.484375 56.78125 20.515625 
Q 56.78125 9.90625 50.3125 4.234375 
Q 43.84375 -1.421875 31.78125 -1.421875 
Q 19.734375 -1.421875 13.25 4.234375 
Q 6.78125 9.90625 6.78125 20.515625 
Q 6.78125 27.484375 10.78125 32.3125 
Q 14.796875 37.15625 21.921875 38.8125 
z
M 18.3125 54.390625 
Q 18.3125 48.734375 21.84375 45.5625 
Q 25.390625 42.390625 31.78125 42.390625 
Q 38.140625 42.390625 41.71875 45.5625 
Q 45.3125 48.734375 45.3125 54.390625 
Q 45.3125 60.0625 41.71875 63.234375 
Q 38.140625 66.40625 31.78125 66.40625 
Q 25.390625 66.40625 21.84375 63.234375 
Q 18.3125 60.0625 18.3125 54.390625 
z
" id="DejaVuSans-38"/>
      </defs>
      <g transform="translate(7.2 11.759063)scale(0.06 -0.06)">
       <use xlink:href="#DejaVuSans-31"/>
       <use x="63.623047" xlink:href="#DejaVuSans-38"/>
       <use x="127.246094" xlink:href="#DejaVuSans-30"/>
      </g>
     </g>
    </g>
   </g>
   <g id="line2d_15">
    <path clip-path="url(#p2c8fb5d956)" d="M 26.466315 65.175924 
L 26.466315 55.536164 
L 28.356489 55.536164 
L 28.356489 60.891586 
L 37.416749 45.896403 
L 37.416749 53.393995 
L 39.046519 53.393995 
L 39.046519 50.180741 
L 40.924121 50.180741 
L 40.924121 48.038572 
L 42.579931 48.038572 
L 42.579931 42.68315 
L 44.431492 42.68315 
L 44.431492 36.256643 
L 46.137587 36.256643 
L 46.137587 31.972305 
L 48.025964 31.972305 
L 48.025964 21.26146 
L 50.003238 21.26146 
L 50.003238 37.327728 
L 51.524356 37.327728 
L 51.524356 46.967488 
L 53.558201 46.967488 
L 53.558201 31.972305 
L 55.436701 31.972305 
L 55.436701 25.545798 
L 57.07096 25.545798 
L 57.07096 29.830136 
L 60.53972 22.332545 
L 60.53972 37.327728 
L 62.529565 37.327728 
L 62.529565 12.692785 
L 64.179987 12.692785 
L 64.179987 35.185559 
L 66.078242 35.185559 
L 66.078242 30.901221 
L 67.815764 30.901221 
L 67.815764 35.185559 
L 69.583817 35.185559 
L 69.583817 35.185559 
L 71.385992 35.185559 
L 71.385992 40.540981 
L 73.188167 40.540981 
L 73.188167 40.540981 
L 74.966097 40.540981 
L 74.966097 40.540981 
L 76.864352 40.540981 
L 76.864352 40.540981 
L 78.616242 40.540981 
L 78.616242 41.612066 
L 80.253195 41.612066 
L 80.253195 41.612066 
L 82.20802 41.612066 
L 82.20802 41.612066 
L 84.174518 41.612066 
L 84.174518 28.759052 
L 85.673188 28.759052 
L 85.673188 40.540981 
L 87.724093 40.540981 
L 87.724093 18.048207 
L 89.523574 18.048207 
L 89.523574 39.469897 
L 92.929478 38.398812 
L 92.929478 38.398812 
L 94.787325 38.398812 
L 94.787325 38.398812 
L 96.381177 38.398812 
L 96.381177 39.469897 
L 98.592814 39.469897 
L 98.592814 39.469897 
L 101.905332 33.04339 
L 101.905332 39.469897 
L 103.584488 39.469897 
L 103.584488 39.469897 
L 105.860777 39.469897 
L 105.860777 38.398812 
L 107.215776 38.398812 
L 107.215776 38.398812 
L 109.021542 38.398812 
L 109.021542 38.398812 
L 110.910818 38.398812 
L 110.910818 38.398812 
L 112.742625 38.398812 
L 112.742625 38.398812 
" style="fill:none;stroke:#1f77b4;stroke-linecap:square;"/>
   </g>
   <g id="line2d_16">
    <path clip-path="url(#p2c8fb5d956)" d="M 26.466315 56.735778 
L 28.356489 61.353223 
L 29.98087 61.41856 
L 31.906962 61.548161 
L 33.837542 61.642416 
L 35.505923 60.851956 
L 37.416749 52.600321 
L 39.046519 50.068277 
L 40.924121 47.241686 
L 42.579931 42.555691 
L 44.431492 35.805717 
L 46.137587 31.626345 
L 48.025964 21.198266 
L 50.003238 37.025682 
L 51.524356 46.65366 
L 53.558201 31.321086 
L 55.436701 25.079877 
L 57.07096 29.523806 
L 58.786034 29.183201 
L 60.53972 36.679721 
L 62.529565 12.201157 
L 64.179987 34.804253 
L 66.078242 29.967235 
L 67.815764 34.493638 
L 69.583817 35.046318 
L 71.385992 39.832994 
L 73.188167 40.434944 
L 74.966097 40.710212 
L 76.864352 40.725208 
L 78.616242 41.480322 
L 80.253195 41.051888 
L 82.20802 41.429981 
L 84.174518 27.957881 
L 85.673188 41.004761 
L 87.724093 17.696891 
L 89.523574 39.242827 
L 91.245832 38.769407 
L 92.929478 37.890047 
L 94.787325 38.027146 
L 96.381177 39.082164 
L 98.592814 38.591607 
L 100.126504 39.008259 
L 101.905332 39.8587 
L 103.584488 39.296381 
L 105.860777 38.707284 
L 107.215776 38.636593 
L 109.021542 37.976805 
L 110.910818 38.403096 
L 112.742625 38.781189 
" style="fill:none;stroke:#ff7f0e;stroke-linecap:square;"/>
   </g>
   <g id="patch_3">
    <path d="M 22.1525 67.824662 
L 22.1525 9.552419 
" style="fill:none;stroke:#000000;stroke-linecap:square;stroke-linejoin:miter;stroke-width:0.3;"/>
   </g>
   <g id="patch_4">
    <path d="M 117.05644 67.824662 
L 117.05644 9.552419 
" style="fill:none;stroke:#000000;stroke-linecap:square;stroke-linejoin:miter;stroke-width:0.3;"/>
   </g>
   <g id="patch_5">
    <path d="M 22.1525 67.824662 
L 117.05644 67.824662 
" style="fill:none;stroke:#000000;stroke-linecap:square;stroke-linejoin:miter;stroke-width:0.3;"/>
   </g>
   <g id="patch_6">
    <path d="M 22.1525 9.552419 
L 117.05644 9.552419 
" style="fill:none;stroke:#000000;stroke-linecap:square;stroke-linejoin:miter;stroke-width:0.3;"/>
   </g>
  </g>
 </g>
 <defs>
  <clipPath id="p2c8fb5d956">
   <rect height="58.272244" width="94.90394" x="22.1525" y="9.552419"/>
  </clipPath>
 </defs>
</svg>
