<?xml version="1.0" encoding="utf-8" standalone="no"?>
<!DOCTYPE svg PUBLIC "-//W3C//DTD SVG 1.1//EN"
  "http://www.w3.org/Graphics/SVG/1.1/DTD/svg11.dtd">
<!-- Created with matplotlib (http://matplotlib.org/) -->
<svg height="81pt" version="1.1" viewBox="0 0 121 81" width="121pt" xmlns="http://www.w3.org/2000/svg" xmlns:xlink="http://www.w3.org/1999/xlink">
 <defs>
  <style type="text/css">
*{stroke-linecap:butt;stroke-linejoin:round;}
  </style>
 </defs>
 <g id="figure_1">
  <g id="patch_1">
   <path d="M 0 81.65133 
L 121.80394 81.65133 
L 121.80394 0 
L 0 0 
z
" style="fill:#ffffff;"/>
  </g>
  <g id="axes_1">
   <g id="patch_2">
    <path d="M 19.7 65.501642 
L 114.60394 65.501642 
L 114.60394 7.229399 
L 19.7 7.229399 
z
" style="fill:#ffffff;"/>
   </g>
   <g id="matplotlib.axis_1">
    <g id="xtick_1">
     <g id="line2d_1">
      <path clip-path="url(#p725fcd5ce4)" d="M 33.393694 65.501642 
L 33.393694 7.229399 
" style="fill:none;opacity:0.1;stroke:#b0b0b0;stroke-linecap:square;stroke-width:0.1;"/>
     </g>
     <g id="line2d_2">
      <defs>
       <path d="M 0 0 
L 0 -2 
" id="mb17d92721c" style="stroke:#000000;stroke-width:0.3;"/>
      </defs>
      <g>
       <use style="stroke:#000000;stroke-width:0.3;" x="33.393694" xlink:href="#mb17d92721c" y="65.501642"/>
      </g>
     </g>
     <g id="text_1">
      <!-- 37 -->
      <defs>
       <path d="M 5.078125 53.609375 
Q 7.90625 60.296875 12.21875 63.9375 
Q 16.546875 67.578125 23 67.578125 
Q 30.953125 67.578125 35.203125 62.40625 
Q 38.421875 58.546875 38.421875 54.15625 
Q 38.421875 46.921875 29.34375 39.203125 
Q 35.453125 36.8125 38.578125 32.375 
Q 41.703125 27.9375 41.703125 21.921875 
Q 41.703125 13.328125 36.234375 7.03125 
Q 29.109375 -1.171875 15.578125 -1.171875 
Q 8.890625 -1.171875 6.46875 0.484375 
Q 4.046875 2.15625 4.046875 4.046875 
Q 4.046875 5.46875 5.1875 6.546875 
Q 6.34375 7.625 7.953125 7.625 
Q 9.1875 7.625 10.453125 7.234375 
Q 11.28125 6.984375 14.203125 5.4375 
Q 17.140625 3.90625 18.265625 3.609375 
Q 20.0625 3.078125 22.125 3.078125 
Q 27.09375 3.078125 30.78125 6.9375 
Q 34.46875 10.796875 34.46875 16.0625 
Q 34.46875 19.921875 32.765625 23.578125 
Q 31.5 26.3125 29.984375 27.734375 
Q 27.875 29.6875 24.21875 31.265625 
Q 20.5625 32.859375 16.75 32.859375 
L 15.1875 32.859375 
L 15.1875 34.328125 
Q 19.046875 34.8125 22.921875 37.109375 
Q 26.8125 39.40625 28.5625 42.625 
Q 30.328125 45.84375 30.328125 49.703125 
Q 30.328125 54.734375 27.171875 57.828125 
Q 24.03125 60.9375 19.34375 60.9375 
Q 11.765625 60.9375 6.6875 52.828125 
z
" id="TimesNewRomanPSMT-33"/>
       <path d="M 10.0625 66.21875 
L 45.5625 66.21875 
L 45.5625 64.359375 
L 23.484375 -1.375 
L 18.015625 -1.375 
L 37.796875 58.25 
L 19.578125 58.25 
Q 14.0625 58.25 11.71875 56.9375 
Q 7.625 54.6875 5.125 50 
L 3.71875 50.53125 
z
" id="TimesNewRomanPSMT-37"/>
      </defs>
      <g transform="translate(30.393694 73.167892)scale(0.06 -0.06)">
       <use xlink:href="#TimesNewRomanPSMT-33"/>
       <use x="50" xlink:href="#TimesNewRomanPSMT-37"/>
      </g>
     </g>
    </g>
    <g id="xtick_2">
     <g id="line2d_3">
      <path clip-path="url(#p725fcd5ce4)" d="M 52.741628 65.501642 
L 52.741628 7.229399 
" style="fill:none;opacity:0.1;stroke:#b0b0b0;stroke-linecap:square;stroke-width:0.1;"/>
     </g>
     <g id="line2d_4">
      <g>
       <use style="stroke:#000000;stroke-width:0.3;" x="52.741628" xlink:href="#mb17d92721c" y="65.501642"/>
      </g>
     </g>
     <g id="text_2">
      <!-- 38 -->
      <defs>
       <path d="M 19.1875 33.34375 
Q 11.328125 39.796875 9.046875 43.703125 
Q 6.78125 47.609375 6.78125 51.8125 
Q 6.78125 58.25 11.765625 62.90625 
Q 16.75 67.578125 25 67.578125 
Q 33.015625 67.578125 37.890625 63.234375 
Q 42.78125 58.890625 42.78125 53.328125 
Q 42.78125 49.609375 40.140625 45.75 
Q 37.5 41.890625 29.15625 36.671875 
Q 37.75 30.03125 40.53125 26.21875 
Q 44.234375 21.234375 44.234375 15.71875 
Q 44.234375 8.734375 38.90625 3.78125 
Q 33.59375 -1.171875 24.953125 -1.171875 
Q 15.53125 -1.171875 10.25 4.734375 
Q 6.0625 9.46875 6.0625 15.09375 
Q 6.0625 19.484375 9.015625 23.796875 
Q 11.96875 28.125 19.1875 33.34375 
z
M 26.859375 38.578125 
Q 32.71875 43.84375 34.28125 46.890625 
Q 35.84375 49.953125 35.84375 53.8125 
Q 35.84375 58.9375 32.953125 61.84375 
Q 30.078125 64.75 25.09375 64.75 
Q 20.125 64.75 17 61.859375 
Q 13.875 58.984375 13.875 55.125 
Q 13.875 52.59375 15.15625 50.046875 
Q 16.453125 47.515625 18.84375 45.21875 
z
M 21.484375 31.5 
Q 17.4375 28.078125 15.484375 24.046875 
Q 13.53125 20.015625 13.53125 15.328125 
Q 13.53125 9.03125 16.96875 5.25 
Q 20.40625 1.46875 25.734375 1.46875 
Q 31 1.46875 34.171875 4.4375 
Q 37.359375 7.421875 37.359375 11.671875 
Q 37.359375 15.1875 35.5 17.96875 
Q 32.03125 23.140625 21.484375 31.5 
z
" id="TimesNewRomanPSMT-38"/>
      </defs>
      <g transform="translate(49.741628 73.167892)scale(0.06 -0.06)">
       <use xlink:href="#TimesNewRomanPSMT-33"/>
       <use x="50" xlink:href="#TimesNewRomanPSMT-38"/>
      </g>
     </g>
    </g>
    <g id="xtick_3">
     <g id="line2d_5">
      <path clip-path="url(#p725fcd5ce4)" d="M 72.089563 65.501642 
L 72.089563 7.229399 
" style="fill:none;opacity:0.1;stroke:#b0b0b0;stroke-linecap:square;stroke-width:0.1;"/>
     </g>
     <g id="line2d_6">
      <g>
       <use style="stroke:#000000;stroke-width:0.3;" x="72.089563" xlink:href="#mb17d92721c" y="65.501642"/>
      </g>
     </g>
     <g id="text_3">
      <!-- 39 -->
      <defs>
       <path d="M 5.28125 -1.375 
L 5.28125 0.4375 
Q 11.625 0.53125 17.09375 3.390625 
Q 22.5625 6.25 27.65625 13.375 
Q 32.765625 20.515625 34.765625 29.046875 
Q 27.09375 24.125 20.90625 24.125 
Q 13.921875 24.125 8.9375 29.515625 
Q 3.953125 34.90625 3.953125 43.84375 
Q 3.953125 52.546875 8.9375 59.328125 
Q 14.9375 67.578125 24.609375 67.578125 
Q 32.765625 67.578125 38.578125 60.84375 
Q 45.703125 52.484375 45.703125 40.234375 
Q 45.703125 29.203125 40.28125 19.65625 
Q 34.859375 10.109375 25.203125 3.8125 
Q 17.328125 -1.375 8.0625 -1.375 
z
M 35.546875 32.671875 
Q 36.421875 39.015625 36.421875 42.828125 
Q 36.421875 47.5625 34.8125 53.046875 
Q 33.203125 58.546875 30.25 61.46875 
Q 27.296875 64.40625 23.53125 64.40625 
Q 19.1875 64.40625 15.90625 60.5 
Q 12.640625 56.59375 12.640625 48.875 
Q 12.640625 38.578125 17 32.765625 
Q 20.171875 28.5625 24.8125 28.5625 
Q 27.046875 28.5625 30.125 29.640625 
Q 33.203125 30.71875 35.546875 32.671875 
z
" id="TimesNewRomanPSMT-39"/>
      </defs>
      <g transform="translate(69.089563 73.167892)scale(0.06 -0.06)">
       <use xlink:href="#TimesNewRomanPSMT-33"/>
       <use x="50" xlink:href="#TimesNewRomanPSMT-39"/>
      </g>
     </g>
    </g>
    <g id="xtick_4">
     <g id="line2d_7">
      <path clip-path="url(#p725fcd5ce4)" d="M 91.437497 65.501642 
L 91.437497 7.229399 
" style="fill:none;opacity:0.1;stroke:#b0b0b0;stroke-linecap:square;stroke-width:0.1;"/>
     </g>
     <g id="line2d_8">
      <g>
       <use style="stroke:#000000;stroke-width:0.3;" x="91.437497" xlink:href="#mb17d92721c" y="65.501642"/>
      </g>
     </g>
     <g id="text_4">
      <!-- 40 -->
      <defs>
       <path d="M 46.53125 24.421875 
L 46.53125 17.484375 
L 37.640625 17.484375 
L 37.640625 0 
L 29.59375 0 
L 29.59375 17.484375 
L 1.5625 17.484375 
L 1.5625 23.734375 
L 32.28125 67.578125 
L 37.640625 67.578125 
L 37.640625 24.421875 
z
M 29.59375 24.421875 
L 29.59375 57.28125 
L 6.34375 24.421875 
z
" id="TimesNewRomanPSMT-34"/>
       <path d="M 3.609375 32.71875 
Q 3.609375 44.046875 7.03125 52.21875 
Q 10.453125 60.40625 16.109375 64.40625 
Q 20.515625 67.578125 25.203125 67.578125 
Q 32.8125 67.578125 38.875 59.8125 
Q 46.4375 50.203125 46.4375 33.734375 
Q 46.4375 22.21875 43.109375 14.15625 
Q 39.796875 6.109375 34.640625 2.46875 
Q 29.5 -1.171875 24.703125 -1.171875 
Q 15.234375 -1.171875 8.9375 10.015625 
Q 3.609375 19.4375 3.609375 32.71875 
z
M 13.1875 31.5 
Q 13.1875 17.828125 16.546875 9.1875 
Q 19.34375 1.90625 24.859375 1.90625 
Q 27.484375 1.90625 30.3125 4.265625 
Q 33.15625 6.640625 34.625 12.203125 
Q 36.859375 20.609375 36.859375 35.890625 
Q 36.859375 47.21875 34.515625 54.78125 
Q 32.765625 60.40625 29.984375 62.75 
Q 27.984375 64.359375 25.140625 64.359375 
Q 21.828125 64.359375 19.234375 61.375 
Q 15.71875 57.328125 14.453125 48.625 
Q 13.1875 39.9375 13.1875 31.5 
z
" id="TimesNewRomanPSMT-30"/>
      </defs>
      <g transform="translate(88.437497 73.167892)scale(0.06 -0.06)">
       <use xlink:href="#TimesNewRomanPSMT-34"/>
       <use x="50" xlink:href="#TimesNewRomanPSMT-30"/>
      </g>
     </g>
    </g>
    <g id="xtick_5">
     <g id="line2d_9">
      <path clip-path="url(#p725fcd5ce4)" d="M 110.785432 65.501642 
L 110.785432 7.229399 
" style="fill:none;opacity:0.1;stroke:#b0b0b0;stroke-linecap:square;stroke-width:0.1;"/>
     </g>
     <g id="line2d_10">
      <g>
       <use style="stroke:#000000;stroke-width:0.3;" x="110.785432" xlink:href="#mb17d92721c" y="65.501642"/>
      </g>
     </g>
     <g id="text_5">
      <!-- 41 -->
      <defs>
       <path d="M 11.71875 59.71875 
L 27.828125 67.578125 
L 29.4375 67.578125 
L 29.4375 11.671875 
Q 29.4375 6.109375 29.90625 4.734375 
Q 30.375 3.375 31.828125 2.640625 
Q 33.296875 1.90625 37.796875 1.8125 
L 37.796875 0 
L 12.890625 0 
L 12.890625 1.8125 
Q 17.578125 1.90625 18.9375 2.609375 
Q 20.3125 3.328125 20.84375 4.515625 
Q 21.390625 5.71875 21.390625 11.671875 
L 21.390625 47.40625 
Q 21.390625 54.640625 20.90625 56.6875 
Q 20.5625 58.25 19.65625 58.984375 
Q 18.75 59.71875 17.484375 59.71875 
Q 15.671875 59.71875 12.453125 58.203125 
z
" id="TimesNewRomanPSMT-31"/>
      </defs>
      <g transform="translate(107.785432 73.167892)scale(0.06 -0.06)">
       <use xlink:href="#TimesNewRomanPSMT-34"/>
       <use x="50" xlink:href="#TimesNewRomanPSMT-31"/>
      </g>
     </g>
    </g>
   </g>
   <g id="matplotlib.axis_2">
    <g id="ytick_1">
     <g id="line2d_11">
      <path clip-path="url(#p725fcd5ce4)" d="M 19.7 62.719314 
L 114.60394 62.719314 
" style="fill:none;opacity:0.1;stroke:#b0b0b0;stroke-linecap:square;stroke-width:0.1;"/>
     </g>
     <g id="line2d_12">
      <defs>
       <path d="M 0 0 
L 2 0 
" id="m685d6f7df6" style="stroke:#000000;stroke-width:0.3;"/>
      </defs>
      <g>
       <use style="stroke:#000000;stroke-width:0.3;" x="19.7" xlink:href="#m685d6f7df6" y="62.719314"/>
      </g>
     </g>
     <g id="text_6">
      <!-- 0 -->
      <g transform="translate(13.2 64.802439)scale(0.06 -0.06)">
       <use xlink:href="#TimesNewRomanPSMT-30"/>
      </g>
     </g>
    </g>
    <g id="ytick_2">
     <g id="line2d_13">
      <path clip-path="url(#p725fcd5ce4)" d="M 19.7 36.001219 
L 114.60394 36.001219 
" style="fill:none;opacity:0.1;stroke:#b0b0b0;stroke-linecap:square;stroke-width:0.1;"/>
     </g>
     <g id="line2d_14">
      <g>
       <use style="stroke:#000000;stroke-width:0.3;" x="19.7" xlink:href="#m685d6f7df6" y="36.001219"/>
      </g>
     </g>
     <g id="text_7">
      <!-- 200 -->
      <defs>
       <path d="M 45.84375 12.75 
L 41.21875 0 
L 2.15625 0 
L 2.15625 1.8125 
Q 19.390625 17.53125 26.421875 27.484375 
Q 33.453125 37.453125 33.453125 45.703125 
Q 33.453125 52 29.59375 56.046875 
Q 25.734375 60.109375 20.359375 60.109375 
Q 15.484375 60.109375 11.59375 57.25 
Q 7.71875 54.390625 5.859375 48.875 
L 4.046875 48.875 
Q 5.28125 57.90625 10.328125 62.734375 
Q 15.375 67.578125 22.953125 67.578125 
Q 31 67.578125 36.390625 62.40625 
Q 41.796875 57.234375 41.796875 50.203125 
Q 41.796875 45.171875 39.453125 40.140625 
Q 35.84375 32.234375 27.734375 23.390625 
Q 15.578125 10.109375 12.546875 7.375 
L 29.828125 7.375 
Q 35.109375 7.375 37.234375 7.765625 
Q 39.359375 8.15625 41.0625 9.34375 
Q 42.78125 10.546875 44.046875 12.75 
z
" id="TimesNewRomanPSMT-32"/>
      </defs>
      <g transform="translate(7.2 38.084344)scale(0.06 -0.06)">
       <use xlink:href="#TimesNewRomanPSMT-32"/>
       <use x="50" xlink:href="#TimesNewRomanPSMT-30"/>
       <use x="100" xlink:href="#TimesNewRomanPSMT-30"/>
      </g>
     </g>
    </g>
    <g id="ytick_3">
     <g id="line2d_15">
      <path clip-path="url(#p725fcd5ce4)" d="M 19.7 9.283125 
L 114.60394 9.283125 
" style="fill:none;opacity:0.1;stroke:#b0b0b0;stroke-linecap:square;stroke-width:0.1;"/>
     </g>
     <g id="line2d_16">
      <g>
       <use style="stroke:#000000;stroke-width:0.3;" x="19.7" xlink:href="#m685d6f7df6" y="9.283125"/>
      </g>
     </g>
     <g id="text_8">
      <!-- 400 -->
      <g transform="translate(7.2 11.36625)scale(0.06 -0.06)">
       <use xlink:href="#TimesNewRomanPSMT-34"/>
       <use x="50" xlink:href="#TimesNewRomanPSMT-30"/>
       <use x="100" xlink:href="#TimesNewRomanPSMT-30"/>
      </g>
     </g>
    </g>
   </g>
   <g id="line2d_17">
    <path clip-path="url(#p725fcd5ce4)" d="M 24.013815 31.191962 
L 24.356274 31.191962 
L 24.356274 31.191962 
L 24.356274 31.191962 
L 24.704537 31.191962 
L 24.704537 31.325553 
L 25.192105 31.325553 
L 25.192105 31.191962 
L 25.509411 31.191962 
L 25.509411 31.325553 
L 25.849934 31.191962 
L 25.849934 31.191962 
L 26.681896 31.191962 
L 26.681896 31.325553 
L 27.163659 31.325553 
L 27.163659 31.191962 
L 29.177779 31.191962 
L 29.177779 31.191962 
L 29.800783 31.058372 
L 29.800783 30.924781 
L 30.187741 30.924781 
L 30.187741 31.191962 
L 30.893941 31.191962 
L 30.893941 30.924781 
L 31.752989 30.924781 
L 31.752989 31.058372 
L 32.428232 31.058372 
L 32.428232 30.924781 
L 32.933213 30.924781 
L 32.933213 31.058372 
L 34.163742 31.058372 
L 34.163742 30.924781 
L 34.450091 30.924781 
L 34.450091 30.924781 
L 34.450091 62.852904 
L 35.995991 31.459143 
L 35.995991 31.726324 
L 36.307493 31.726324 
L 36.307493 31.993505 
L 36.818278 32.260686 
L 36.818278 33.062229 
L 37.541891 33.730181 
L 37.541891 34.398134 
L 37.895958 34.398134 
L 37.895958 35.066086 
L 38.280982 35.066086 
L 38.280982 35.600448 
L 38.696963 35.600448 
L 38.696963 35.867629 
L 39.0994 35.867629 
L 39.0994 36.001219 
L 39.834621 36.13481 
L 39.834621 35.867629 
L 40.215776 35.867629 
L 40.215776 35.466857 
L 40.577582 35.466857 
L 40.577582 34.932495 
L 41.018715 34.932495 
L 41.018715 34.531724 
L 41.411478 34.531724 
L 41.411478 34.130953 
L 41.842937 34.130953 
L 41.842937 33.730181 
L 42.123482 33.730181 
L 42.123482 33.596591 
L 42.60718 33.062229 
L 43.007683 33.062229 
L 43.007683 32.795048 
L 43.315315 32.795048 
L 43.315315 32.795048 
L 44.139537 32.394277 
L 44.139537 32.260686 
L 45.037281 32.260686 
L 45.037281 32.394277 
L 45.902134 32.394277 
L 45.902134 32.127096 
L 46.619942 32.127096 
L 46.619942 31.993505 
L 47.256489 31.592734 
L 47.256489 31.459143 
L 47.99558 31.191962 
L 47.99558 30.791191 
L 48.425104 30.791191 
L 48.425104 30.6576 
L 49.1255 30.52401 
L 49.1255 30.6576 
L 49.9207 30.6576 
L 49.9207 30.791191 
L 50.692682 30.791191 
L 50.692682 30.6576 
L 51.08351 30.6576 
L 51.08351 30.6576 
L 51.505295 30.52401 
L 51.505295 30.52401 
L 51.878711 30.52401 
L 51.878711 30.390419 
L 52.286952 30.390419 
L 52.286952 30.123239 
L 52.985412 30.123239 
L 52.985412 29.989648 
L 53.8077 29.989648 
L 53.8077 29.856058 
L 55.30136 29.856058 
L 55.30136 29.722467 
L 56.09656 29.722467 
L 56.09656 29.588877 
L 56.586063 29.588877 
L 56.586063 29.455286 
L 57.286458 29.455286 
L 57.286458 29.188105 
L 58.106811 29.188105 
L 58.106811 29.054515 
L 58.805271 28.920924 
L 58.805271 28.787334 
L 59.182556 28.787334 
L 59.182556 28.787334 
L 60.029995 28.653743 
L 60.029995 28.520153 
L 61.15411 28.520153 
L 61.15411 28.386562 
L 63.137274 27.985791 
L 63.493276 27.852201 
L 63.493276 27.852201 
L 64.083388 27.852201 
L 64.083388 27.71861 
L 64.240106 27.71861 
L 64.240106 27.58502 
L 64.592238 27.58502 
L 64.592238 27.58502 
L 65.103024 27.451429 
L 65.103024 27.317839 
L 66.585076 27.317839 
L 66.585076 27.184248 
L 66.925599 27.184248 
L 66.925599 27.050658 
L 67.75756 27.050658 
L 67.75756 26.917067 
L 68.430868 26.917067 
L 68.430868 26.783477 
L 68.856523 26.783477 
L 69.226069 26.649886 
L 69.226069 26.516296 
L 69.984508 26.516296 
L 69.984508 26.382705 
L 70.439184 26.382705 
L 70.439184 26.249115 
L 70.799056 26.249115 
L 70.799056 26.115524 
L 71.667778 26.115524 
L 71.667778 25.981934 
L 72.281107 25.848343 
L 72.281107 25.714753 
L 72.724175 25.714753 
L 72.724175 25.581163 
L 73.205939 25.581163 
L 73.205939 25.447572 
L 75.036253 24.91321 
L 75.479321 24.91321 
L 75.479321 24.646029 
L 76.942025 24.378848 
L 76.942025 24.245258 
L 77.396701 24.245258 
L 77.396701 24.245258 
L 77.741095 24.111667 
L 77.741095 24.111667 
L 78.139662 24.111667 
L 78.139662 23.978077 
L 78.913579 23.978077 
L 78.913579 23.710896 
L 79.362451 23.710896 
L 79.362451 23.844486 
L 79.772628 23.710896 
L 79.772628 23.577305 
L 81.363028 23.577305 
L 81.363028 23.844486 
L 81.604877 23.844486 
L 81.604877 24.512439 
L 81.989901 24.512439 
L 81.989901 25.046801 
L 82.405882 25.046801 
L 82.405882 25.714753 
L 82.790905 25.714753 
L 82.790905 26.649886 
L 83.210756 26.649886 
L 83.210756 27.58502 
L 83.599649 27.58502 
L 83.599649 28.520153 
L 84.004021 28.520153 
L 84.004021 29.588877 
L 84.462567 30.52401 
L 84.462567 31.726324 
L 85.191984 32.527867 
L 85.191984 33.596591 
L 86.347056 35.466857 
L 86.347056 36.535581 
L 86.645014 36.535581 
L 86.645014 37.337124 
L 87.039712 37.337124 
L 87.039712 38.272257 
L 87.416997 38.272257 
L 87.416997 39.207391 
L 87.825238 40.008933 
L 87.825238 40.944067 
L 88.581742 40.944067 
L 88.581742 41.74561 
L 89.137028 42.413562 
L 89.137028 42.947924 
L 89.297616 42.947924 
L 89.297616 43.348695 
L 89.808401 43.348695 
L 89.808401 43.348695 
L 90.543623 42.547152 
L 90.543623 41.74561 
L 91.004104 41.74561 
L 91.004104 40.810476 
L 91.271105 40.810476 
L 91.271105 39.608162 
L 91.764477 39.608162 
L 91.764477 38.539438 
L 92.075979 38.539438 
L 92.075979 37.337124 
L 92.437786 37.337124 
L 92.437786 36.13481 
L 94.076556 31.726324 
L 94.076556 31.058372 
L 94.40547 31.058372 
L 94.40547 30.52401 
L 95.012996 30.52401 
L 95.012996 29.989648 
L 95.608912 29.321696 
L 95.608912 28.787334 
L 95.984262 28.787334 
L 95.984262 28.252972 
L 96.831701 27.050658 
L 96.831701 26.249115 
L 97.060007 26.249115 
L 97.060007 25.581163 
L 97.528227 25.581163 
L 97.528227 24.91321 
L 98.414362 24.111667 
L 98.414362 23.310124 
L 99.128301 21.840629 
L 99.128301 21.172677 
L 99.904153 20.504725 
L 99.904153 19.703182 
L 100.250481 19.703182 
L 100.250481 19.035229 
L 100.716767 18.367277 
L 100.716767 17.565734 
L 101.318487 17.565734 
L 101.318487 16.764191 
L 101.707381 16.096239 
L 101.707381 15.428287 
L 102.146579 15.428287 
L 102.146579 14.760334 
L 102.678647 14.092382 
L 102.678647 13.42443 
L 103.274564 12.756477 
L 103.274564 12.088525 
L 103.73311 12.088525 
L 103.73311 11.286982 
L 104.092981 11.286982 
L 104.092981 10.75262 
L 104.642463 10.218258 
L 104.642463 9.951077 
L 106.062601 9.951077 
L 106.062601 10.351849 
L 106.416668 10.351849 
L 106.416668 10.75262 
L 106.836518 10.75262 
L 106.836518 11.420573 
L 107.654936 13.023658 
L 107.654936 13.825201 
L 107.941285 13.825201 
L 107.941285 14.626744 
L 108.345657 14.626744 
L 108.345657 15.561877 
L 109.092487 16.36342 
L 109.092487 17.164963 
L 109.876079 20.371134 
L 109.876079 19.30241 
L 110.290125 19.30241 
L 110.290125 19.970363 
L 110.290125 19.970363 
" style="fill:none;stroke:#1f77b4;stroke-linecap:square;"/>
   </g>
   <g id="line2d_18">
    <path clip-path="url(#p725fcd5ce4)" d="M 24.013815 31.217344 
L 25.192105 31.230837 
L 25.509411 31.317137 
L 25.849934 31.226028 
L 26.337502 31.23244 
L 26.681896 31.361355 
L 27.552553 31.214005 
L 29.336432 31.236047 
L 29.800783 30.969534 
L 30.187741 31.214272 
L 30.534069 31.172325 
L 30.893941 30.910621 
L 31.360226 30.899399 
L 31.752989 31.072532 
L 33.651022 31.082819 
L 34.450091 30.9169 
L 35.196922 30.777565 
L 35.541315 30.784779 
L 36.818278 32.910871 
L 37.147193 32.847282 
L 37.541891 34.39613 
L 38.280982 35.635983 
L 39.0994 36.002822 
L 39.459271 36.037823 
L 39.834621 35.883259 
L 41.842937 33.876062 
L 42.123482 33.697719 
L 43.007683 32.934917 
L 43.315315 32.869191 
L 43.696469 32.908733 
L 44.139537 32.307042 
L 46.082069 32.326413 
L 46.619942 32.003257 
L 46.821161 32.046273 
L 47.256489 31.55947 
L 47.641513 31.562275 
L 47.99558 30.85331 
L 48.425104 30.684986 
L 49.9207 30.74243 
L 50.354093 30.743232 
L 50.692682 30.629546 
L 51.08351 30.650921 
L 51.878711 30.449734 
L 52.286952 30.166121 
L 52.594584 30.168125 
L 52.985412 30.014229 
L 53.534894 30.067665 
L 53.8077 29.862069 
L 56.09656 29.561223 
L 58.106811 29.087645 
L 58.44153 29.094725 
L 58.805271 28.788403 
L 59.521145 28.727218 
L 60.029995 28.470591 
L 60.722651 28.580269 
L 61.438525 28.41328 
L 61.960919 28.337935 
L 62.309182 28.125794 
L 63.137274 28.057796 
L 63.493276 27.871571 
L 64.592238 27.57834 
L 65.103024 27.266673 
L 65.793745 27.290453 
L 66.140073 27.301541 
L 66.925599 27.08459 
L 67.295145 27.076708 
L 67.75756 26.862696 
L 68.856523 26.780271 
L 69.226069 26.516029 
L 69.669136 26.555705 
L 70.439184 26.147853 
L 71.174406 26.210641 
L 71.950258 26.011324 
L 72.281107 25.626717 
L 73.515506 25.358601 
L 74.720882 25.437954 
L 75.036253 24.933382 
L 76.942025 24.215868 
L 77.741095 24.071056 
L 78.913579 23.68685 
L 79.362451 23.752977 
L 79.772628 23.4361 
L 80.486566 23.408046 
L 80.774851 23.340316 
L 81.363028 23.745095 
L 81.604877 24.503488 
L 82.405882 25.732654 
L 84.004021 29.567903 
L 84.462567 31.695598 
L 84.66572 31.711763 
L 85.191984 33.543155 
L 85.886575 33.514433 
L 86.347056 36.534379 
L 87.825238 41.162888 
L 88.190914 41.298749 
L 88.581742 41.794771 
L 89.297616 43.405605 
L 90.110229 43.336538 
L 90.543623 41.748816 
L 91.004104 40.826641 
L 91.271105 39.674957 
L 91.764477 38.647914 
L 92.437786 36.268935 
L 93.240725 36.556956 
L 93.652836 36.678657 
L 94.076556 31.2633 
L 94.40547 30.73535 
L 95.012996 30.141407 
L 95.212279 30.171465 
L 95.608912 28.708248 
L 95.984262 28.270205 
L 96.270611 28.263392 
L 97.060007 25.575819 
L 97.528227 24.918955 
L 97.87649 24.755707 
L 98.414362 23.253883 
L 98.712321 23.166381 
L 99.128301 21.073152 
L 99.375955 21.001414 
L 100.716767 17.423728 
L 100.976029 17.298687 
L 101.318487 16.67856 
L 101.707381 15.274791 
L 102.146579 14.481531 
L 102.678647 13.09927 
L 102.910822 12.898083 
L 103.274564 11.653688 
L 103.73311 10.775197 
L 104.092981 10.631186 
L 104.642463 9.878137 
L 105.375749 10.290798 
L 106.062601 10.897699 
L 106.416668 11.168087 
L 106.836518 11.914724 
L 107.161564 12.258185 
L 107.654936 14.232518 
L 108.345657 15.790584 
L 108.691985 15.938068 
L 109.092487 17.332084 
L 109.516207 17.621174 
L 109.876079 19.407813 
L 110.290125 20.077769 
L 110.290125 20.077769 
" style="fill:none;stroke:#ff7f0e;stroke-linecap:square;"/>
   </g>
   <g id="patch_3">
    <path d="M 19.7 65.501642 
L 19.7 7.229399 
" style="fill:none;stroke:#000000;stroke-linecap:square;stroke-linejoin:miter;stroke-width:0.3;"/>
   </g>
   <g id="patch_4">
    <path d="M 114.60394 65.501642 
L 114.60394 7.229399 
" style="fill:none;stroke:#000000;stroke-linecap:square;stroke-linejoin:miter;stroke-width:0.3;"/>
   </g>
   <g id="patch_5">
    <path d="M 19.7 65.501642 
L 114.60394 65.501642 
" style="fill:none;stroke:#000000;stroke-linecap:square;stroke-linejoin:miter;stroke-width:0.3;"/>
   </g>
   <g id="patch_6">
    <path d="M 19.7 7.229399 
L 114.60394 7.229399 
" style="fill:none;stroke:#000000;stroke-linecap:square;stroke-linejoin:miter;stroke-width:0.3;"/>
   </g>
  </g>
 </g>
 <defs>
  <clipPath id="p725fcd5ce4">
   <rect height="58.272244" width="94.90394" x="19.7" y="7.229399"/>
  </clipPath>
 </defs>
</svg>
