<?xml version="1.0" encoding="utf-8" standalone="no"?>
<!DOCTYPE svg PUBLIC "-//W3C//DTD SVG 1.1//EN"
  "http://www.w3.org/Graphics/SVG/1.1/DTD/svg11.dtd">
<!-- Created with matplotlib (http://matplotlib.org/) -->
<svg height="81pt" version="1.1" viewBox="0 0 121 81" width="121pt" xmlns="http://www.w3.org/2000/svg" xmlns:xlink="http://www.w3.org/1999/xlink">
 <defs>
  <style type="text/css">
*{stroke-linecap:butt;stroke-linejoin:round;}
  </style>
 </defs>
 <g id="figure_1">
  <g id="patch_1">
   <path d="M 0 81.621931 
L 121.80394 81.621931 
L 121.80394 0 
L 0 0 
z
" style="fill:#ffffff;"/>
  </g>
  <g id="axes_1">
   <g id="patch_2">
    <path d="M 19.7 65.472244 
L 114.60394 65.472244 
L 114.60394 7.2 
L 19.7 7.2 
z
" style="fill:#ffffff;"/>
   </g>
   <g id="matplotlib.axis_1">
    <g id="xtick_1">
     <g id="line2d_1">
      <path clip-path="url(#p48835e87e4)" d="M 45.911863 65.472244 
L 45.911863 7.2 
" style="fill:none;opacity:0.1;stroke:#b0b0b0;stroke-linecap:square;stroke-width:0.1;"/>
     </g>
     <g id="line2d_2">
      <defs>
       <path d="M 0 0 
L 0 -2 
" id="mecc0776c0d" style="stroke:#000000;stroke-width:0.3;"/>
      </defs>
      <g>
       <use style="stroke:#000000;stroke-width:0.3;" x="45.911863" xlink:href="#mecc0776c0d" y="65.472244"/>
      </g>
     </g>
     <g id="text_1">
      <!-- 64 -->
      <defs>
       <path d="M 44.828125 67.578125 
L 44.828125 65.765625 
Q 38.375 65.140625 34.296875 63.203125 
Q 30.21875 61.28125 26.234375 57.328125 
Q 22.265625 53.375 19.65625 48.515625 
Q 17.046875 43.65625 15.28125 36.96875 
Q 22.3125 41.796875 29.390625 41.796875 
Q 36.1875 41.796875 41.15625 36.328125 
Q 46.140625 30.859375 46.140625 22.265625 
Q 46.140625 13.96875 41.109375 7.125 
Q 35.0625 -1.171875 25.09375 -1.171875 
Q 18.3125 -1.171875 13.578125 3.328125 
Q 4.296875 12.0625 4.296875 25.984375 
Q 4.296875 34.859375 7.859375 42.859375 
Q 11.421875 50.875 18.03125 57.078125 
Q 24.65625 63.28125 30.703125 65.421875 
Q 36.765625 67.578125 42 67.578125 
z
M 14.453125 33.40625 
Q 13.578125 26.8125 13.578125 22.75 
Q 13.578125 18.0625 15.3125 12.5625 
Q 17.046875 7.078125 20.453125 3.859375 
Q 22.953125 1.5625 26.515625 1.5625 
Q 30.765625 1.5625 34.109375 5.5625 
Q 37.453125 9.578125 37.453125 17 
Q 37.453125 25.34375 34.125 31.4375 
Q 30.8125 37.546875 24.703125 37.546875 
Q 22.859375 37.546875 20.734375 36.765625 
Q 18.609375 35.984375 14.453125 33.40625 
z
" id="TimesNewRomanPSMT-36"/>
       <path d="M 46.53125 24.421875 
L 46.53125 17.484375 
L 37.640625 17.484375 
L 37.640625 0 
L 29.59375 0 
L 29.59375 17.484375 
L 1.5625 17.484375 
L 1.5625 23.734375 
L 32.28125 67.578125 
L 37.640625 67.578125 
L 37.640625 24.421875 
z
M 29.59375 24.421875 
L 29.59375 57.28125 
L 6.34375 24.421875 
z
" id="TimesNewRomanPSMT-34"/>
      </defs>
      <g transform="translate(42.911863 73.138494)scale(0.06 -0.06)">
       <use xlink:href="#TimesNewRomanPSMT-36"/>
       <use x="50" xlink:href="#TimesNewRomanPSMT-34"/>
      </g>
     </g>
    </g>
    <g id="xtick_2">
     <g id="line2d_3">
      <path clip-path="url(#p48835e87e4)" d="M 75.317057 65.472244 
L 75.317057 7.2 
" style="fill:none;opacity:0.1;stroke:#b0b0b0;stroke-linecap:square;stroke-width:0.1;"/>
     </g>
     <g id="line2d_4">
      <g>
       <use style="stroke:#000000;stroke-width:0.3;" x="75.317057" xlink:href="#mecc0776c0d" y="65.472244"/>
      </g>
     </g>
     <g id="text_2">
      <!-- 66 -->
      <g transform="translate(72.317057 73.138494)scale(0.06 -0.06)">
       <use xlink:href="#TimesNewRomanPSMT-36"/>
       <use x="50" xlink:href="#TimesNewRomanPSMT-36"/>
      </g>
     </g>
    </g>
    <g id="xtick_3">
     <g id="line2d_5">
      <path clip-path="url(#p48835e87e4)" d="M 104.722251 65.472244 
L 104.722251 7.2 
" style="fill:none;opacity:0.1;stroke:#b0b0b0;stroke-linecap:square;stroke-width:0.1;"/>
     </g>
     <g id="line2d_6">
      <g>
       <use style="stroke:#000000;stroke-width:0.3;" x="104.722251" xlink:href="#mecc0776c0d" y="65.472244"/>
      </g>
     </g>
     <g id="text_3">
      <!-- 68 -->
      <defs>
       <path d="M 19.1875 33.34375 
Q 11.328125 39.796875 9.046875 43.703125 
Q 6.78125 47.609375 6.78125 51.8125 
Q 6.78125 58.25 11.765625 62.90625 
Q 16.75 67.578125 25 67.578125 
Q 33.015625 67.578125 37.890625 63.234375 
Q 42.78125 58.890625 42.78125 53.328125 
Q 42.78125 49.609375 40.140625 45.75 
Q 37.5 41.890625 29.15625 36.671875 
Q 37.75 30.03125 40.53125 26.21875 
Q 44.234375 21.234375 44.234375 15.71875 
Q 44.234375 8.734375 38.90625 3.78125 
Q 33.59375 -1.171875 24.953125 -1.171875 
Q 15.53125 -1.171875 10.25 4.734375 
Q 6.0625 9.46875 6.0625 15.09375 
Q 6.0625 19.484375 9.015625 23.796875 
Q 11.96875 28.125 19.1875 33.34375 
z
M 26.859375 38.578125 
Q 32.71875 43.84375 34.28125 46.890625 
Q 35.84375 49.953125 35.84375 53.8125 
Q 35.84375 58.9375 32.953125 61.84375 
Q 30.078125 64.75 25.09375 64.75 
Q 20.125 64.75 17 61.859375 
Q 13.875 58.984375 13.875 55.125 
Q 13.875 52.59375 15.15625 50.046875 
Q 16.453125 47.515625 18.84375 45.21875 
z
M 21.484375 31.5 
Q 17.4375 28.078125 15.484375 24.046875 
Q 13.53125 20.015625 13.53125 15.328125 
Q 13.53125 9.03125 16.96875 5.25 
Q 20.40625 1.46875 25.734375 1.46875 
Q 31 1.46875 34.171875 4.4375 
Q 37.359375 7.421875 37.359375 11.671875 
Q 37.359375 15.1875 35.5 17.96875 
Q 32.03125 23.140625 21.484375 31.5 
z
" id="TimesNewRomanPSMT-38"/>
      </defs>
      <g transform="translate(101.722251 73.138494)scale(0.06 -0.06)">
       <use xlink:href="#TimesNewRomanPSMT-36"/>
       <use x="50" xlink:href="#TimesNewRomanPSMT-38"/>
      </g>
     </g>
    </g>
   </g>
   <g id="matplotlib.axis_2">
    <g id="ytick_1">
     <g id="line2d_7">
      <path clip-path="url(#p48835e87e4)" d="M 19.7 62.741321 
L 114.60394 62.741321 
" style="fill:none;opacity:0.1;stroke:#b0b0b0;stroke-linecap:square;stroke-width:0.1;"/>
     </g>
     <g id="line2d_8">
      <defs>
       <path d="M 0 0 
L 2 0 
" id="m0dc729bba9" style="stroke:#000000;stroke-width:0.3;"/>
      </defs>
      <g>
       <use style="stroke:#000000;stroke-width:0.3;" x="19.7" xlink:href="#m0dc729bba9" y="62.741321"/>
      </g>
     </g>
     <g id="text_4">
      <!-- 0 -->
      <defs>
       <path d="M 3.609375 32.71875 
Q 3.609375 44.046875 7.03125 52.21875 
Q 10.453125 60.40625 16.109375 64.40625 
Q 20.515625 67.578125 25.203125 67.578125 
Q 32.8125 67.578125 38.875 59.8125 
Q 46.4375 50.203125 46.4375 33.734375 
Q 46.4375 22.21875 43.109375 14.15625 
Q 39.796875 6.109375 34.640625 2.46875 
Q 29.5 -1.171875 24.703125 -1.171875 
Q 15.234375 -1.171875 8.9375 10.015625 
Q 3.609375 19.4375 3.609375 32.71875 
z
M 13.1875 31.5 
Q 13.1875 17.828125 16.546875 9.1875 
Q 19.34375 1.90625 24.859375 1.90625 
Q 27.484375 1.90625 30.3125 4.265625 
Q 33.15625 6.640625 34.625 12.203125 
Q 36.859375 20.609375 36.859375 35.890625 
Q 36.859375 47.21875 34.515625 54.78125 
Q 32.765625 60.40625 29.984375 62.75 
Q 27.984375 64.359375 25.140625 64.359375 
Q 21.828125 64.359375 19.234375 61.375 
Q 15.71875 57.328125 14.453125 48.625 
Q 13.1875 39.9375 13.1875 31.5 
z
" id="TimesNewRomanPSMT-30"/>
      </defs>
      <g transform="translate(13.2 64.824446)scale(0.06 -0.06)">
       <use xlink:href="#TimesNewRomanPSMT-30"/>
      </g>
     </g>
    </g>
    <g id="ytick_2">
     <g id="line2d_9">
      <path clip-path="url(#p48835e87e4)" d="M 19.7 46.304487 
L 114.60394 46.304487 
" style="fill:none;opacity:0.1;stroke:#b0b0b0;stroke-linecap:square;stroke-width:0.1;"/>
     </g>
     <g id="line2d_10">
      <g>
       <use style="stroke:#000000;stroke-width:0.3;" x="19.7" xlink:href="#m0dc729bba9" y="46.304487"/>
      </g>
     </g>
     <g id="text_5">
      <!-- 200 -->
      <defs>
       <path d="M 45.84375 12.75 
L 41.21875 0 
L 2.15625 0 
L 2.15625 1.8125 
Q 19.390625 17.53125 26.421875 27.484375 
Q 33.453125 37.453125 33.453125 45.703125 
Q 33.453125 52 29.59375 56.046875 
Q 25.734375 60.109375 20.359375 60.109375 
Q 15.484375 60.109375 11.59375 57.25 
Q 7.71875 54.390625 5.859375 48.875 
L 4.046875 48.875 
Q 5.28125 57.90625 10.328125 62.734375 
Q 15.375 67.578125 22.953125 67.578125 
Q 31 67.578125 36.390625 62.40625 
Q 41.796875 57.234375 41.796875 50.203125 
Q 41.796875 45.171875 39.453125 40.140625 
Q 35.84375 32.234375 27.734375 23.390625 
Q 15.578125 10.109375 12.546875 7.375 
L 29.828125 7.375 
Q 35.109375 7.375 37.234375 7.765625 
Q 39.359375 8.15625 41.0625 9.34375 
Q 42.78125 10.546875 44.046875 12.75 
z
" id="TimesNewRomanPSMT-32"/>
      </defs>
      <g transform="translate(7.2 48.387612)scale(0.06 -0.06)">
       <use xlink:href="#TimesNewRomanPSMT-32"/>
       <use x="50" xlink:href="#TimesNewRomanPSMT-30"/>
       <use x="100" xlink:href="#TimesNewRomanPSMT-30"/>
      </g>
     </g>
    </g>
    <g id="ytick_3">
     <g id="line2d_11">
      <path clip-path="url(#p48835e87e4)" d="M 19.7 29.867652 
L 114.60394 29.867652 
" style="fill:none;opacity:0.1;stroke:#b0b0b0;stroke-linecap:square;stroke-width:0.1;"/>
     </g>
     <g id="line2d_12">
      <g>
       <use style="stroke:#000000;stroke-width:0.3;" x="19.7" xlink:href="#m0dc729bba9" y="29.867652"/>
      </g>
     </g>
     <g id="text_6">
      <!-- 400 -->
      <g transform="translate(7.2 31.950777)scale(0.06 -0.06)">
       <use xlink:href="#TimesNewRomanPSMT-34"/>
       <use x="50" xlink:href="#TimesNewRomanPSMT-30"/>
       <use x="100" xlink:href="#TimesNewRomanPSMT-30"/>
      </g>
     </g>
    </g>
    <g id="ytick_4">
     <g id="line2d_13">
      <path clip-path="url(#p48835e87e4)" d="M 19.7 13.430818 
L 114.60394 13.430818 
" style="fill:none;opacity:0.1;stroke:#b0b0b0;stroke-linecap:square;stroke-width:0.1;"/>
     </g>
     <g id="line2d_14">
      <g>
       <use style="stroke:#000000;stroke-width:0.3;" x="19.7" xlink:href="#m0dc729bba9" y="13.430818"/>
      </g>
     </g>
     <g id="text_7">
      <!-- 600 -->
      <g transform="translate(7.2 15.513943)scale(0.06 -0.06)">
       <use xlink:href="#TimesNewRomanPSMT-36"/>
       <use x="50" xlink:href="#TimesNewRomanPSMT-30"/>
       <use x="100" xlink:href="#TimesNewRomanPSMT-30"/>
      </g>
     </g>
    </g>
   </g>
   <g id="line2d_15">
    <path clip-path="url(#p48835e87e4)" d="M 24.013815 62.823505 
L 94.905327 62.823505 
L 95.583117 49.427485 
L 95.583117 24.936602 
L 95.794834 24.936602 
L 95.794834 62.823505 
L 101.055423 62.823505 
L 101.680284 25.840628 
L 101.680284 10.71874 
L 101.959633 10.71874 
L 101.959633 11.70495 
L 102.268388 11.70495 
L 102.268388 12.608976 
L 102.521272 12.608976 
L 102.521272 13.184265 
L 102.856492 13.841739 
L 102.856492 14.088291 
L 103.232878 14.088291 
L 103.232878 14.745764 
L 103.769523 14.745764 
L 103.769523 14.827949 
L 104.022408 14.992317 
L 104.022408 14.827949 
L 104.975136 14.827949 
L 104.975136 14.66358 
L 105.457381 14.66358 
L 105.457381 14.417028 
L 106.342477 14.006107 
L 106.342477 62.823505 
L 106.664464 62.823505 
L 107.058494 13.759554 
L 107.058494 13.759554 
L 107.058494 62.823505 
L 107.428999 13.102081 
L 107.927417 13.102081 
L 107.927417 12.69116 
L 107.927417 12.69116 
L 107.927417 12.69116 
L 107.927417 62.823505 
L 108.419954 12.280239 
L 108.419954 62.823505 
L 108.816924 11.951503 
L 109.002177 62.823505 
L 109.306521 11.787134 
L 109.306521 11.787134 
L 109.306521 62.823505 
L 109.894625 11.376213 
L 110.290125 11.376213 
L 110.290125 11.129661 
L 110.290125 11.129661 
L 110.290125 11.129661 
L 110.290125 62.823505 
L 110.290125 62.823505 
" style="fill:none;stroke:#1f77b4;stroke-linecap:square;"/>
   </g>
   <g id="line2d_16">
    <path clip-path="url(#p48835e87e4)" d="M 24.013815 48.165712 
L 24.357856 48.052215 
L 24.597509 48.084514 
L 25.185612 48.53365 
L 29.966897 53.78826 
L 30.790242 53.792122 
L 31.950277 53.672955 
L 32.950054 53.814476 
L 36.83301 53.620933 
L 37.244682 53.461331 
L 38.238578 52.919573 
L 39.091329 52.739672 
L 40.171969 52.792352 
L 42.075956 53.045808 
L 42.577314 53.142703 
L 43.163948 53.208943 
L 43.705004 53.110158 
L 44.338685 52.887439 
L 45.475196 52.795886 
L 46.719036 53.218888 
L 47.226276 53.622823 
L 49.074392 55.451782 
L 49.683079 55.712914 
L 50.340286 55.820485 
L 51.137166 55.67243 
L 52.926472 55.440433 
L 53.696888 55.536186 
L 54.068864 55.436324 
L 55.505308 54.398477 
L 56.175746 53.930274 
L 56.709451 53.811271 
L 57.344603 53.824256 
L 57.854783 54.015828 
L 59.119206 54.960937 
L 59.945492 55.716243 
L 60.502721 55.973742 
L 60.768838 56.060997 
L 61.712744 56.134429 
L 63.747584 56.14614 
L 64.354801 55.840694 
L 65.303118 54.900524 
L 66.10588 54.066042 
L 66.677811 53.743387 
L 67.326196 53.716595 
L 69.624212 54.126941 
L 70.272596 54.164992 
L 71.359118 54.398313 
L 72.286852 54.474497 
L 72.655887 54.527325 
L 74.273173 54.182579 
L 75.192085 54.235342 
L 76.437395 54.329853 
L 78.198766 54.210275 
L 79.114738 54.550855 
L 79.623448 54.917273 
L 80.465907 55.461234 
L 81.089297 55.581625 
L 82.900657 55.319597 
L 83.76811 55.079102 
L 84.304755 54.848419 
L 85.52066 54.012047 
L 86.443983 53.653231 
L 87.565791 53.581649 
L 89.055164 53.897729 
L 91.973629 55.514218 
L 94.07316 57.329559 
L 94.905327 57.521977 
L 95.267011 57.584799 
L 95.583117 24.460838 
L 95.794834 25.964479 
L 96.416754 26.429395 
L 97.24451 27.044544 
L 98.730943 28.237611 
L 99.929205 29.039236 
L 101.055423 30.184472 
L 101.472977 30.703547 
L 101.680284 11.106978 
L 102.268388 12.986201 
L 102.521272 13.36844 
L 102.856492 14.226525 
L 103.232878 14.679853 
L 103.438714 14.491733 
L 104.022408 14.603339 
L 104.642857 14.304682 
L 104.975136 14.195706 
L 105.195675 13.847409 
L 105.457381 14.088455 
L 106.066068 13.115888 
L 106.342477 13.458678 
L 106.664464 12.713843 
L 107.058494 12.778851 
L 107.656889 11.393061 
L 107.927417 12.046425 
L 108.17001 11.534911 
L 108.419954 11.663858 
L 109.002177 10.626447 
L 109.306521 11.052654 
L 109.64174 10.145588 
L 109.894625 10.562344 
L 110.290125 9.848738 
L 110.290125 9.848738 
" style="fill:none;stroke:#ff7f0e;stroke-linecap:square;"/>
   </g>
   <g id="patch_3">
    <path d="M 19.7 65.472244 
L 19.7 7.2 
" style="fill:none;stroke:#000000;stroke-linecap:square;stroke-linejoin:miter;stroke-width:0.3;"/>
   </g>
   <g id="patch_4">
    <path d="M 114.60394 65.472244 
L 114.60394 7.2 
" style="fill:none;stroke:#000000;stroke-linecap:square;stroke-linejoin:miter;stroke-width:0.3;"/>
   </g>
   <g id="patch_5">
    <path d="M 19.7 65.472244 
L 114.60394 65.472244 
" style="fill:none;stroke:#000000;stroke-linecap:square;stroke-linejoin:miter;stroke-width:0.3;"/>
   </g>
   <g id="patch_6">
    <path d="M 19.7 7.2 
L 114.60394 7.2 
" style="fill:none;stroke:#000000;stroke-linecap:square;stroke-linejoin:miter;stroke-width:0.3;"/>
   </g>
  </g>
 </g>
 <defs>
  <clipPath id="p48835e87e4">
   <rect height="58.272244" width="94.90394" x="19.7" y="7.2"/>
  </clipPath>
 </defs>
</svg>
