<?xml version="1.0" encoding="utf-8" standalone="no"?>
<!DOCTYPE svg PUBLIC "-//W3C//DTD SVG 1.1//EN"
  "http://www.w3.org/Graphics/SVG/1.1/DTD/svg11.dtd">
<!-- Created with matplotlib (http://matplotlib.org/) -->
<svg height="81pt" version="1.1" viewBox="0 0 121 81" width="121pt" xmlns="http://www.w3.org/2000/svg" xmlns:xlink="http://www.w3.org/1999/xlink">
 <defs>
  <style type="text/css">
*{stroke-linecap:butt;stroke-linejoin:round;}
  </style>
 </defs>
 <g id="figure_1">
  <g id="patch_1">
   <path d="M 0 81.621931 
L 121.80394 81.621931 
L 121.80394 0 
L 0 0 
z
" style="fill:#ffffff;"/>
  </g>
  <g id="axes_1">
   <g id="patch_2">
    <path d="M 19.7 65.472244 
L 114.60394 65.472244 
L 114.60394 7.2 
L 19.7 7.2 
z
" style="fill:#ffffff;"/>
   </g>
   <g id="matplotlib.axis_1">
    <g id="xtick_1">
     <g id="line2d_1">
      <path clip-path="url(#pe23c182950)" d="M 23.379636 65.472244 
L 23.379636 7.2 
" style="fill:none;opacity:0.1;stroke:#b0b0b0;stroke-linecap:square;stroke-width:0.1;"/>
     </g>
     <g id="line2d_2">
      <defs>
       <path d="M 0 0 
L 0 -2 
" id="mb5cc5ba79d" style="stroke:#000000;stroke-width:0.3;"/>
      </defs>
      <g>
       <use style="stroke:#000000;stroke-width:0.3;" x="23.379636" xlink:href="#mb5cc5ba79d" y="65.472244"/>
      </g>
     </g>
     <g id="text_1">
      <!-- 35 -->
      <defs>
       <path d="M 5.078125 53.609375 
Q 7.90625 60.296875 12.21875 63.9375 
Q 16.546875 67.578125 23 67.578125 
Q 30.953125 67.578125 35.203125 62.40625 
Q 38.421875 58.546875 38.421875 54.15625 
Q 38.421875 46.921875 29.34375 39.203125 
Q 35.453125 36.8125 38.578125 32.375 
Q 41.703125 27.9375 41.703125 21.921875 
Q 41.703125 13.328125 36.234375 7.03125 
Q 29.109375 -1.171875 15.578125 -1.171875 
Q 8.890625 -1.171875 6.46875 0.484375 
Q 4.046875 2.15625 4.046875 4.046875 
Q 4.046875 5.46875 5.1875 6.546875 
Q 6.34375 7.625 7.953125 7.625 
Q 9.1875 7.625 10.453125 7.234375 
Q 11.28125 6.984375 14.203125 5.4375 
Q 17.140625 3.90625 18.265625 3.609375 
Q 20.0625 3.078125 22.125 3.078125 
Q 27.09375 3.078125 30.78125 6.9375 
Q 34.46875 10.796875 34.46875 16.0625 
Q 34.46875 19.921875 32.765625 23.578125 
Q 31.5 26.3125 29.984375 27.734375 
Q 27.875 29.6875 24.21875 31.265625 
Q 20.5625 32.859375 16.75 32.859375 
L 15.1875 32.859375 
L 15.1875 34.328125 
Q 19.046875 34.8125 22.921875 37.109375 
Q 26.8125 39.40625 28.5625 42.625 
Q 30.328125 45.84375 30.328125 49.703125 
Q 30.328125 54.734375 27.171875 57.828125 
Q 24.03125 60.9375 19.34375 60.9375 
Q 11.765625 60.9375 6.6875 52.828125 
z
" id="TimesNewRomanPSMT-33"/>
       <path d="M 43.40625 66.21875 
L 39.59375 57.90625 
L 19.671875 57.90625 
L 15.328125 49.03125 
Q 28.265625 47.125 35.84375 39.40625 
Q 42.328125 32.765625 42.328125 23.78125 
Q 42.328125 18.5625 40.203125 14.109375 
Q 38.09375 9.671875 34.859375 6.546875 
Q 31.640625 3.421875 27.6875 1.515625 
Q 22.078125 -1.171875 16.15625 -1.171875 
Q 10.203125 -1.171875 7.484375 0.84375 
Q 4.78125 2.875 4.78125 5.328125 
Q 4.78125 6.6875 5.90625 7.734375 
Q 7.03125 8.796875 8.734375 8.796875 
Q 10.015625 8.796875 10.96875 8.40625 
Q 11.921875 8.015625 14.203125 6.390625 
Q 17.875 3.859375 21.625 3.859375 
Q 27.34375 3.859375 31.65625 8.171875 
Q 35.984375 12.5 35.984375 18.703125 
Q 35.984375 24.703125 32.125 29.90625 
Q 28.265625 35.109375 21.484375 37.9375 
Q 16.15625 40.140625 6.984375 40.484375 
L 19.671875 66.21875 
z
" id="TimesNewRomanPSMT-35"/>
      </defs>
      <g transform="translate(20.379636 73.138494)scale(0.06 -0.06)">
       <use xlink:href="#TimesNewRomanPSMT-33"/>
       <use x="50" xlink:href="#TimesNewRomanPSMT-35"/>
      </g>
     </g>
    </g>
    <g id="xtick_2">
     <g id="line2d_3">
      <path clip-path="url(#pe23c182950)" d="M 58.224672 65.472244 
L 58.224672 7.2 
" style="fill:none;opacity:0.1;stroke:#b0b0b0;stroke-linecap:square;stroke-width:0.1;"/>
     </g>
     <g id="line2d_4">
      <g>
       <use style="stroke:#000000;stroke-width:0.3;" x="58.224672" xlink:href="#mb5cc5ba79d" y="65.472244"/>
      </g>
     </g>
     <g id="text_2">
      <!-- 36 -->
      <defs>
       <path d="M 44.828125 67.578125 
L 44.828125 65.765625 
Q 38.375 65.140625 34.296875 63.203125 
Q 30.21875 61.28125 26.234375 57.328125 
Q 22.265625 53.375 19.65625 48.515625 
Q 17.046875 43.65625 15.28125 36.96875 
Q 22.3125 41.796875 29.390625 41.796875 
Q 36.1875 41.796875 41.15625 36.328125 
Q 46.140625 30.859375 46.140625 22.265625 
Q 46.140625 13.96875 41.109375 7.125 
Q 35.0625 -1.171875 25.09375 -1.171875 
Q 18.3125 -1.171875 13.578125 3.328125 
Q 4.296875 12.0625 4.296875 25.984375 
Q 4.296875 34.859375 7.859375 42.859375 
Q 11.421875 50.875 18.03125 57.078125 
Q 24.65625 63.28125 30.703125 65.421875 
Q 36.765625 67.578125 42 67.578125 
z
M 14.453125 33.40625 
Q 13.578125 26.8125 13.578125 22.75 
Q 13.578125 18.0625 15.3125 12.5625 
Q 17.046875 7.078125 20.453125 3.859375 
Q 22.953125 1.5625 26.515625 1.5625 
Q 30.765625 1.5625 34.109375 5.5625 
Q 37.453125 9.578125 37.453125 17 
Q 37.453125 25.34375 34.125 31.4375 
Q 30.8125 37.546875 24.703125 37.546875 
Q 22.859375 37.546875 20.734375 36.765625 
Q 18.609375 35.984375 14.453125 33.40625 
z
" id="TimesNewRomanPSMT-36"/>
      </defs>
      <g transform="translate(55.224672 73.138494)scale(0.06 -0.06)">
       <use xlink:href="#TimesNewRomanPSMT-33"/>
       <use x="50" xlink:href="#TimesNewRomanPSMT-36"/>
      </g>
     </g>
    </g>
    <g id="xtick_3">
     <g id="line2d_5">
      <path clip-path="url(#pe23c182950)" d="M 93.069708 65.472244 
L 93.069708 7.2 
" style="fill:none;opacity:0.1;stroke:#b0b0b0;stroke-linecap:square;stroke-width:0.1;"/>
     </g>
     <g id="line2d_6">
      <g>
       <use style="stroke:#000000;stroke-width:0.3;" x="93.069708" xlink:href="#mb5cc5ba79d" y="65.472244"/>
      </g>
     </g>
     <g id="text_3">
      <!-- 37 -->
      <defs>
       <path d="M 10.0625 66.21875 
L 45.5625 66.21875 
L 45.5625 64.359375 
L 23.484375 -1.375 
L 18.015625 -1.375 
L 37.796875 58.25 
L 19.578125 58.25 
Q 14.0625 58.25 11.71875 56.9375 
Q 7.625 54.6875 5.125 50 
L 3.71875 50.53125 
z
" id="TimesNewRomanPSMT-37"/>
      </defs>
      <g transform="translate(90.069708 73.138494)scale(0.06 -0.06)">
       <use xlink:href="#TimesNewRomanPSMT-33"/>
       <use x="50" xlink:href="#TimesNewRomanPSMT-37"/>
      </g>
     </g>
    </g>
   </g>
   <g id="matplotlib.axis_2">
    <g id="ytick_1">
     <g id="line2d_7">
      <path clip-path="url(#pe23c182950)" d="M 19.7 62.711293 
L 114.60394 62.711293 
" style="fill:none;opacity:0.1;stroke:#b0b0b0;stroke-linecap:square;stroke-width:0.1;"/>
     </g>
     <g id="line2d_8">
      <defs>
       <path d="M 0 0 
L 2 0 
" id="m46e281fdb6" style="stroke:#000000;stroke-width:0.3;"/>
      </defs>
      <g>
       <use style="stroke:#000000;stroke-width:0.3;" x="19.7" xlink:href="#m46e281fdb6" y="62.711293"/>
      </g>
     </g>
     <g id="text_4">
      <!-- 0 -->
      <defs>
       <path d="M 3.609375 32.71875 
Q 3.609375 44.046875 7.03125 52.21875 
Q 10.453125 60.40625 16.109375 64.40625 
Q 20.515625 67.578125 25.203125 67.578125 
Q 32.8125 67.578125 38.875 59.8125 
Q 46.4375 50.203125 46.4375 33.734375 
Q 46.4375 22.21875 43.109375 14.15625 
Q 39.796875 6.109375 34.640625 2.46875 
Q 29.5 -1.171875 24.703125 -1.171875 
Q 15.234375 -1.171875 8.9375 10.015625 
Q 3.609375 19.4375 3.609375 32.71875 
z
M 13.1875 31.5 
Q 13.1875 17.828125 16.546875 9.1875 
Q 19.34375 1.90625 24.859375 1.90625 
Q 27.484375 1.90625 30.3125 4.265625 
Q 33.15625 6.640625 34.625 12.203125 
Q 36.859375 20.609375 36.859375 35.890625 
Q 36.859375 47.21875 34.515625 54.78125 
Q 32.765625 60.40625 29.984375 62.75 
Q 27.984375 64.359375 25.140625 64.359375 
Q 21.828125 64.359375 19.234375 61.375 
Q 15.71875 57.328125 14.453125 48.625 
Q 13.1875 39.9375 13.1875 31.5 
z
" id="TimesNewRomanPSMT-30"/>
      </defs>
      <g transform="translate(13.2 64.794418)scale(0.06 -0.06)">
       <use xlink:href="#TimesNewRomanPSMT-30"/>
      </g>
     </g>
    </g>
    <g id="ytick_2">
     <g id="line2d_9">
      <path clip-path="url(#pe23c182950)" d="M 19.7 40.26878 
L 114.60394 40.26878 
" style="fill:none;opacity:0.1;stroke:#b0b0b0;stroke-linecap:square;stroke-width:0.1;"/>
     </g>
     <g id="line2d_10">
      <g>
       <use style="stroke:#000000;stroke-width:0.3;" x="19.7" xlink:href="#m46e281fdb6" y="40.26878"/>
      </g>
     </g>
     <g id="text_5">
      <!-- 200 -->
      <defs>
       <path d="M 45.84375 12.75 
L 41.21875 0 
L 2.15625 0 
L 2.15625 1.8125 
Q 19.390625 17.53125 26.421875 27.484375 
Q 33.453125 37.453125 33.453125 45.703125 
Q 33.453125 52 29.59375 56.046875 
Q 25.734375 60.109375 20.359375 60.109375 
Q 15.484375 60.109375 11.59375 57.25 
Q 7.71875 54.390625 5.859375 48.875 
L 4.046875 48.875 
Q 5.28125 57.90625 10.328125 62.734375 
Q 15.375 67.578125 22.953125 67.578125 
Q 31 67.578125 36.390625 62.40625 
Q 41.796875 57.234375 41.796875 50.203125 
Q 41.796875 45.171875 39.453125 40.140625 
Q 35.84375 32.234375 27.734375 23.390625 
Q 15.578125 10.109375 12.546875 7.375 
L 29.828125 7.375 
Q 35.109375 7.375 37.234375 7.765625 
Q 39.359375 8.15625 41.0625 9.34375 
Q 42.78125 10.546875 44.046875 12.75 
z
" id="TimesNewRomanPSMT-32"/>
      </defs>
      <g transform="translate(7.2 42.351905)scale(0.06 -0.06)">
       <use xlink:href="#TimesNewRomanPSMT-32"/>
       <use x="50" xlink:href="#TimesNewRomanPSMT-30"/>
       <use x="100" xlink:href="#TimesNewRomanPSMT-30"/>
      </g>
     </g>
    </g>
    <g id="ytick_3">
     <g id="line2d_11">
      <path clip-path="url(#pe23c182950)" d="M 19.7 17.826266 
L 114.60394 17.826266 
" style="fill:none;opacity:0.1;stroke:#b0b0b0;stroke-linecap:square;stroke-width:0.1;"/>
     </g>
     <g id="line2d_12">
      <g>
       <use style="stroke:#000000;stroke-width:0.3;" x="19.7" xlink:href="#m46e281fdb6" y="17.826266"/>
      </g>
     </g>
     <g id="text_6">
      <!-- 400 -->
      <defs>
       <path d="M 46.53125 24.421875 
L 46.53125 17.484375 
L 37.640625 17.484375 
L 37.640625 0 
L 29.59375 0 
L 29.59375 17.484375 
L 1.5625 17.484375 
L 1.5625 23.734375 
L 32.28125 67.578125 
L 37.640625 67.578125 
L 37.640625 24.421875 
z
M 29.59375 24.421875 
L 29.59375 57.28125 
L 6.34375 24.421875 
z
" id="TimesNewRomanPSMT-34"/>
      </defs>
      <g transform="translate(7.2 19.909391)scale(0.06 -0.06)">
       <use xlink:href="#TimesNewRomanPSMT-34"/>
       <use x="50" xlink:href="#TimesNewRomanPSMT-30"/>
       <use x="100" xlink:href="#TimesNewRomanPSMT-30"/>
      </g>
     </g>
    </g>
   </g>
   <g id="line2d_13">
    <path clip-path="url(#pe23c182950)" d="M 24.013815 43.186306 
L 24.013815 43.186306 
L 25.233392 43.186306 
L 25.233392 43.298519 
L 26.620224 43.298519 
L 26.620224 43.410731 
L 29.536754 43.410731 
L 29.536754 43.635157 
L 30.104728 43.635157 
L 30.104728 43.635157 
L 30.82602 43.635157 
L 30.82602 43.747369 
L 32.191945 43.747369 
L 32.191945 43.747369 
L 32.948083 43.747369 
L 32.948083 43.747369 
L 35.115444 43.747369 
L 35.115444 43.747369 
L 35.861128 43.747369 
L 35.861128 43.747369 
L 36.484854 43.747369 
L 36.484854 43.859582 
L 38.603432 43.859582 
L 38.603432 43.859582 
L 39.861338 43.747369 
L 39.861338 43.859582 
L 44.788426 44.196219 
L 44.788426 44.308432 
L 45.446997 44.308432 
L 45.446997 44.308432 
L 46.858221 44.308432 
L 46.858221 44.308432 
L 48.335651 44.308432 
L 48.335651 44.308432 
L 48.945439 44.308432 
L 48.945439 44.420645 
L 50.332271 44.420645 
L 50.332271 44.420645 
L 51.241727 44.420645 
L 51.241727 44.308432 
L 52.416004 44.308432 
L 52.416004 44.532857 
L 53.935248 44.532857 
L 53.935248 44.196219 
L 54.677447 44.196219 
L 54.677447 44.420645 
L 55.914446 44.420645 
L 55.914446 44.308432 
L 57.527771 44.308432 
L 57.527771 44.420645 
L 58.144528 44.420645 
L 58.144528 44.64507 
L 59.444248 44.64507 
L 59.444248 44.420645 
L 60.900771 44.420645 
L 60.900771 44.757282 
L 62.158676 44.757282 
L 62.158676 44.757282 
L 63.590807 44.757282 
L 63.590807 45.318345 
L 64.399212 45.318345 
L 64.399212 45.206132 
L 65.650149 45.206132 
L 65.650149 45.318345 
L 67.04395 45.318345 
L 67.04395 45.318345 
L 67.754789 45.318345 
L 67.754789 45.879408 
L 70.538908 45.318345 
L 70.538908 45.767195 
L 71.2602 45.767195 
L 71.2602 44.981707 
L 72.755052 44.981707 
L 72.755052 43.522944 
L 74.047803 43.522944 
L 74.047803 43.186306 
L 75.406759 43.186306 
L 75.406759 43.522944 
L 76.305761 43.522944 
L 76.305761 43.298519 
L 79.01322 46.103833 
L 79.01322 17.826266 
L 79.758904 62.823505 
L 81.020294 62.823505 
L 82.640589 62.823505 
L 83.076151 62.823505 
L 84.52222 62.823505 
L 85.971774 62.823505 
L 87.257556 62.823505 
L 89.36568 62.823505 
L 90.03819 62.823505 
L 90.745544 62.823505 
L 92.414621 62.823505 
L 93.58193 62.823505 
L 95.059359 62.823505 
L 95.79459 62.823505 
L 97.069918 62.823505 
L 97.711067 62.823505 
L 99.254702 62.823505 
L 100.749554 62.823505 
L 101.906409 62.823505 
L 103.54761 62.823505 
L 104.021503 62.823505 
L 106.073875 62.823505 
L 106.802136 62.823505 
L 108.241236 62.823505 
L 108.864963 62.823505 
L 110.290125 62.823505 
" style="fill:none;stroke:#1f77b4;stroke-linecap:square;"/>
   </g>
   <g id="line2d_14">
    <path clip-path="url(#pe23c182950)" d="M 24.013815 43.20325 
L 24.825705 43.127507 
L 25.233392 43.282248 
L 25.947715 43.386381 
L 26.620224 43.516885 
L 27.31364 43.587242 
L 28.219611 43.680827 
L 28.923481 43.75298 
L 29.536754 43.686774 
L 30.104728 43.658833 
L 30.82602 43.800333 
L 31.526405 43.871252 
L 32.191945 43.797192 
L 32.948083 43.752194 
L 33.850569 43.749838 
L 34.327946 43.746359 
L 35.115444 43.745574 
L 35.861128 43.746247 
L 36.484854 43.861489 
L 37.213115 43.87675 
L 37.808965 43.888196 
L 38.603432 43.87574 
L 39.303817 43.884268 
L 39.861338 43.864856 
L 40.617475 43.872823 
L 41.269077 43.87877 
L 41.955524 43.885278 
L 42.666363 43.891899 
L 44.203029 43.910751 
L 44.258781 43.906374 
L 44.788426 44.318419 
L 45.446997 44.336261 
L 46.171774 44.368129 
L 46.858221 44.337158 
L 47.652688 44.371047 
L 48.335651 44.334802 
L 48.945439 44.450044 
L 49.802627 44.486513 
L 50.332271 44.440506 
L 51.241727 44.350624 
L 51.701681 44.367792 
L 52.416004 44.566184 
L 53.140781 44.599736 
L 53.935248 44.224721 
L 54.677447 44.457899 
L 55.342987 44.483932 
L 55.914446 44.326274 
L 56.614831 44.350624 
L 57.527771 44.45644 
L 58.144528 44.665941 
L 58.837944 44.706562 
L 59.444248 44.451279 
L 60.555805 44.512322 
L 60.900771 44.776022 
L 61.597671 44.818326 
L 62.158676 44.788365 
L 63.008895 44.837178 
L 63.590807 45.358966 
L 64.399212 45.244397 
L 64.953248 45.2775 
L 65.650149 45.363455 
L 66.343565 45.404861 
L 67.04395 45.358405 
L 67.754789 45.922834 
L 68.754842 45.979389 
L 69.43432 46.01541 
L 69.883821 46.037291 
L 70.538908 45.801308 
L 71.2602 45.017279 
L 71.960585 45.049372 
L 72.755052 43.542245 
L 73.319541 43.530574 
L 74.047803 43.171943 
L 74.904991 43.070166 
L 75.406759 43.561433 
L 76.305761 43.324552 
L 76.866766 43.351034 
L 77.730923 43.395695 
L 78.34768 43.425095 
L 79.01322 15.650801 
L 79.758904 16.104364 
L 80.319909 16.233297 
L 81.020294 16.151382 
L 81.68235 16.030416 
L 82.640589 16.446388 
L 83.076151 14.282369 
L 84.003029 14.815154 
L 84.52222 16.376704 
L 85.166854 19.019423 
L 85.971774 22.77484 
L 86.651252 25.473216 
L 87.257556 27.062146 
L 88.045054 28.039854 
L 88.665295 27.654292 
L 89.36568 26.461023 
L 90.03819 24.842245 
L 90.745544 22.676879 
L 91.487743 20.118993 
L 92.414621 16.963801 
L 92.874576 15.425366 
L 93.58193 13.24373 
L 94.226563 11.654575 
L 95.059359 10.229363 
L 95.79459 9.848738 
L 96.386955 10.584404 
L 97.069918 12.774793 
L 97.711067 15.488654 
L 98.428874 18.671451 
L 99.254702 21.762122 
L 99.951602 23.385613 
L 100.749554 24.516155 
L 101.206024 24.67056 
L 101.906409 24.47228 
L 102.610279 23.952063 
L 103.54761 23.16074 
L 104.021503 22.756438 
L 104.843845 22.384677 
L 105.51287 22.408915 
L 106.073875 22.730068 
L 106.802136 23.586586 
L 107.519944 24.228891 
L 108.241236 23.668389 
L 108.864963 23.132799 
L 109.711697 22.510355 
L 110.290125 22.222867 
" style="fill:none;stroke:#ff7f0e;stroke-linecap:square;"/>
   </g>
   <g id="patch_3">
    <path d="M 19.7 65.472244 
L 19.7 7.2 
" style="fill:none;stroke:#000000;stroke-linecap:square;stroke-linejoin:miter;stroke-width:0.3;"/>
   </g>
   <g id="patch_4">
    <path d="M 114.60394 65.472244 
L 114.60394 7.2 
" style="fill:none;stroke:#000000;stroke-linecap:square;stroke-linejoin:miter;stroke-width:0.3;"/>
   </g>
   <g id="patch_5">
    <path d="M 19.7 65.472244 
L 114.60394 65.472244 
" style="fill:none;stroke:#000000;stroke-linecap:square;stroke-linejoin:miter;stroke-width:0.3;"/>
   </g>
   <g id="patch_6">
    <path d="M 19.7 7.2 
L 114.60394 7.2 
" style="fill:none;stroke:#000000;stroke-linecap:square;stroke-linejoin:miter;stroke-width:0.3;"/>
   </g>
  </g>
 </g>
 <defs>
  <clipPath id="pe23c182950">
   <rect height="58.272244" width="94.90394" x="19.7" y="7.2"/>
  </clipPath>
 </defs>
</svg>
