<?xml version="1.0" encoding="utf-8" standalone="no"?>
<!DOCTYPE svg PUBLIC "-//W3C//DTD SVG 1.1//EN"
  "http://www.w3.org/Graphics/SVG/1.1/DTD/svg11.dtd">
<!-- Created with matplotlib (http://matplotlib.org/) -->
<svg height="88pt" version="1.1" viewBox="0 0 132 88" width="132pt" xmlns="http://www.w3.org/2000/svg" xmlns:xlink="http://www.w3.org/1999/xlink">
 <defs>
  <style type="text/css">
*{stroke-linecap:butt;stroke-linejoin:round;}
  </style>
 </defs>
 <g id="figure_1">
  <g id="patch_1">
   <path d="M 0 88.100186 
L 132.348822 88.100186 
L 132.348822 0 
L 0 0 
z
" style="fill:#ffffff;"/>
  </g>
  <g id="axes_1">
   <g id="patch_2">
    <path d="M 19.7 71.950498 
L 125.148822 71.950498 
L 125.148822 7.2 
L 19.7 7.2 
z
" style="fill:#ffffff;"/>
   </g>
   <g id="matplotlib.axis_1">
    <g id="xtick_1">
     <g id="line2d_1">
      <path clip-path="url(#pb7cde67224)" d="M 48.824293 71.950498 
L 48.824293 7.2 
" style="fill:none;opacity:0.3;stroke:#b0b0b0;stroke-linecap:square;stroke-width:0.8;"/>
     </g>
     <g id="line2d_2">
      <defs>
       <path d="M 0 0 
L 0 -3.5 
" id="mfaba76f53b" style="stroke:#000000;stroke-width:0.8;"/>
      </defs>
      <g>
       <use style="stroke:#000000;stroke-width:0.8;" x="48.824293" xlink:href="#mfaba76f53b" y="71.950498"/>
      </g>
     </g>
     <g id="text_1">
      <!-- 64 -->
      <defs>
       <path d="M 44.828125 67.578125 
L 44.828125 65.765625 
Q 38.375 65.140625 34.296875 63.203125 
Q 30.21875 61.28125 26.234375 57.328125 
Q 22.265625 53.375 19.65625 48.515625 
Q 17.046875 43.65625 15.28125 36.96875 
Q 22.3125 41.796875 29.390625 41.796875 
Q 36.1875 41.796875 41.15625 36.328125 
Q 46.140625 30.859375 46.140625 22.265625 
Q 46.140625 13.96875 41.109375 7.125 
Q 35.0625 -1.171875 25.09375 -1.171875 
Q 18.3125 -1.171875 13.578125 3.328125 
Q 4.296875 12.0625 4.296875 25.984375 
Q 4.296875 34.859375 7.859375 42.859375 
Q 11.421875 50.875 18.03125 57.078125 
Q 24.65625 63.28125 30.703125 65.421875 
Q 36.765625 67.578125 42 67.578125 
z
M 14.453125 33.40625 
Q 13.578125 26.8125 13.578125 22.75 
Q 13.578125 18.0625 15.3125 12.5625 
Q 17.046875 7.078125 20.453125 3.859375 
Q 22.953125 1.5625 26.515625 1.5625 
Q 30.765625 1.5625 34.109375 5.5625 
Q 37.453125 9.578125 37.453125 17 
Q 37.453125 25.34375 34.125 31.4375 
Q 30.8125 37.546875 24.703125 37.546875 
Q 22.859375 37.546875 20.734375 36.765625 
Q 18.609375 35.984375 14.453125 33.40625 
z
" id="TimesNewRomanPSMT-36"/>
       <path d="M 46.53125 24.421875 
L 46.53125 17.484375 
L 37.640625 17.484375 
L 37.640625 0 
L 29.59375 0 
L 29.59375 17.484375 
L 1.5625 17.484375 
L 1.5625 23.734375 
L 32.28125 67.578125 
L 37.640625 67.578125 
L 37.640625 24.421875 
z
M 29.59375 24.421875 
L 29.59375 57.28125 
L 6.34375 24.421875 
z
" id="TimesNewRomanPSMT-34"/>
      </defs>
      <g transform="translate(45.824293 79.616748)scale(0.06 -0.06)">
       <use xlink:href="#TimesNewRomanPSMT-36"/>
       <use x="50" xlink:href="#TimesNewRomanPSMT-34"/>
      </g>
     </g>
    </g>
    <g id="xtick_2">
     <g id="line2d_3">
      <path clip-path="url(#pb7cde67224)" d="M 81.49673 71.950498 
L 81.49673 7.2 
" style="fill:none;opacity:0.3;stroke:#b0b0b0;stroke-linecap:square;stroke-width:0.8;"/>
     </g>
     <g id="line2d_4">
      <g>
       <use style="stroke:#000000;stroke-width:0.8;" x="81.49673" xlink:href="#mfaba76f53b" y="71.950498"/>
      </g>
     </g>
     <g id="text_2">
      <!-- 66 -->
      <g transform="translate(78.49673 79.616748)scale(0.06 -0.06)">
       <use xlink:href="#TimesNewRomanPSMT-36"/>
       <use x="50" xlink:href="#TimesNewRomanPSMT-36"/>
      </g>
     </g>
    </g>
    <g id="xtick_3">
     <g id="line2d_5">
      <path clip-path="url(#pb7cde67224)" d="M 114.169168 71.950498 
L 114.169168 7.2 
" style="fill:none;opacity:0.3;stroke:#b0b0b0;stroke-linecap:square;stroke-width:0.8;"/>
     </g>
     <g id="line2d_6">
      <g>
       <use style="stroke:#000000;stroke-width:0.8;" x="114.169168" xlink:href="#mfaba76f53b" y="71.950498"/>
      </g>
     </g>
     <g id="text_3">
      <!-- 68 -->
      <defs>
       <path d="M 19.1875 33.34375 
Q 11.328125 39.796875 9.046875 43.703125 
Q 6.78125 47.609375 6.78125 51.8125 
Q 6.78125 58.25 11.765625 62.90625 
Q 16.75 67.578125 25 67.578125 
Q 33.015625 67.578125 37.890625 63.234375 
Q 42.78125 58.890625 42.78125 53.328125 
Q 42.78125 49.609375 40.140625 45.75 
Q 37.5 41.890625 29.15625 36.671875 
Q 37.75 30.03125 40.53125 26.21875 
Q 44.234375 21.234375 44.234375 15.71875 
Q 44.234375 8.734375 38.90625 3.78125 
Q 33.59375 -1.171875 24.953125 -1.171875 
Q 15.53125 -1.171875 10.25 4.734375 
Q 6.0625 9.46875 6.0625 15.09375 
Q 6.0625 19.484375 9.015625 23.796875 
Q 11.96875 28.125 19.1875 33.34375 
z
M 26.859375 38.578125 
Q 32.71875 43.84375 34.28125 46.890625 
Q 35.84375 49.953125 35.84375 53.8125 
Q 35.84375 58.9375 32.953125 61.84375 
Q 30.078125 64.75 25.09375 64.75 
Q 20.125 64.75 17 61.859375 
Q 13.875 58.984375 13.875 55.125 
Q 13.875 52.59375 15.15625 50.046875 
Q 16.453125 47.515625 18.84375 45.21875 
z
M 21.484375 31.5 
Q 17.4375 28.078125 15.484375 24.046875 
Q 13.53125 20.015625 13.53125 15.328125 
Q 13.53125 9.03125 16.96875 5.25 
Q 20.40625 1.46875 25.734375 1.46875 
Q 31 1.46875 34.171875 4.4375 
Q 37.359375 7.421875 37.359375 11.671875 
Q 37.359375 15.1875 35.5 17.96875 
Q 32.03125 23.140625 21.484375 31.5 
z
" id="TimesNewRomanPSMT-38"/>
      </defs>
      <g transform="translate(111.169168 79.616748)scale(0.06 -0.06)">
       <use xlink:href="#TimesNewRomanPSMT-36"/>
       <use x="50" xlink:href="#TimesNewRomanPSMT-38"/>
      </g>
     </g>
    </g>
   </g>
   <g id="matplotlib.axis_2">
    <g id="ytick_1">
     <g id="line2d_7">
      <path clip-path="url(#pb7cde67224)" d="M 19.7 68.915973 
L 125.148822 68.915973 
" style="fill:none;opacity:0.3;stroke:#b0b0b0;stroke-linecap:square;stroke-width:0.8;"/>
     </g>
     <g id="line2d_8">
      <defs>
       <path d="M 0 0 
L 3.5 0 
" id="mdd1e34db03" style="stroke:#000000;stroke-width:0.8;"/>
      </defs>
      <g>
       <use style="stroke:#000000;stroke-width:0.8;" x="19.7" xlink:href="#mdd1e34db03" y="68.915973"/>
      </g>
     </g>
     <g id="text_4">
      <!-- 0 -->
      <defs>
       <path d="M 3.609375 32.71875 
Q 3.609375 44.046875 7.03125 52.21875 
Q 10.453125 60.40625 16.109375 64.40625 
Q 20.515625 67.578125 25.203125 67.578125 
Q 32.8125 67.578125 38.875 59.8125 
Q 46.4375 50.203125 46.4375 33.734375 
Q 46.4375 22.21875 43.109375 14.15625 
Q 39.796875 6.109375 34.640625 2.46875 
Q 29.5 -1.171875 24.703125 -1.171875 
Q 15.234375 -1.171875 8.9375 10.015625 
Q 3.609375 19.4375 3.609375 32.71875 
z
M 13.1875 31.5 
Q 13.1875 17.828125 16.546875 9.1875 
Q 19.34375 1.90625 24.859375 1.90625 
Q 27.484375 1.90625 30.3125 4.265625 
Q 33.15625 6.640625 34.625 12.203125 
Q 36.859375 20.609375 36.859375 35.890625 
Q 36.859375 47.21875 34.515625 54.78125 
Q 32.765625 60.40625 29.984375 62.75 
Q 27.984375 64.359375 25.140625 64.359375 
Q 21.828125 64.359375 19.234375 61.375 
Q 15.71875 57.328125 14.453125 48.625 
Q 13.1875 39.9375 13.1875 31.5 
z
" id="TimesNewRomanPSMT-30"/>
      </defs>
      <g transform="translate(13.2 70.999098)scale(0.06 -0.06)">
       <use xlink:href="#TimesNewRomanPSMT-30"/>
      </g>
     </g>
    </g>
    <g id="ytick_2">
     <g id="line2d_9">
      <path clip-path="url(#pb7cde67224)" d="M 19.7 50.651819 
L 125.148822 50.651819 
" style="fill:none;opacity:0.3;stroke:#b0b0b0;stroke-linecap:square;stroke-width:0.8;"/>
     </g>
     <g id="line2d_10">
      <g>
       <use style="stroke:#000000;stroke-width:0.8;" x="19.7" xlink:href="#mdd1e34db03" y="50.651819"/>
      </g>
     </g>
     <g id="text_5">
      <!-- 200 -->
      <defs>
       <path d="M 45.84375 12.75 
L 41.21875 0 
L 2.15625 0 
L 2.15625 1.8125 
Q 19.390625 17.53125 26.421875 27.484375 
Q 33.453125 37.453125 33.453125 45.703125 
Q 33.453125 52 29.59375 56.046875 
Q 25.734375 60.109375 20.359375 60.109375 
Q 15.484375 60.109375 11.59375 57.25 
Q 7.71875 54.390625 5.859375 48.875 
L 4.046875 48.875 
Q 5.28125 57.90625 10.328125 62.734375 
Q 15.375 67.578125 22.953125 67.578125 
Q 31 67.578125 36.390625 62.40625 
Q 41.796875 57.234375 41.796875 50.203125 
Q 41.796875 45.171875 39.453125 40.140625 
Q 35.84375 32.234375 27.734375 23.390625 
Q 15.578125 10.109375 12.546875 7.375 
L 29.828125 7.375 
Q 35.109375 7.375 37.234375 7.765625 
Q 39.359375 8.15625 41.0625 9.34375 
Q 42.78125 10.546875 44.046875 12.75 
z
" id="TimesNewRomanPSMT-32"/>
      </defs>
      <g transform="translate(7.2 52.734944)scale(0.06 -0.06)">
       <use xlink:href="#TimesNewRomanPSMT-32"/>
       <use x="50" xlink:href="#TimesNewRomanPSMT-30"/>
       <use x="100" xlink:href="#TimesNewRomanPSMT-30"/>
      </g>
     </g>
    </g>
    <g id="ytick_3">
     <g id="line2d_11">
      <path clip-path="url(#pb7cde67224)" d="M 19.7 32.387665 
L 125.148822 32.387665 
" style="fill:none;opacity:0.3;stroke:#b0b0b0;stroke-linecap:square;stroke-width:0.8;"/>
     </g>
     <g id="line2d_12">
      <g>
       <use style="stroke:#000000;stroke-width:0.8;" x="19.7" xlink:href="#mdd1e34db03" y="32.387665"/>
      </g>
     </g>
     <g id="text_6">
      <!-- 400 -->
      <g transform="translate(7.2 34.47079)scale(0.06 -0.06)">
       <use xlink:href="#TimesNewRomanPSMT-34"/>
       <use x="50" xlink:href="#TimesNewRomanPSMT-30"/>
       <use x="100" xlink:href="#TimesNewRomanPSMT-30"/>
      </g>
     </g>
    </g>
    <g id="ytick_4">
     <g id="line2d_13">
      <path clip-path="url(#pb7cde67224)" d="M 19.7 14.123512 
L 125.148822 14.123512 
" style="fill:none;opacity:0.3;stroke:#b0b0b0;stroke-linecap:square;stroke-width:0.8;"/>
     </g>
     <g id="line2d_14">
      <g>
       <use style="stroke:#000000;stroke-width:0.8;" x="19.7" xlink:href="#mdd1e34db03" y="14.123512"/>
      </g>
     </g>
     <g id="text_7">
      <!-- 600 -->
      <g transform="translate(7.2 16.206637)scale(0.06 -0.06)">
       <use xlink:href="#TimesNewRomanPSMT-36"/>
       <use x="50" xlink:href="#TimesNewRomanPSMT-30"/>
       <use x="100" xlink:href="#TimesNewRomanPSMT-30"/>
      </g>
     </g>
    </g>
   </g>
   <g id="line2d_15">
    <path clip-path="url(#pb7cde67224)" d="M 24.493128 69.007294 
L 103.261475 69.007294 
L 104.014574 54.122009 
L 104.014574 26.908419 
L 104.249816 26.908419 
L 104.249816 69.007294 
L 110.094915 69.007294 
L 110.789204 27.912948 
L 110.789204 11.109926 
L 111.099592 11.109926 
L 111.099592 12.205775 
L 111.442653 12.205775 
L 111.442653 13.210304 
L 111.723636 13.210304 
L 111.723636 13.849549 
L 112.096102 14.580115 
L 112.096102 14.854078 
L 112.514309 14.854078 
L 112.514309 15.584644 
L 113.110581 15.584644 
L 113.110581 15.675965 
L 113.391564 15.858606 
L 113.391564 15.675965 
L 114.450151 15.675965 
L 114.450151 15.493323 
L 114.985979 15.493323 
L 114.985979 15.219361 
L 115.969419 14.762757 
L 115.969419 69.007294 
L 116.327182 69.007294 
L 116.764993 14.488795 
L 116.764993 14.488795 
L 116.764993 69.007294 
L 117.176666 13.758228 
L 117.730464 13.758228 
L 117.730464 13.301625 
L 117.730464 13.301625 
L 117.730464 13.301625 
L 117.730464 69.007294 
L 118.277727 12.845021 
L 118.277727 69.007294 
L 118.718805 12.479738 
L 118.924641 69.007294 
L 119.262801 12.297096 
L 119.262801 12.297096 
L 119.262801 69.007294 
L 119.91625 11.840492 
L 120.355694 11.840492 
L 120.355694 11.56653 
L 120.355694 11.56653 
L 120.355694 11.56653 
L 120.355694 69.007294 
L 120.355694 69.007294 
" style="fill:none;stroke:#1f77b4;stroke-linecap:square;stroke-width:2;"/>
   </g>
   <g id="line2d_16">
    <path clip-path="url(#pb7cde67224)" d="M 24.493128 52.719961 
L 24.875396 52.593847 
L 25.141676 52.629736 
L 25.795125 53.128804 
L 31.107663 58.96758 
L 32.022492 58.971872 
L 33.311419 58.839457 
L 34.422282 58.996711 
L 38.736677 58.781651 
L 39.194092 58.604306 
L 40.29842 58.002319 
L 41.245921 57.802418 
L 42.446633 57.860955 
L 44.562173 58.142588 
L 45.119238 58.250255 
L 45.771053 58.32386 
L 46.372226 58.214092 
L 47.076317 57.966613 
L 48.339107 57.864882 
L 49.721151 58.33491 
L 50.284751 58.783751 
L 52.338213 60.81604 
L 53.014533 61.106203 
L 53.744762 61.225732 
L 54.630185 61.061218 
L 56.618303 60.803429 
L 57.47432 60.909827 
L 57.887627 60.798863 
L 59.483675 59.645637 
L 59.836538 59.323914 
L 60.426275 59.044381 
L 61.527336 59.007578 
L 62.094203 59.220447 
L 63.499118 60.270627 
L 64.417213 61.109901 
L 65.036356 61.396027 
L 65.332042 61.492983 
L 66.009995 61.511439 
L 67.057146 61.588249 
L 68.350975 61.655315 
L 69.004424 61.429268 
L 69.666041 60.948574 
L 70.370132 60.203497 
L 71.262089 59.276244 
L 71.897568 58.917719 
L 72.617995 58.887948 
L 75.171346 59.343913 
L 75.891774 59.386194 
L 77.09902 59.645454 
L 77.819447 59.670385 
L 78.539875 59.788809 
L 80.336859 59.405737 
L 81.205946 59.445279 
L 82.74155 59.569384 
L 84.698629 59.436512 
L 85.432125 59.672668 
L 86.281609 60.222108 
L 87.217674 60.826542 
L 87.91033 60.960318 
L 89.922952 60.66916 
L 90.886789 60.401928 
L 91.483061 60.1456 
L 92.834066 59.216246 
L 93.859981 58.81754 
L 94.755205 58.75462 
L 95.393952 58.782107 
L 96.46234 58.978538 
L 98.00938 59.664357 
L 99.680575 60.631463 
L 100.657481 61.492124 
L 101.609883 62.406747 
L 102.336845 62.902574 
L 103.261475 63.116383 
L 103.663346 63.186189 
L 104.014574 26.379763 
L 104.249816 28.050568 
L 104.940838 28.56717 
L 105.860567 29.250706 
L 106.95346 30.373768 
L 107.897694 30.80946 
L 108.843561 31.467152 
L 110.094915 32.739707 
L 110.558864 33.316489 
L 110.789204 11.541325 
L 111.442653 13.629466 
L 111.723636 14.054199 
L 112.096102 15.007679 
L 112.514309 15.511405 
L 112.743016 15.302371 
L 113.391564 15.426385 
L 114.080952 15.094525 
L 114.450151 14.973434 
L 114.695194 14.586417 
L 114.985979 14.85426 
L 115.662298 13.77357 
L 115.969419 14.154469 
L 116.327182 13.326829 
L 116.764993 13.399064 
L 117.429877 11.859213 
L 117.730464 12.585213 
L 118.000011 12.016833 
L 118.277727 12.160115 
L 118.924641 11.007373 
L 119.262801 11.480962 
L 119.635267 10.473055 
L 119.91625 10.936143 
L 120.355694 10.143204 
L 120.355694 10.143204 
" style="fill:none;stroke:#ff7f0e;stroke-linecap:square;stroke-width:2;"/>
   </g>
   <g id="patch_3">
    <path d="M 19.7 71.950498 
L 19.7 7.2 
" style="fill:none;stroke:#000000;stroke-linecap:square;stroke-linejoin:miter;stroke-width:0.8;"/>
   </g>
   <g id="patch_4">
    <path d="M 125.148822 71.950498 
L 125.148822 7.2 
" style="fill:none;stroke:#000000;stroke-linecap:square;stroke-linejoin:miter;stroke-width:0.8;"/>
   </g>
   <g id="patch_5">
    <path d="M 19.7 71.950498 
L 125.148822 71.950498 
" style="fill:none;stroke:#000000;stroke-linecap:square;stroke-linejoin:miter;stroke-width:0.8;"/>
   </g>
   <g id="patch_6">
    <path d="M 19.7 7.2 
L 125.148822 7.2 
" style="fill:none;stroke:#000000;stroke-linecap:square;stroke-linejoin:miter;stroke-width:0.8;"/>
   </g>
  </g>
 </g>
 <defs>
  <clipPath id="pb7cde67224">
   <rect height="64.750498" width="105.448822" x="19.7" y="7.2"/>
  </clipPath>
 </defs>
</svg>
