<?xml version="1.0" encoding="utf-8" standalone="no"?>
<!DOCTYPE svg PUBLIC "-//W3C//DTD SVG 1.1//EN"
  "http://www.w3.org/Graphics/SVG/1.1/DTD/svg11.dtd">
<!-- Created with matplotlib (http://matplotlib.org/) -->
<svg height="157pt" version="1.1" viewBox="0 0 245 157" width="245pt" xmlns="http://www.w3.org/2000/svg" xmlns:xlink="http://www.w3.org/1999/xlink">
 <defs>
  <style type="text/css">
*{stroke-linecap:butt;stroke-linejoin:round;}
  </style>
 </defs>
 <g id="figure_1">
  <g id="patch_1">
   <path d="M 0 157.706972 
L 245.706306 157.706972 
L 245.706306 0 
L 0 0 
z
" style="fill:#ffffff;"/>
  </g>
  <g id="axes_1">
   <g id="patch_2">
    <path d="M 19.7 141.557284 
L 238.506306 141.557284 
L 238.506306 7.2 
L 19.7 7.2 
z
" style="fill:#ffffff;"/>
   </g>
   <g id="matplotlib.axis_1">
    <g id="xtick_1">
     <g id="line2d_1">
      <path clip-path="url(#pfe5d85fbbb)" d="M 34.381575 141.557284 
L 34.381575 7.2 
" style="fill:none;opacity:0.3;stroke:#b0b0b0;stroke-linecap:square;stroke-width:0.8;"/>
     </g>
     <g id="line2d_2">
      <defs>
       <path d="M 0 0 
L 0 -3.5 
" id="mdedba07bb5" style="stroke:#000000;stroke-width:0.8;"/>
      </defs>
      <g>
       <use style="stroke:#000000;stroke-width:0.8;" x="34.381575" xlink:href="#mdedba07bb5" y="141.557284"/>
      </g>
     </g>
     <g id="text_1">
      <!-- 30.25 -->
      <defs>
       <path d="M 5.078125 53.609375 
Q 7.90625 60.296875 12.21875 63.9375 
Q 16.546875 67.578125 23 67.578125 
Q 30.953125 67.578125 35.203125 62.40625 
Q 38.421875 58.546875 38.421875 54.15625 
Q 38.421875 46.921875 29.34375 39.203125 
Q 35.453125 36.8125 38.578125 32.375 
Q 41.703125 27.9375 41.703125 21.921875 
Q 41.703125 13.328125 36.234375 7.03125 
Q 29.109375 -1.171875 15.578125 -1.171875 
Q 8.890625 -1.171875 6.46875 0.484375 
Q 4.046875 2.15625 4.046875 4.046875 
Q 4.046875 5.46875 5.1875 6.546875 
Q 6.34375 7.625 7.953125 7.625 
Q 9.1875 7.625 10.453125 7.234375 
Q 11.28125 6.984375 14.203125 5.4375 
Q 17.140625 3.90625 18.265625 3.609375 
Q 20.0625 3.078125 22.125 3.078125 
Q 27.09375 3.078125 30.78125 6.9375 
Q 34.46875 10.796875 34.46875 16.0625 
Q 34.46875 19.921875 32.765625 23.578125 
Q 31.5 26.3125 29.984375 27.734375 
Q 27.875 29.6875 24.21875 31.265625 
Q 20.5625 32.859375 16.75 32.859375 
L 15.1875 32.859375 
L 15.1875 34.328125 
Q 19.046875 34.8125 22.921875 37.109375 
Q 26.8125 39.40625 28.5625 42.625 
Q 30.328125 45.84375 30.328125 49.703125 
Q 30.328125 54.734375 27.171875 57.828125 
Q 24.03125 60.9375 19.34375 60.9375 
Q 11.765625 60.9375 6.6875 52.828125 
z
" id="TimesNewRomanPSMT-33"/>
       <path d="M 3.609375 32.71875 
Q 3.609375 44.046875 7.03125 52.21875 
Q 10.453125 60.40625 16.109375 64.40625 
Q 20.515625 67.578125 25.203125 67.578125 
Q 32.8125 67.578125 38.875 59.8125 
Q 46.4375 50.203125 46.4375 33.734375 
Q 46.4375 22.21875 43.109375 14.15625 
Q 39.796875 6.109375 34.640625 2.46875 
Q 29.5 -1.171875 24.703125 -1.171875 
Q 15.234375 -1.171875 8.9375 10.015625 
Q 3.609375 19.4375 3.609375 32.71875 
z
M 13.1875 31.5 
Q 13.1875 17.828125 16.546875 9.1875 
Q 19.34375 1.90625 24.859375 1.90625 
Q 27.484375 1.90625 30.3125 4.265625 
Q 33.15625 6.640625 34.625 12.203125 
Q 36.859375 20.609375 36.859375 35.890625 
Q 36.859375 47.21875 34.515625 54.78125 
Q 32.765625 60.40625 29.984375 62.75 
Q 27.984375 64.359375 25.140625 64.359375 
Q 21.828125 64.359375 19.234375 61.375 
Q 15.71875 57.328125 14.453125 48.625 
Q 13.1875 39.9375 13.1875 31.5 
z
" id="TimesNewRomanPSMT-30"/>
       <path d="M 12.5 9.46875 
Q 14.796875 9.46875 16.359375 7.875 
Q 17.921875 6.296875 17.921875 4.046875 
Q 17.921875 1.8125 16.328125 0.21875 
Q 14.75 -1.375 12.5 -1.375 
Q 10.25 -1.375 8.65625 0.21875 
Q 7.078125 1.8125 7.078125 4.046875 
Q 7.078125 6.34375 8.65625 7.90625 
Q 10.25 9.46875 12.5 9.46875 
z
" id="TimesNewRomanPSMT-2e"/>
       <path d="M 45.84375 12.75 
L 41.21875 0 
L 2.15625 0 
L 2.15625 1.8125 
Q 19.390625 17.53125 26.421875 27.484375 
Q 33.453125 37.453125 33.453125 45.703125 
Q 33.453125 52 29.59375 56.046875 
Q 25.734375 60.109375 20.359375 60.109375 
Q 15.484375 60.109375 11.59375 57.25 
Q 7.71875 54.390625 5.859375 48.875 
L 4.046875 48.875 
Q 5.28125 57.90625 10.328125 62.734375 
Q 15.375 67.578125 22.953125 67.578125 
Q 31 67.578125 36.390625 62.40625 
Q 41.796875 57.234375 41.796875 50.203125 
Q 41.796875 45.171875 39.453125 40.140625 
Q 35.84375 32.234375 27.734375 23.390625 
Q 15.578125 10.109375 12.546875 7.375 
L 29.828125 7.375 
Q 35.109375 7.375 37.234375 7.765625 
Q 39.359375 8.15625 41.0625 9.34375 
Q 42.78125 10.546875 44.046875 12.75 
z
" id="TimesNewRomanPSMT-32"/>
       <path d="M 43.40625 66.21875 
L 39.59375 57.90625 
L 19.671875 57.90625 
L 15.328125 49.03125 
Q 28.265625 47.125 35.84375 39.40625 
Q 42.328125 32.765625 42.328125 23.78125 
Q 42.328125 18.5625 40.203125 14.109375 
Q 38.09375 9.671875 34.859375 6.546875 
Q 31.640625 3.421875 27.6875 1.515625 
Q 22.078125 -1.171875 16.15625 -1.171875 
Q 10.203125 -1.171875 7.484375 0.84375 
Q 4.78125 2.875 4.78125 5.328125 
Q 4.78125 6.6875 5.90625 7.734375 
Q 7.03125 8.796875 8.734375 8.796875 
Q 10.015625 8.796875 10.96875 8.40625 
Q 11.921875 8.015625 14.203125 6.390625 
Q 17.875 3.859375 21.625 3.859375 
Q 27.34375 3.859375 31.65625 8.171875 
Q 35.984375 12.5 35.984375 18.703125 
Q 35.984375 24.703125 32.125 29.90625 
Q 28.265625 35.109375 21.484375 37.9375 
Q 16.15625 40.140625 6.984375 40.484375 
L 19.671875 66.21875 
z
" id="TimesNewRomanPSMT-35"/>
      </defs>
      <g transform="translate(27.631575 149.223534)scale(0.06 -0.06)">
       <use xlink:href="#TimesNewRomanPSMT-33"/>
       <use x="50" xlink:href="#TimesNewRomanPSMT-30"/>
       <use x="100" xlink:href="#TimesNewRomanPSMT-2e"/>
       <use x="125" xlink:href="#TimesNewRomanPSMT-32"/>
       <use x="175" xlink:href="#TimesNewRomanPSMT-35"/>
      </g>
     </g>
    </g>
    <g id="xtick_2">
     <g id="line2d_3">
      <path clip-path="url(#pfe5d85fbbb)" d="M 58.843529 141.557284 
L 58.843529 7.2 
" style="fill:none;opacity:0.3;stroke:#b0b0b0;stroke-linecap:square;stroke-width:0.8;"/>
     </g>
     <g id="line2d_4">
      <g>
       <use style="stroke:#000000;stroke-width:0.8;" x="58.843529" xlink:href="#mdedba07bb5" y="141.557284"/>
      </g>
     </g>
     <g id="text_2">
      <!-- 30.50 -->
      <g transform="translate(52.093529 149.223534)scale(0.06 -0.06)">
       <use xlink:href="#TimesNewRomanPSMT-33"/>
       <use x="50" xlink:href="#TimesNewRomanPSMT-30"/>
       <use x="100" xlink:href="#TimesNewRomanPSMT-2e"/>
       <use x="125" xlink:href="#TimesNewRomanPSMT-35"/>
       <use x="175" xlink:href="#TimesNewRomanPSMT-30"/>
      </g>
     </g>
    </g>
    <g id="xtick_3">
     <g id="line2d_5">
      <path clip-path="url(#pfe5d85fbbb)" d="M 83.305483 141.557284 
L 83.305483 7.2 
" style="fill:none;opacity:0.3;stroke:#b0b0b0;stroke-linecap:square;stroke-width:0.8;"/>
     </g>
     <g id="line2d_6">
      <g>
       <use style="stroke:#000000;stroke-width:0.8;" x="83.305483" xlink:href="#mdedba07bb5" y="141.557284"/>
      </g>
     </g>
     <g id="text_3">
      <!-- 30.75 -->
      <defs>
       <path d="M 10.0625 66.21875 
L 45.5625 66.21875 
L 45.5625 64.359375 
L 23.484375 -1.375 
L 18.015625 -1.375 
L 37.796875 58.25 
L 19.578125 58.25 
Q 14.0625 58.25 11.71875 56.9375 
Q 7.625 54.6875 5.125 50 
L 3.71875 50.53125 
z
" id="TimesNewRomanPSMT-37"/>
      </defs>
      <g transform="translate(76.555483 149.223534)scale(0.06 -0.06)">
       <use xlink:href="#TimesNewRomanPSMT-33"/>
       <use x="50" xlink:href="#TimesNewRomanPSMT-30"/>
       <use x="100" xlink:href="#TimesNewRomanPSMT-2e"/>
       <use x="125" xlink:href="#TimesNewRomanPSMT-37"/>
       <use x="175" xlink:href="#TimesNewRomanPSMT-35"/>
      </g>
     </g>
    </g>
    <g id="xtick_4">
     <g id="line2d_7">
      <path clip-path="url(#pfe5d85fbbb)" d="M 107.767437 141.557284 
L 107.767437 7.2 
" style="fill:none;opacity:0.3;stroke:#b0b0b0;stroke-linecap:square;stroke-width:0.8;"/>
     </g>
     <g id="line2d_8">
      <g>
       <use style="stroke:#000000;stroke-width:0.8;" x="107.767437" xlink:href="#mdedba07bb5" y="141.557284"/>
      </g>
     </g>
     <g id="text_4">
      <!-- 31.00 -->
      <defs>
       <path d="M 11.71875 59.71875 
L 27.828125 67.578125 
L 29.4375 67.578125 
L 29.4375 11.671875 
Q 29.4375 6.109375 29.90625 4.734375 
Q 30.375 3.375 31.828125 2.640625 
Q 33.296875 1.90625 37.796875 1.8125 
L 37.796875 0 
L 12.890625 0 
L 12.890625 1.8125 
Q 17.578125 1.90625 18.9375 2.609375 
Q 20.3125 3.328125 20.84375 4.515625 
Q 21.390625 5.71875 21.390625 11.671875 
L 21.390625 47.40625 
Q 21.390625 54.640625 20.90625 56.6875 
Q 20.5625 58.25 19.65625 58.984375 
Q 18.75 59.71875 17.484375 59.71875 
Q 15.671875 59.71875 12.453125 58.203125 
z
" id="TimesNewRomanPSMT-31"/>
      </defs>
      <g transform="translate(101.017437 149.223534)scale(0.06 -0.06)">
       <use xlink:href="#TimesNewRomanPSMT-33"/>
       <use x="50" xlink:href="#TimesNewRomanPSMT-31"/>
       <use x="100" xlink:href="#TimesNewRomanPSMT-2e"/>
       <use x="125" xlink:href="#TimesNewRomanPSMT-30"/>
       <use x="175" xlink:href="#TimesNewRomanPSMT-30"/>
      </g>
     </g>
    </g>
    <g id="xtick_5">
     <g id="line2d_9">
      <path clip-path="url(#pfe5d85fbbb)" d="M 132.229391 141.557284 
L 132.229391 7.2 
" style="fill:none;opacity:0.3;stroke:#b0b0b0;stroke-linecap:square;stroke-width:0.8;"/>
     </g>
     <g id="line2d_10">
      <g>
       <use style="stroke:#000000;stroke-width:0.8;" x="132.229391" xlink:href="#mdedba07bb5" y="141.557284"/>
      </g>
     </g>
     <g id="text_5">
      <!-- 31.25 -->
      <g transform="translate(125.479391 149.223534)scale(0.06 -0.06)">
       <use xlink:href="#TimesNewRomanPSMT-33"/>
       <use x="50" xlink:href="#TimesNewRomanPSMT-31"/>
       <use x="100" xlink:href="#TimesNewRomanPSMT-2e"/>
       <use x="125" xlink:href="#TimesNewRomanPSMT-32"/>
       <use x="175" xlink:href="#TimesNewRomanPSMT-35"/>
      </g>
     </g>
    </g>
    <g id="xtick_6">
     <g id="line2d_11">
      <path clip-path="url(#pfe5d85fbbb)" d="M 156.691345 141.557284 
L 156.691345 7.2 
" style="fill:none;opacity:0.3;stroke:#b0b0b0;stroke-linecap:square;stroke-width:0.8;"/>
     </g>
     <g id="line2d_12">
      <g>
       <use style="stroke:#000000;stroke-width:0.8;" x="156.691345" xlink:href="#mdedba07bb5" y="141.557284"/>
      </g>
     </g>
     <g id="text_6">
      <!-- 31.50 -->
      <g transform="translate(149.941345 149.223534)scale(0.06 -0.06)">
       <use xlink:href="#TimesNewRomanPSMT-33"/>
       <use x="50" xlink:href="#TimesNewRomanPSMT-31"/>
       <use x="100" xlink:href="#TimesNewRomanPSMT-2e"/>
       <use x="125" xlink:href="#TimesNewRomanPSMT-35"/>
       <use x="175" xlink:href="#TimesNewRomanPSMT-30"/>
      </g>
     </g>
    </g>
    <g id="xtick_7">
     <g id="line2d_13">
      <path clip-path="url(#pfe5d85fbbb)" d="M 181.153298 141.557284 
L 181.153298 7.2 
" style="fill:none;opacity:0.3;stroke:#b0b0b0;stroke-linecap:square;stroke-width:0.8;"/>
     </g>
     <g id="line2d_14">
      <g>
       <use style="stroke:#000000;stroke-width:0.8;" x="181.153298" xlink:href="#mdedba07bb5" y="141.557284"/>
      </g>
     </g>
     <g id="text_7">
      <!-- 31.75 -->
      <g transform="translate(174.403298 149.223534)scale(0.06 -0.06)">
       <use xlink:href="#TimesNewRomanPSMT-33"/>
       <use x="50" xlink:href="#TimesNewRomanPSMT-31"/>
       <use x="100" xlink:href="#TimesNewRomanPSMT-2e"/>
       <use x="125" xlink:href="#TimesNewRomanPSMT-37"/>
       <use x="175" xlink:href="#TimesNewRomanPSMT-35"/>
      </g>
     </g>
    </g>
    <g id="xtick_8">
     <g id="line2d_15">
      <path clip-path="url(#pfe5d85fbbb)" d="M 205.615252 141.557284 
L 205.615252 7.2 
" style="fill:none;opacity:0.3;stroke:#b0b0b0;stroke-linecap:square;stroke-width:0.8;"/>
     </g>
     <g id="line2d_16">
      <g>
       <use style="stroke:#000000;stroke-width:0.8;" x="205.615252" xlink:href="#mdedba07bb5" y="141.557284"/>
      </g>
     </g>
     <g id="text_8">
      <!-- 32.00 -->
      <g transform="translate(198.865252 149.223534)scale(0.06 -0.06)">
       <use xlink:href="#TimesNewRomanPSMT-33"/>
       <use x="50" xlink:href="#TimesNewRomanPSMT-32"/>
       <use x="100" xlink:href="#TimesNewRomanPSMT-2e"/>
       <use x="125" xlink:href="#TimesNewRomanPSMT-30"/>
       <use x="175" xlink:href="#TimesNewRomanPSMT-30"/>
      </g>
     </g>
    </g>
    <g id="xtick_9">
     <g id="line2d_17">
      <path clip-path="url(#pfe5d85fbbb)" d="M 230.077206 141.557284 
L 230.077206 7.2 
" style="fill:none;opacity:0.3;stroke:#b0b0b0;stroke-linecap:square;stroke-width:0.8;"/>
     </g>
     <g id="line2d_18">
      <g>
       <use style="stroke:#000000;stroke-width:0.8;" x="230.077206" xlink:href="#mdedba07bb5" y="141.557284"/>
      </g>
     </g>
     <g id="text_9">
      <!-- 32.25 -->
      <g transform="translate(223.327206 149.223534)scale(0.06 -0.06)">
       <use xlink:href="#TimesNewRomanPSMT-33"/>
       <use x="50" xlink:href="#TimesNewRomanPSMT-32"/>
       <use x="100" xlink:href="#TimesNewRomanPSMT-2e"/>
       <use x="125" xlink:href="#TimesNewRomanPSMT-32"/>
       <use x="175" xlink:href="#TimesNewRomanPSMT-35"/>
      </g>
     </g>
    </g>
   </g>
   <g id="matplotlib.axis_2">
    <g id="ytick_1">
     <g id="line2d_19">
      <path clip-path="url(#pfe5d85fbbb)" d="M 19.7 141.761107 
L 238.506306 141.761107 
" style="fill:none;opacity:0.3;stroke:#b0b0b0;stroke-linecap:square;stroke-width:0.8;"/>
     </g>
     <g id="line2d_20">
      <defs>
       <path d="M 0 0 
L 3.5 0 
" id="m7225e95aa5" style="stroke:#000000;stroke-width:0.8;"/>
      </defs>
      <g>
       <use style="stroke:#000000;stroke-width:0.8;" x="19.7" xlink:href="#m7225e95aa5" y="141.761107"/>
      </g>
     </g>
     <g id="text_10">
      <!-- 180 -->
      <defs>
       <path d="M 19.1875 33.34375 
Q 11.328125 39.796875 9.046875 43.703125 
Q 6.78125 47.609375 6.78125 51.8125 
Q 6.78125 58.25 11.765625 62.90625 
Q 16.75 67.578125 25 67.578125 
Q 33.015625 67.578125 37.890625 63.234375 
Q 42.78125 58.890625 42.78125 53.328125 
Q 42.78125 49.609375 40.140625 45.75 
Q 37.5 41.890625 29.15625 36.671875 
Q 37.75 30.03125 40.53125 26.21875 
Q 44.234375 21.234375 44.234375 15.71875 
Q 44.234375 8.734375 38.90625 3.78125 
Q 33.59375 -1.171875 24.953125 -1.171875 
Q 15.53125 -1.171875 10.25 4.734375 
Q 6.0625 9.46875 6.0625 15.09375 
Q 6.0625 19.484375 9.015625 23.796875 
Q 11.96875 28.125 19.1875 33.34375 
z
M 26.859375 38.578125 
Q 32.71875 43.84375 34.28125 46.890625 
Q 35.84375 49.953125 35.84375 53.8125 
Q 35.84375 58.9375 32.953125 61.84375 
Q 30.078125 64.75 25.09375 64.75 
Q 20.125 64.75 17 61.859375 
Q 13.875 58.984375 13.875 55.125 
Q 13.875 52.59375 15.15625 50.046875 
Q 16.453125 47.515625 18.84375 45.21875 
z
M 21.484375 31.5 
Q 17.4375 28.078125 15.484375 24.046875 
Q 13.53125 20.015625 13.53125 15.328125 
Q 13.53125 9.03125 16.96875 5.25 
Q 20.40625 1.46875 25.734375 1.46875 
Q 31 1.46875 34.171875 4.4375 
Q 37.359375 7.421875 37.359375 11.671875 
Q 37.359375 15.1875 35.5 17.96875 
Q 32.03125 23.140625 21.484375 31.5 
z
" id="TimesNewRomanPSMT-38"/>
      </defs>
      <g transform="translate(7.2 143.844232)scale(0.06 -0.06)">
       <use xlink:href="#TimesNewRomanPSMT-31"/>
       <use x="50" xlink:href="#TimesNewRomanPSMT-38"/>
       <use x="100" xlink:href="#TimesNewRomanPSMT-30"/>
      </g>
     </g>
    </g>
    <g id="ytick_2">
     <g id="line2d_21">
      <path clip-path="url(#pfe5d85fbbb)" d="M 19.7 117.070293 
L 238.506306 117.070293 
" style="fill:none;opacity:0.3;stroke:#b0b0b0;stroke-linecap:square;stroke-width:0.8;"/>
     </g>
     <g id="line2d_22">
      <g>
       <use style="stroke:#000000;stroke-width:0.8;" x="19.7" xlink:href="#m7225e95aa5" y="117.070293"/>
      </g>
     </g>
     <g id="text_11">
      <!-- 190 -->
      <defs>
       <path d="M 5.28125 -1.375 
L 5.28125 0.4375 
Q 11.625 0.53125 17.09375 3.390625 
Q 22.5625 6.25 27.65625 13.375 
Q 32.765625 20.515625 34.765625 29.046875 
Q 27.09375 24.125 20.90625 24.125 
Q 13.921875 24.125 8.9375 29.515625 
Q 3.953125 34.90625 3.953125 43.84375 
Q 3.953125 52.546875 8.9375 59.328125 
Q 14.9375 67.578125 24.609375 67.578125 
Q 32.765625 67.578125 38.578125 60.84375 
Q 45.703125 52.484375 45.703125 40.234375 
Q 45.703125 29.203125 40.28125 19.65625 
Q 34.859375 10.109375 25.203125 3.8125 
Q 17.328125 -1.375 8.0625 -1.375 
z
M 35.546875 32.671875 
Q 36.421875 39.015625 36.421875 42.828125 
Q 36.421875 47.5625 34.8125 53.046875 
Q 33.203125 58.546875 30.25 61.46875 
Q 27.296875 64.40625 23.53125 64.40625 
Q 19.1875 64.40625 15.90625 60.5 
Q 12.640625 56.59375 12.640625 48.875 
Q 12.640625 38.578125 17 32.765625 
Q 20.171875 28.5625 24.8125 28.5625 
Q 27.046875 28.5625 30.125 29.640625 
Q 33.203125 30.71875 35.546875 32.671875 
z
" id="TimesNewRomanPSMT-39"/>
      </defs>
      <g transform="translate(7.2 119.153418)scale(0.06 -0.06)">
       <use xlink:href="#TimesNewRomanPSMT-31"/>
       <use x="50" xlink:href="#TimesNewRomanPSMT-39"/>
       <use x="100" xlink:href="#TimesNewRomanPSMT-30"/>
      </g>
     </g>
    </g>
    <g id="ytick_3">
     <g id="line2d_23">
      <path clip-path="url(#pfe5d85fbbb)" d="M 19.7 92.37948 
L 238.506306 92.37948 
" style="fill:none;opacity:0.3;stroke:#b0b0b0;stroke-linecap:square;stroke-width:0.8;"/>
     </g>
     <g id="line2d_24">
      <g>
       <use style="stroke:#000000;stroke-width:0.8;" x="19.7" xlink:href="#m7225e95aa5" y="92.37948"/>
      </g>
     </g>
     <g id="text_12">
      <!-- 200 -->
      <g transform="translate(7.2 94.462605)scale(0.06 -0.06)">
       <use xlink:href="#TimesNewRomanPSMT-32"/>
       <use x="50" xlink:href="#TimesNewRomanPSMT-30"/>
       <use x="100" xlink:href="#TimesNewRomanPSMT-30"/>
      </g>
     </g>
    </g>
    <g id="ytick_4">
     <g id="line2d_25">
      <path clip-path="url(#pfe5d85fbbb)" d="M 19.7 67.688666 
L 238.506306 67.688666 
" style="fill:none;opacity:0.3;stroke:#b0b0b0;stroke-linecap:square;stroke-width:0.8;"/>
     </g>
     <g id="line2d_26">
      <g>
       <use style="stroke:#000000;stroke-width:0.8;" x="19.7" xlink:href="#m7225e95aa5" y="67.688666"/>
      </g>
     </g>
     <g id="text_13">
      <!-- 210 -->
      <g transform="translate(7.2 69.771791)scale(0.06 -0.06)">
       <use xlink:href="#TimesNewRomanPSMT-32"/>
       <use x="50" xlink:href="#TimesNewRomanPSMT-31"/>
       <use x="100" xlink:href="#TimesNewRomanPSMT-30"/>
      </g>
     </g>
    </g>
    <g id="ytick_5">
     <g id="line2d_27">
      <path clip-path="url(#pfe5d85fbbb)" d="M 19.7 42.997853 
L 238.506306 42.997853 
" style="fill:none;opacity:0.3;stroke:#b0b0b0;stroke-linecap:square;stroke-width:0.8;"/>
     </g>
     <g id="line2d_28">
      <g>
       <use style="stroke:#000000;stroke-width:0.8;" x="19.7" xlink:href="#m7225e95aa5" y="42.997853"/>
      </g>
     </g>
     <g id="text_14">
      <!-- 220 -->
      <g transform="translate(7.2 45.080978)scale(0.06 -0.06)">
       <use xlink:href="#TimesNewRomanPSMT-32"/>
       <use x="50" xlink:href="#TimesNewRomanPSMT-32"/>
       <use x="100" xlink:href="#TimesNewRomanPSMT-30"/>
      </g>
     </g>
    </g>
    <g id="ytick_6">
     <g id="line2d_29">
      <path clip-path="url(#pfe5d85fbbb)" d="M 19.7 18.307039 
L 238.506306 18.307039 
" style="fill:none;opacity:0.3;stroke:#b0b0b0;stroke-linecap:square;stroke-width:0.8;"/>
     </g>
     <g id="line2d_30">
      <g>
       <use style="stroke:#000000;stroke-width:0.8;" x="19.7" xlink:href="#m7225e95aa5" y="18.307039"/>
      </g>
     </g>
     <g id="text_15">
      <!-- 230 -->
      <g transform="translate(7.2 20.390164)scale(0.06 -0.06)">
       <use xlink:href="#TimesNewRomanPSMT-32"/>
       <use x="50" xlink:href="#TimesNewRomanPSMT-33"/>
       <use x="100" xlink:href="#TimesNewRomanPSMT-30"/>
      </g>
     </g>
    </g>
   </g>
   <g id="line2d_31">
    <path clip-path="url(#pfe5d85fbbb)" d="M 29.645741 13.368876 
L 29.645741 13.368876 
L 31.250445 13.368876 
L 31.250445 13.368876 
L 34.684904 13.368876 
L 34.684904 13.368876 
L 40.624266 13.368876 
L 40.624266 13.368876 
L 42.493159 13.368876 
L 42.493159 13.368876 
L 46.50492 13.368876 
L 46.50492 15.837958 
L 48.383598 15.837958 
L 48.383598 15.837958 
L 52.454067 15.837958 
L 52.454067 13.368876 
L 56.876788 13.368876 
L 56.876788 13.368876 
L 58.540201 13.368876 
L 58.540201 13.368876 
L 69.890548 13.368876 
L 69.890548 13.368876 
L 74.019725 13.368876 
L 74.019725 13.368876 
L 75.839695 13.368876 
L 75.839695 13.368876 
L 79.968873 13.368876 
L 79.968873 13.368876 
L 81.88669 13.368876 
L 81.88669 18.307039 
L 87.67928 18.307039 
L 87.67928 57.812341 
L 92.19985 57.812341 
L 92.19985 97.317643 
L 93.462086 97.317643 
L 93.462086 114.601212 
L 99.284031 114.601212 
L 99.284031 114.601212 
L 101.524746 114.601212 
L 101.524746 99.786724 
L 103.442564 99.786724 
L 103.442564 89.910398 
L 109.587406 89.910398 
L 109.587406 87.441317 
L 111.113832 87.441317 
L 111.113832 84.972236 
L 116.896638 84.972236 
L 116.896638 84.972236 
L 123.002342 87.441317 
L 123.002342 102.255805 
L 124.665755 102.255805 
L 124.665755 114.601212 
L 127.327215 114.601212 
L 127.327215 124.477537 
L 132.71863 124.477537 
L 132.71863 124.477537 
L 134.51903 124.477537 
L 134.51903 114.601212 
L 140.360544 114.601212 
L 140.360544 97.317643 
L 142.327285 97.317643 
L 142.327285 92.37948 
L 146.339046 92.37948 
L 146.339046 92.37948 
L 150.438869 92.37948 
L 150.438869 87.441317 
L 154.235364 87.441317 
L 154.235364 84.972236 
L 165.791191 107.193968 
L 165.791191 114.601212 
L 169.714889 114.601212 
L 169.714889 114.601212 
L 172.063236 114.601212 
L 172.063236 99.786724 
L 177.73841 99.786724 
L 177.73841 89.910398 
L 180.028049 89.910398 
L 180.028049 89.910398 
L 183.384229 89.910398 
L 183.384229 92.37948 
L 189.313806 92.37948 
L 189.313806 89.910398 
L 191.221839 89.910398 
L 191.221839 87.441317 
L 195.253169 87.441317 
L 195.253169 97.317643 
L 197.112277 97.317643 
L 197.112277 104.724887 
L 201.339303 104.724887 
L 201.339303 114.601212 
L 205.536974 114.601212 
L 205.536974 114.601212 
L 207.454791 114.601212 
L 207.454791 107.193968 
L 211.270856 107.193968 
L 211.270856 99.786724 
L 213.032117 99.786724 
L 213.032117 97.317643 
L 218.70729 97.317643 
L 218.70729 97.317643 
L 222.562494 97.317643 
L 222.562494 99.786724 
L 225.047828 99.786724 
L 225.047828 97.317643 
L 226.593824 97.317643 
L 226.593824 99.786724 
" style="fill:none;stroke:#1f77b4;stroke-linecap:square;stroke-width:2;"/>
   </g>
   <g id="line2d_32">
    <path clip-path="url(#pfe5d85fbbb)" d="M 29.645741 13.571341 
L 31.250445 13.44048 
L 33.011706 13.541712 
L 34.684904 13.457763 
L 37.11153 13.635537 
L 38.814081 13.726893 
L 40.624266 13.435542 
L 42.493159 13.418258 
L 44.645811 13.433072 
L 46.50492 15.813267 
L 48.383598 15.874994 
L 50.820008 15.956474 
L 52.454067 13.366407 
L 54.841554 13.363938 
L 56.876788 13.307149 
L 58.540201 13.349124 
L 60.966827 13.462701 
L 62.346481 13.472578 
L 64.039248 13.554057 
L 66.505013 13.744177 
L 68.344552 13.81578 
L 69.890548 13.344186 
L 71.955137 13.344186 
L 74.019725 13.41332 
L 75.839695 14.914521 
L 77.747727 20.198355 
L 79.968873 23.726673 
L 81.88669 30.012954 
L 84.000203 44.464487 
L 86.201778 59.029598 
L 87.67928 64.785027 
L 89.567743 69.846643 
L 92.19985 97.004069 
L 93.462086 111.97164 
L 95.74194 102.954555 
L 97.33686 94.774489 
L 99.284031 105.302652 
L 101.524746 92.13751 
L 103.442564 87.177125 
L 105.105976 87.619091 
L 107.561957 90.727664 
L 109.587406 89.774599 
L 111.113832 85.619135 
L 113.305623 85.725306 
L 115.027745 84.991988 
L 116.896638 83.829051 
L 118.834025 82.740186 
L 121.201942 81.767368 
L 123.002342 102.744683 
L 124.665755 116.080192 
L 127.327215 128.674976 
L 129.147185 132.18354 
L 130.614902 135.450135 
L 132.71863 129.36138 
L 134.51903 118.544335 
L 136.74996 123.719529 
L 138.432942 126.842917 
L 140.360544 99.223773 
L 142.327285 93.199215 
L 144.303811 91.816529 
L 146.339046 92.537501 
L 148.286217 90.535076 
L 150.438869 85.626542 
L 152.131636 87.791927 
L 154.235364 87.317863 
L 157.434988 92.510341 
L 158.23734 94.132528 
L 159.998601 98.107749 
L 162.121898 103.231092 
L 163.873374 108.060615 
L 165.791191 120.778854 
L 167.767717 121.27267 
L 169.714889 114.941945 
L 172.063236 99.90524 
L 173.756004 99.626234 
L 175.634682 99.204021 
L 177.73841 89.359793 
L 180.028049 89.307943 
L 181.936081 88.888199 
L 183.384229 92.149855 
L 186.407726 91.660977 
L 187.347065 91.547399 
L 189.313806 89.522753 
L 191.221839 86.974661 
L 193.609325 86.308009 
L 195.253169 96.890491 
L 197.112277 104.297736 
L 199.137727 103.885399 
L 201.339303 114.253072 
L 202.963577 114.097519 
L 205.536974 114.33702 
L 207.454791 106.959405 
L 208.961648 106.73225 
L 211.270856 99.332413 
L 213.032117 96.902837 
L 214.754238 96.446057 
L 217.034092 95.806565 
L 218.70729 96.870739 
L 221.094777 96.167051 
L 222.562494 99.386733 
L 225.047828 96.54482 
L 226.593824 99.337351 
L 228.560565 98.734895 
" style="fill:none;stroke:#ff7f0e;stroke-linecap:square;stroke-width:2;"/>
   </g>
   <g id="patch_3">
    <path d="M 19.7 141.557284 
L 19.7 7.2 
" style="fill:none;stroke:#000000;stroke-linecap:square;stroke-linejoin:miter;stroke-width:0.8;"/>
   </g>
   <g id="patch_4">
    <path d="M 238.506306 141.557284 
L 238.506306 7.2 
" style="fill:none;stroke:#000000;stroke-linecap:square;stroke-linejoin:miter;stroke-width:0.8;"/>
   </g>
   <g id="patch_5">
    <path d="M 19.7 141.557284 
L 238.506306 141.557284 
" style="fill:none;stroke:#000000;stroke-linecap:square;stroke-linejoin:miter;stroke-width:0.8;"/>
   </g>
   <g id="patch_6">
    <path d="M 19.7 7.2 
L 238.506306 7.2 
" style="fill:none;stroke:#000000;stroke-linecap:square;stroke-linejoin:miter;stroke-width:0.8;"/>
   </g>
  </g>
 </g>
 <defs>
  <clipPath id="pfe5d85fbbb">
   <rect height="134.357284" width="218.806306" x="19.7" y="7.2"/>
  </clipPath>
 </defs>
</svg>
