<?xml version="1.0" encoding="utf-8" standalone="no"?>
<!DOCTYPE svg PUBLIC "-//W3C//DTD SVG 1.1//EN"
  "http://www.w3.org/Graphics/SVG/1.1/DTD/svg11.dtd">
<!-- Created with matplotlib (http://matplotlib.org/) -->
<svg height="88pt" version="1.1" viewBox="0 0 132 88" width="132pt" xmlns="http://www.w3.org/2000/svg" xmlns:xlink="http://www.w3.org/1999/xlink">
 <defs>
  <style type="text/css">
*{stroke-linecap:butt;stroke-linejoin:round;}
  </style>
 </defs>
 <g id="figure_1">
  <g id="patch_1">
   <path d="M 0 88.100186 
L 132.348822 88.100186 
L 132.348822 0 
L 0 0 
z
" style="fill:#ffffff;"/>
  </g>
  <g id="axes_1">
   <g id="patch_2">
    <path d="M 19.7 71.950498 
L 125.148822 71.950498 
L 125.148822 7.2 
L 19.7 7.2 
z
" style="fill:#ffffff;"/>
   </g>
   <g id="matplotlib.axis_1">
    <g id="xtick_1">
     <g id="line2d_1">
      <path clip-path="url(#p09807ac460)" d="M 34.915216 71.950498 
L 34.915216 7.2 
" style="fill:none;opacity:0.3;stroke:#b0b0b0;stroke-linecap:square;stroke-width:0.8;"/>
     </g>
     <g id="line2d_2">
      <defs>
       <path d="M 0 0 
L 0 -3.5 
" id="m2385af8bc3" style="stroke:#000000;stroke-width:0.8;"/>
      </defs>
      <g>
       <use style="stroke:#000000;stroke-width:0.8;" x="34.915216" xlink:href="#m2385af8bc3" y="71.950498"/>
      </g>
     </g>
     <g id="text_1">
      <!-- 37 -->
      <defs>
       <path d="M 5.078125 53.609375 
Q 7.90625 60.296875 12.21875 63.9375 
Q 16.546875 67.578125 23 67.578125 
Q 30.953125 67.578125 35.203125 62.40625 
Q 38.421875 58.546875 38.421875 54.15625 
Q 38.421875 46.921875 29.34375 39.203125 
Q 35.453125 36.8125 38.578125 32.375 
Q 41.703125 27.9375 41.703125 21.921875 
Q 41.703125 13.328125 36.234375 7.03125 
Q 29.109375 -1.171875 15.578125 -1.171875 
Q 8.890625 -1.171875 6.46875 0.484375 
Q 4.046875 2.15625 4.046875 4.046875 
Q 4.046875 5.46875 5.1875 6.546875 
Q 6.34375 7.625 7.953125 7.625 
Q 9.1875 7.625 10.453125 7.234375 
Q 11.28125 6.984375 14.203125 5.4375 
Q 17.140625 3.90625 18.265625 3.609375 
Q 20.0625 3.078125 22.125 3.078125 
Q 27.09375 3.078125 30.78125 6.9375 
Q 34.46875 10.796875 34.46875 16.0625 
Q 34.46875 19.921875 32.765625 23.578125 
Q 31.5 26.3125 29.984375 27.734375 
Q 27.875 29.6875 24.21875 31.265625 
Q 20.5625 32.859375 16.75 32.859375 
L 15.1875 32.859375 
L 15.1875 34.328125 
Q 19.046875 34.8125 22.921875 37.109375 
Q 26.8125 39.40625 28.5625 42.625 
Q 30.328125 45.84375 30.328125 49.703125 
Q 30.328125 54.734375 27.171875 57.828125 
Q 24.03125 60.9375 19.34375 60.9375 
Q 11.765625 60.9375 6.6875 52.828125 
z
" id="TimesNewRomanPSMT-33"/>
       <path d="M 10.0625 66.21875 
L 45.5625 66.21875 
L 45.5625 64.359375 
L 23.484375 -1.375 
L 18.015625 -1.375 
L 37.796875 58.25 
L 19.578125 58.25 
Q 14.0625 58.25 11.71875 56.9375 
Q 7.625 54.6875 5.125 50 
L 3.71875 50.53125 
z
" id="TimesNewRomanPSMT-37"/>
      </defs>
      <g transform="translate(31.915216 79.616748)scale(0.06 -0.06)">
       <use xlink:href="#TimesNewRomanPSMT-33"/>
       <use x="50" xlink:href="#TimesNewRomanPSMT-37"/>
      </g>
     </g>
    </g>
    <g id="xtick_2">
     <g id="line2d_3">
      <path clip-path="url(#p09807ac460)" d="M 56.412921 71.950498 
L 56.412921 7.2 
" style="fill:none;opacity:0.3;stroke:#b0b0b0;stroke-linecap:square;stroke-width:0.8;"/>
     </g>
     <g id="line2d_4">
      <g>
       <use style="stroke:#000000;stroke-width:0.8;" x="56.412921" xlink:href="#m2385af8bc3" y="71.950498"/>
      </g>
     </g>
     <g id="text_2">
      <!-- 38 -->
      <defs>
       <path d="M 19.1875 33.34375 
Q 11.328125 39.796875 9.046875 43.703125 
Q 6.78125 47.609375 6.78125 51.8125 
Q 6.78125 58.25 11.765625 62.90625 
Q 16.75 67.578125 25 67.578125 
Q 33.015625 67.578125 37.890625 63.234375 
Q 42.78125 58.890625 42.78125 53.328125 
Q 42.78125 49.609375 40.140625 45.75 
Q 37.5 41.890625 29.15625 36.671875 
Q 37.75 30.03125 40.53125 26.21875 
Q 44.234375 21.234375 44.234375 15.71875 
Q 44.234375 8.734375 38.90625 3.78125 
Q 33.59375 -1.171875 24.953125 -1.171875 
Q 15.53125 -1.171875 10.25 4.734375 
Q 6.0625 9.46875 6.0625 15.09375 
Q 6.0625 19.484375 9.015625 23.796875 
Q 11.96875 28.125 19.1875 33.34375 
z
M 26.859375 38.578125 
Q 32.71875 43.84375 34.28125 46.890625 
Q 35.84375 49.953125 35.84375 53.8125 
Q 35.84375 58.9375 32.953125 61.84375 
Q 30.078125 64.75 25.09375 64.75 
Q 20.125 64.75 17 61.859375 
Q 13.875 58.984375 13.875 55.125 
Q 13.875 52.59375 15.15625 50.046875 
Q 16.453125 47.515625 18.84375 45.21875 
z
M 21.484375 31.5 
Q 17.4375 28.078125 15.484375 24.046875 
Q 13.53125 20.015625 13.53125 15.328125 
Q 13.53125 9.03125 16.96875 5.25 
Q 20.40625 1.46875 25.734375 1.46875 
Q 31 1.46875 34.171875 4.4375 
Q 37.359375 7.421875 37.359375 11.671875 
Q 37.359375 15.1875 35.5 17.96875 
Q 32.03125 23.140625 21.484375 31.5 
z
" id="TimesNewRomanPSMT-38"/>
      </defs>
      <g transform="translate(53.412921 79.616748)scale(0.06 -0.06)">
       <use xlink:href="#TimesNewRomanPSMT-33"/>
       <use x="50" xlink:href="#TimesNewRomanPSMT-38"/>
      </g>
     </g>
    </g>
    <g id="xtick_3">
     <g id="line2d_5">
      <path clip-path="url(#p09807ac460)" d="M 77.910625 71.950498 
L 77.910625 7.2 
" style="fill:none;opacity:0.3;stroke:#b0b0b0;stroke-linecap:square;stroke-width:0.8;"/>
     </g>
     <g id="line2d_6">
      <g>
       <use style="stroke:#000000;stroke-width:0.8;" x="77.910625" xlink:href="#m2385af8bc3" y="71.950498"/>
      </g>
     </g>
     <g id="text_3">
      <!-- 39 -->
      <defs>
       <path d="M 5.28125 -1.375 
L 5.28125 0.4375 
Q 11.625 0.53125 17.09375 3.390625 
Q 22.5625 6.25 27.65625 13.375 
Q 32.765625 20.515625 34.765625 29.046875 
Q 27.09375 24.125 20.90625 24.125 
Q 13.921875 24.125 8.9375 29.515625 
Q 3.953125 34.90625 3.953125 43.84375 
Q 3.953125 52.546875 8.9375 59.328125 
Q 14.9375 67.578125 24.609375 67.578125 
Q 32.765625 67.578125 38.578125 60.84375 
Q 45.703125 52.484375 45.703125 40.234375 
Q 45.703125 29.203125 40.28125 19.65625 
Q 34.859375 10.109375 25.203125 3.8125 
Q 17.328125 -1.375 8.0625 -1.375 
z
M 35.546875 32.671875 
Q 36.421875 39.015625 36.421875 42.828125 
Q 36.421875 47.5625 34.8125 53.046875 
Q 33.203125 58.546875 30.25 61.46875 
Q 27.296875 64.40625 23.53125 64.40625 
Q 19.1875 64.40625 15.90625 60.5 
Q 12.640625 56.59375 12.640625 48.875 
Q 12.640625 38.578125 17 32.765625 
Q 20.171875 28.5625 24.8125 28.5625 
Q 27.046875 28.5625 30.125 29.640625 
Q 33.203125 30.71875 35.546875 32.671875 
z
" id="TimesNewRomanPSMT-39"/>
      </defs>
      <g transform="translate(74.910625 79.616748)scale(0.06 -0.06)">
       <use xlink:href="#TimesNewRomanPSMT-33"/>
       <use x="50" xlink:href="#TimesNewRomanPSMT-39"/>
      </g>
     </g>
    </g>
    <g id="xtick_4">
     <g id="line2d_7">
      <path clip-path="url(#p09807ac460)" d="M 99.40833 71.950498 
L 99.40833 7.2 
" style="fill:none;opacity:0.3;stroke:#b0b0b0;stroke-linecap:square;stroke-width:0.8;"/>
     </g>
     <g id="line2d_8">
      <g>
       <use style="stroke:#000000;stroke-width:0.8;" x="99.40833" xlink:href="#m2385af8bc3" y="71.950498"/>
      </g>
     </g>
     <g id="text_4">
      <!-- 40 -->
      <defs>
       <path d="M 46.53125 24.421875 
L 46.53125 17.484375 
L 37.640625 17.484375 
L 37.640625 0 
L 29.59375 0 
L 29.59375 17.484375 
L 1.5625 17.484375 
L 1.5625 23.734375 
L 32.28125 67.578125 
L 37.640625 67.578125 
L 37.640625 24.421875 
z
M 29.59375 24.421875 
L 29.59375 57.28125 
L 6.34375 24.421875 
z
" id="TimesNewRomanPSMT-34"/>
       <path d="M 3.609375 32.71875 
Q 3.609375 44.046875 7.03125 52.21875 
Q 10.453125 60.40625 16.109375 64.40625 
Q 20.515625 67.578125 25.203125 67.578125 
Q 32.8125 67.578125 38.875 59.8125 
Q 46.4375 50.203125 46.4375 33.734375 
Q 46.4375 22.21875 43.109375 14.15625 
Q 39.796875 6.109375 34.640625 2.46875 
Q 29.5 -1.171875 24.703125 -1.171875 
Q 15.234375 -1.171875 8.9375 10.015625 
Q 3.609375 19.4375 3.609375 32.71875 
z
M 13.1875 31.5 
Q 13.1875 17.828125 16.546875 9.1875 
Q 19.34375 1.90625 24.859375 1.90625 
Q 27.484375 1.90625 30.3125 4.265625 
Q 33.15625 6.640625 34.625 12.203125 
Q 36.859375 20.609375 36.859375 35.890625 
Q 36.859375 47.21875 34.515625 54.78125 
Q 32.765625 60.40625 29.984375 62.75 
Q 27.984375 64.359375 25.140625 64.359375 
Q 21.828125 64.359375 19.234375 61.375 
Q 15.71875 57.328125 14.453125 48.625 
Q 13.1875 39.9375 13.1875 31.5 
z
" id="TimesNewRomanPSMT-30"/>
      </defs>
      <g transform="translate(96.40833 79.616748)scale(0.06 -0.06)">
       <use xlink:href="#TimesNewRomanPSMT-34"/>
       <use x="50" xlink:href="#TimesNewRomanPSMT-30"/>
      </g>
     </g>
    </g>
    <g id="xtick_5">
     <g id="line2d_9">
      <path clip-path="url(#p09807ac460)" d="M 120.906035 71.950498 
L 120.906035 7.2 
" style="fill:none;opacity:0.3;stroke:#b0b0b0;stroke-linecap:square;stroke-width:0.8;"/>
     </g>
     <g id="line2d_10">
      <g>
       <use style="stroke:#000000;stroke-width:0.8;" x="120.906035" xlink:href="#m2385af8bc3" y="71.950498"/>
      </g>
     </g>
     <g id="text_5">
      <!-- 41 -->
      <defs>
       <path d="M 11.71875 59.71875 
L 27.828125 67.578125 
L 29.4375 67.578125 
L 29.4375 11.671875 
Q 29.4375 6.109375 29.90625 4.734375 
Q 30.375 3.375 31.828125 2.640625 
Q 33.296875 1.90625 37.796875 1.8125 
L 37.796875 0 
L 12.890625 0 
L 12.890625 1.8125 
Q 17.578125 1.90625 18.9375 2.609375 
Q 20.3125 3.328125 20.84375 4.515625 
Q 21.390625 5.71875 21.390625 11.671875 
L 21.390625 47.40625 
Q 21.390625 54.640625 20.90625 56.6875 
Q 20.5625 58.25 19.65625 58.984375 
Q 18.75 59.71875 17.484375 59.71875 
Q 15.671875 59.71875 12.453125 58.203125 
z
" id="TimesNewRomanPSMT-31"/>
      </defs>
      <g transform="translate(117.906035 79.616748)scale(0.06 -0.06)">
       <use xlink:href="#TimesNewRomanPSMT-34"/>
       <use x="50" xlink:href="#TimesNewRomanPSMT-31"/>
      </g>
     </g>
    </g>
   </g>
   <g id="matplotlib.axis_2">
    <g id="ytick_1">
     <g id="line2d_11">
      <path clip-path="url(#p09807ac460)" d="M 19.7 68.858852 
L 125.148822 68.858852 
" style="fill:none;opacity:0.3;stroke:#b0b0b0;stroke-linecap:square;stroke-width:0.8;"/>
     </g>
     <g id="line2d_12">
      <defs>
       <path d="M 0 0 
L 3.5 0 
" id="m7537621e03" style="stroke:#000000;stroke-width:0.8;"/>
      </defs>
      <g>
       <use style="stroke:#000000;stroke-width:0.8;" x="19.7" xlink:href="#m7537621e03" y="68.858852"/>
      </g>
     </g>
     <g id="text_6">
      <!-- 0 -->
      <g transform="translate(13.2 70.941977)scale(0.06 -0.06)">
       <use xlink:href="#TimesNewRomanPSMT-30"/>
      </g>
     </g>
    </g>
    <g id="ytick_2">
     <g id="line2d_13">
      <path clip-path="url(#p09807ac460)" d="M 19.7 54.01465 
L 125.148822 54.01465 
" style="fill:none;opacity:0.3;stroke:#b0b0b0;stroke-linecap:square;stroke-width:0.8;"/>
     </g>
     <g id="line2d_14">
      <g>
       <use style="stroke:#000000;stroke-width:0.8;" x="19.7" xlink:href="#m7537621e03" y="54.01465"/>
      </g>
     </g>
     <g id="text_7">
      <!-- 100 -->
      <g transform="translate(7.2 56.097775)scale(0.06 -0.06)">
       <use xlink:href="#TimesNewRomanPSMT-31"/>
       <use x="50" xlink:href="#TimesNewRomanPSMT-30"/>
       <use x="100" xlink:href="#TimesNewRomanPSMT-30"/>
      </g>
     </g>
    </g>
    <g id="ytick_3">
     <g id="line2d_15">
      <path clip-path="url(#p09807ac460)" d="M 19.7 39.170448 
L 125.148822 39.170448 
" style="fill:none;opacity:0.3;stroke:#b0b0b0;stroke-linecap:square;stroke-width:0.8;"/>
     </g>
     <g id="line2d_16">
      <g>
       <use style="stroke:#000000;stroke-width:0.8;" x="19.7" xlink:href="#m7537621e03" y="39.170448"/>
      </g>
     </g>
     <g id="text_8">
      <!-- 200 -->
      <defs>
       <path d="M 45.84375 12.75 
L 41.21875 0 
L 2.15625 0 
L 2.15625 1.8125 
Q 19.390625 17.53125 26.421875 27.484375 
Q 33.453125 37.453125 33.453125 45.703125 
Q 33.453125 52 29.59375 56.046875 
Q 25.734375 60.109375 20.359375 60.109375 
Q 15.484375 60.109375 11.59375 57.25 
Q 7.71875 54.390625 5.859375 48.875 
L 4.046875 48.875 
Q 5.28125 57.90625 10.328125 62.734375 
Q 15.375 67.578125 22.953125 67.578125 
Q 31 67.578125 36.390625 62.40625 
Q 41.796875 57.234375 41.796875 50.203125 
Q 41.796875 45.171875 39.453125 40.140625 
Q 35.84375 32.234375 27.734375 23.390625 
Q 15.578125 10.109375 12.546875 7.375 
L 29.828125 7.375 
Q 35.109375 7.375 37.234375 7.765625 
Q 39.359375 8.15625 41.0625 9.34375 
Q 42.78125 10.546875 44.046875 12.75 
z
" id="TimesNewRomanPSMT-32"/>
      </defs>
      <g transform="translate(7.2 41.253573)scale(0.06 -0.06)">
       <use xlink:href="#TimesNewRomanPSMT-32"/>
       <use x="50" xlink:href="#TimesNewRomanPSMT-30"/>
       <use x="100" xlink:href="#TimesNewRomanPSMT-30"/>
      </g>
     </g>
    </g>
    <g id="ytick_4">
     <g id="line2d_17">
      <path clip-path="url(#p09807ac460)" d="M 19.7 24.326246 
L 125.148822 24.326246 
" style="fill:none;opacity:0.3;stroke:#b0b0b0;stroke-linecap:square;stroke-width:0.8;"/>
     </g>
     <g id="line2d_18">
      <g>
       <use style="stroke:#000000;stroke-width:0.8;" x="19.7" xlink:href="#m7537621e03" y="24.326246"/>
      </g>
     </g>
     <g id="text_9">
      <!-- 300 -->
      <g transform="translate(7.2 26.409371)scale(0.06 -0.06)">
       <use xlink:href="#TimesNewRomanPSMT-33"/>
       <use x="50" xlink:href="#TimesNewRomanPSMT-30"/>
       <use x="100" xlink:href="#TimesNewRomanPSMT-30"/>
      </g>
     </g>
    </g>
    <g id="ytick_5">
     <g id="line2d_19">
      <path clip-path="url(#p09807ac460)" d="M 19.7 9.482044 
L 125.148822 9.482044 
" style="fill:none;opacity:0.3;stroke:#b0b0b0;stroke-linecap:square;stroke-width:0.8;"/>
     </g>
     <g id="line2d_20">
      <g>
       <use style="stroke:#000000;stroke-width:0.8;" x="19.7" xlink:href="#m7537621e03" y="9.482044"/>
      </g>
     </g>
     <g id="text_10">
      <!-- 400 -->
      <g transform="translate(7.2 11.565169)scale(0.06 -0.06)">
       <use xlink:href="#TimesNewRomanPSMT-34"/>
       <use x="50" xlink:href="#TimesNewRomanPSMT-30"/>
       <use x="100" xlink:href="#TimesNewRomanPSMT-30"/>
      </g>
     </g>
    </g>
   </g>
   <g id="line2d_21">
    <path clip-path="url(#p09807ac460)" d="M 24.493128 33.826535 
L 24.873638 33.826535 
L 24.873638 33.826535 
L 24.873638 33.826535 
L 25.260596 33.826535 
L 25.260596 33.974977 
L 25.802339 33.974977 
L 25.802339 33.826535 
L 26.154901 33.826535 
L 26.154901 33.974977 
L 26.53326 33.826535 
L 27.457662 33.826535 
L 27.457662 33.974977 
L 27.992955 33.974977 
L 27.992955 33.826535 
L 30.230866 33.826535 
L 30.230866 33.826535 
L 30.923092 33.678093 
L 30.923092 33.529651 
L 31.353046 33.529651 
L 31.353046 33.826535 
L 32.137712 33.826535 
L 32.137712 33.529651 
L 33.09221 33.529651 
L 33.09221 33.678093 
L 33.84248 33.678093 
L 33.84248 33.529651 
L 34.40357 33.529651 
L 34.40357 33.678093 
L 35.770824 33.678093 
L 35.770824 33.529651 
L 36.08899 33.529651 
L 36.08899 33.529651 
L 36.08899 69.007294 
L 37.806657 34.123419 
L 37.806657 34.420303 
L 38.15277 34.420303 
L 38.15277 34.717187 
L 38.720309 35.014071 
L 38.720309 35.904723 
L 39.524324 36.646933 
L 39.524324 37.389144 
L 39.917732 37.389144 
L 39.917732 38.131354 
L 40.345536 38.131354 
L 40.345536 38.725122 
L 40.807737 38.725122 
L 40.807737 39.022006 
L 41.254889 39.022006 
L 41.254889 39.170448 
L 42.071802 39.31889 
L 42.071802 39.022006 
L 42.495306 39.022006 
L 42.495306 38.57668 
L 42.897313 38.57668 
L 42.897313 37.982912 
L 43.387461 37.982912 
L 43.387461 37.537586 
L 43.823865 37.537586 
L 43.823865 37.09226 
L 44.303263 37.09226 
L 44.303263 36.646933 
L 44.61498 36.646933 
L 44.61498 36.498491 
L 45.152423 35.904723 
L 45.152423 35.904723 
L 45.597425 35.904723 
L 45.597425 35.607839 
L 45.939239 35.607839 
L 46.855041 35.162513 
L 46.855041 35.014071 
L 47.852534 35.014071 
L 47.852534 35.162513 
L 48.813482 35.162513 
L 48.813482 34.865629 
L 49.611047 34.865629 
L 49.611047 34.717187 
L 50.318321 34.271861 
L 50.318321 34.123419 
L 51.139534 33.826535 
L 51.139534 33.381209 
L 51.616783 33.381209 
L 51.616783 33.232767 
L 52.394999 33.084325 
L 52.394999 33.232767 
L 53.278555 33.232767 
L 53.278555 33.381209 
L 54.136314 33.381209 
L 54.136314 33.232767 
L 54.570567 33.232767 
L 54.570567 33.232767 
L 55.039217 33.084325 
L 55.039217 33.084325 
L 55.454123 33.084325 
L 55.454123 32.935883 
L 55.907724 32.935883 
L 55.907724 32.638999 
L 56.683792 32.638999 
L 56.683792 32.490557 
L 57.597444 32.490557 
L 57.597444 32.342115 
L 59.257067 32.342115 
L 59.257067 32.193673 
L 60.140623 32.193673 
L 60.140623 32.045231 
L 60.684514 32.045231 
L 60.684514 31.896789 
L 61.462731 31.896789 
L 61.462731 31.599905 
L 62.374234 31.599905 
L 62.374234 31.451463 
L 63.150301 31.303021 
L 63.150301 31.154579 
L 63.569506 31.154579 
L 63.569506 31.154579 
L 64.511106 31.006137 
L 64.511106 30.857695 
L 65.760123 30.857695 
L 65.760123 30.709253 
L 67.963637 30.263927 
L 68.359195 30.115485 
L 68.359195 30.115485 
L 69.014875 30.115485 
L 69.014875 29.967043 
L 69.189007 29.967043 
L 69.189007 29.818601 
L 69.580265 29.818601 
L 69.580265 29.818601 
L 70.147804 29.670159 
L 70.147804 29.521716 
L 71.794528 29.521716 
L 71.794528 29.373274 
L 72.172888 29.373274 
L 72.172888 29.224832 
L 73.097289 29.224832 
L 73.097289 29.07639 
L 73.845409 29.07639 
L 73.845409 28.927948 
L 74.318359 28.927948 
L 74.318359 28.927948 
L 74.728965 28.779506 
L 74.728965 28.631064 
L 75.571675 28.631064 
L 75.571675 28.482622 
L 76.076871 28.482622 
L 76.076871 28.33418 
L 76.476729 28.33418 
L 76.476729 28.185738 
L 77.441975 28.185738 
L 77.441975 28.037296 
L 78.123453 27.888854 
L 78.123453 27.740412 
L 78.61575 27.740412 
L 78.61575 27.59197 
L 79.151043 27.59197 
L 79.151043 27.443528 
L 81.184726 26.84976 
L 81.184726 26.84976 
L 81.677023 26.84976 
L 81.677023 26.552876 
L 83.30225 26.255992 
L 83.30225 26.10755 
L 83.807446 26.10755 
L 83.807446 26.10755 
L 84.190105 25.959108 
L 84.190105 25.959108 
L 84.632958 25.959108 
L 84.632958 25.810666 
L 85.492866 25.810666 
L 85.492866 25.513782 
L 85.991613 25.513782 
L 85.991613 25.662224 
L 86.447364 25.513782 
L 86.447364 25.36534 
L 88.214475 25.36534 
L 88.214475 25.662224 
L 88.483197 25.662224 
L 88.483197 26.404434 
L 88.911001 26.404434 
L 88.911001 26.998202 
L 89.373202 26.998202 
L 89.373202 27.740412 
L 89.801006 27.740412 
L 89.801006 28.779506 
L 90.267506 28.779506 
L 90.267506 29.818601 
L 90.69961 29.818601 
L 90.69961 30.857695 
L 91.148912 30.857695 
L 91.148912 32.045231 
L 91.658408 33.084325 
L 91.658408 34.420303 
L 92.468871 35.310955 
L 92.468871 36.498491 
L 93.752284 38.57668 
L 93.752284 39.764216 
L 94.083349 39.764216 
L 94.083349 40.654868 
L 94.521902 40.654868 
L 94.521902 41.693962 
L 94.941107 41.693962 
L 94.941107 42.733056 
L 95.394709 43.623708 
L 95.394709 44.662803 
L 96.235269 44.662803 
L 96.235269 45.553455 
L 96.852253 46.295665 
L 96.852253 46.889433 
L 97.030684 46.889433 
L 97.030684 47.334759 
L 97.598224 47.334759 
L 97.598224 47.334759 
L 98.415136 46.444107 
L 98.415136 45.553455 
L 98.926782 45.553455 
L 98.926782 44.514361 
L 99.22345 44.514361 
L 99.22345 43.178382 
L 99.771642 43.178382 
L 99.771642 41.990846 
L 100.117755 41.990846 
L 100.117755 40.654868 
L 100.519762 40.654868 
L 100.519762 39.31889 
L 102.340617 34.420303 
L 102.340617 33.678093 
L 102.706078 33.678093 
L 102.706078 33.084325 
L 103.381106 33.084325 
L 103.381106 32.490557 
L 104.043236 31.748347 
L 104.043236 31.154579 
L 104.460291 31.154579 
L 104.460291 30.560811 
L 105.40189 29.224832 
L 105.40189 28.33418 
L 105.655563 28.33418 
L 105.655563 27.59197 
L 106.175808 27.59197 
L 106.175808 26.84976 
L 107.160403 25.959108 
L 107.160403 25.068456 
L 107.953668 23.435594 
L 107.953668 22.693384 
L 108.815726 21.951173 
L 108.815726 21.060521 
L 109.200535 21.060521 
L 109.200535 20.318311 
L 109.71863 19.576101 
L 109.71863 18.685449 
L 110.387208 18.685449 
L 110.387208 17.794797 
L 110.819312 17.052587 
L 110.819312 16.310377 
L 111.30731 16.310377 
L 111.30731 15.568167 
L 111.898497 14.825956 
L 111.898497 14.083746 
L 112.560626 13.341536 
L 112.560626 12.599326 
L 113.070122 12.599326 
L 113.070122 11.708674 
L 113.469979 11.708674 
L 113.469979 11.114906 
L 114.080514 10.521138 
L 114.080514 10.224254 
L 115.658445 10.224254 
L 115.658445 10.66958 
L 116.051853 10.66958 
L 116.051853 11.114906 
L 116.518354 11.114906 
L 116.518354 11.857116 
L 117.427707 13.63842 
L 117.427707 14.529072 
L 117.745873 14.529072 
L 117.745873 15.419725 
L 118.195175 15.419725 
L 118.195175 16.458819 
L 119.024986 17.349471 
L 119.024986 18.240123 
L 119.895643 21.802731 
L 119.895643 20.615195 
L 120.355694 20.615195 
L 120.355694 21.357405 
L 120.355694 21.357405 
" style="fill:none;stroke:#1f77b4;stroke-linecap:square;stroke-width:2;"/>
   </g>
   <g id="line2d_22">
    <path clip-path="url(#p09807ac460)" d="M 24.493128 33.854739 
L 24.873638 33.850583 
L 25.260596 33.96236 
L 25.802339 33.869732 
L 26.154901 33.965625 
L 26.53326 33.864388 
L 27.075003 33.871513 
L 27.457662 34.01476 
L 28.425059 33.851028 
L 30.407147 33.875521 
L 30.923092 33.579379 
L 31.353046 33.851325 
L 31.737855 33.804714 
L 32.137712 33.513916 
L 32.655807 33.501447 
L 33.09221 33.693828 
L 33.442623 33.691008 
L 33.84248 33.573738 
L 34.786229 33.658499 
L 35.201135 33.705258 
L 36.08899 33.520893 
L 36.918802 33.366068 
L 37.301461 33.374084 
L 38.720309 35.736539 
L 39.08577 35.66588 
L 39.524324 37.386917 
L 40.345536 38.764607 
L 41.254889 39.172229 
L 41.654746 39.211121 
L 42.071802 39.039374 
L 44.303263 36.809032 
L 44.61498 36.610862 
L 45.597425 35.763258 
L 45.939239 35.690225 
L 46.362743 35.734164 
L 46.855041 35.065581 
L 47.852534 35.130598 
L 48.237343 35.161029 
L 49.01341 35.087105 
L 49.611047 34.728023 
L 49.834623 34.775822 
L 50.318321 34.234899 
L 50.746126 34.238016 
L 51.139534 33.450235 
L 51.616783 33.263198 
L 52.818504 33.145038 
L 53.278555 33.327028 
L 53.760104 33.327918 
L 54.136314 33.201594 
L 54.570567 33.225345 
L 55.454123 33.001791 
L 55.907724 32.686649 
L 56.249538 32.688875 
L 56.683792 32.51787 
L 57.294326 32.577247 
L 57.597444 32.348795 
L 58.648682 32.308419 
L 58.960399 32.3531 
L 59.257067 32.235385 
L 59.704219 32.198571 
L 60.684514 31.868436 
L 61.01128 31.890109 
L 61.462731 31.610593 
L 61.959328 31.634789 
L 62.374234 31.488276 
L 62.746144 31.496144 
L 63.150301 31.155766 
L 63.945716 31.08778 
L 64.511106 30.802623 
L 65.280724 30.924494 
L 66.076139 30.738941 
L 66.656577 30.65522 
L 67.043536 30.419494 
L 67.451992 30.438643 
L 67.963637 30.343937 
L 68.359195 30.137009 
L 69.580265 29.811178 
L 70.147804 29.464863 
L 70.915272 29.491286 
L 71.300081 29.503607 
L 72.172888 29.262537 
L 72.583494 29.253779 
L 73.097289 29.015975 
L 74.318359 28.924386 
L 74.728965 28.630767 
L 75.221263 28.674855 
L 76.076871 28.221661 
L 76.893784 28.291429 
L 77.755842 28.069954 
L 78.123453 27.642589 
L 79.495006 27.344666 
L 80.834313 27.43284 
L 81.184726 26.872175 
L 82.92389 26.221257 
L 83.30225 26.074893 
L 84.190105 25.913982 
L 85.492866 25.487062 
L 85.991613 25.560541 
L 86.447364 25.208437 
L 87.240629 25.177264 
L 87.560945 25.102004 
L 88.214475 25.551783 
L 88.483197 26.394488 
L 89.373202 27.760303 
L 91.148912 32.021925 
L 91.658408 34.386162 
L 91.884134 34.404123 
L 92.468871 36.439115 
L 93.240639 36.4072 
L 93.752284 39.76288 
L 94.941107 42.918906 
L 95.394709 44.905951 
L 95.801015 45.056916 
L 96.235269 45.608081 
L 97.030684 47.397995 
L 97.933588 47.321251 
L 98.415136 45.557017 
L 98.926782 44.532322 
L 99.22345 43.252603 
L 99.771642 42.111381 
L 100.519762 39.467926 
L 101.411916 39.787967 
L 101.869818 39.923197 
L 102.340617 33.905803 
L 102.706078 33.31916 
L 103.381106 32.659187 
L 103.602533 32.692587 
L 104.043236 31.066701 
L 104.460291 30.57996 
L 104.778457 30.572389 
L 105.655563 27.586033 
L 106.175808 26.856143 
L 106.562767 26.674747 
L 107.160403 25.005962 
L 107.491467 24.908732 
L 107.953668 22.582794 
L 108.228839 22.503081 
L 109.71863 18.527655 
L 110.006699 18.388713 
L 110.387208 17.699646 
L 110.819312 16.139817 
L 111.30731 15.258368 
L 111.898497 13.722438 
L 112.156469 13.498885 
L 112.560626 12.116147 
L 113.070122 11.139993 
L 113.469979 10.979972 
L 114.080514 10.143204 
L 114.895277 10.601742 
L 115.658445 11.276114 
L 116.051853 11.576561 
L 116.518354 12.406203 
L 116.879515 12.787848 
L 117.427707 14.981672 
L 118.195175 16.712951 
L 118.579984 16.876831 
L 119.024986 18.425824 
L 119.495786 18.747052 
L 119.895643 20.732316 
L 120.355694 21.476753 
L 120.355694 21.476753 
" style="fill:none;stroke:#ff7f0e;stroke-linecap:square;stroke-width:2;"/>
   </g>
   <g id="patch_3">
    <path d="M 19.7 71.950498 
L 19.7 7.2 
" style="fill:none;stroke:#000000;stroke-linecap:square;stroke-linejoin:miter;stroke-width:0.8;"/>
   </g>
   <g id="patch_4">
    <path d="M 125.148822 71.950498 
L 125.148822 7.2 
" style="fill:none;stroke:#000000;stroke-linecap:square;stroke-linejoin:miter;stroke-width:0.8;"/>
   </g>
   <g id="patch_5">
    <path d="M 19.7 71.950498 
L 125.148822 71.950498 
" style="fill:none;stroke:#000000;stroke-linecap:square;stroke-linejoin:miter;stroke-width:0.8;"/>
   </g>
   <g id="patch_6">
    <path d="M 19.7 7.2 
L 125.148822 7.2 
" style="fill:none;stroke:#000000;stroke-linecap:square;stroke-linejoin:miter;stroke-width:0.8;"/>
   </g>
  </g>
 </g>
 <defs>
  <clipPath id="p09807ac460">
   <rect height="64.750498" width="105.448822" x="19.7" y="7.2"/>
  </clipPath>
 </defs>
</svg>
