<?xml version="1.0" encoding="utf-8" standalone="no"?>
<!DOCTYPE svg PUBLIC "-//W3C//DTD SVG 1.1//EN"
  "http://www.w3.org/Graphics/SVG/1.1/DTD/svg11.dtd">
<!-- Created with matplotlib (http://matplotlib.org/) -->
<svg height="81pt" version="1.1" viewBox="0 0 121 81" width="121pt" xmlns="http://www.w3.org/2000/svg" xmlns:xlink="http://www.w3.org/1999/xlink">
 <defs>
  <style type="text/css">
*{stroke-linecap:butt;stroke-linejoin:round;}
  </style>
 </defs>
 <g id="figure_1">
  <g id="patch_1">
   <path d="M 0 81.621931 
L 121.80394 81.621931 
L 121.80394 0 
L 0 0 
z
" style="fill:#ffffff;"/>
  </g>
  <g id="axes_1">
   <g id="patch_2">
    <path d="M 19.7 65.472244 
L 114.60394 65.472244 
L 114.60394 7.2 
L 19.7 7.2 
z
" style="fill:#ffffff;"/>
   </g>
   <g id="matplotlib.axis_1">
    <g id="xtick_1">
     <g id="line2d_1">
      <path clip-path="url(#p32221f1fec)" d="M 36.677916 65.472244 
L 36.677916 7.2 
" style="fill:none;opacity:0.1;stroke:#b0b0b0;stroke-linecap:square;stroke-width:0.1;"/>
     </g>
     <g id="line2d_2">
      <defs>
       <path d="M 0 0 
L 0 -2 
" id="m3cadda01cf" style="stroke:#000000;stroke-width:0.3;"/>
      </defs>
      <g>
       <use style="stroke:#000000;stroke-width:0.3;" x="36.677916" xlink:href="#m3cadda01cf" y="65.472244"/>
      </g>
     </g>
     <g id="text_1">
      <!-- 30.5 -->
      <defs>
       <path d="M 5.078125 53.609375 
Q 7.90625 60.296875 12.21875 63.9375 
Q 16.546875 67.578125 23 67.578125 
Q 30.953125 67.578125 35.203125 62.40625 
Q 38.421875 58.546875 38.421875 54.15625 
Q 38.421875 46.921875 29.34375 39.203125 
Q 35.453125 36.8125 38.578125 32.375 
Q 41.703125 27.9375 41.703125 21.921875 
Q 41.703125 13.328125 36.234375 7.03125 
Q 29.109375 -1.171875 15.578125 -1.171875 
Q 8.890625 -1.171875 6.46875 0.484375 
Q 4.046875 2.15625 4.046875 4.046875 
Q 4.046875 5.46875 5.1875 6.546875 
Q 6.34375 7.625 7.953125 7.625 
Q 9.1875 7.625 10.453125 7.234375 
Q 11.28125 6.984375 14.203125 5.4375 
Q 17.140625 3.90625 18.265625 3.609375 
Q 20.0625 3.078125 22.125 3.078125 
Q 27.09375 3.078125 30.78125 6.9375 
Q 34.46875 10.796875 34.46875 16.0625 
Q 34.46875 19.921875 32.765625 23.578125 
Q 31.5 26.3125 29.984375 27.734375 
Q 27.875 29.6875 24.21875 31.265625 
Q 20.5625 32.859375 16.75 32.859375 
L 15.1875 32.859375 
L 15.1875 34.328125 
Q 19.046875 34.8125 22.921875 37.109375 
Q 26.8125 39.40625 28.5625 42.625 
Q 30.328125 45.84375 30.328125 49.703125 
Q 30.328125 54.734375 27.171875 57.828125 
Q 24.03125 60.9375 19.34375 60.9375 
Q 11.765625 60.9375 6.6875 52.828125 
z
" id="TimesNewRomanPSMT-33"/>
       <path d="M 3.609375 32.71875 
Q 3.609375 44.046875 7.03125 52.21875 
Q 10.453125 60.40625 16.109375 64.40625 
Q 20.515625 67.578125 25.203125 67.578125 
Q 32.8125 67.578125 38.875 59.8125 
Q 46.4375 50.203125 46.4375 33.734375 
Q 46.4375 22.21875 43.109375 14.15625 
Q 39.796875 6.109375 34.640625 2.46875 
Q 29.5 -1.171875 24.703125 -1.171875 
Q 15.234375 -1.171875 8.9375 10.015625 
Q 3.609375 19.4375 3.609375 32.71875 
z
M 13.1875 31.5 
Q 13.1875 17.828125 16.546875 9.1875 
Q 19.34375 1.90625 24.859375 1.90625 
Q 27.484375 1.90625 30.3125 4.265625 
Q 33.15625 6.640625 34.625 12.203125 
Q 36.859375 20.609375 36.859375 35.890625 
Q 36.859375 47.21875 34.515625 54.78125 
Q 32.765625 60.40625 29.984375 62.75 
Q 27.984375 64.359375 25.140625 64.359375 
Q 21.828125 64.359375 19.234375 61.375 
Q 15.71875 57.328125 14.453125 48.625 
Q 13.1875 39.9375 13.1875 31.5 
z
" id="TimesNewRomanPSMT-30"/>
       <path d="M 12.5 9.46875 
Q 14.796875 9.46875 16.359375 7.875 
Q 17.921875 6.296875 17.921875 4.046875 
Q 17.921875 1.8125 16.328125 0.21875 
Q 14.75 -1.375 12.5 -1.375 
Q 10.25 -1.375 8.65625 0.21875 
Q 7.078125 1.8125 7.078125 4.046875 
Q 7.078125 6.34375 8.65625 7.90625 
Q 10.25 9.46875 12.5 9.46875 
z
" id="TimesNewRomanPSMT-2e"/>
       <path d="M 43.40625 66.21875 
L 39.59375 57.90625 
L 19.671875 57.90625 
L 15.328125 49.03125 
Q 28.265625 47.125 35.84375 39.40625 
Q 42.328125 32.765625 42.328125 23.78125 
Q 42.328125 18.5625 40.203125 14.109375 
Q 38.09375 9.671875 34.859375 6.546875 
Q 31.640625 3.421875 27.6875 1.515625 
Q 22.078125 -1.171875 16.15625 -1.171875 
Q 10.203125 -1.171875 7.484375 0.84375 
Q 4.78125 2.875 4.78125 5.328125 
Q 4.78125 6.6875 5.90625 7.734375 
Q 7.03125 8.796875 8.734375 8.796875 
Q 10.015625 8.796875 10.96875 8.40625 
Q 11.921875 8.015625 14.203125 6.390625 
Q 17.875 3.859375 21.625 3.859375 
Q 27.34375 3.859375 31.65625 8.171875 
Q 35.984375 12.5 35.984375 18.703125 
Q 35.984375 24.703125 32.125 29.90625 
Q 28.265625 35.109375 21.484375 37.9375 
Q 16.15625 40.140625 6.984375 40.484375 
L 19.671875 66.21875 
z
" id="TimesNewRomanPSMT-35"/>
      </defs>
      <g transform="translate(31.427916 73.138494)scale(0.06 -0.06)">
       <use xlink:href="#TimesNewRomanPSMT-33"/>
       <use x="50" xlink:href="#TimesNewRomanPSMT-30"/>
       <use x="100" xlink:href="#TimesNewRomanPSMT-2e"/>
       <use x="125" xlink:href="#TimesNewRomanPSMT-35"/>
      </g>
     </g>
    </g>
    <g id="xtick_2">
     <g id="line2d_3">
      <path clip-path="url(#p32221f1fec)" d="M 57.897924 65.472244 
L 57.897924 7.2 
" style="fill:none;opacity:0.1;stroke:#b0b0b0;stroke-linecap:square;stroke-width:0.1;"/>
     </g>
     <g id="line2d_4">
      <g>
       <use style="stroke:#000000;stroke-width:0.3;" x="57.897924" xlink:href="#m3cadda01cf" y="65.472244"/>
      </g>
     </g>
     <g id="text_2">
      <!-- 31.0 -->
      <defs>
       <path d="M 11.71875 59.71875 
L 27.828125 67.578125 
L 29.4375 67.578125 
L 29.4375 11.671875 
Q 29.4375 6.109375 29.90625 4.734375 
Q 30.375 3.375 31.828125 2.640625 
Q 33.296875 1.90625 37.796875 1.8125 
L 37.796875 0 
L 12.890625 0 
L 12.890625 1.8125 
Q 17.578125 1.90625 18.9375 2.609375 
Q 20.3125 3.328125 20.84375 4.515625 
Q 21.390625 5.71875 21.390625 11.671875 
L 21.390625 47.40625 
Q 21.390625 54.640625 20.90625 56.6875 
Q 20.5625 58.25 19.65625 58.984375 
Q 18.75 59.71875 17.484375 59.71875 
Q 15.671875 59.71875 12.453125 58.203125 
z
" id="TimesNewRomanPSMT-31"/>
      </defs>
      <g transform="translate(52.647924 73.138494)scale(0.06 -0.06)">
       <use xlink:href="#TimesNewRomanPSMT-33"/>
       <use x="50" xlink:href="#TimesNewRomanPSMT-31"/>
       <use x="100" xlink:href="#TimesNewRomanPSMT-2e"/>
       <use x="125" xlink:href="#TimesNewRomanPSMT-30"/>
      </g>
     </g>
    </g>
    <g id="xtick_3">
     <g id="line2d_5">
      <path clip-path="url(#p32221f1fec)" d="M 79.117933 65.472244 
L 79.117933 7.2 
" style="fill:none;opacity:0.1;stroke:#b0b0b0;stroke-linecap:square;stroke-width:0.1;"/>
     </g>
     <g id="line2d_6">
      <g>
       <use style="stroke:#000000;stroke-width:0.3;" x="79.117933" xlink:href="#m3cadda01cf" y="65.472244"/>
      </g>
     </g>
     <g id="text_3">
      <!-- 31.5 -->
      <g transform="translate(73.867933 73.138494)scale(0.06 -0.06)">
       <use xlink:href="#TimesNewRomanPSMT-33"/>
       <use x="50" xlink:href="#TimesNewRomanPSMT-31"/>
       <use x="100" xlink:href="#TimesNewRomanPSMT-2e"/>
       <use x="125" xlink:href="#TimesNewRomanPSMT-35"/>
      </g>
     </g>
    </g>
    <g id="xtick_4">
     <g id="line2d_7">
      <path clip-path="url(#p32221f1fec)" d="M 100.337941 65.472244 
L 100.337941 7.2 
" style="fill:none;opacity:0.1;stroke:#b0b0b0;stroke-linecap:square;stroke-width:0.1;"/>
     </g>
     <g id="line2d_8">
      <g>
       <use style="stroke:#000000;stroke-width:0.3;" x="100.337941" xlink:href="#m3cadda01cf" y="65.472244"/>
      </g>
     </g>
     <g id="text_4">
      <!-- 32.0 -->
      <defs>
       <path d="M 45.84375 12.75 
L 41.21875 0 
L 2.15625 0 
L 2.15625 1.8125 
Q 19.390625 17.53125 26.421875 27.484375 
Q 33.453125 37.453125 33.453125 45.703125 
Q 33.453125 52 29.59375 56.046875 
Q 25.734375 60.109375 20.359375 60.109375 
Q 15.484375 60.109375 11.59375 57.25 
Q 7.71875 54.390625 5.859375 48.875 
L 4.046875 48.875 
Q 5.28125 57.90625 10.328125 62.734375 
Q 15.375 67.578125 22.953125 67.578125 
Q 31 67.578125 36.390625 62.40625 
Q 41.796875 57.234375 41.796875 50.203125 
Q 41.796875 45.171875 39.453125 40.140625 
Q 35.84375 32.234375 27.734375 23.390625 
Q 15.578125 10.109375 12.546875 7.375 
L 29.828125 7.375 
Q 35.109375 7.375 37.234375 7.765625 
Q 39.359375 8.15625 41.0625 9.34375 
Q 42.78125 10.546875 44.046875 12.75 
z
" id="TimesNewRomanPSMT-32"/>
      </defs>
      <g transform="translate(95.087941 73.138494)scale(0.06 -0.06)">
       <use xlink:href="#TimesNewRomanPSMT-33"/>
       <use x="50" xlink:href="#TimesNewRomanPSMT-32"/>
       <use x="100" xlink:href="#TimesNewRomanPSMT-2e"/>
       <use x="125" xlink:href="#TimesNewRomanPSMT-30"/>
      </g>
     </g>
    </g>
   </g>
   <g id="matplotlib.axis_2">
    <g id="ytick_1">
     <g id="line2d_9">
      <path clip-path="url(#p32221f1fec)" d="M 19.7 65.560644 
L 114.60394 65.560644 
" style="fill:none;opacity:0.1;stroke:#b0b0b0;stroke-linecap:square;stroke-width:0.1;"/>
     </g>
     <g id="line2d_10">
      <defs>
       <path d="M 0 0 
L 2 0 
" id="m6147e8eebd" style="stroke:#000000;stroke-width:0.3;"/>
      </defs>
      <g>
       <use style="stroke:#000000;stroke-width:0.3;" x="19.7" xlink:href="#m6147e8eebd" y="65.560644"/>
      </g>
     </g>
     <g id="text_5">
      <!-- 180 -->
      <defs>
       <path d="M 19.1875 33.34375 
Q 11.328125 39.796875 9.046875 43.703125 
Q 6.78125 47.609375 6.78125 51.8125 
Q 6.78125 58.25 11.765625 62.90625 
Q 16.75 67.578125 25 67.578125 
Q 33.015625 67.578125 37.890625 63.234375 
Q 42.78125 58.890625 42.78125 53.328125 
Q 42.78125 49.609375 40.140625 45.75 
Q 37.5 41.890625 29.15625 36.671875 
Q 37.75 30.03125 40.53125 26.21875 
Q 44.234375 21.234375 44.234375 15.71875 
Q 44.234375 8.734375 38.90625 3.78125 
Q 33.59375 -1.171875 24.953125 -1.171875 
Q 15.53125 -1.171875 10.25 4.734375 
Q 6.0625 9.46875 6.0625 15.09375 
Q 6.0625 19.484375 9.015625 23.796875 
Q 11.96875 28.125 19.1875 33.34375 
z
M 26.859375 38.578125 
Q 32.71875 43.84375 34.28125 46.890625 
Q 35.84375 49.953125 35.84375 53.8125 
Q 35.84375 58.9375 32.953125 61.84375 
Q 30.078125 64.75 25.09375 64.75 
Q 20.125 64.75 17 61.859375 
Q 13.875 58.984375 13.875 55.125 
Q 13.875 52.59375 15.15625 50.046875 
Q 16.453125 47.515625 18.84375 45.21875 
z
M 21.484375 31.5 
Q 17.4375 28.078125 15.484375 24.046875 
Q 13.53125 20.015625 13.53125 15.328125 
Q 13.53125 9.03125 16.96875 5.25 
Q 20.40625 1.46875 25.734375 1.46875 
Q 31 1.46875 34.171875 4.4375 
Q 37.359375 7.421875 37.359375 11.671875 
Q 37.359375 15.1875 35.5 17.96875 
Q 32.03125 23.140625 21.484375 31.5 
z
" id="TimesNewRomanPSMT-38"/>
      </defs>
      <g transform="translate(7.2 67.643769)scale(0.06 -0.06)">
       <use xlink:href="#TimesNewRomanPSMT-31"/>
       <use x="50" xlink:href="#TimesNewRomanPSMT-38"/>
       <use x="100" xlink:href="#TimesNewRomanPSMT-30"/>
      </g>
     </g>
    </g>
    <g id="ytick_2">
     <g id="line2d_11">
      <path clip-path="url(#p32221f1fec)" d="M 19.7 44.143285 
L 114.60394 44.143285 
" style="fill:none;opacity:0.1;stroke:#b0b0b0;stroke-linecap:square;stroke-width:0.1;"/>
     </g>
     <g id="line2d_12">
      <g>
       <use style="stroke:#000000;stroke-width:0.3;" x="19.7" xlink:href="#m6147e8eebd" y="44.143285"/>
      </g>
     </g>
     <g id="text_6">
      <!-- 200 -->
      <g transform="translate(7.2 46.22641)scale(0.06 -0.06)">
       <use xlink:href="#TimesNewRomanPSMT-32"/>
       <use x="50" xlink:href="#TimesNewRomanPSMT-30"/>
       <use x="100" xlink:href="#TimesNewRomanPSMT-30"/>
      </g>
     </g>
    </g>
    <g id="ytick_3">
     <g id="line2d_13">
      <path clip-path="url(#p32221f1fec)" d="M 19.7 22.725926 
L 114.60394 22.725926 
" style="fill:none;opacity:0.1;stroke:#b0b0b0;stroke-linecap:square;stroke-width:0.1;"/>
     </g>
     <g id="line2d_14">
      <g>
       <use style="stroke:#000000;stroke-width:0.3;" x="19.7" xlink:href="#m6147e8eebd" y="22.725926"/>
      </g>
     </g>
     <g id="text_7">
      <!-- 220 -->
      <g transform="translate(7.2 24.809051)scale(0.06 -0.06)">
       <use xlink:href="#TimesNewRomanPSMT-32"/>
       <use x="50" xlink:href="#TimesNewRomanPSMT-32"/>
       <use x="100" xlink:href="#TimesNewRomanPSMT-30"/>
      </g>
     </g>
    </g>
   </g>
   <g id="line2d_15">
    <path clip-path="url(#p32221f1fec)" d="M 24.013815 9.87551 
L 24.013815 9.87551 
L 24.709832 9.87551 
L 24.709832 9.87551 
L 26.199476 9.87551 
L 26.199476 9.87551 
L 28.775585 9.87551 
L 28.775585 9.87551 
L 29.58619 9.87551 
L 29.58619 9.87551 
L 31.32623 9.87551 
L 31.32623 10.946378 
L 32.141079 10.946378 
L 32.141079 10.946378 
L 33.906583 10.946378 
L 33.906583 9.87551 
L 35.824872 9.87551 
L 35.824872 9.87551 
L 36.546352 9.87551 
L 36.546352 9.87551 
L 41.469394 9.87551 
L 41.469394 9.87551 
L 43.260363 9.87551 
L 43.260363 9.87551 
L 44.049747 9.87551 
L 44.049747 9.87551 
L 45.840716 9.87551 
L 45.840716 9.87551 
L 46.67254 9.87551 
L 46.67254 12.017246 
L 49.184989 12.017246 
L 49.184989 29.151133 
L 51.145718 29.151133 
L 51.145718 46.285021 
L 51.693194 46.285021 
L 51.693194 53.781096 
L 54.218375 53.781096 
L 54.218375 53.781096 
L 55.190251 53.781096 
L 55.190251 47.355889 
L 56.022076 47.355889 
L 56.022076 43.072417 
L 58.687309 43.072417 
L 58.687309 42.001549 
L 59.349373 42.001549 
L 59.349373 40.930681 
L 61.857578 40.930681 
L 61.857578 40.930681 
L 64.505835 42.001549 
L 64.505835 48.426757 
L 65.227315 48.426757 
L 65.227315 53.781096 
L 66.381684 53.781096 
L 66.381684 58.064568 
L 68.720129 58.064568 
L 68.720129 58.064568 
L 69.501025 58.064568 
L 69.501025 53.781096 
L 72.034694 53.781096 
L 72.034694 46.285021 
L 72.887738 46.285021 
L 72.887738 44.143285 
L 74.627779 44.143285 
L 74.627779 44.143285 
L 76.406016 44.143285 
L 76.406016 42.001549 
L 78.052688 42.001549 
L 78.052688 40.930681 
L 83.064854 50.568492 
L 83.064854 53.781096 
L 84.766699 53.781096 
L 84.766699 53.781096 
L 85.785259 53.781096 
L 85.785259 47.355889 
L 88.24678 47.355889 
L 88.24678 43.072417 
L 89.239877 43.072417 
L 89.239877 43.072417 
L 90.695569 43.072417 
L 90.695569 44.143285 
L 93.267434 44.143285 
L 93.267434 43.072417 
L 94.095014 43.072417 
L 94.095014 42.001549 
L 95.843543 42.001549 
L 95.843543 46.285021 
L 96.649903 46.285021 
L 96.649903 49.497625 
L 98.483312 49.497625 
L 98.483312 53.781096 
L 100.303989 53.781096 
L 100.303989 53.781096 
L 101.135813 53.781096 
L 101.135813 50.568492 
L 102.790974 50.568492 
L 102.790974 47.355889 
L 103.554894 47.355889 
L 103.554894 46.285021 
L 106.016415 46.285021 
L 106.016415 46.285021 
L 107.688552 46.285021 
L 107.688552 47.355889 
L 108.766528 47.355889 
L 108.766528 46.285021 
L 109.43708 46.285021 
L 109.43708 47.355889 
" style="fill:none;stroke:#1f77b4;stroke-linecap:square;"/>
   </g>
   <g id="line2d_16">
    <path clip-path="url(#p32221f1fec)" d="M 24.013815 9.963321 
L 24.709832 9.906565 
L 25.473752 9.950471 
L 26.199476 9.914061 
L 27.251989 9.991164 
L 27.990445 10.030786 
L 28.775585 9.904423 
L 29.58619 9.896927 
L 30.51987 9.903353 
L 31.32623 10.935669 
L 32.141079 10.962441 
L 33.197835 10.99778 
L 33.906583 9.874439 
L 34.94212 9.873368 
L 35.824872 9.848738 
L 36.546352 9.866943 
L 37.598865 9.916203 
L 38.197269 9.920487 
L 38.931481 9.955825 
L 40.00097 10.038282 
L 40.798842 10.069337 
L 41.469394 9.864801 
L 42.364879 9.864801 
L 43.260363 9.894786 
L 44.049747 10.545873 
L 44.877327 12.837531 
L 45.840716 14.367801 
L 46.67254 17.094231 
L 47.589245 23.362021 
L 48.544145 29.679071 
L 49.184989 32.175264 
L 50.004081 34.370544 
L 51.145718 46.14902 
L 51.693194 52.640622 
L 52.682046 48.729812 
L 53.373819 45.182027 
L 54.218375 49.748208 
L 55.190251 44.03834 
L 56.022076 41.886966 
L 56.743556 42.078651 
L 57.8088 43.426874 
L 58.687309 43.013519 
L 59.349373 41.211248 
L 60.300029 41.257296 
L 61.046974 40.939248 
L 61.857578 40.434869 
L 62.69789 39.962616 
L 63.724939 39.540694 
L 64.505835 48.638788 
L 65.227315 54.422546 
L 66.381684 59.885044 
L 67.171068 61.406747 
L 67.807668 62.823505 
L 68.720129 60.182745 
L 69.501025 55.491272 
L 70.468657 57.735812 
L 71.198626 59.09046 
L 72.034694 47.111731 
L 72.887738 44.498813 
L 73.745027 43.899127 
L 74.627779 44.21182 
L 75.472335 43.343346 
L 76.406016 41.214461 
L 77.140228 42.153612 
L 78.052688 41.948005 
L 79.440477 44.200041 
L 79.788485 44.903601 
L 80.552405 46.627698 
L 81.473354 48.849749 
L 82.23303 50.944367 
L 83.064854 56.460408 
L 83.922142 56.674582 
L 84.766699 53.928876 
L 85.785259 47.40729 
L 86.519471 47.286282 
L 87.33432 47.103164 
L 88.24678 42.833613 
L 89.239877 42.811125 
L 90.067457 42.629077 
L 90.695569 44.043694 
L 92.006966 43.831662 
L 92.41439 43.782402 
L 93.267434 42.904291 
L 94.095014 41.799155 
L 95.130551 41.51002 
L 95.843543 46.09976 
L 96.649903 49.312364 
L 97.528412 49.133529 
L 98.483312 53.630104 
L 99.187816 53.562639 
L 100.303989 53.666513 
L 101.135813 50.46676 
L 101.789389 50.36824 
L 102.790974 47.158849 
L 103.554894 46.105115 
L 104.301838 45.907004 
L 105.290691 45.629649 
L 106.016415 46.091194 
L 107.051951 45.785996 
L 107.688552 47.182408 
L 108.766528 45.949839 
L 109.43708 47.160991 
L 110.290125 46.899699 
" style="fill:none;stroke:#ff7f0e;stroke-linecap:square;"/>
   </g>
   <g id="patch_3">
    <path d="M 19.7 65.472244 
L 19.7 7.2 
" style="fill:none;stroke:#000000;stroke-linecap:square;stroke-linejoin:miter;stroke-width:0.3;"/>
   </g>
   <g id="patch_4">
    <path d="M 114.60394 65.472244 
L 114.60394 7.2 
" style="fill:none;stroke:#000000;stroke-linecap:square;stroke-linejoin:miter;stroke-width:0.3;"/>
   </g>
   <g id="patch_5">
    <path d="M 19.7 65.472244 
L 114.60394 65.472244 
" style="fill:none;stroke:#000000;stroke-linecap:square;stroke-linejoin:miter;stroke-width:0.3;"/>
   </g>
   <g id="patch_6">
    <path d="M 19.7 7.2 
L 114.60394 7.2 
" style="fill:none;stroke:#000000;stroke-linecap:square;stroke-linejoin:miter;stroke-width:0.3;"/>
   </g>
  </g>
 </g>
 <defs>
  <clipPath id="p32221f1fec">
   <rect height="58.272244" width="94.90394" x="19.7" y="7.2"/>
  </clipPath>
 </defs>
</svg>
