<?xml version="1.0" encoding="utf-8" standalone="no"?>
<!DOCTYPE svg PUBLIC "-//W3C//DTD SVG 1.1//EN"
  "http://www.w3.org/Graphics/SVG/1.1/DTD/svg11.dtd">
<!-- Created with matplotlib (http://matplotlib.org/) -->
<svg height="159pt" version="1.1" viewBox="0 0 166 159" width="166pt" xmlns="http://www.w3.org/2000/svg" xmlns:xlink="http://www.w3.org/1999/xlink">
 <defs>
  <style type="text/css">
*{stroke-linecap:butt;stroke-linejoin:round;}
  </style>
 </defs>
 <g id="figure_1">
  <g id="patch_1">
   <path d="M 0 159.782708 
L 166.883333 159.782708 
L 166.883333 0 
L 0 0 
z
" style="fill:#ffffff;"/>
  </g>
  <g id="axes_1">
   <g id="patch_2">
    <path d="M 21.583438 143.63302 
L 155.933333 143.63302 
L 155.933333 9.283125 
L 21.583438 9.283125 
z
" style="fill:#ffffff;"/>
   </g>
   <g id="matplotlib.axis_1">
    <g id="xtick_1">
     <g id="line2d_1">
      <path clip-path="url(#p3359fb1346)" d="M 21.583438 143.63302 
L 21.583438 9.283125 
" style="fill:none;opacity:0.1;stroke:#b0b0b0;stroke-linecap:square;stroke-width:0.1;"/>
     </g>
     <g id="line2d_2">
      <defs>
       <path d="M 0 0 
L 0 -2 
" id="m9ede3cae1c" style="stroke:#000000;stroke-width:0.3;"/>
      </defs>
      <g>
       <use style="stroke:#000000;stroke-width:0.3;" x="21.583438" xlink:href="#m9ede3cae1c" y="143.63302"/>
      </g>
     </g>
     <g id="text_1">
      <!-- −1.0 -->
      <defs>
       <path d="M 54.4375 31.25 
L 1.8125 31.25 
L 1.8125 35.25 
L 54.4375 35.25 
z
" id="TimesNewRomanPSMT-2212"/>
       <path d="M 11.71875 59.71875 
L 27.828125 67.578125 
L 29.4375 67.578125 
L 29.4375 11.671875 
Q 29.4375 6.109375 29.90625 4.734375 
Q 30.375 3.375 31.828125 2.640625 
Q 33.296875 1.90625 37.796875 1.8125 
L 37.796875 0 
L 12.890625 0 
L 12.890625 1.8125 
Q 17.578125 1.90625 18.9375 2.609375 
Q 20.3125 3.328125 20.84375 4.515625 
Q 21.390625 5.71875 21.390625 11.671875 
L 21.390625 47.40625 
Q 21.390625 54.640625 20.90625 56.6875 
Q 20.5625 58.25 19.65625 58.984375 
Q 18.75 59.71875 17.484375 59.71875 
Q 15.671875 59.71875 12.453125 58.203125 
z
" id="TimesNewRomanPSMT-31"/>
       <path d="M 12.5 9.46875 
Q 14.796875 9.46875 16.359375 7.875 
Q 17.921875 6.296875 17.921875 4.046875 
Q 17.921875 1.8125 16.328125 0.21875 
Q 14.75 -1.375 12.5 -1.375 
Q 10.25 -1.375 8.65625 0.21875 
Q 7.078125 1.8125 7.078125 4.046875 
Q 7.078125 6.34375 8.65625 7.90625 
Q 10.25 9.46875 12.5 9.46875 
z
" id="TimesNewRomanPSMT-2e"/>
       <path d="M 3.609375 32.71875 
Q 3.609375 44.046875 7.03125 52.21875 
Q 10.453125 60.40625 16.109375 64.40625 
Q 20.515625 67.578125 25.203125 67.578125 
Q 32.8125 67.578125 38.875 59.8125 
Q 46.4375 50.203125 46.4375 33.734375 
Q 46.4375 22.21875 43.109375 14.15625 
Q 39.796875 6.109375 34.640625 2.46875 
Q 29.5 -1.171875 24.703125 -1.171875 
Q 15.234375 -1.171875 8.9375 10.015625 
Q 3.609375 19.4375 3.609375 32.71875 
z
M 13.1875 31.5 
Q 13.1875 17.828125 16.546875 9.1875 
Q 19.34375 1.90625 24.859375 1.90625 
Q 27.484375 1.90625 30.3125 4.265625 
Q 33.15625 6.640625 34.625 12.203125 
Q 36.859375 20.609375 36.859375 35.890625 
Q 36.859375 47.21875 34.515625 54.78125 
Q 32.765625 60.40625 29.984375 62.75 
Q 27.984375 64.359375 25.140625 64.359375 
Q 21.828125 64.359375 19.234375 61.375 
Q 15.71875 57.328125 14.453125 48.625 
Q 13.1875 39.9375 13.1875 31.5 
z
" id="TimesNewRomanPSMT-30"/>
      </defs>
      <g transform="translate(16.141719 151.29927)scale(0.06 -0.06)">
       <use xlink:href="#TimesNewRomanPSMT-2212"/>
       <use x="56.396484" xlink:href="#TimesNewRomanPSMT-31"/>
       <use x="106.396484" xlink:href="#TimesNewRomanPSMT-2e"/>
       <use x="131.396484" xlink:href="#TimesNewRomanPSMT-30"/>
      </g>
     </g>
    </g>
    <g id="xtick_2">
     <g id="line2d_3">
      <path clip-path="url(#p3359fb1346)" d="M 55.170911 143.63302 
L 55.170911 9.283125 
" style="fill:none;opacity:0.1;stroke:#b0b0b0;stroke-linecap:square;stroke-width:0.1;"/>
     </g>
     <g id="line2d_4">
      <g>
       <use style="stroke:#000000;stroke-width:0.3;" x="55.170911" xlink:href="#m9ede3cae1c" y="143.63302"/>
      </g>
     </g>
     <g id="text_2">
      <!-- −0.5 -->
      <defs>
       <path d="M 43.40625 66.21875 
L 39.59375 57.90625 
L 19.671875 57.90625 
L 15.328125 49.03125 
Q 28.265625 47.125 35.84375 39.40625 
Q 42.328125 32.765625 42.328125 23.78125 
Q 42.328125 18.5625 40.203125 14.109375 
Q 38.09375 9.671875 34.859375 6.546875 
Q 31.640625 3.421875 27.6875 1.515625 
Q 22.078125 -1.171875 16.15625 -1.171875 
Q 10.203125 -1.171875 7.484375 0.84375 
Q 4.78125 2.875 4.78125 5.328125 
Q 4.78125 6.6875 5.90625 7.734375 
Q 7.03125 8.796875 8.734375 8.796875 
Q 10.015625 8.796875 10.96875 8.40625 
Q 11.921875 8.015625 14.203125 6.390625 
Q 17.875 3.859375 21.625 3.859375 
Q 27.34375 3.859375 31.65625 8.171875 
Q 35.984375 12.5 35.984375 18.703125 
Q 35.984375 24.703125 32.125 29.90625 
Q 28.265625 35.109375 21.484375 37.9375 
Q 16.15625 40.140625 6.984375 40.484375 
L 19.671875 66.21875 
z
" id="TimesNewRomanPSMT-35"/>
      </defs>
      <g transform="translate(49.729193 151.29927)scale(0.06 -0.06)">
       <use xlink:href="#TimesNewRomanPSMT-2212"/>
       <use x="56.396484" xlink:href="#TimesNewRomanPSMT-30"/>
       <use x="106.396484" xlink:href="#TimesNewRomanPSMT-2e"/>
       <use x="131.396484" xlink:href="#TimesNewRomanPSMT-35"/>
      </g>
     </g>
    </g>
    <g id="xtick_3">
     <g id="line2d_5">
      <path clip-path="url(#p3359fb1346)" d="M 88.758385 143.63302 
L 88.758385 9.283125 
" style="fill:none;opacity:0.1;stroke:#b0b0b0;stroke-linecap:square;stroke-width:0.1;"/>
     </g>
     <g id="line2d_6">
      <g>
       <use style="stroke:#000000;stroke-width:0.3;" x="88.758385" xlink:href="#m9ede3cae1c" y="143.63302"/>
      </g>
     </g>
     <g id="text_3">
      <!-- 0.0 -->
      <g transform="translate(85.008385 151.29927)scale(0.06 -0.06)">
       <use xlink:href="#TimesNewRomanPSMT-30"/>
       <use x="50" xlink:href="#TimesNewRomanPSMT-2e"/>
       <use x="75" xlink:href="#TimesNewRomanPSMT-30"/>
      </g>
     </g>
    </g>
    <g id="xtick_4">
     <g id="line2d_7">
      <path clip-path="url(#p3359fb1346)" d="M 122.345859 143.63302 
L 122.345859 9.283125 
" style="fill:none;opacity:0.1;stroke:#b0b0b0;stroke-linecap:square;stroke-width:0.1;"/>
     </g>
     <g id="line2d_8">
      <g>
       <use style="stroke:#000000;stroke-width:0.3;" x="122.345859" xlink:href="#m9ede3cae1c" y="143.63302"/>
      </g>
     </g>
     <g id="text_4">
      <!-- 0.5 -->
      <g transform="translate(118.595859 151.29927)scale(0.06 -0.06)">
       <use xlink:href="#TimesNewRomanPSMT-30"/>
       <use x="50" xlink:href="#TimesNewRomanPSMT-2e"/>
       <use x="75" xlink:href="#TimesNewRomanPSMT-35"/>
      </g>
     </g>
    </g>
    <g id="xtick_5">
     <g id="line2d_9">
      <path clip-path="url(#p3359fb1346)" d="M 155.933333 143.63302 
L 155.933333 9.283125 
" style="fill:none;opacity:0.1;stroke:#b0b0b0;stroke-linecap:square;stroke-width:0.1;"/>
     </g>
     <g id="line2d_10">
      <g>
       <use style="stroke:#000000;stroke-width:0.3;" x="155.933333" xlink:href="#m9ede3cae1c" y="143.63302"/>
      </g>
     </g>
     <g id="text_5">
      <!-- 1.0 -->
      <g transform="translate(152.183333 151.29927)scale(0.06 -0.06)">
       <use xlink:href="#TimesNewRomanPSMT-31"/>
       <use x="50" xlink:href="#TimesNewRomanPSMT-2e"/>
       <use x="75" xlink:href="#TimesNewRomanPSMT-30"/>
      </g>
     </g>
    </g>
   </g>
   <g id="matplotlib.axis_2">
    <g id="ytick_1">
     <g id="line2d_11">
      <path clip-path="url(#p3359fb1346)" d="M 21.583438 143.63302 
L 155.933333 143.63302 
" style="fill:none;opacity:0.1;stroke:#b0b0b0;stroke-linecap:square;stroke-width:0.1;"/>
     </g>
     <g id="line2d_12">
      <defs>
       <path d="M 0 0 
L 2 0 
" id="mf2ccbfa317" style="stroke:#000000;stroke-width:0.3;"/>
      </defs>
      <g>
       <use style="stroke:#000000;stroke-width:0.3;" x="21.583438" xlink:href="#mf2ccbfa317" y="143.63302"/>
      </g>
     </g>
     <g id="text_6">
      <!-- −1.0 -->
      <g transform="translate(7.2 145.716145)scale(0.06 -0.06)">
       <use xlink:href="#TimesNewRomanPSMT-2212"/>
       <use x="56.396484" xlink:href="#TimesNewRomanPSMT-31"/>
       <use x="106.396484" xlink:href="#TimesNewRomanPSMT-2e"/>
       <use x="131.396484" xlink:href="#TimesNewRomanPSMT-30"/>
      </g>
     </g>
    </g>
    <g id="ytick_2">
     <g id="line2d_13">
      <path clip-path="url(#p3359fb1346)" d="M 21.583438 110.045546 
L 155.933333 110.045546 
" style="fill:none;opacity:0.1;stroke:#b0b0b0;stroke-linecap:square;stroke-width:0.1;"/>
     </g>
     <g id="line2d_14">
      <g>
       <use style="stroke:#000000;stroke-width:0.3;" x="21.583438" xlink:href="#mf2ccbfa317" y="110.045546"/>
      </g>
     </g>
     <g id="text_7">
      <!-- −0.5 -->
      <g transform="translate(7.2 112.128671)scale(0.06 -0.06)">
       <use xlink:href="#TimesNewRomanPSMT-2212"/>
       <use x="56.396484" xlink:href="#TimesNewRomanPSMT-30"/>
       <use x="106.396484" xlink:href="#TimesNewRomanPSMT-2e"/>
       <use x="131.396484" xlink:href="#TimesNewRomanPSMT-35"/>
      </g>
     </g>
    </g>
    <g id="ytick_3">
     <g id="line2d_15">
      <path clip-path="url(#p3359fb1346)" d="M 21.583438 76.458073 
L 155.933333 76.458073 
" style="fill:none;opacity:0.1;stroke:#b0b0b0;stroke-linecap:square;stroke-width:0.1;"/>
     </g>
     <g id="line2d_16">
      <g>
       <use style="stroke:#000000;stroke-width:0.3;" x="21.583438" xlink:href="#mf2ccbfa317" y="76.458073"/>
      </g>
     </g>
     <g id="text_8">
      <!-- 0.0 -->
      <g transform="translate(10.583438 78.541198)scale(0.06 -0.06)">
       <use xlink:href="#TimesNewRomanPSMT-30"/>
       <use x="50" xlink:href="#TimesNewRomanPSMT-2e"/>
       <use x="75" xlink:href="#TimesNewRomanPSMT-30"/>
      </g>
     </g>
    </g>
    <g id="ytick_4">
     <g id="line2d_17">
      <path clip-path="url(#p3359fb1346)" d="M 21.583438 42.870599 
L 155.933333 42.870599 
" style="fill:none;opacity:0.1;stroke:#b0b0b0;stroke-linecap:square;stroke-width:0.1;"/>
     </g>
     <g id="line2d_18">
      <g>
       <use style="stroke:#000000;stroke-width:0.3;" x="21.583438" xlink:href="#mf2ccbfa317" y="42.870599"/>
      </g>
     </g>
     <g id="text_9">
      <!-- 0.5 -->
      <g transform="translate(10.583438 44.953724)scale(0.06 -0.06)">
       <use xlink:href="#TimesNewRomanPSMT-30"/>
       <use x="50" xlink:href="#TimesNewRomanPSMT-2e"/>
       <use x="75" xlink:href="#TimesNewRomanPSMT-35"/>
      </g>
     </g>
    </g>
    <g id="ytick_5">
     <g id="line2d_19">
      <path clip-path="url(#p3359fb1346)" d="M 21.583438 9.283125 
L 155.933333 9.283125 
" style="fill:none;opacity:0.1;stroke:#b0b0b0;stroke-linecap:square;stroke-width:0.1;"/>
     </g>
     <g id="line2d_20">
      <g>
       <use style="stroke:#000000;stroke-width:0.3;" x="21.583438" xlink:href="#mf2ccbfa317" y="9.283125"/>
      </g>
     </g>
     <g id="text_10">
      <!-- 1.0 -->
      <g transform="translate(10.583438 11.36625)scale(0.06 -0.06)">
       <use xlink:href="#TimesNewRomanPSMT-31"/>
       <use x="50" xlink:href="#TimesNewRomanPSMT-2e"/>
       <use x="75" xlink:href="#TimesNewRomanPSMT-30"/>
      </g>
     </g>
    </g>
   </g>
   <g id="PathCollection_1">
    <defs>
     <path d="M 0 3 
C 0.795609 3 1.55874 2.683901 2.12132 2.12132 
C 2.683901 1.55874 3 0.795609 3 0 
C 3 -0.795609 2.683901 -1.55874 2.12132 -2.12132 
C 1.55874 -2.683901 0.795609 -3 0 -3 
C -0.795609 -3 -1.55874 -2.683901 -2.12132 -2.12132 
C -2.683901 -1.55874 -3 -0.795609 -3 0 
C -3 0.795609 -2.683901 1.55874 -2.12132 2.12132 
C -1.55874 2.683901 -0.795609 3 0 3 
z
" id="m6906d33a53" style="stroke:#1f77b4;"/>
    </defs>
    <g clip-path="url(#p3359fb1346)">
     <use style="fill:#1f77b4;stroke:#1f77b4;" x="97.895525" xlink:href="#m6906d33a53" y="78.291119"/>
     <use style="fill:#1f77b4;stroke:#1f77b4;" x="90.644377" xlink:href="#m6906d33a53" y="65.074498"/>
     <use style="fill:#1f77b4;stroke:#1f77b4;" x="98.19108" xlink:href="#m6906d33a53" y="83.204746"/>
     <use style="fill:#1f77b4;stroke:#1f77b4;" x="91.892816" xlink:href="#m6906d33a53" y="90.966266"/>
     <use style="fill:#1f77b4;stroke:#1f77b4;" x="102.759459" xlink:href="#m6906d33a53" y="82.98432"/>
     <use style="fill:#1f77b4;stroke:#1f77b4;" x="101.27812" xlink:href="#m6906d33a53" y="66.38663"/>
     <use style="fill:#1f77b4;stroke:#1f77b4;" x="102.575751" xlink:href="#m6906d33a53" y="85.552769"/>
     <use style="fill:#1f77b4;stroke:#1f77b4;" x="94.563797" xlink:href="#m6906d33a53" y="93.693604"/>
     <use style="fill:#1f77b4;stroke:#1f77b4;" x="106.405877" xlink:href="#m6906d33a53" y="81.708822"/>
     <use style="fill:#1f77b4;stroke:#1f77b4;" x="69.814352" xlink:href="#m6906d33a53" y="79.613489"/>
     <use style="fill:#1f77b4;stroke:#1f77b4;" x="70.148931" xlink:href="#m6906d33a53" y="76.606734"/>
     <use style="fill:#1f77b4;stroke:#1f77b4;" x="94.765749" xlink:href="#m6906d33a53" y="96.26299"/>
     <use style="fill:#1f77b4;stroke:#1f77b4;" x="84.260137" xlink:href="#m6906d33a53" y="96.614419"/>
     <use style="fill:#1f77b4;stroke:#1f77b4;" x="107.969057" xlink:href="#m6906d33a53" y="69.692759"/>
     <use style="fill:#1f77b4;stroke:#1f77b4;" x="99.516342" xlink:href="#m6906d33a53" y="95.480893"/>
     <use style="fill:#1f77b4;stroke:#1f77b4;" x="69.403422" xlink:href="#m6906d33a53" y="87.529755"/>
     <use style="fill:#1f77b4;stroke:#1f77b4;" x="70.004242" xlink:href="#m6906d33a53" y="90.536878"/>
     <use style="fill:#1f77b4;stroke:#1f77b4;" x="107.885369" xlink:href="#m6906d33a53" y="90.010825"/>
     <use style="fill:#1f77b4;stroke:#1f77b4;" x="65.601825" xlink:href="#m6906d33a53" y="81.768865"/>
     <use style="fill:#1f77b4;stroke:#1f77b4;" x="87.481622" xlink:href="#m6906d33a53" y="100.411464"/>
     <use style="fill:#1f77b4;stroke:#1f77b4;" x="69.032165" xlink:href="#m6906d33a53" y="89.909038"/>
     <use style="fill:#1f77b4;stroke:#1f77b4;" x="79.535688" xlink:href="#m6906d33a53" y="99.024448"/>
     <use style="fill:#1f77b4;stroke:#1f77b4;" x="76.414235" xlink:href="#m6906d33a53" y="55.784365"/>
     <use style="fill:#1f77b4;stroke:#1f77b4;" x="76.610605" xlink:href="#m6906d33a53" y="99.251785"/>
     <use style="fill:#1f77b4;stroke:#1f77b4;" x="110.970994" xlink:href="#m6906d33a53" y="89.655119"/>
     <use style="fill:#1f77b4;stroke:#1f77b4;" x="62.924186" xlink:href="#m6906d33a53" y="77.954033"/>
     <use style="fill:#1f77b4;stroke:#1f77b4;" x="62.659968" xlink:href="#m6906d33a53" y="78.097582"/>
     <use style="fill:#1f77b4;stroke:#1f77b4;" x="84.845287" xlink:href="#m6906d33a53" y="50.217632"/>
     <use style="fill:#1f77b4;stroke:#1f77b4;" x="82.43502" xlink:href="#m6906d33a53" y="102.731007"/>
     <use style="fill:#1f77b4;stroke:#1f77b4;" x="110.086951" xlink:href="#m6906d33a53" y="92.884857"/>
     <use style="fill:#1f77b4;stroke:#1f77b4;" x="106.965292" xlink:href="#m6906d33a53" y="97.78776"/>
     <use style="fill:#1f77b4;stroke:#1f77b4;" x="103.60201" xlink:href="#m6906d33a53" y="99.840916"/>
     <use style="fill:#1f77b4;stroke:#1f77b4;" x="75.499141" xlink:href="#m6906d33a53" y="101.734396"/>
     <use style="fill:#1f77b4;stroke:#1f77b4;" x="67.953765" xlink:href="#m6906d33a53" y="96.164647"/>
     <use style="fill:#1f77b4;stroke:#1f77b4;" x="102.681053" xlink:href="#m6906d33a53" y="100.984548"/>
     <use style="fill:#1f77b4;stroke:#1f77b4;" x="89.496239" xlink:href="#m6906d33a53" y="105.05226"/>
     <use style="fill:#1f77b4;stroke:#1f77b4;" x="105.054416" xlink:href="#m6906d33a53" y="100.1354"/>
     <use style="fill:#1f77b4;stroke:#1f77b4;" x="115.279609" xlink:href="#m6906d33a53" y="88.712457"/>
     <use style="fill:#1f77b4;stroke:#1f77b4;" x="103.558115" xlink:href="#m6906d33a53" y="101.281415"/>
     <use style="fill:#1f77b4;stroke:#1f77b4;" x="108.232177" xlink:href="#m6906d33a53" y="97.858681"/>
     <use style="fill:#1f77b4;stroke:#1f77b4;" x="116.626965" xlink:href="#m6906d33a53" y="87.501334"/>
     <use style="fill:#1f77b4;stroke:#1f77b4;" x="69.820318" xlink:href="#m6906d33a53" y="53.999032"/>
     <use style="fill:#1f77b4;stroke:#1f77b4;" x="107.538915" xlink:href="#m6906d33a53" y="53.837604"/>
     <use style="fill:#1f77b4;stroke:#1f77b4;" x="71.25583" xlink:href="#m6906d33a53" y="101.101264"/>
     <use style="fill:#1f77b4;stroke:#1f77b4;" x="65.793951" xlink:href="#m6906d33a53" y="96.887193"/>
     <use style="fill:#1f77b4;stroke:#1f77b4;" x="70.823562" xlink:href="#m6906d33a53" y="52.043649"/>
     <use style="fill:#1f77b4;stroke:#1f77b4;" x="75.570693" xlink:href="#m6906d33a53" y="103.933483"/>
     <use style="fill:#1f77b4;stroke:#1f77b4;" x="101.9649" xlink:href="#m6906d33a53" y="104.951833"/>
     <use style="fill:#1f77b4;stroke:#1f77b4;" x="58.79826" xlink:href="#m6906d33a53" y="85.27243"/>
     <use style="fill:#1f77b4;stroke:#1f77b4;" x="94.311197" xlink:href="#m6906d33a53" y="44.120054"/>
     <use style="fill:#1f77b4;stroke:#1f77b4;" x="119.371078" xlink:href="#m6906d33a53" y="88.783715"/>
     <use style="fill:#1f77b4;stroke:#1f77b4;" x="118.075471" xlink:href="#m6906d33a53" y="91.757838"/>
     <use style="fill:#1f77b4;stroke:#1f77b4;" x="68.717096" xlink:href="#m6906d33a53" y="101.892368"/>
     <use style="fill:#1f77b4;stroke:#1f77b4;" x="117.737047" xlink:href="#m6906d33a53" y="94.625224"/>
     <use style="fill:#1f77b4;stroke:#1f77b4;" x="90.998533" xlink:href="#m6906d33a53" y="41.855186"/>
     <use style="fill:#1f77b4;stroke:#1f77b4;" x="59.106197" xlink:href="#m6906d33a53" y="94.74481"/>
     <use style="fill:#1f77b4;stroke:#1f77b4;" x="101.388725" xlink:href="#m6906d33a53" y="43.382697"/>
     <use style="fill:#1f77b4;stroke:#1f77b4;" x="57.246947" xlink:href="#m6906d33a53" y="93.183044"/>
     <use style="fill:#1f77b4;stroke:#1f77b4;" x="59.155283" xlink:href="#m6906d33a53" y="97.374492"/>
     <use style="fill:#1f77b4;stroke:#1f77b4;" x="83.598594" xlink:href="#m6906d33a53" y="36.317792"/>
    </g>
   </g>
   <g id="patch_3">
    <path clip-path="url(#p3359fb1346)" d="M 88.758385 102.73431 
C 95.726925 102.73431 102.410989 99.96568 107.338491 95.038178 
C 112.265992 90.110677 115.034623 83.426612 115.034623 76.458073 
C 115.034623 69.489533 112.265992 62.805469 107.338491 57.877967 
C 102.410989 52.950465 95.726925 50.181835 88.758385 50.181835 
C 81.789846 50.181835 75.105781 52.950465 70.178279 57.877967 
C 65.250778 62.805469 62.482148 69.489533 62.482148 76.458073 
C 62.482148 83.426612 65.250778 90.110677 70.178279 95.038178 
C 75.105781 99.96568 81.789846 102.73431 88.758385 102.73431 
z
" style="fill:none;stroke:#000000;stroke-linejoin:miter;"/>
   </g>
   <g id="patch_4">
    <path d="M 21.583438 143.63302 
L 21.583438 9.283125 
" style="fill:none;stroke:#000000;stroke-linecap:square;stroke-linejoin:miter;stroke-width:0.3;"/>
   </g>
   <g id="patch_5">
    <path d="M 155.933333 143.63302 
L 155.933333 9.283125 
" style="fill:none;stroke:#000000;stroke-linecap:square;stroke-linejoin:miter;stroke-width:0.3;"/>
   </g>
   <g id="patch_6">
    <path d="M 21.583438 143.63302 
L 155.933333 143.63302 
" style="fill:none;stroke:#000000;stroke-linecap:square;stroke-linejoin:miter;stroke-width:0.3;"/>
   </g>
   <g id="patch_7">
    <path d="M 21.583438 9.283125 
L 155.933333 9.283125 
" style="fill:none;stroke:#000000;stroke-linecap:square;stroke-linejoin:miter;stroke-width:0.3;"/>
   </g>
  </g>
 </g>
 <defs>
  <clipPath id="p3359fb1346">
   <rect height="134.349895" width="134.349895" x="21.583438" y="9.283125"/>
  </clipPath>
 </defs>
</svg>
