<?xml version="1.0" encoding="utf-8" standalone="no"?>
<!DOCTYPE svg PUBLIC "-//W3C//DTD SVG 1.1//EN"
  "http://www.w3.org/Graphics/SVG/1.1/DTD/svg11.dtd">
<!-- Created with matplotlib (http://matplotlib.org/) -->
<svg height="159pt" version="1.1" viewBox="0 0 166 159" width="166pt" xmlns="http://www.w3.org/2000/svg" xmlns:xlink="http://www.w3.org/1999/xlink">
 <defs>
  <style type="text/css">
*{stroke-linecap:butt;stroke-linejoin:round;}
  </style>
 </defs>
 <g id="figure_1">
  <g id="patch_1">
   <path d="M 0 159.782708 
L 166.883333 159.782708 
L 166.883333 0 
L 0 0 
z
" style="fill:#ffffff;"/>
  </g>
  <g id="axes_1">
   <g id="patch_2">
    <path d="M 21.583438 143.63302 
L 155.933333 143.63302 
L 155.933333 9.283125 
L 21.583438 9.283125 
z
" style="fill:#ffffff;"/>
   </g>
   <g id="matplotlib.axis_1">
    <g id="xtick_1">
     <g id="line2d_1">
      <path clip-path="url(#p53ab9816ce)" d="M 21.583438 143.63302 
L 21.583438 9.283125 
" style="fill:none;opacity:0.1;stroke:#b0b0b0;stroke-linecap:square;stroke-width:0.1;"/>
     </g>
     <g id="line2d_2">
      <defs>
       <path d="M 0 0 
L 0 -2 
" id="m336c91de19" style="stroke:#000000;stroke-width:0.3;"/>
      </defs>
      <g>
       <use style="stroke:#000000;stroke-width:0.3;" x="21.583438" xlink:href="#m336c91de19" y="143.63302"/>
      </g>
     </g>
     <g id="text_1">
      <!-- −1.0 -->
      <defs>
       <path d="M 54.4375 31.25 
L 1.8125 31.25 
L 1.8125 35.25 
L 54.4375 35.25 
z
" id="TimesNewRomanPSMT-2212"/>
       <path d="M 11.71875 59.71875 
L 27.828125 67.578125 
L 29.4375 67.578125 
L 29.4375 11.671875 
Q 29.4375 6.109375 29.90625 4.734375 
Q 30.375 3.375 31.828125 2.640625 
Q 33.296875 1.90625 37.796875 1.8125 
L 37.796875 0 
L 12.890625 0 
L 12.890625 1.8125 
Q 17.578125 1.90625 18.9375 2.609375 
Q 20.3125 3.328125 20.84375 4.515625 
Q 21.390625 5.71875 21.390625 11.671875 
L 21.390625 47.40625 
Q 21.390625 54.640625 20.90625 56.6875 
Q 20.5625 58.25 19.65625 58.984375 
Q 18.75 59.71875 17.484375 59.71875 
Q 15.671875 59.71875 12.453125 58.203125 
z
" id="TimesNewRomanPSMT-31"/>
       <path d="M 12.5 9.46875 
Q 14.796875 9.46875 16.359375 7.875 
Q 17.921875 6.296875 17.921875 4.046875 
Q 17.921875 1.8125 16.328125 0.21875 
Q 14.75 -1.375 12.5 -1.375 
Q 10.25 -1.375 8.65625 0.21875 
Q 7.078125 1.8125 7.078125 4.046875 
Q 7.078125 6.34375 8.65625 7.90625 
Q 10.25 9.46875 12.5 9.46875 
z
" id="TimesNewRomanPSMT-2e"/>
       <path d="M 3.609375 32.71875 
Q 3.609375 44.046875 7.03125 52.21875 
Q 10.453125 60.40625 16.109375 64.40625 
Q 20.515625 67.578125 25.203125 67.578125 
Q 32.8125 67.578125 38.875 59.8125 
Q 46.4375 50.203125 46.4375 33.734375 
Q 46.4375 22.21875 43.109375 14.15625 
Q 39.796875 6.109375 34.640625 2.46875 
Q 29.5 -1.171875 24.703125 -1.171875 
Q 15.234375 -1.171875 8.9375 10.015625 
Q 3.609375 19.4375 3.609375 32.71875 
z
M 13.1875 31.5 
Q 13.1875 17.828125 16.546875 9.1875 
Q 19.34375 1.90625 24.859375 1.90625 
Q 27.484375 1.90625 30.3125 4.265625 
Q 33.15625 6.640625 34.625 12.203125 
Q 36.859375 20.609375 36.859375 35.890625 
Q 36.859375 47.21875 34.515625 54.78125 
Q 32.765625 60.40625 29.984375 62.75 
Q 27.984375 64.359375 25.140625 64.359375 
Q 21.828125 64.359375 19.234375 61.375 
Q 15.71875 57.328125 14.453125 48.625 
Q 13.1875 39.9375 13.1875 31.5 
z
" id="TimesNewRomanPSMT-30"/>
      </defs>
      <g transform="translate(16.141719 151.29927)scale(0.06 -0.06)">
       <use xlink:href="#TimesNewRomanPSMT-2212"/>
       <use x="56.396484" xlink:href="#TimesNewRomanPSMT-31"/>
       <use x="106.396484" xlink:href="#TimesNewRomanPSMT-2e"/>
       <use x="131.396484" xlink:href="#TimesNewRomanPSMT-30"/>
      </g>
     </g>
    </g>
    <g id="xtick_2">
     <g id="line2d_3">
      <path clip-path="url(#p53ab9816ce)" d="M 55.170911 143.63302 
L 55.170911 9.283125 
" style="fill:none;opacity:0.1;stroke:#b0b0b0;stroke-linecap:square;stroke-width:0.1;"/>
     </g>
     <g id="line2d_4">
      <g>
       <use style="stroke:#000000;stroke-width:0.3;" x="55.170911" xlink:href="#m336c91de19" y="143.63302"/>
      </g>
     </g>
     <g id="text_2">
      <!-- −0.5 -->
      <defs>
       <path d="M 43.40625 66.21875 
L 39.59375 57.90625 
L 19.671875 57.90625 
L 15.328125 49.03125 
Q 28.265625 47.125 35.84375 39.40625 
Q 42.328125 32.765625 42.328125 23.78125 
Q 42.328125 18.5625 40.203125 14.109375 
Q 38.09375 9.671875 34.859375 6.546875 
Q 31.640625 3.421875 27.6875 1.515625 
Q 22.078125 -1.171875 16.15625 -1.171875 
Q 10.203125 -1.171875 7.484375 0.84375 
Q 4.78125 2.875 4.78125 5.328125 
Q 4.78125 6.6875 5.90625 7.734375 
Q 7.03125 8.796875 8.734375 8.796875 
Q 10.015625 8.796875 10.96875 8.40625 
Q 11.921875 8.015625 14.203125 6.390625 
Q 17.875 3.859375 21.625 3.859375 
Q 27.34375 3.859375 31.65625 8.171875 
Q 35.984375 12.5 35.984375 18.703125 
Q 35.984375 24.703125 32.125 29.90625 
Q 28.265625 35.109375 21.484375 37.9375 
Q 16.15625 40.140625 6.984375 40.484375 
L 19.671875 66.21875 
z
" id="TimesNewRomanPSMT-35"/>
      </defs>
      <g transform="translate(49.729193 151.29927)scale(0.06 -0.06)">
       <use xlink:href="#TimesNewRomanPSMT-2212"/>
       <use x="56.396484" xlink:href="#TimesNewRomanPSMT-30"/>
       <use x="106.396484" xlink:href="#TimesNewRomanPSMT-2e"/>
       <use x="131.396484" xlink:href="#TimesNewRomanPSMT-35"/>
      </g>
     </g>
    </g>
    <g id="xtick_3">
     <g id="line2d_5">
      <path clip-path="url(#p53ab9816ce)" d="M 88.758385 143.63302 
L 88.758385 9.283125 
" style="fill:none;opacity:0.1;stroke:#b0b0b0;stroke-linecap:square;stroke-width:0.1;"/>
     </g>
     <g id="line2d_6">
      <g>
       <use style="stroke:#000000;stroke-width:0.3;" x="88.758385" xlink:href="#m336c91de19" y="143.63302"/>
      </g>
     </g>
     <g id="text_3">
      <!-- 0.0 -->
      <g transform="translate(85.008385 151.29927)scale(0.06 -0.06)">
       <use xlink:href="#TimesNewRomanPSMT-30"/>
       <use x="50" xlink:href="#TimesNewRomanPSMT-2e"/>
       <use x="75" xlink:href="#TimesNewRomanPSMT-30"/>
      </g>
     </g>
    </g>
    <g id="xtick_4">
     <g id="line2d_7">
      <path clip-path="url(#p53ab9816ce)" d="M 122.345859 143.63302 
L 122.345859 9.283125 
" style="fill:none;opacity:0.1;stroke:#b0b0b0;stroke-linecap:square;stroke-width:0.1;"/>
     </g>
     <g id="line2d_8">
      <g>
       <use style="stroke:#000000;stroke-width:0.3;" x="122.345859" xlink:href="#m336c91de19" y="143.63302"/>
      </g>
     </g>
     <g id="text_4">
      <!-- 0.5 -->
      <g transform="translate(118.595859 151.29927)scale(0.06 -0.06)">
       <use xlink:href="#TimesNewRomanPSMT-30"/>
       <use x="50" xlink:href="#TimesNewRomanPSMT-2e"/>
       <use x="75" xlink:href="#TimesNewRomanPSMT-35"/>
      </g>
     </g>
    </g>
    <g id="xtick_5">
     <g id="line2d_9">
      <path clip-path="url(#p53ab9816ce)" d="M 155.933333 143.63302 
L 155.933333 9.283125 
" style="fill:none;opacity:0.1;stroke:#b0b0b0;stroke-linecap:square;stroke-width:0.1;"/>
     </g>
     <g id="line2d_10">
      <g>
       <use style="stroke:#000000;stroke-width:0.3;" x="155.933333" xlink:href="#m336c91de19" y="143.63302"/>
      </g>
     </g>
     <g id="text_5">
      <!-- 1.0 -->
      <g transform="translate(152.183333 151.29927)scale(0.06 -0.06)">
       <use xlink:href="#TimesNewRomanPSMT-31"/>
       <use x="50" xlink:href="#TimesNewRomanPSMT-2e"/>
       <use x="75" xlink:href="#TimesNewRomanPSMT-30"/>
      </g>
     </g>
    </g>
   </g>
   <g id="matplotlib.axis_2">
    <g id="ytick_1">
     <g id="line2d_11">
      <path clip-path="url(#p53ab9816ce)" d="M 21.583438 143.63302 
L 155.933333 143.63302 
" style="fill:none;opacity:0.1;stroke:#b0b0b0;stroke-linecap:square;stroke-width:0.1;"/>
     </g>
     <g id="line2d_12">
      <defs>
       <path d="M 0 0 
L 2 0 
" id="m5466902fe6" style="stroke:#000000;stroke-width:0.3;"/>
      </defs>
      <g>
       <use style="stroke:#000000;stroke-width:0.3;" x="21.583438" xlink:href="#m5466902fe6" y="143.63302"/>
      </g>
     </g>
     <g id="text_6">
      <!-- −1.0 -->
      <g transform="translate(7.2 145.716145)scale(0.06 -0.06)">
       <use xlink:href="#TimesNewRomanPSMT-2212"/>
       <use x="56.396484" xlink:href="#TimesNewRomanPSMT-31"/>
       <use x="106.396484" xlink:href="#TimesNewRomanPSMT-2e"/>
       <use x="131.396484" xlink:href="#TimesNewRomanPSMT-30"/>
      </g>
     </g>
    </g>
    <g id="ytick_2">
     <g id="line2d_13">
      <path clip-path="url(#p53ab9816ce)" d="M 21.583438 110.045546 
L 155.933333 110.045546 
" style="fill:none;opacity:0.1;stroke:#b0b0b0;stroke-linecap:square;stroke-width:0.1;"/>
     </g>
     <g id="line2d_14">
      <g>
       <use style="stroke:#000000;stroke-width:0.3;" x="21.583438" xlink:href="#m5466902fe6" y="110.045546"/>
      </g>
     </g>
     <g id="text_7">
      <!-- −0.5 -->
      <g transform="translate(7.2 112.128671)scale(0.06 -0.06)">
       <use xlink:href="#TimesNewRomanPSMT-2212"/>
       <use x="56.396484" xlink:href="#TimesNewRomanPSMT-30"/>
       <use x="106.396484" xlink:href="#TimesNewRomanPSMT-2e"/>
       <use x="131.396484" xlink:href="#TimesNewRomanPSMT-35"/>
      </g>
     </g>
    </g>
    <g id="ytick_3">
     <g id="line2d_15">
      <path clip-path="url(#p53ab9816ce)" d="M 21.583438 76.458073 
L 155.933333 76.458073 
" style="fill:none;opacity:0.1;stroke:#b0b0b0;stroke-linecap:square;stroke-width:0.1;"/>
     </g>
     <g id="line2d_16">
      <g>
       <use style="stroke:#000000;stroke-width:0.3;" x="21.583438" xlink:href="#m5466902fe6" y="76.458073"/>
      </g>
     </g>
     <g id="text_8">
      <!-- 0.0 -->
      <g transform="translate(10.583438 78.541198)scale(0.06 -0.06)">
       <use xlink:href="#TimesNewRomanPSMT-30"/>
       <use x="50" xlink:href="#TimesNewRomanPSMT-2e"/>
       <use x="75" xlink:href="#TimesNewRomanPSMT-30"/>
      </g>
     </g>
    </g>
    <g id="ytick_4">
     <g id="line2d_17">
      <path clip-path="url(#p53ab9816ce)" d="M 21.583438 42.870599 
L 155.933333 42.870599 
" style="fill:none;opacity:0.1;stroke:#b0b0b0;stroke-linecap:square;stroke-width:0.1;"/>
     </g>
     <g id="line2d_18">
      <g>
       <use style="stroke:#000000;stroke-width:0.3;" x="21.583438" xlink:href="#m5466902fe6" y="42.870599"/>
      </g>
     </g>
     <g id="text_9">
      <!-- 0.5 -->
      <g transform="translate(10.583438 44.953724)scale(0.06 -0.06)">
       <use xlink:href="#TimesNewRomanPSMT-30"/>
       <use x="50" xlink:href="#TimesNewRomanPSMT-2e"/>
       <use x="75" xlink:href="#TimesNewRomanPSMT-35"/>
      </g>
     </g>
    </g>
    <g id="ytick_5">
     <g id="line2d_19">
      <path clip-path="url(#p53ab9816ce)" d="M 21.583438 9.283125 
L 155.933333 9.283125 
" style="fill:none;opacity:0.1;stroke:#b0b0b0;stroke-linecap:square;stroke-width:0.1;"/>
     </g>
     <g id="line2d_20">
      <g>
       <use style="stroke:#000000;stroke-width:0.3;" x="21.583438" xlink:href="#m5466902fe6" y="9.283125"/>
      </g>
     </g>
     <g id="text_10">
      <!-- 1.0 -->
      <g transform="translate(10.583438 11.36625)scale(0.06 -0.06)">
       <use xlink:href="#TimesNewRomanPSMT-31"/>
       <use x="50" xlink:href="#TimesNewRomanPSMT-2e"/>
       <use x="75" xlink:href="#TimesNewRomanPSMT-30"/>
      </g>
     </g>
    </g>
   </g>
   <g id="PathCollection_1">
    <defs>
     <path d="M 0 3 
C 0.795609 3 1.55874 2.683901 2.12132 2.12132 
C 2.683901 1.55874 3 0.795609 3 0 
C 3 -0.795609 2.683901 -1.55874 2.12132 -2.12132 
C 1.55874 -2.683901 0.795609 -3 0 -3 
C -0.795609 -3 -1.55874 -2.683901 -2.12132 -2.12132 
C -2.683901 -1.55874 -3 -0.795609 -3 0 
C -3 0.795609 -2.683901 1.55874 -2.12132 2.12132 
C -1.55874 2.683901 -0.795609 3 0 3 
z
" id="m764ed53836" style="stroke:#1f77b4;"/>
    </defs>
    <g clip-path="url(#p53ab9816ce)">
     <use style="fill:#1f77b4;stroke:#1f77b4;" x="95.675878" xlink:href="#m764ed53836" y="79.154638"/>
     <use style="fill:#1f77b4;stroke:#1f77b4;" x="92.834142" xlink:href="#m764ed53836" y="84.736418"/>
     <use style="fill:#1f77b4;stroke:#1f77b4;" x="93.890368" xlink:href="#m764ed53836" y="63.796549"/>
     <use style="fill:#1f77b4;stroke:#1f77b4;" x="87.279357" xlink:href="#m764ed53836" y="92.947493"/>
     <use style="fill:#1f77b4;stroke:#1f77b4;" x="105.603666" xlink:href="#m764ed53836" y="83.217392"/>
     <use style="fill:#1f77b4;stroke:#1f77b4;" x="105.185767" xlink:href="#m764ed53836" y="86.377238"/>
     <use style="fill:#1f77b4;stroke:#1f77b4;" x="68.180515" xlink:href="#m764ed53836" y="78.483005"/>
     <use style="fill:#1f77b4;stroke:#1f77b4;" x="104.768509" xlink:href="#m764ed53836" y="64.362401"/>
     <use style="fill:#1f77b4;stroke:#1f77b4;" x="71.07918" xlink:href="#m764ed53836" y="88.466252"/>
     <use style="fill:#1f77b4;stroke:#1f77b4;" x="109.308475" xlink:href="#m764ed53836" y="83.493829"/>
     <use style="fill:#1f77b4;stroke:#1f77b4;" x="94.202414" xlink:href="#m764ed53836" y="98.061738"/>
     <use style="fill:#1f77b4;stroke:#1f77b4;" x="83.702954" xlink:href="#m764ed53836" y="97.656596"/>
     <use style="fill:#1f77b4;stroke:#1f77b4;" x="109.522553" xlink:href="#m764ed53836" y="69.799551"/>
     <use style="fill:#1f77b4;stroke:#1f77b4;" x="94.06711" xlink:href="#m764ed53836" y="98.892516"/>
     <use style="fill:#1f77b4;stroke:#1f77b4;" x="96.933733" xlink:href="#m764ed53836" y="98.953543"/>
     <use style="fill:#1f77b4;stroke:#1f77b4;" x="64.501759" xlink:href="#m764ed53836" y="76.064991"/>
     <use style="fill:#1f77b4;stroke:#1f77b4;" x="108.949317" xlink:href="#m764ed53836" y="91.32594"/>
     <use style="fill:#1f77b4;stroke:#1f77b4;" x="67.921078" xlink:href="#m764ed53836" y="91.68043"/>
     <use style="fill:#1f77b4;stroke:#1f77b4;" x="77.057163" xlink:href="#m764ed53836" y="52.930573"/>
     <use style="fill:#1f77b4;stroke:#1f77b4;" x="111.941752" xlink:href="#m764ed53836" y="90.480188"/>
     <use style="fill:#1f77b4;stroke:#1f77b4;" x="61.153533" xlink:href="#m764ed53836" y="76.302666"/>
     <use style="fill:#1f77b4;stroke:#1f77b4;" x="109.955305" xlink:href="#m764ed53836" y="92.795645"/>
     <use style="fill:#1f77b4;stroke:#1f77b4;" x="78.409718" xlink:href="#m764ed53836" y="102.707791"/>
     <use style="fill:#1f77b4;stroke:#1f77b4;" x="65.98724" xlink:href="#m764ed53836" y="92.62405"/>
     <use style="fill:#1f77b4;stroke:#1f77b4;" x="85.480893" xlink:href="#m764ed53836" y="104.728573"/>
     <use style="fill:#1f77b4;stroke:#1f77b4;" x="106.94666" xlink:href="#m764ed53836" y="99.635133"/>
     <use style="fill:#1f77b4;stroke:#1f77b4;" x="77.191128" xlink:href="#m764ed53836" y="103.330267"/>
     <use style="fill:#1f77b4;stroke:#1f77b4;" x="80.840443" xlink:href="#m764ed53836" y="103.966203"/>
     <use style="fill:#1f77b4;stroke:#1f77b4;" x="90.190221" xlink:href="#m764ed53836" y="106.096692"/>
     <use style="fill:#1f77b4;stroke:#1f77b4;" x="115.628695" xlink:href="#m764ed53836" y="91.246704"/>
     <use style="fill:#1f77b4;stroke:#1f77b4;" x="100.948867" xlink:href="#m764ed53836" y="104.937068"/>
     <use style="fill:#1f77b4;stroke:#1f77b4;" x="58.558604" xlink:href="#m764ed53836" y="83.3655"/>
     <use style="fill:#1f77b4;stroke:#1f77b4;" x="105.320862" xlink:href="#m764ed53836" y="103.201695"/>
     <use style="fill:#1f77b4;stroke:#1f77b4;" x="106.249403" xlink:href="#m764ed53836" y="102.727382"/>
     <use style="fill:#1f77b4;stroke:#1f77b4;" x="66.423331" xlink:href="#m764ed53836" y="98.76841"/>
     <use style="fill:#1f77b4;stroke:#1f77b4;" x="105.470617" xlink:href="#m764ed53836" y="104.379862"/>
     <use style="fill:#1f77b4;stroke:#1f77b4;" x="76.533479" xlink:href="#m764ed53836" y="106.942605"/>
     <use style="fill:#1f77b4;stroke:#1f77b4;" x="115.441709" xlink:href="#m764ed53836" y="95.482526"/>
     <use style="fill:#1f77b4;stroke:#1f77b4;" x="55.806647" xlink:href="#m764ed53836" y="76.353338"/>
     <use style="fill:#1f77b4;stroke:#1f77b4;" x="72.829571" xlink:href="#m764ed53836" y="105.31678"/>
     <use style="fill:#1f77b4;stroke:#1f77b4;" x="58.078194" xlink:href="#m764ed53836" y="84.728987"/>
     <use style="fill:#1f77b4;stroke:#1f77b4;" x="82.128518" xlink:href="#m764ed53836" y="44.386469"/>
     <use style="fill:#1f77b4;stroke:#1f77b4;" x="71.452412" xlink:href="#m764ed53836" y="105.837414"/>
     <use style="fill:#1f77b4;stroke:#1f77b4;" x="113.737684" xlink:href="#m764ed53836" y="99.648867"/>
     <use style="fill:#1f77b4;stroke:#1f77b4;" x="64.347209" xlink:href="#m764ed53836" y="99.136287"/>
     <use style="fill:#1f77b4;stroke:#1f77b4;" x="71.377067" xlink:href="#m764ed53836" y="46.623828"/>
     <use style="fill:#1f77b4;stroke:#1f77b4;" x="110.90404" xlink:href="#m764ed53836" y="48.855799"/>
     <use style="fill:#1f77b4;stroke:#1f77b4;" x="67.704617" xlink:href="#m764ed53836" y="47.323911"/>
     <use style="fill:#1f77b4;stroke:#1f77b4;" x="104.687998" xlink:href="#m764ed53836" y="108.838704"/>
     <use style="fill:#1f77b4;stroke:#1f77b4;" x="59.694296" xlink:href="#m764ed53836" y="97.475989"/>
     <use style="fill:#1f77b4;stroke:#1f77b4;" x="92.422648" xlink:href="#m764ed53836" y="39.087109"/>
     <use style="fill:#1f77b4;stroke:#1f77b4;" x="124.364916" xlink:href="#m764ed53836" y="91.200234"/>
     <use style="fill:#1f77b4;stroke:#1f77b4;" x="122.321484" xlink:href="#m764ed53836" y="96.268005"/>
     <use style="fill:#1f77b4;stroke:#1f77b4;" x="124.296948" xlink:href="#m764ed53836" y="94.101027"/>
     <use style="fill:#1f77b4;stroke:#1f77b4;" x="97.0572" xlink:href="#m764ed53836" y="36.742434"/>
     <use style="fill:#1f77b4;stroke:#1f77b4;" x="54.138135" xlink:href="#m764ed53836" y="96.490814"/>
     <use style="fill:#1f77b4;stroke:#1f77b4;" x="51.884187" xlink:href="#m764ed53836" y="97.935465"/>
     <use style="fill:#1f77b4;stroke:#1f77b4;" x="103.008365" xlink:href="#m764ed53836" y="35.851079"/>
     <use style="fill:#1f77b4;stroke:#1f77b4;" x="52.785782" xlink:href="#m764ed53836" y="102.093894"/>
     <use style="fill:#1f77b4;stroke:#1f77b4;" x="82.88088" xlink:href="#m764ed53836" y="28.895696"/>
    </g>
   </g>
   <g id="patch_3">
    <path clip-path="url(#p53ab9816ce)" d="M 88.758385 107.146342 
C 96.897009 107.146342 104.703392 103.912833 110.458269 98.157956 
C 116.213145 92.40308 119.446655 84.596697 119.446655 76.458073 
C 119.446655 68.319448 116.213145 60.513065 110.458269 54.758189 
C 104.703392 49.003313 96.897009 45.769803 88.758385 45.769803 
C 80.619761 45.769803 72.813378 49.003313 67.058502 54.758189 
C 61.303625 60.513065 58.070115 68.319448 58.070115 76.458073 
C 58.070115 84.596697 61.303625 92.40308 67.058502 98.157956 
C 72.813378 103.912833 80.619761 107.146342 88.758385 107.146342 
z
" style="fill:none;stroke:#000000;stroke-linejoin:miter;"/>
   </g>
   <g id="patch_4">
    <path d="M 21.583438 143.63302 
L 21.583438 9.283125 
" style="fill:none;stroke:#000000;stroke-linecap:square;stroke-linejoin:miter;stroke-width:0.3;"/>
   </g>
   <g id="patch_5">
    <path d="M 155.933333 143.63302 
L 155.933333 9.283125 
" style="fill:none;stroke:#000000;stroke-linecap:square;stroke-linejoin:miter;stroke-width:0.3;"/>
   </g>
   <g id="patch_6">
    <path d="M 21.583438 143.63302 
L 155.933333 143.63302 
" style="fill:none;stroke:#000000;stroke-linecap:square;stroke-linejoin:miter;stroke-width:0.3;"/>
   </g>
   <g id="patch_7">
    <path d="M 21.583438 9.283125 
L 155.933333 9.283125 
" style="fill:none;stroke:#000000;stroke-linecap:square;stroke-linejoin:miter;stroke-width:0.3;"/>
   </g>
  </g>
 </g>
 <defs>
  <clipPath id="p53ab9816ce">
   <rect height="134.349895" width="134.349895" x="21.583438" y="9.283125"/>
  </clipPath>
 </defs>
</svg>
