<?xml version="1.0" encoding="utf-8" standalone="no"?>
<!DOCTYPE svg PUBLIC "-//W3C//DTD SVG 1.1//EN"
  "http://www.w3.org/Graphics/SVG/1.1/DTD/svg11.dtd">
<!-- Created with matplotlib (http://matplotlib.org/) -->
<svg height="159pt" version="1.1" viewBox="0 0 166 159" width="166pt" xmlns="http://www.w3.org/2000/svg" xmlns:xlink="http://www.w3.org/1999/xlink">
 <defs>
  <style type="text/css">
*{stroke-linecap:butt;stroke-linejoin:round;}
  </style>
 </defs>
 <g id="figure_1">
  <g id="patch_1">
   <path d="M 0 159.790097 
L 166.890722 159.790097 
L 166.890722 0 
L 0 0 
z
" style="fill:#ffffff;"/>
  </g>
  <g id="axes_1">
   <g id="patch_2">
    <path d="M 21.583438 143.640409 
L 155.940722 143.640409 
L 155.940722 9.283125 
L 21.583438 9.283125 
z
" style="fill:#ffffff;"/>
   </g>
   <g id="matplotlib.axis_1">
    <g id="xtick_1">
     <g id="line2d_1">
      <path clip-path="url(#p6d30fa3011)" d="M 21.583438 143.640409 
L 21.583438 9.283125 
" style="fill:none;opacity:0.3;stroke:#b0b0b0;stroke-linecap:square;stroke-width:0.8;"/>
     </g>
     <g id="line2d_2">
      <defs>
       <path d="M 0 0 
L 0 -3.5 
" id="mece91dd17e" style="stroke:#000000;stroke-width:0.8;"/>
      </defs>
      <g>
       <use style="stroke:#000000;stroke-width:0.8;" x="21.583438" xlink:href="#mece91dd17e" y="143.640409"/>
      </g>
     </g>
     <g id="text_1">
      <!-- −1.0 -->
      <defs>
       <path d="M 54.4375 31.25 
L 1.8125 31.25 
L 1.8125 35.25 
L 54.4375 35.25 
z
" id="TimesNewRomanPSMT-2212"/>
       <path d="M 11.71875 59.71875 
L 27.828125 67.578125 
L 29.4375 67.578125 
L 29.4375 11.671875 
Q 29.4375 6.109375 29.90625 4.734375 
Q 30.375 3.375 31.828125 2.640625 
Q 33.296875 1.90625 37.796875 1.8125 
L 37.796875 0 
L 12.890625 0 
L 12.890625 1.8125 
Q 17.578125 1.90625 18.9375 2.609375 
Q 20.3125 3.328125 20.84375 4.515625 
Q 21.390625 5.71875 21.390625 11.671875 
L 21.390625 47.40625 
Q 21.390625 54.640625 20.90625 56.6875 
Q 20.5625 58.25 19.65625 58.984375 
Q 18.75 59.71875 17.484375 59.71875 
Q 15.671875 59.71875 12.453125 58.203125 
z
" id="TimesNewRomanPSMT-31"/>
       <path d="M 12.5 9.46875 
Q 14.796875 9.46875 16.359375 7.875 
Q 17.921875 6.296875 17.921875 4.046875 
Q 17.921875 1.8125 16.328125 0.21875 
Q 14.75 -1.375 12.5 -1.375 
Q 10.25 -1.375 8.65625 0.21875 
Q 7.078125 1.8125 7.078125 4.046875 
Q 7.078125 6.34375 8.65625 7.90625 
Q 10.25 9.46875 12.5 9.46875 
z
" id="TimesNewRomanPSMT-2e"/>
       <path d="M 3.609375 32.71875 
Q 3.609375 44.046875 7.03125 52.21875 
Q 10.453125 60.40625 16.109375 64.40625 
Q 20.515625 67.578125 25.203125 67.578125 
Q 32.8125 67.578125 38.875 59.8125 
Q 46.4375 50.203125 46.4375 33.734375 
Q 46.4375 22.21875 43.109375 14.15625 
Q 39.796875 6.109375 34.640625 2.46875 
Q 29.5 -1.171875 24.703125 -1.171875 
Q 15.234375 -1.171875 8.9375 10.015625 
Q 3.609375 19.4375 3.609375 32.71875 
z
M 13.1875 31.5 
Q 13.1875 17.828125 16.546875 9.1875 
Q 19.34375 1.90625 24.859375 1.90625 
Q 27.484375 1.90625 30.3125 4.265625 
Q 33.15625 6.640625 34.625 12.203125 
Q 36.859375 20.609375 36.859375 35.890625 
Q 36.859375 47.21875 34.515625 54.78125 
Q 32.765625 60.40625 29.984375 62.75 
Q 27.984375 64.359375 25.140625 64.359375 
Q 21.828125 64.359375 19.234375 61.375 
Q 15.71875 57.328125 14.453125 48.625 
Q 13.1875 39.9375 13.1875 31.5 
z
" id="TimesNewRomanPSMT-30"/>
      </defs>
      <g transform="translate(16.141719 151.306659)scale(0.06 -0.06)">
       <use xlink:href="#TimesNewRomanPSMT-2212"/>
       <use x="56.396484" xlink:href="#TimesNewRomanPSMT-31"/>
       <use x="106.396484" xlink:href="#TimesNewRomanPSMT-2e"/>
       <use x="131.396484" xlink:href="#TimesNewRomanPSMT-30"/>
      </g>
     </g>
    </g>
    <g id="xtick_2">
     <g id="line2d_3">
      <path clip-path="url(#p6d30fa3011)" d="M 55.172759 143.640409 
L 55.172759 9.283125 
" style="fill:none;opacity:0.3;stroke:#b0b0b0;stroke-linecap:square;stroke-width:0.8;"/>
     </g>
     <g id="line2d_4">
      <g>
       <use style="stroke:#000000;stroke-width:0.8;" x="55.172759" xlink:href="#mece91dd17e" y="143.640409"/>
      </g>
     </g>
     <g id="text_2">
      <!-- −0.5 -->
      <defs>
       <path d="M 43.40625 66.21875 
L 39.59375 57.90625 
L 19.671875 57.90625 
L 15.328125 49.03125 
Q 28.265625 47.125 35.84375 39.40625 
Q 42.328125 32.765625 42.328125 23.78125 
Q 42.328125 18.5625 40.203125 14.109375 
Q 38.09375 9.671875 34.859375 6.546875 
Q 31.640625 3.421875 27.6875 1.515625 
Q 22.078125 -1.171875 16.15625 -1.171875 
Q 10.203125 -1.171875 7.484375 0.84375 
Q 4.78125 2.875 4.78125 5.328125 
Q 4.78125 6.6875 5.90625 7.734375 
Q 7.03125 8.796875 8.734375 8.796875 
Q 10.015625 8.796875 10.96875 8.40625 
Q 11.921875 8.015625 14.203125 6.390625 
Q 17.875 3.859375 21.625 3.859375 
Q 27.34375 3.859375 31.65625 8.171875 
Q 35.984375 12.5 35.984375 18.703125 
Q 35.984375 24.703125 32.125 29.90625 
Q 28.265625 35.109375 21.484375 37.9375 
Q 16.15625 40.140625 6.984375 40.484375 
L 19.671875 66.21875 
z
" id="TimesNewRomanPSMT-35"/>
      </defs>
      <g transform="translate(49.73104 151.306659)scale(0.06 -0.06)">
       <use xlink:href="#TimesNewRomanPSMT-2212"/>
       <use x="56.396484" xlink:href="#TimesNewRomanPSMT-30"/>
       <use x="106.396484" xlink:href="#TimesNewRomanPSMT-2e"/>
       <use x="131.396484" xlink:href="#TimesNewRomanPSMT-35"/>
      </g>
     </g>
    </g>
    <g id="xtick_3">
     <g id="line2d_5">
      <path clip-path="url(#p6d30fa3011)" d="M 88.76208 143.640409 
L 88.76208 9.283125 
" style="fill:none;opacity:0.3;stroke:#b0b0b0;stroke-linecap:square;stroke-width:0.8;"/>
     </g>
     <g id="line2d_6">
      <g>
       <use style="stroke:#000000;stroke-width:0.8;" x="88.76208" xlink:href="#mece91dd17e" y="143.640409"/>
      </g>
     </g>
     <g id="text_3">
      <!-- 0.0 -->
      <g transform="translate(85.01208 151.306659)scale(0.06 -0.06)">
       <use xlink:href="#TimesNewRomanPSMT-30"/>
       <use x="50" xlink:href="#TimesNewRomanPSMT-2e"/>
       <use x="75" xlink:href="#TimesNewRomanPSMT-30"/>
      </g>
     </g>
    </g>
    <g id="xtick_4">
     <g id="line2d_7">
      <path clip-path="url(#p6d30fa3011)" d="M 122.351401 143.640409 
L 122.351401 9.283125 
" style="fill:none;opacity:0.3;stroke:#b0b0b0;stroke-linecap:square;stroke-width:0.8;"/>
     </g>
     <g id="line2d_8">
      <g>
       <use style="stroke:#000000;stroke-width:0.8;" x="122.351401" xlink:href="#mece91dd17e" y="143.640409"/>
      </g>
     </g>
     <g id="text_4">
      <!-- 0.5 -->
      <g transform="translate(118.601401 151.306659)scale(0.06 -0.06)">
       <use xlink:href="#TimesNewRomanPSMT-30"/>
       <use x="50" xlink:href="#TimesNewRomanPSMT-2e"/>
       <use x="75" xlink:href="#TimesNewRomanPSMT-35"/>
      </g>
     </g>
    </g>
    <g id="xtick_5">
     <g id="line2d_9">
      <path clip-path="url(#p6d30fa3011)" d="M 155.940722 143.640409 
L 155.940722 9.283125 
" style="fill:none;opacity:0.3;stroke:#b0b0b0;stroke-linecap:square;stroke-width:0.8;"/>
     </g>
     <g id="line2d_10">
      <g>
       <use style="stroke:#000000;stroke-width:0.8;" x="155.940722" xlink:href="#mece91dd17e" y="143.640409"/>
      </g>
     </g>
     <g id="text_5">
      <!-- 1.0 -->
      <g transform="translate(152.190722 151.306659)scale(0.06 -0.06)">
       <use xlink:href="#TimesNewRomanPSMT-31"/>
       <use x="50" xlink:href="#TimesNewRomanPSMT-2e"/>
       <use x="75" xlink:href="#TimesNewRomanPSMT-30"/>
      </g>
     </g>
    </g>
   </g>
   <g id="matplotlib.axis_2">
    <g id="ytick_1">
     <g id="line2d_11">
      <path clip-path="url(#p6d30fa3011)" d="M 21.583438 143.640409 
L 155.940722 143.640409 
" style="fill:none;opacity:0.3;stroke:#b0b0b0;stroke-linecap:square;stroke-width:0.8;"/>
     </g>
     <g id="line2d_12">
      <defs>
       <path d="M 0 0 
L 3.5 0 
" id="me3c947be94" style="stroke:#000000;stroke-width:0.8;"/>
      </defs>
      <g>
       <use style="stroke:#000000;stroke-width:0.8;" x="21.583438" xlink:href="#me3c947be94" y="143.640409"/>
      </g>
     </g>
     <g id="text_6">
      <!-- −1.0 -->
      <g transform="translate(7.2 145.723534)scale(0.06 -0.06)">
       <use xlink:href="#TimesNewRomanPSMT-2212"/>
       <use x="56.396484" xlink:href="#TimesNewRomanPSMT-31"/>
       <use x="106.396484" xlink:href="#TimesNewRomanPSMT-2e"/>
       <use x="131.396484" xlink:href="#TimesNewRomanPSMT-30"/>
      </g>
     </g>
    </g>
    <g id="ytick_2">
     <g id="line2d_13">
      <path clip-path="url(#p6d30fa3011)" d="M 21.583438 110.051088 
L 155.940722 110.051088 
" style="fill:none;opacity:0.3;stroke:#b0b0b0;stroke-linecap:square;stroke-width:0.8;"/>
     </g>
     <g id="line2d_14">
      <g>
       <use style="stroke:#000000;stroke-width:0.8;" x="21.583438" xlink:href="#me3c947be94" y="110.051088"/>
      </g>
     </g>
     <g id="text_7">
      <!-- −0.5 -->
      <g transform="translate(7.2 112.134213)scale(0.06 -0.06)">
       <use xlink:href="#TimesNewRomanPSMT-2212"/>
       <use x="56.396484" xlink:href="#TimesNewRomanPSMT-30"/>
       <use x="106.396484" xlink:href="#TimesNewRomanPSMT-2e"/>
       <use x="131.396484" xlink:href="#TimesNewRomanPSMT-35"/>
      </g>
     </g>
    </g>
    <g id="ytick_3">
     <g id="line2d_15">
      <path clip-path="url(#p6d30fa3011)" d="M 21.583438 76.461767 
L 155.940722 76.461767 
" style="fill:none;opacity:0.3;stroke:#b0b0b0;stroke-linecap:square;stroke-width:0.8;"/>
     </g>
     <g id="line2d_16">
      <g>
       <use style="stroke:#000000;stroke-width:0.8;" x="21.583438" xlink:href="#me3c947be94" y="76.461767"/>
      </g>
     </g>
     <g id="text_8">
      <!-- 0.0 -->
      <g transform="translate(10.583438 78.544892)scale(0.06 -0.06)">
       <use xlink:href="#TimesNewRomanPSMT-30"/>
       <use x="50" xlink:href="#TimesNewRomanPSMT-2e"/>
       <use x="75" xlink:href="#TimesNewRomanPSMT-30"/>
      </g>
     </g>
    </g>
    <g id="ytick_4">
     <g id="line2d_17">
      <path clip-path="url(#p6d30fa3011)" d="M 21.583438 42.872446 
L 155.940722 42.872446 
" style="fill:none;opacity:0.3;stroke:#b0b0b0;stroke-linecap:square;stroke-width:0.8;"/>
     </g>
     <g id="line2d_18">
      <g>
       <use style="stroke:#000000;stroke-width:0.8;" x="21.583438" xlink:href="#me3c947be94" y="42.872446"/>
      </g>
     </g>
     <g id="text_9">
      <!-- 0.5 -->
      <g transform="translate(10.583438 44.955571)scale(0.06 -0.06)">
       <use xlink:href="#TimesNewRomanPSMT-30"/>
       <use x="50" xlink:href="#TimesNewRomanPSMT-2e"/>
       <use x="75" xlink:href="#TimesNewRomanPSMT-35"/>
      </g>
     </g>
    </g>
    <g id="ytick_5">
     <g id="line2d_19">
      <path clip-path="url(#p6d30fa3011)" d="M 21.583438 9.283125 
L 155.940722 9.283125 
" style="fill:none;opacity:0.3;stroke:#b0b0b0;stroke-linecap:square;stroke-width:0.8;"/>
     </g>
     <g id="line2d_20">
      <g>
       <use style="stroke:#000000;stroke-width:0.8;" x="21.583438" xlink:href="#me3c947be94" y="9.283125"/>
      </g>
     </g>
     <g id="text_10">
      <!-- 1.0 -->
      <g transform="translate(10.583438 11.36625)scale(0.06 -0.06)">
       <use xlink:href="#TimesNewRomanPSMT-31"/>
       <use x="50" xlink:href="#TimesNewRomanPSMT-2e"/>
       <use x="75" xlink:href="#TimesNewRomanPSMT-30"/>
      </g>
     </g>
    </g>
   </g>
   <g id="PathCollection_1">
    <defs>
     <path d="M 0 3 
C 0.795609 3 1.55874 2.683901 2.12132 2.12132 
C 2.683901 1.55874 3 0.795609 3 0 
C 3 -0.795609 2.683901 -1.55874 2.12132 -2.12132 
C 1.55874 -2.683901 0.795609 -3 0 -3 
C -0.795609 -3 -1.55874 -2.683901 -2.12132 -2.12132 
C -2.683901 -1.55874 -3 -0.795609 -3 0 
C -3 0.795609 -2.683901 1.55874 -2.12132 2.12132 
C -1.55874 2.683901 -0.795609 3 0 3 
z
" id="mc359d2b236" style="stroke:#1f77b4;"/>
    </defs>
    <g clip-path="url(#p6d30fa3011)">
     <use style="fill:#1f77b4;stroke:#1f77b4;" x="95.679953" xlink:href="#mc359d2b236" y="79.158481"/>
     <use style="fill:#1f77b4;stroke:#1f77b4;" x="92.83806" xlink:href="#mc359d2b236" y="84.740568"/>
     <use style="fill:#1f77b4;stroke:#1f77b4;" x="93.894344" xlink:href="#mc359d2b236" y="63.799547"/>
     <use style="fill:#1f77b4;stroke:#1f77b4;" x="87.28297" xlink:href="#mc359d2b236" y="92.952095"/>
     <use style="fill:#1f77b4;stroke:#1f77b4;" x="105.608287" xlink:href="#mc359d2b236" y="83.221458"/>
     <use style="fill:#1f77b4;stroke:#1f77b4;" x="105.190365" xlink:href="#mc359d2b236" y="86.381478"/>
     <use style="fill:#1f77b4;stroke:#1f77b4;" x="68.183077" xlink:href="#mc359d2b236" y="78.486811"/>
     <use style="fill:#1f77b4;stroke:#1f77b4;" x="104.773084" xlink:href="#mc359d2b236" y="64.365431"/>
     <use style="fill:#1f77b4;stroke:#1f77b4;" x="71.081903" xlink:href="#mc359d2b236" y="88.470607"/>
     <use style="fill:#1f77b4;stroke:#1f77b4;" x="109.3133" xlink:href="#mc359d2b236" y="83.497911"/>
     <use style="fill:#1f77b4;stroke:#1f77b4;" x="94.206408" xlink:href="#mc359d2b236" y="98.06662"/>
     <use style="fill:#1f77b4;stroke:#1f77b4;" x="83.706371" xlink:href="#mc359d2b236" y="97.661457"/>
     <use style="fill:#1f77b4;stroke:#1f77b4;" x="109.52739" xlink:href="#mc359d2b236" y="69.80288"/>
     <use style="fill:#1f77b4;stroke:#1f77b4;" x="94.071097" xlink:href="#mc359d2b236" y="98.897444"/>
     <use style="fill:#1f77b4;stroke:#1f77b4;" x="96.937877" xlink:href="#mc359d2b236" y="98.958474"/>
     <use style="fill:#1f77b4;stroke:#1f77b4;" x="64.50412" xlink:href="#mc359d2b236" y="76.068664"/>
     <use style="fill:#1f77b4;stroke:#1f77b4;" x="108.954122" xlink:href="#mc359d2b236" y="91.330452"/>
     <use style="fill:#1f77b4;stroke:#1f77b4;" x="67.923627" xlink:href="#mc359d2b236" y="91.684961"/>
     <use style="fill:#1f77b4;stroke:#1f77b4;" x="77.060214" xlink:href="#mc359d2b236" y="52.932974"/>
     <use style="fill:#1f77b4;stroke:#1f77b4;" x="111.946721" xlink:href="#mc359d2b236" y="90.484654"/>
     <use style="fill:#1f77b4;stroke:#1f77b4;" x="61.155709" xlink:href="#mc359d2b236" y="76.306352"/>
     <use style="fill:#1f77b4;stroke:#1f77b4;" x="109.960166" xlink:href="#mc359d2b236" y="92.800238"/>
     <use style="fill:#1f77b4;stroke:#1f77b4;" x="78.412843" xlink:href="#mc359d2b236" y="102.71293"/>
     <use style="fill:#1f77b4;stroke:#1f77b4;" x="65.989682" xlink:href="#mc359d2b236" y="92.628633"/>
     <use style="fill:#1f77b4;stroke:#1f77b4;" x="85.484408" xlink:href="#mc359d2b236" y="104.733823"/>
     <use style="fill:#1f77b4;stroke:#1f77b4;" x="106.951354" xlink:href="#mc359d2b236" y="99.640102"/>
     <use style="fill:#1f77b4;stroke:#1f77b4;" x="77.194186" xlink:href="#mc359d2b236" y="103.33544"/>
     <use style="fill:#1f77b4;stroke:#1f77b4;" x="80.843702" xlink:href="#mc359d2b236" y="103.97141"/>
     <use style="fill:#1f77b4;stroke:#1f77b4;" x="90.193995" xlink:href="#mc359d2b236" y="106.102017"/>
     <use style="fill:#1f77b4;stroke:#1f77b4;" x="115.633868" xlink:href="#mc359d2b236" y="91.251211"/>
     <use style="fill:#1f77b4;stroke:#1f77b4;" x="100.953232" xlink:href="#mc359d2b236" y="104.942329"/>
     <use style="fill:#1f77b4;stroke:#1f77b4;" x="58.560638" xlink:href="#mc359d2b236" y="83.369574"/>
     <use style="fill:#1f77b4;stroke:#1f77b4;" x="105.325467" xlink:href="#mc359d2b236" y="103.206861"/>
     <use style="fill:#1f77b4;stroke:#1f77b4;" x="106.254059" xlink:href="#mc359d2b236" y="102.732521"/>
     <use style="fill:#1f77b4;stroke:#1f77b4;" x="66.425797" xlink:href="#mc359d2b236" y="98.773332"/>
     <use style="fill:#1f77b4;stroke:#1f77b4;" x="105.475231" xlink:href="#mc359d2b236" y="104.385092"/>
     <use style="fill:#1f77b4;stroke:#1f77b4;" x="76.536501" xlink:href="#mc359d2b236" y="106.947976"/>
     <use style="fill:#1f77b4;stroke:#1f77b4;" x="115.446871" xlink:href="#mc359d2b236" y="95.487266"/>
     <use style="fill:#1f77b4;stroke:#1f77b4;" x="55.808529" xlink:href="#mc359d2b236" y="76.357027"/>
     <use style="fill:#1f77b4;stroke:#1f77b4;" x="72.832389" xlink:href="#mc359d2b236" y="105.322061"/>
     <use style="fill:#1f77b4;stroke:#1f77b4;" x="58.080201" xlink:href="#mc359d2b236" y="84.733136"/>
     <use style="fill:#1f77b4;stroke:#1f77b4;" x="82.131847" xlink:href="#mc359d2b236" y="44.3884"/>
     <use style="fill:#1f77b4;stroke:#1f77b4;" x="71.455155" xlink:href="#mc359d2b236" y="105.842724"/>
     <use style="fill:#1f77b4;stroke:#1f77b4;" x="113.742752" xlink:href="#mc359d2b236" y="99.653837"/>
     <use style="fill:#1f77b4;stroke:#1f77b4;" x="64.349561" xlink:href="#mc359d2b236" y="99.141229"/>
     <use style="fill:#1f77b4;stroke:#1f77b4;" x="71.379806" xlink:href="#mc359d2b236" y="46.625881"/>
     <use style="fill:#1f77b4;stroke:#1f77b4;" x="110.908952" xlink:href="#mc359d2b236" y="48.857975"/>
     <use style="fill:#1f77b4;stroke:#1f77b4;" x="67.707153" xlink:href="#mc359d2b236" y="47.326003"/>
     <use style="fill:#1f77b4;stroke:#1f77b4;" x="104.692569" xlink:href="#mc359d2b236" y="108.844179"/>
     <use style="fill:#1f77b4;stroke:#1f77b4;" x="59.696392" xlink:href="#mc359d2b236" y="97.480839"/>
     <use style="fill:#1f77b4;stroke:#1f77b4;" x="92.426544" xlink:href="#mc359d2b236" y="39.088748"/>
     <use style="fill:#1f77b4;stroke:#1f77b4;" x="124.370569" xlink:href="#mc359d2b236" y="91.204739"/>
     <use style="fill:#1f77b4;stroke:#1f77b4;" x="122.327024" xlink:href="#mc359d2b236" y="96.272789"/>
     <use style="fill:#1f77b4;stroke:#1f77b4;" x="124.302597" xlink:href="#mc359d2b236" y="94.105691"/>
     <use style="fill:#1f77b4;stroke:#1f77b4;" x="97.061351" xlink:href="#mc359d2b236" y="36.743944"/>
     <use style="fill:#1f77b4;stroke:#1f77b4;" x="54.139925" xlink:href="#mc359d2b236" y="96.49561"/>
     <use style="fill:#1f77b4;stroke:#1f77b4;" x="51.885854" xlink:href="#mc359d2b236" y="97.94034"/>
     <use style="fill:#1f77b4;stroke:#1f77b4;" x="103.012844" xlink:href="#mc359d2b236" y="35.85254"/>
     <use style="fill:#1f77b4;stroke:#1f77b4;" x="52.787498" xlink:href="#mc359d2b236" y="102.098999"/>
     <use style="fill:#1f77b4;stroke:#1f77b4;" x="82.884252" xlink:href="#mc359d2b236" y="28.896775"/>
    </g>
   </g>
   <g id="patch_3">
    <path clip-path="url(#p6d30fa3011)" d="M 88.76208 107.151725 
C 96.901152 107.151725 104.707964 103.918037 110.463157 98.162844 
C 116.21835 92.407651 119.452037 84.600839 119.452037 76.461767 
C 119.452037 68.322695 116.21835 60.515883 110.463157 54.76069 
C 104.707964 49.005497 96.901152 45.77181 88.76208 45.77181 
C 80.623008 45.77181 72.816195 49.005497 67.061003 54.76069 
C 61.30581 60.515883 58.072122 68.322695 58.072122 76.461767 
C 58.072122 84.600839 61.30581 92.407651 67.061003 98.162844 
C 72.816195 103.918037 80.623008 107.151725 88.76208 107.151725 
z
" style="fill:none;stroke:#000000;stroke-linejoin:miter;"/>
   </g>
   <g id="patch_4">
    <path d="M 21.583438 143.640409 
L 21.583438 9.283125 
" style="fill:none;stroke:#000000;stroke-linecap:square;stroke-linejoin:miter;stroke-width:0.8;"/>
   </g>
   <g id="patch_5">
    <path d="M 155.940722 143.640409 
L 155.940722 9.283125 
" style="fill:none;stroke:#000000;stroke-linecap:square;stroke-linejoin:miter;stroke-width:0.8;"/>
   </g>
   <g id="patch_6">
    <path d="M 21.583438 143.640409 
L 155.940722 143.640409 
" style="fill:none;stroke:#000000;stroke-linecap:square;stroke-linejoin:miter;stroke-width:0.8;"/>
   </g>
   <g id="patch_7">
    <path d="M 21.583438 9.283125 
L 155.940722 9.283125 
" style="fill:none;stroke:#000000;stroke-linecap:square;stroke-linejoin:miter;stroke-width:0.8;"/>
   </g>
  </g>
 </g>
 <defs>
  <clipPath id="p6d30fa3011">
   <rect height="134.357284" width="134.357284" x="21.583438" y="9.283125"/>
  </clipPath>
 </defs>
</svg>
