<?xml version="1.0" encoding="utf-8" standalone="no"?>
<!DOCTYPE svg PUBLIC "-//W3C//DTD SVG 1.1//EN"
  "http://www.w3.org/Graphics/SVG/1.1/DTD/svg11.dtd">
<!-- Created with matplotlib (http://matplotlib.org/) -->
<svg height="159pt" version="1.1" viewBox="0 0 166 159" width="166pt" xmlns="http://www.w3.org/2000/svg" xmlns:xlink="http://www.w3.org/1999/xlink">
 <defs>
  <style type="text/css">
*{stroke-linecap:butt;stroke-linejoin:round;}
  </style>
 </defs>
 <g id="figure_1">
  <g id="patch_1">
   <path d="M 0 159.790097 
L 166.890722 159.790097 
L 166.890722 0 
L 0 0 
z
" style="fill:#ffffff;"/>
  </g>
  <g id="axes_1">
   <g id="patch_2">
    <path d="M 21.583438 143.640409 
L 155.940722 143.640409 
L 155.940722 9.283125 
L 21.583438 9.283125 
z
" style="fill:#ffffff;"/>
   </g>
   <g id="matplotlib.axis_1">
    <g id="xtick_1">
     <g id="line2d_1">
      <path clip-path="url(#p23ab1a1b23)" d="M 21.583438 143.640409 
L 21.583438 9.283125 
" style="fill:none;opacity:0.3;stroke:#b0b0b0;stroke-linecap:square;stroke-width:0.8;"/>
     </g>
     <g id="line2d_2">
      <defs>
       <path d="M 0 0 
L 0 -3.5 
" id="m6c5b4938c1" style="stroke:#000000;stroke-width:0.8;"/>
      </defs>
      <g>
       <use style="stroke:#000000;stroke-width:0.8;" x="21.583438" xlink:href="#m6c5b4938c1" y="143.640409"/>
      </g>
     </g>
     <g id="text_1">
      <!-- −1.0 -->
      <defs>
       <path d="M 54.4375 31.25 
L 1.8125 31.25 
L 1.8125 35.25 
L 54.4375 35.25 
z
" id="TimesNewRomanPSMT-2212"/>
       <path d="M 11.71875 59.71875 
L 27.828125 67.578125 
L 29.4375 67.578125 
L 29.4375 11.671875 
Q 29.4375 6.109375 29.90625 4.734375 
Q 30.375 3.375 31.828125 2.640625 
Q 33.296875 1.90625 37.796875 1.8125 
L 37.796875 0 
L 12.890625 0 
L 12.890625 1.8125 
Q 17.578125 1.90625 18.9375 2.609375 
Q 20.3125 3.328125 20.84375 4.515625 
Q 21.390625 5.71875 21.390625 11.671875 
L 21.390625 47.40625 
Q 21.390625 54.640625 20.90625 56.6875 
Q 20.5625 58.25 19.65625 58.984375 
Q 18.75 59.71875 17.484375 59.71875 
Q 15.671875 59.71875 12.453125 58.203125 
z
" id="TimesNewRomanPSMT-31"/>
       <path d="M 12.5 9.46875 
Q 14.796875 9.46875 16.359375 7.875 
Q 17.921875 6.296875 17.921875 4.046875 
Q 17.921875 1.8125 16.328125 0.21875 
Q 14.75 -1.375 12.5 -1.375 
Q 10.25 -1.375 8.65625 0.21875 
Q 7.078125 1.8125 7.078125 4.046875 
Q 7.078125 6.34375 8.65625 7.90625 
Q 10.25 9.46875 12.5 9.46875 
z
" id="TimesNewRomanPSMT-2e"/>
       <path d="M 3.609375 32.71875 
Q 3.609375 44.046875 7.03125 52.21875 
Q 10.453125 60.40625 16.109375 64.40625 
Q 20.515625 67.578125 25.203125 67.578125 
Q 32.8125 67.578125 38.875 59.8125 
Q 46.4375 50.203125 46.4375 33.734375 
Q 46.4375 22.21875 43.109375 14.15625 
Q 39.796875 6.109375 34.640625 2.46875 
Q 29.5 -1.171875 24.703125 -1.171875 
Q 15.234375 -1.171875 8.9375 10.015625 
Q 3.609375 19.4375 3.609375 32.71875 
z
M 13.1875 31.5 
Q 13.1875 17.828125 16.546875 9.1875 
Q 19.34375 1.90625 24.859375 1.90625 
Q 27.484375 1.90625 30.3125 4.265625 
Q 33.15625 6.640625 34.625 12.203125 
Q 36.859375 20.609375 36.859375 35.890625 
Q 36.859375 47.21875 34.515625 54.78125 
Q 32.765625 60.40625 29.984375 62.75 
Q 27.984375 64.359375 25.140625 64.359375 
Q 21.828125 64.359375 19.234375 61.375 
Q 15.71875 57.328125 14.453125 48.625 
Q 13.1875 39.9375 13.1875 31.5 
z
" id="TimesNewRomanPSMT-30"/>
      </defs>
      <g transform="translate(16.141719 151.306659)scale(0.06 -0.06)">
       <use xlink:href="#TimesNewRomanPSMT-2212"/>
       <use x="56.396484" xlink:href="#TimesNewRomanPSMT-31"/>
       <use x="106.396484" xlink:href="#TimesNewRomanPSMT-2e"/>
       <use x="131.396484" xlink:href="#TimesNewRomanPSMT-30"/>
      </g>
     </g>
    </g>
    <g id="xtick_2">
     <g id="line2d_3">
      <path clip-path="url(#p23ab1a1b23)" d="M 55.172759 143.640409 
L 55.172759 9.283125 
" style="fill:none;opacity:0.3;stroke:#b0b0b0;stroke-linecap:square;stroke-width:0.8;"/>
     </g>
     <g id="line2d_4">
      <g>
       <use style="stroke:#000000;stroke-width:0.8;" x="55.172759" xlink:href="#m6c5b4938c1" y="143.640409"/>
      </g>
     </g>
     <g id="text_2">
      <!-- −0.5 -->
      <defs>
       <path d="M 43.40625 66.21875 
L 39.59375 57.90625 
L 19.671875 57.90625 
L 15.328125 49.03125 
Q 28.265625 47.125 35.84375 39.40625 
Q 42.328125 32.765625 42.328125 23.78125 
Q 42.328125 18.5625 40.203125 14.109375 
Q 38.09375 9.671875 34.859375 6.546875 
Q 31.640625 3.421875 27.6875 1.515625 
Q 22.078125 -1.171875 16.15625 -1.171875 
Q 10.203125 -1.171875 7.484375 0.84375 
Q 4.78125 2.875 4.78125 5.328125 
Q 4.78125 6.6875 5.90625 7.734375 
Q 7.03125 8.796875 8.734375 8.796875 
Q 10.015625 8.796875 10.96875 8.40625 
Q 11.921875 8.015625 14.203125 6.390625 
Q 17.875 3.859375 21.625 3.859375 
Q 27.34375 3.859375 31.65625 8.171875 
Q 35.984375 12.5 35.984375 18.703125 
Q 35.984375 24.703125 32.125 29.90625 
Q 28.265625 35.109375 21.484375 37.9375 
Q 16.15625 40.140625 6.984375 40.484375 
L 19.671875 66.21875 
z
" id="TimesNewRomanPSMT-35"/>
      </defs>
      <g transform="translate(49.73104 151.306659)scale(0.06 -0.06)">
       <use xlink:href="#TimesNewRomanPSMT-2212"/>
       <use x="56.396484" xlink:href="#TimesNewRomanPSMT-30"/>
       <use x="106.396484" xlink:href="#TimesNewRomanPSMT-2e"/>
       <use x="131.396484" xlink:href="#TimesNewRomanPSMT-35"/>
      </g>
     </g>
    </g>
    <g id="xtick_3">
     <g id="line2d_5">
      <path clip-path="url(#p23ab1a1b23)" d="M 88.76208 143.640409 
L 88.76208 9.283125 
" style="fill:none;opacity:0.3;stroke:#b0b0b0;stroke-linecap:square;stroke-width:0.8;"/>
     </g>
     <g id="line2d_6">
      <g>
       <use style="stroke:#000000;stroke-width:0.8;" x="88.76208" xlink:href="#m6c5b4938c1" y="143.640409"/>
      </g>
     </g>
     <g id="text_3">
      <!-- 0.0 -->
      <g transform="translate(85.01208 151.306659)scale(0.06 -0.06)">
       <use xlink:href="#TimesNewRomanPSMT-30"/>
       <use x="50" xlink:href="#TimesNewRomanPSMT-2e"/>
       <use x="75" xlink:href="#TimesNewRomanPSMT-30"/>
      </g>
     </g>
    </g>
    <g id="xtick_4">
     <g id="line2d_7">
      <path clip-path="url(#p23ab1a1b23)" d="M 122.351401 143.640409 
L 122.351401 9.283125 
" style="fill:none;opacity:0.3;stroke:#b0b0b0;stroke-linecap:square;stroke-width:0.8;"/>
     </g>
     <g id="line2d_8">
      <g>
       <use style="stroke:#000000;stroke-width:0.8;" x="122.351401" xlink:href="#m6c5b4938c1" y="143.640409"/>
      </g>
     </g>
     <g id="text_4">
      <!-- 0.5 -->
      <g transform="translate(118.601401 151.306659)scale(0.06 -0.06)">
       <use xlink:href="#TimesNewRomanPSMT-30"/>
       <use x="50" xlink:href="#TimesNewRomanPSMT-2e"/>
       <use x="75" xlink:href="#TimesNewRomanPSMT-35"/>
      </g>
     </g>
    </g>
    <g id="xtick_5">
     <g id="line2d_9">
      <path clip-path="url(#p23ab1a1b23)" d="M 155.940722 143.640409 
L 155.940722 9.283125 
" style="fill:none;opacity:0.3;stroke:#b0b0b0;stroke-linecap:square;stroke-width:0.8;"/>
     </g>
     <g id="line2d_10">
      <g>
       <use style="stroke:#000000;stroke-width:0.8;" x="155.940722" xlink:href="#m6c5b4938c1" y="143.640409"/>
      </g>
     </g>
     <g id="text_5">
      <!-- 1.0 -->
      <g transform="translate(152.190722 151.306659)scale(0.06 -0.06)">
       <use xlink:href="#TimesNewRomanPSMT-31"/>
       <use x="50" xlink:href="#TimesNewRomanPSMT-2e"/>
       <use x="75" xlink:href="#TimesNewRomanPSMT-30"/>
      </g>
     </g>
    </g>
   </g>
   <g id="matplotlib.axis_2">
    <g id="ytick_1">
     <g id="line2d_11">
      <path clip-path="url(#p23ab1a1b23)" d="M 21.583438 143.640409 
L 155.940722 143.640409 
" style="fill:none;opacity:0.3;stroke:#b0b0b0;stroke-linecap:square;stroke-width:0.8;"/>
     </g>
     <g id="line2d_12">
      <defs>
       <path d="M 0 0 
L 3.5 0 
" id="m4f8e8188ba" style="stroke:#000000;stroke-width:0.8;"/>
      </defs>
      <g>
       <use style="stroke:#000000;stroke-width:0.8;" x="21.583438" xlink:href="#m4f8e8188ba" y="143.640409"/>
      </g>
     </g>
     <g id="text_6">
      <!-- −1.0 -->
      <g transform="translate(7.2 145.723534)scale(0.06 -0.06)">
       <use xlink:href="#TimesNewRomanPSMT-2212"/>
       <use x="56.396484" xlink:href="#TimesNewRomanPSMT-31"/>
       <use x="106.396484" xlink:href="#TimesNewRomanPSMT-2e"/>
       <use x="131.396484" xlink:href="#TimesNewRomanPSMT-30"/>
      </g>
     </g>
    </g>
    <g id="ytick_2">
     <g id="line2d_13">
      <path clip-path="url(#p23ab1a1b23)" d="M 21.583438 110.051088 
L 155.940722 110.051088 
" style="fill:none;opacity:0.3;stroke:#b0b0b0;stroke-linecap:square;stroke-width:0.8;"/>
     </g>
     <g id="line2d_14">
      <g>
       <use style="stroke:#000000;stroke-width:0.8;" x="21.583438" xlink:href="#m4f8e8188ba" y="110.051088"/>
      </g>
     </g>
     <g id="text_7">
      <!-- −0.5 -->
      <g transform="translate(7.2 112.134213)scale(0.06 -0.06)">
       <use xlink:href="#TimesNewRomanPSMT-2212"/>
       <use x="56.396484" xlink:href="#TimesNewRomanPSMT-30"/>
       <use x="106.396484" xlink:href="#TimesNewRomanPSMT-2e"/>
       <use x="131.396484" xlink:href="#TimesNewRomanPSMT-35"/>
      </g>
     </g>
    </g>
    <g id="ytick_3">
     <g id="line2d_15">
      <path clip-path="url(#p23ab1a1b23)" d="M 21.583438 76.461767 
L 155.940722 76.461767 
" style="fill:none;opacity:0.3;stroke:#b0b0b0;stroke-linecap:square;stroke-width:0.8;"/>
     </g>
     <g id="line2d_16">
      <g>
       <use style="stroke:#000000;stroke-width:0.8;" x="21.583438" xlink:href="#m4f8e8188ba" y="76.461767"/>
      </g>
     </g>
     <g id="text_8">
      <!-- 0.0 -->
      <g transform="translate(10.583438 78.544892)scale(0.06 -0.06)">
       <use xlink:href="#TimesNewRomanPSMT-30"/>
       <use x="50" xlink:href="#TimesNewRomanPSMT-2e"/>
       <use x="75" xlink:href="#TimesNewRomanPSMT-30"/>
      </g>
     </g>
    </g>
    <g id="ytick_4">
     <g id="line2d_17">
      <path clip-path="url(#p23ab1a1b23)" d="M 21.583438 42.872446 
L 155.940722 42.872446 
" style="fill:none;opacity:0.3;stroke:#b0b0b0;stroke-linecap:square;stroke-width:0.8;"/>
     </g>
     <g id="line2d_18">
      <g>
       <use style="stroke:#000000;stroke-width:0.8;" x="21.583438" xlink:href="#m4f8e8188ba" y="42.872446"/>
      </g>
     </g>
     <g id="text_9">
      <!-- 0.5 -->
      <g transform="translate(10.583438 44.955571)scale(0.06 -0.06)">
       <use xlink:href="#TimesNewRomanPSMT-30"/>
       <use x="50" xlink:href="#TimesNewRomanPSMT-2e"/>
       <use x="75" xlink:href="#TimesNewRomanPSMT-35"/>
      </g>
     </g>
    </g>
    <g id="ytick_5">
     <g id="line2d_19">
      <path clip-path="url(#p23ab1a1b23)" d="M 21.583438 9.283125 
L 155.940722 9.283125 
" style="fill:none;opacity:0.3;stroke:#b0b0b0;stroke-linecap:square;stroke-width:0.8;"/>
     </g>
     <g id="line2d_20">
      <g>
       <use style="stroke:#000000;stroke-width:0.8;" x="21.583438" xlink:href="#m4f8e8188ba" y="9.283125"/>
      </g>
     </g>
     <g id="text_10">
      <!-- 1.0 -->
      <g transform="translate(10.583438 11.36625)scale(0.06 -0.06)">
       <use xlink:href="#TimesNewRomanPSMT-31"/>
       <use x="50" xlink:href="#TimesNewRomanPSMT-2e"/>
       <use x="75" xlink:href="#TimesNewRomanPSMT-30"/>
      </g>
     </g>
    </g>
   </g>
   <g id="PathCollection_1">
    <defs>
     <path d="M 0 3 
C 0.795609 3 1.55874 2.683901 2.12132 2.12132 
C 2.683901 1.55874 3 0.795609 3 0 
C 3 -0.795609 2.683901 -1.55874 2.12132 -2.12132 
C 1.55874 -2.683901 0.795609 -3 0 -3 
C -0.795609 -3 -1.55874 -2.683901 -2.12132 -2.12132 
C -2.683901 -1.55874 -3 -0.795609 -3 0 
C -3 0.795609 -2.683901 1.55874 -2.12132 2.12132 
C -1.55874 2.683901 -0.795609 3 0 3 
z
" id="m3bb2f6c200" style="stroke:#1f77b4;"/>
    </defs>
    <g clip-path="url(#p23ab1a1b23)">
     <use style="fill:#1f77b4;stroke:#1f77b4;" x="92.181323" xlink:href="#m3bb2f6c200" y="78.88585"/>
     <use style="fill:#1f77b4;stroke:#1f77b4;" x="97.879901" xlink:href="#m3bb2f6c200" y="83.030389"/>
     <use style="fill:#1f77b4;stroke:#1f77b4;" x="103.139915" xlink:href="#m3bb2f6c200" y="69.771373"/>
     <use style="fill:#1f77b4;stroke:#1f77b4;" x="105.103904" xlink:href="#m3bb2f6c200" y="65.339654"/>
     <use style="fill:#1f77b4;stroke:#1f77b4;" x="92.153021" xlink:href="#m3bb2f6c200" y="96.279032"/>
     <use style="fill:#1f77b4;stroke:#1f77b4;" x="107.700629" xlink:href="#m3bb2f6c200" y="84.805621"/>
     <use style="fill:#1f77b4;stroke:#1f77b4;" x="94.977037" xlink:href="#m3bb2f6c200" y="95.081899"/>
     <use style="fill:#1f77b4;stroke:#1f77b4;" x="92.253185" xlink:href="#m3bb2f6c200" y="96.448993"/>
     <use style="fill:#1f77b4;stroke:#1f77b4;" x="110.301711" xlink:href="#m3bb2f6c200" y="81.706338"/>
     <use style="fill:#1f77b4;stroke:#1f77b4;" x="67.428011" xlink:href="#m3bb2f6c200" y="80.501979"/>
     <use style="fill:#1f77b4;stroke:#1f77b4;" x="70.035411" xlink:href="#m3bb2f6c200" y="88.663666"/>
     <use style="fill:#1f77b4;stroke:#1f77b4;" x="66.958491" xlink:href="#m3bb2f6c200" y="82.608403"/>
     <use style="fill:#1f77b4;stroke:#1f77b4;" x="101.905372" xlink:href="#m3bb2f6c200" y="95.524123"/>
     <use style="fill:#1f77b4;stroke:#1f77b4;" x="64.403638" xlink:href="#m3bb2f6c200" y="76.794992"/>
     <use style="fill:#1f77b4;stroke:#1f77b4;" x="83.041176" xlink:href="#m3bb2f6c200" y="99.893647"/>
     <use style="fill:#1f77b4;stroke:#1f77b4;" x="109.204542" xlink:href="#m3bb2f6c200" y="91.191588"/>
     <use style="fill:#1f77b4;stroke:#1f77b4;" x="78.253077" xlink:href="#m3bb2f6c200" y="101.892172"/>
     <use style="fill:#1f77b4;stroke:#1f77b4;" x="64.507455" xlink:href="#m3bb2f6c200" y="89.9568"/>
     <use style="fill:#1f77b4;stroke:#1f77b4;" x="110.2724" xlink:href="#m3bb2f6c200" y="94.186501"/>
     <use style="fill:#1f77b4;stroke:#1f77b4;" x="112.177318" xlink:href="#m3bb2f6c200" y="92.263335"/>
     <use style="fill:#1f77b4;stroke:#1f77b4;" x="64.630926" xlink:href="#m3bb2f6c200" y="92.091135"/>
     <use style="fill:#1f77b4;stroke:#1f77b4;" x="105.03804" xlink:href="#m3bb2f6c200" y="100.445641"/>
     <use style="fill:#1f77b4;stroke:#1f77b4;" x="107.519798" xlink:href="#m3bb2f6c200" y="98.491879"/>
     <use style="fill:#1f77b4;stroke:#1f77b4;" x="78.464912" xlink:href="#m3bb2f6c200" y="103.779406"/>
     <use style="fill:#1f77b4;stroke:#1f77b4;" x="76.898037" xlink:href="#m3bb2f6c200" y="50.211176"/>
     <use style="fill:#1f77b4;stroke:#1f77b4;" x="87.248641" xlink:href="#m3bb2f6c200" y="107.009867"/>
     <use style="fill:#1f77b4;stroke:#1f77b4;" x="58.814964" xlink:href="#m3bb2f6c200" y="76.795074"/>
     <use style="fill:#1f77b4;stroke:#1f77b4;" x="114.43973" xlink:href="#m3bb2f6c200" y="93.944905"/>
     <use style="fill:#1f77b4;stroke:#1f77b4;" x="77.512546" xlink:href="#m3bb2f6c200" y="105.992293"/>
     <use style="fill:#1f77b4;stroke:#1f77b4;" x="103.014972" xlink:href="#m3bb2f6c200" y="104.557751"/>
     <use style="fill:#1f77b4;stroke:#1f77b4;" x="105.288589" xlink:href="#m3bb2f6c200" y="104.432983"/>
     <use style="fill:#1f77b4;stroke:#1f77b4;" x="56.1754" xlink:href="#m3bb2f6c200" y="77.158838"/>
     <use style="fill:#1f77b4;stroke:#1f77b4;" x="56.927884" xlink:href="#m3bb2f6c200" y="85.111049"/>
     <use style="fill:#1f77b4;stroke:#1f77b4;" x="106.761908" xlink:href="#m3bb2f6c200" y="103.769431"/>
     <use style="fill:#1f77b4;stroke:#1f77b4;" x="79.298624" xlink:href="#m3bb2f6c200" y="109.500152"/>
     <use style="fill:#1f77b4;stroke:#1f77b4;" x="90.148601" xlink:href="#m3bb2f6c200" y="108.660785"/>
     <use style="fill:#1f77b4;stroke:#1f77b4;" x="119.269575" xlink:href="#m3bb2f6c200" y="92.002134"/>
     <use style="fill:#1f77b4;stroke:#1f77b4;" x="105.553482" xlink:href="#m3bb2f6c200" y="107.146762"/>
     <use style="fill:#1f77b4;stroke:#1f77b4;" x="59.697104" xlink:href="#m3bb2f6c200" y="98.924705"/>
     <use style="fill:#1f77b4;stroke:#1f77b4;" x="117.22822" xlink:href="#m3bb2f6c200" y="98.633967"/>
     <use style="fill:#1f77b4;stroke:#1f77b4;" x="71.929019" xlink:href="#m3bb2f6c200" y="44.618965"/>
     <use style="fill:#1f77b4;stroke:#1f77b4;" x="123.070633" xlink:href="#m3bb2f6c200" y="92.560968"/>
     <use style="fill:#1f77b4;stroke:#1f77b4;" x="69.046197" xlink:href="#m3bb2f6c200" y="109.702518"/>
     <use style="fill:#1f77b4;stroke:#1f77b4;" x="122.57304" xlink:href="#m3bb2f6c200" y="94.288488"/>
     <use style="fill:#1f77b4;stroke:#1f77b4;" x="63.069096" xlink:href="#m3bb2f6c200" y="105.518332"/>
     <use style="fill:#1f77b4;stroke:#1f77b4;" x="110.581655" xlink:href="#m3bb2f6c200" y="42.544849"/>
     <use style="fill:#1f77b4;stroke:#1f77b4;" x="52.751531" xlink:href="#m3bb2f6c200" y="95.699173"/>
     <use style="fill:#1f77b4;stroke:#1f77b4;" x="53.383348" xlink:href="#m3bb2f6c200" y="95.001282"/>
     <use style="fill:#1f77b4;stroke:#1f77b4;" x="54.711477" xlink:href="#m3bb2f6c200" y="99.202531"/>
     <use style="fill:#1f77b4;stroke:#1f77b4;" x="50.626159" xlink:href="#m3bb2f6c200" y="99.108731"/>
     <use style="fill:#1f77b4;stroke:#1f77b4;" x="67.998021" xlink:href="#m3bb2f6c200" y="32.053894"/>
     <use style="fill:#1f77b4;stroke:#1f77b4;" x="101.966072" xlink:href="#m3bb2f6c200" y="26.355968"/>
     <use style="fill:#1f77b4;stroke:#1f77b4;" x="72.721992" xlink:href="#m3bb2f6c200" y="14.665502"/>
     <use style="fill:#1f77b4;stroke:#1f77b4;" x="118.650992" xlink:href="#m3bb2f6c200" y="2.410033"/>
     <use style="fill:#1f77b4;stroke:#1f77b4;" x="93.1012" xlink:href="#m3bb2f6c200" y="0.679848"/>
     <use style="fill:#1f77b4;stroke:#1f77b4;" x="90.778097" xlink:href="#m3bb2f6c200" y="-1"/>
    </g>
   </g>
   <g id="patch_3">
    <path clip-path="url(#p23ab1a1b23)" d="M 88.76208 108.064341 
C 97.14318 108.064341 105.182141 104.734495 111.108474 98.808162 
C 117.034807 92.881829 120.364654 84.842868 120.364654 76.461767 
C 120.364654 68.080667 117.034807 60.041706 111.108474 54.115373 
C 105.182141 48.18904 97.14318 44.859193 88.76208 44.859193 
C 80.380979 44.859193 72.342018 48.18904 66.415685 54.115373 
C 60.489352 60.041706 57.159505 68.080667 57.159505 76.461767 
C 57.159505 84.842868 60.489352 92.881829 66.415685 98.808162 
C 72.342018 104.734495 80.380979 108.064341 88.76208 108.064341 
z
" style="fill:none;stroke:#000000;stroke-linejoin:miter;"/>
   </g>
   <g id="patch_4">
    <path d="M 21.583438 143.640409 
L 21.583438 9.283125 
" style="fill:none;stroke:#000000;stroke-linecap:square;stroke-linejoin:miter;stroke-width:0.8;"/>
   </g>
   <g id="patch_5">
    <path d="M 155.940722 143.640409 
L 155.940722 9.283125 
" style="fill:none;stroke:#000000;stroke-linecap:square;stroke-linejoin:miter;stroke-width:0.8;"/>
   </g>
   <g id="patch_6">
    <path d="M 21.583438 143.640409 
L 155.940722 143.640409 
" style="fill:none;stroke:#000000;stroke-linecap:square;stroke-linejoin:miter;stroke-width:0.8;"/>
   </g>
   <g id="patch_7">
    <path d="M 21.583438 9.283125 
L 155.940722 9.283125 
" style="fill:none;stroke:#000000;stroke-linecap:square;stroke-linejoin:miter;stroke-width:0.8;"/>
   </g>
  </g>
 </g>
 <defs>
  <clipPath id="p23ab1a1b23">
   <rect height="134.357284" width="134.357284" x="21.583438" y="9.283125"/>
  </clipPath>
 </defs>
</svg>
