<?xml version="1.0" encoding="utf-8" standalone="no"?>
<!DOCTYPE svg PUBLIC "-//W3C//DTD SVG 1.1//EN"
  "http://www.w3.org/Graphics/SVG/1.1/DTD/svg11.dtd">
<!-- Created with matplotlib (http://matplotlib.org/) -->
<svg height="150pt" version="1.1" viewBox="0 0 223 150" width="223pt" xmlns="http://www.w3.org/2000/svg" xmlns:xlink="http://www.w3.org/1999/xlink">
 <defs>
  <style type="text/css">
*{stroke-linecap:butt;stroke-linejoin:round;}
  </style>
 </defs>
 <g id="figure_1">
  <g id="patch_1">
   <path d="M 0 150.525559 
L 223.825676 150.525559 
L 223.825676 0 
L 0 0 
z
" style="fill:#ffffff;"/>
  </g>
  <g id="axes_1">
   <g id="patch_2">
    <path d="M 19.7 60.189947 
L 216.625676 60.189947 
L 216.625676 7.2 
L 19.7 7.2 
z
" style="fill:#ffffff;"/>
   </g>
   <g id="matplotlib.axis_1">
    <g id="xtick_1">
     <g id="line2d_1">
      <path clip-path="url(#pf7bbb88ff5)" d="M 23.267245 60.189947 
L 23.267245 7.2 
" style="fill:none;opacity:0.1;stroke:#b0b0b0;stroke-linecap:square;stroke-width:0.1;"/>
     </g>
     <g id="line2d_2">
      <defs>
       <path d="M 0 0 
L 0 -2 
" id="m6f6f8e8005" style="stroke:#000000;stroke-width:0.3;"/>
      </defs>
      <g>
       <use style="stroke:#000000;stroke-width:0.3;" x="23.267245" xlink:href="#m6f6f8e8005" y="60.189947"/>
      </g>
     </g>
     <g id="text_1">
      <!-- 277.5 -->
      <defs>
       <path d="M 45.84375 12.75 
L 41.21875 0 
L 2.15625 0 
L 2.15625 1.8125 
Q 19.390625 17.53125 26.421875 27.484375 
Q 33.453125 37.453125 33.453125 45.703125 
Q 33.453125 52 29.59375 56.046875 
Q 25.734375 60.109375 20.359375 60.109375 
Q 15.484375 60.109375 11.59375 57.25 
Q 7.71875 54.390625 5.859375 48.875 
L 4.046875 48.875 
Q 5.28125 57.90625 10.328125 62.734375 
Q 15.375 67.578125 22.953125 67.578125 
Q 31 67.578125 36.390625 62.40625 
Q 41.796875 57.234375 41.796875 50.203125 
Q 41.796875 45.171875 39.453125 40.140625 
Q 35.84375 32.234375 27.734375 23.390625 
Q 15.578125 10.109375 12.546875 7.375 
L 29.828125 7.375 
Q 35.109375 7.375 37.234375 7.765625 
Q 39.359375 8.15625 41.0625 9.34375 
Q 42.78125 10.546875 44.046875 12.75 
z
" id="TimesNewRomanPSMT-32"/>
       <path d="M 10.0625 66.21875 
L 45.5625 66.21875 
L 45.5625 64.359375 
L 23.484375 -1.375 
L 18.015625 -1.375 
L 37.796875 58.25 
L 19.578125 58.25 
Q 14.0625 58.25 11.71875 56.9375 
Q 7.625 54.6875 5.125 50 
L 3.71875 50.53125 
z
" id="TimesNewRomanPSMT-37"/>
       <path d="M 12.5 9.46875 
Q 14.796875 9.46875 16.359375 7.875 
Q 17.921875 6.296875 17.921875 4.046875 
Q 17.921875 1.8125 16.328125 0.21875 
Q 14.75 -1.375 12.5 -1.375 
Q 10.25 -1.375 8.65625 0.21875 
Q 7.078125 1.8125 7.078125 4.046875 
Q 7.078125 6.34375 8.65625 7.90625 
Q 10.25 9.46875 12.5 9.46875 
z
" id="TimesNewRomanPSMT-2e"/>
       <path d="M 43.40625 66.21875 
L 39.59375 57.90625 
L 19.671875 57.90625 
L 15.328125 49.03125 
Q 28.265625 47.125 35.84375 39.40625 
Q 42.328125 32.765625 42.328125 23.78125 
Q 42.328125 18.5625 40.203125 14.109375 
Q 38.09375 9.671875 34.859375 6.546875 
Q 31.640625 3.421875 27.6875 1.515625 
Q 22.078125 -1.171875 16.15625 -1.171875 
Q 10.203125 -1.171875 7.484375 0.84375 
Q 4.78125 2.875 4.78125 5.328125 
Q 4.78125 6.6875 5.90625 7.734375 
Q 7.03125 8.796875 8.734375 8.796875 
Q 10.015625 8.796875 10.96875 8.40625 
Q 11.921875 8.015625 14.203125 6.390625 
Q 17.875 3.859375 21.625 3.859375 
Q 27.34375 3.859375 31.65625 8.171875 
Q 35.984375 12.5 35.984375 18.703125 
Q 35.984375 24.703125 32.125 29.90625 
Q 28.265625 35.109375 21.484375 37.9375 
Q 16.15625 40.140625 6.984375 40.484375 
L 19.671875 66.21875 
z
" id="TimesNewRomanPSMT-35"/>
      </defs>
      <g transform="translate(16.517245 67.856197)scale(0.06 -0.06)">
       <use xlink:href="#TimesNewRomanPSMT-32"/>
       <use x="50" xlink:href="#TimesNewRomanPSMT-37"/>
       <use x="100" xlink:href="#TimesNewRomanPSMT-37"/>
       <use x="150" xlink:href="#TimesNewRomanPSMT-2e"/>
       <use x="175" xlink:href="#TimesNewRomanPSMT-35"/>
      </g>
     </g>
    </g>
    <g id="xtick_2">
     <g id="line2d_3">
      <path clip-path="url(#pf7bbb88ff5)" d="M 49.71087 60.189947 
L 49.71087 7.2 
" style="fill:none;opacity:0.1;stroke:#b0b0b0;stroke-linecap:square;stroke-width:0.1;"/>
     </g>
     <g id="line2d_4">
      <g>
       <use style="stroke:#000000;stroke-width:0.3;" x="49.71087" xlink:href="#m6f6f8e8005" y="60.189947"/>
      </g>
     </g>
     <g id="text_2">
      <!-- 280.0 -->
      <defs>
       <path d="M 19.1875 33.34375 
Q 11.328125 39.796875 9.046875 43.703125 
Q 6.78125 47.609375 6.78125 51.8125 
Q 6.78125 58.25 11.765625 62.90625 
Q 16.75 67.578125 25 67.578125 
Q 33.015625 67.578125 37.890625 63.234375 
Q 42.78125 58.890625 42.78125 53.328125 
Q 42.78125 49.609375 40.140625 45.75 
Q 37.5 41.890625 29.15625 36.671875 
Q 37.75 30.03125 40.53125 26.21875 
Q 44.234375 21.234375 44.234375 15.71875 
Q 44.234375 8.734375 38.90625 3.78125 
Q 33.59375 -1.171875 24.953125 -1.171875 
Q 15.53125 -1.171875 10.25 4.734375 
Q 6.0625 9.46875 6.0625 15.09375 
Q 6.0625 19.484375 9.015625 23.796875 
Q 11.96875 28.125 19.1875 33.34375 
z
M 26.859375 38.578125 
Q 32.71875 43.84375 34.28125 46.890625 
Q 35.84375 49.953125 35.84375 53.8125 
Q 35.84375 58.9375 32.953125 61.84375 
Q 30.078125 64.75 25.09375 64.75 
Q 20.125 64.75 17 61.859375 
Q 13.875 58.984375 13.875 55.125 
Q 13.875 52.59375 15.15625 50.046875 
Q 16.453125 47.515625 18.84375 45.21875 
z
M 21.484375 31.5 
Q 17.4375 28.078125 15.484375 24.046875 
Q 13.53125 20.015625 13.53125 15.328125 
Q 13.53125 9.03125 16.96875 5.25 
Q 20.40625 1.46875 25.734375 1.46875 
Q 31 1.46875 34.171875 4.4375 
Q 37.359375 7.421875 37.359375 11.671875 
Q 37.359375 15.1875 35.5 17.96875 
Q 32.03125 23.140625 21.484375 31.5 
z
" id="TimesNewRomanPSMT-38"/>
       <path d="M 3.609375 32.71875 
Q 3.609375 44.046875 7.03125 52.21875 
Q 10.453125 60.40625 16.109375 64.40625 
Q 20.515625 67.578125 25.203125 67.578125 
Q 32.8125 67.578125 38.875 59.8125 
Q 46.4375 50.203125 46.4375 33.734375 
Q 46.4375 22.21875 43.109375 14.15625 
Q 39.796875 6.109375 34.640625 2.46875 
Q 29.5 -1.171875 24.703125 -1.171875 
Q 15.234375 -1.171875 8.9375 10.015625 
Q 3.609375 19.4375 3.609375 32.71875 
z
M 13.1875 31.5 
Q 13.1875 17.828125 16.546875 9.1875 
Q 19.34375 1.90625 24.859375 1.90625 
Q 27.484375 1.90625 30.3125 4.265625 
Q 33.15625 6.640625 34.625 12.203125 
Q 36.859375 20.609375 36.859375 35.890625 
Q 36.859375 47.21875 34.515625 54.78125 
Q 32.765625 60.40625 29.984375 62.75 
Q 27.984375 64.359375 25.140625 64.359375 
Q 21.828125 64.359375 19.234375 61.375 
Q 15.71875 57.328125 14.453125 48.625 
Q 13.1875 39.9375 13.1875 31.5 
z
" id="TimesNewRomanPSMT-30"/>
      </defs>
      <g transform="translate(42.96087 67.856197)scale(0.06 -0.06)">
       <use xlink:href="#TimesNewRomanPSMT-32"/>
       <use x="50" xlink:href="#TimesNewRomanPSMT-38"/>
       <use x="100" xlink:href="#TimesNewRomanPSMT-30"/>
       <use x="150" xlink:href="#TimesNewRomanPSMT-2e"/>
       <use x="175" xlink:href="#TimesNewRomanPSMT-30"/>
      </g>
     </g>
    </g>
    <g id="xtick_3">
     <g id="line2d_5">
      <path clip-path="url(#pf7bbb88ff5)" d="M 76.154495 60.189947 
L 76.154495 7.2 
" style="fill:none;opacity:0.1;stroke:#b0b0b0;stroke-linecap:square;stroke-width:0.1;"/>
     </g>
     <g id="line2d_6">
      <g>
       <use style="stroke:#000000;stroke-width:0.3;" x="76.154495" xlink:href="#m6f6f8e8005" y="60.189947"/>
      </g>
     </g>
     <g id="text_3">
      <!-- 282.5 -->
      <g transform="translate(69.404495 67.856197)scale(0.06 -0.06)">
       <use xlink:href="#TimesNewRomanPSMT-32"/>
       <use x="50" xlink:href="#TimesNewRomanPSMT-38"/>
       <use x="100" xlink:href="#TimesNewRomanPSMT-32"/>
       <use x="150" xlink:href="#TimesNewRomanPSMT-2e"/>
       <use x="175" xlink:href="#TimesNewRomanPSMT-35"/>
      </g>
     </g>
    </g>
    <g id="xtick_4">
     <g id="line2d_7">
      <path clip-path="url(#pf7bbb88ff5)" d="M 102.59812 60.189947 
L 102.59812 7.2 
" style="fill:none;opacity:0.1;stroke:#b0b0b0;stroke-linecap:square;stroke-width:0.1;"/>
     </g>
     <g id="line2d_8">
      <g>
       <use style="stroke:#000000;stroke-width:0.3;" x="102.59812" xlink:href="#m6f6f8e8005" y="60.189947"/>
      </g>
     </g>
     <g id="text_4">
      <!-- 285.0 -->
      <g transform="translate(95.84812 67.856197)scale(0.06 -0.06)">
       <use xlink:href="#TimesNewRomanPSMT-32"/>
       <use x="50" xlink:href="#TimesNewRomanPSMT-38"/>
       <use x="100" xlink:href="#TimesNewRomanPSMT-35"/>
       <use x="150" xlink:href="#TimesNewRomanPSMT-2e"/>
       <use x="175" xlink:href="#TimesNewRomanPSMT-30"/>
      </g>
     </g>
    </g>
    <g id="xtick_5">
     <g id="line2d_9">
      <path clip-path="url(#pf7bbb88ff5)" d="M 129.041745 60.189947 
L 129.041745 7.2 
" style="fill:none;opacity:0.1;stroke:#b0b0b0;stroke-linecap:square;stroke-width:0.1;"/>
     </g>
     <g id="line2d_10">
      <g>
       <use style="stroke:#000000;stroke-width:0.3;" x="129.041745" xlink:href="#m6f6f8e8005" y="60.189947"/>
      </g>
     </g>
     <g id="text_5">
      <!-- 287.5 -->
      <g transform="translate(122.291745 67.856197)scale(0.06 -0.06)">
       <use xlink:href="#TimesNewRomanPSMT-32"/>
       <use x="50" xlink:href="#TimesNewRomanPSMT-38"/>
       <use x="100" xlink:href="#TimesNewRomanPSMT-37"/>
       <use x="150" xlink:href="#TimesNewRomanPSMT-2e"/>
       <use x="175" xlink:href="#TimesNewRomanPSMT-35"/>
      </g>
     </g>
    </g>
    <g id="xtick_6">
     <g id="line2d_11">
      <path clip-path="url(#pf7bbb88ff5)" d="M 155.48537 60.189947 
L 155.48537 7.2 
" style="fill:none;opacity:0.1;stroke:#b0b0b0;stroke-linecap:square;stroke-width:0.1;"/>
     </g>
     <g id="line2d_12">
      <g>
       <use style="stroke:#000000;stroke-width:0.3;" x="155.48537" xlink:href="#m6f6f8e8005" y="60.189947"/>
      </g>
     </g>
     <g id="text_6">
      <!-- 290.0 -->
      <defs>
       <path d="M 5.28125 -1.375 
L 5.28125 0.4375 
Q 11.625 0.53125 17.09375 3.390625 
Q 22.5625 6.25 27.65625 13.375 
Q 32.765625 20.515625 34.765625 29.046875 
Q 27.09375 24.125 20.90625 24.125 
Q 13.921875 24.125 8.9375 29.515625 
Q 3.953125 34.90625 3.953125 43.84375 
Q 3.953125 52.546875 8.9375 59.328125 
Q 14.9375 67.578125 24.609375 67.578125 
Q 32.765625 67.578125 38.578125 60.84375 
Q 45.703125 52.484375 45.703125 40.234375 
Q 45.703125 29.203125 40.28125 19.65625 
Q 34.859375 10.109375 25.203125 3.8125 
Q 17.328125 -1.375 8.0625 -1.375 
z
M 35.546875 32.671875 
Q 36.421875 39.015625 36.421875 42.828125 
Q 36.421875 47.5625 34.8125 53.046875 
Q 33.203125 58.546875 30.25 61.46875 
Q 27.296875 64.40625 23.53125 64.40625 
Q 19.1875 64.40625 15.90625 60.5 
Q 12.640625 56.59375 12.640625 48.875 
Q 12.640625 38.578125 17 32.765625 
Q 20.171875 28.5625 24.8125 28.5625 
Q 27.046875 28.5625 30.125 29.640625 
Q 33.203125 30.71875 35.546875 32.671875 
z
" id="TimesNewRomanPSMT-39"/>
      </defs>
      <g transform="translate(148.73537 67.856197)scale(0.06 -0.06)">
       <use xlink:href="#TimesNewRomanPSMT-32"/>
       <use x="50" xlink:href="#TimesNewRomanPSMT-39"/>
       <use x="100" xlink:href="#TimesNewRomanPSMT-30"/>
       <use x="150" xlink:href="#TimesNewRomanPSMT-2e"/>
       <use x="175" xlink:href="#TimesNewRomanPSMT-30"/>
      </g>
     </g>
    </g>
    <g id="xtick_7">
     <g id="line2d_13">
      <path clip-path="url(#pf7bbb88ff5)" d="M 181.928995 60.189947 
L 181.928995 7.2 
" style="fill:none;opacity:0.1;stroke:#b0b0b0;stroke-linecap:square;stroke-width:0.1;"/>
     </g>
     <g id="line2d_14">
      <g>
       <use style="stroke:#000000;stroke-width:0.3;" x="181.928995" xlink:href="#m6f6f8e8005" y="60.189947"/>
      </g>
     </g>
     <g id="text_7">
      <!-- 292.5 -->
      <g transform="translate(175.178995 67.856197)scale(0.06 -0.06)">
       <use xlink:href="#TimesNewRomanPSMT-32"/>
       <use x="50" xlink:href="#TimesNewRomanPSMT-39"/>
       <use x="100" xlink:href="#TimesNewRomanPSMT-32"/>
       <use x="150" xlink:href="#TimesNewRomanPSMT-2e"/>
       <use x="175" xlink:href="#TimesNewRomanPSMT-35"/>
      </g>
     </g>
    </g>
    <g id="xtick_8">
     <g id="line2d_15">
      <path clip-path="url(#pf7bbb88ff5)" d="M 208.37262 60.189947 
L 208.37262 7.2 
" style="fill:none;opacity:0.1;stroke:#b0b0b0;stroke-linecap:square;stroke-width:0.1;"/>
     </g>
     <g id="line2d_16">
      <g>
       <use style="stroke:#000000;stroke-width:0.3;" x="208.37262" xlink:href="#m6f6f8e8005" y="60.189947"/>
      </g>
     </g>
     <g id="text_8">
      <!-- 295.0 -->
      <g transform="translate(201.62262 67.856197)scale(0.06 -0.06)">
       <use xlink:href="#TimesNewRomanPSMT-32"/>
       <use x="50" xlink:href="#TimesNewRomanPSMT-39"/>
       <use x="100" xlink:href="#TimesNewRomanPSMT-35"/>
       <use x="150" xlink:href="#TimesNewRomanPSMT-2e"/>
       <use x="175" xlink:href="#TimesNewRomanPSMT-30"/>
      </g>
     </g>
    </g>
   </g>
   <g id="matplotlib.axis_2">
    <g id="ytick_1">
     <g id="line2d_17">
      <path clip-path="url(#pf7bbb88ff5)" d="M 19.7 57.631168 
L 216.625676 57.631168 
" style="fill:none;opacity:0.1;stroke:#b0b0b0;stroke-linecap:square;stroke-width:0.1;"/>
     </g>
     <g id="line2d_18">
      <defs>
       <path d="M 0 0 
L 2 0 
" id="m3f8cf4d884" style="stroke:#000000;stroke-width:0.3;"/>
      </defs>
      <g>
       <use style="stroke:#000000;stroke-width:0.3;" x="19.7" xlink:href="#m3f8cf4d884" y="57.631168"/>
      </g>
     </g>
     <g id="text_9">
      <!-- 0 -->
      <g transform="translate(13.2 59.714293)scale(0.06 -0.06)">
       <use xlink:href="#TimesNewRomanPSMT-30"/>
      </g>
     </g>
    </g>
    <g id="ytick_2">
     <g id="line2d_19">
      <path clip-path="url(#pf7bbb88ff5)" d="M 19.7 42.616713 
L 216.625676 42.616713 
" style="fill:none;opacity:0.1;stroke:#b0b0b0;stroke-linecap:square;stroke-width:0.1;"/>
     </g>
     <g id="line2d_20">
      <g>
       <use style="stroke:#000000;stroke-width:0.3;" x="19.7" xlink:href="#m3f8cf4d884" y="42.616713"/>
      </g>
     </g>
     <g id="text_10">
      <!-- 100 -->
      <defs>
       <path d="M 11.71875 59.71875 
L 27.828125 67.578125 
L 29.4375 67.578125 
L 29.4375 11.671875 
Q 29.4375 6.109375 29.90625 4.734375 
Q 30.375 3.375 31.828125 2.640625 
Q 33.296875 1.90625 37.796875 1.8125 
L 37.796875 0 
L 12.890625 0 
L 12.890625 1.8125 
Q 17.578125 1.90625 18.9375 2.609375 
Q 20.3125 3.328125 20.84375 4.515625 
Q 21.390625 5.71875 21.390625 11.671875 
L 21.390625 47.40625 
Q 21.390625 54.640625 20.90625 56.6875 
Q 20.5625 58.25 19.65625 58.984375 
Q 18.75 59.71875 17.484375 59.71875 
Q 15.671875 59.71875 12.453125 58.203125 
z
" id="TimesNewRomanPSMT-31"/>
      </defs>
      <g transform="translate(7.2 44.699838)scale(0.06 -0.06)">
       <use xlink:href="#TimesNewRomanPSMT-31"/>
       <use x="50" xlink:href="#TimesNewRomanPSMT-30"/>
       <use x="100" xlink:href="#TimesNewRomanPSMT-30"/>
      </g>
     </g>
    </g>
    <g id="ytick_3">
     <g id="line2d_21">
      <path clip-path="url(#pf7bbb88ff5)" d="M 19.7 27.602257 
L 216.625676 27.602257 
" style="fill:none;opacity:0.1;stroke:#b0b0b0;stroke-linecap:square;stroke-width:0.1;"/>
     </g>
     <g id="line2d_22">
      <g>
       <use style="stroke:#000000;stroke-width:0.3;" x="19.7" xlink:href="#m3f8cf4d884" y="27.602257"/>
      </g>
     </g>
     <g id="text_11">
      <!-- 200 -->
      <g transform="translate(7.2 29.685382)scale(0.06 -0.06)">
       <use xlink:href="#TimesNewRomanPSMT-32"/>
       <use x="50" xlink:href="#TimesNewRomanPSMT-30"/>
       <use x="100" xlink:href="#TimesNewRomanPSMT-30"/>
      </g>
     </g>
    </g>
    <g id="ytick_4">
     <g id="line2d_23">
      <path clip-path="url(#pf7bbb88ff5)" d="M 19.7 12.587802 
L 216.625676 12.587802 
" style="fill:none;opacity:0.1;stroke:#b0b0b0;stroke-linecap:square;stroke-width:0.1;"/>
     </g>
     <g id="line2d_24">
      <g>
       <use style="stroke:#000000;stroke-width:0.3;" x="19.7" xlink:href="#m3f8cf4d884" y="12.587802"/>
      </g>
     </g>
     <g id="text_12">
      <!-- 300 -->
      <defs>
       <path d="M 5.078125 53.609375 
Q 7.90625 60.296875 12.21875 63.9375 
Q 16.546875 67.578125 23 67.578125 
Q 30.953125 67.578125 35.203125 62.40625 
Q 38.421875 58.546875 38.421875 54.15625 
Q 38.421875 46.921875 29.34375 39.203125 
Q 35.453125 36.8125 38.578125 32.375 
Q 41.703125 27.9375 41.703125 21.921875 
Q 41.703125 13.328125 36.234375 7.03125 
Q 29.109375 -1.171875 15.578125 -1.171875 
Q 8.890625 -1.171875 6.46875 0.484375 
Q 4.046875 2.15625 4.046875 4.046875 
Q 4.046875 5.46875 5.1875 6.546875 
Q 6.34375 7.625 7.953125 7.625 
Q 9.1875 7.625 10.453125 7.234375 
Q 11.28125 6.984375 14.203125 5.4375 
Q 17.140625 3.90625 18.265625 3.609375 
Q 20.0625 3.078125 22.125 3.078125 
Q 27.09375 3.078125 30.78125 6.9375 
Q 34.46875 10.796875 34.46875 16.0625 
Q 34.46875 19.921875 32.765625 23.578125 
Q 31.5 26.3125 29.984375 27.734375 
Q 27.875 29.6875 24.21875 31.265625 
Q 20.5625 32.859375 16.75 32.859375 
L 15.1875 32.859375 
L 15.1875 34.328125 
Q 19.046875 34.8125 22.921875 37.109375 
Q 26.8125 39.40625 28.5625 42.625 
Q 30.328125 45.84375 30.328125 49.703125 
Q 30.328125 54.734375 27.171875 57.828125 
Q 24.03125 60.9375 19.34375 60.9375 
Q 11.765625 60.9375 6.6875 52.828125 
z
" id="TimesNewRomanPSMT-33"/>
      </defs>
      <g transform="translate(7.2 14.670927)scale(0.06 -0.06)">
       <use xlink:href="#TimesNewRomanPSMT-33"/>
       <use x="50" xlink:href="#TimesNewRomanPSMT-30"/>
       <use x="100" xlink:href="#TimesNewRomanPSMT-30"/>
      </g>
     </g>
    </g>
   </g>
   <g id="line2d_25">
    <path clip-path="url(#pf7bbb88ff5)" d="M 28.905026 47.721628 
L 29.359856 47.421338 
L 29.359856 47.571483 
L 30.237785 47.421338 
L 30.237785 47.271194 
L 30.71377 47.271194 
L 30.71377 47.121049 
L 30.967629 47.121049 
L 30.967629 46.970905 
L 31.75036 46.970905 
L 31.75036 46.82076 
L 32.808105 46.82076 
L 32.808105 46.670616 
L 33.897582 46.670616 
L 33.897582 46.520471 
L 34.077399 46.520471 
L 34.077399 46.520471 
L 34.542807 46.370327 
L 34.542807 46.370327 
L 35.336115 46.370327 
L 35.336115 46.370327 
L 36.171734 46.070038 
L 36.171734 46.220182 
L 36.404438 46.220182 
L 36.404438 46.070038 
L 36.827536 46.070038 
L 36.827536 45.919893 
L 37.271789 45.919893 
L 37.271789 45.769748 
L 37.493915 45.769748 
L 37.493915 45.919893 
L 38.160295 45.769748 
L 38.160295 45.769748 
L 38.519928 42.917002 
L 38.519928 45.619604 
L 38.847829 45.619604 
L 38.847829 45.469459 
L 39.249772 45.619604 
L 39.249772 45.469459 
L 39.567095 45.469459 
L 39.567095 45.319315 
L 39.990193 45.319315 
L 39.990193 45.319315 
L 41.322952 45.16917 
L 41.322952 45.16917 
L 42.095106 45.469459 
L 42.095106 45.469459 
L 43.142274 45.469459 
L 43.142274 45.619604 
L 43.798075 45.619604 
L 43.798075 45.769748 
L 44.009624 45.769748 
L 44.009624 45.619604 
L 44.432722 45.769748 
L 44.432722 45.919893 
L 44.887553 45.919893 
L 44.887553 46.070038 
L 45.278918 46.070038 
L 45.278918 46.220182 
L 45.511622 46.220182 
L 45.511622 46.370327 
L 45.702016 46.370327 
L 45.702016 46.520471 
L 45.924143 46.520471 
L 45.924143 46.520471 
L 46.579945 46.670616 
L 46.579945 46.970905 
L 46.749184 46.970905 
L 46.749184 46.82076 
L 47.003043 46.82076 
L 47.003043 46.970905 
L 47.648267 46.970905 
L 47.648267 46.970905 
L 48.272337 47.121049 
L 48.272337 47.121049 
L 48.695435 47.121049 
L 48.695435 46.970905 
L 49.79549 46.970905 
L 49.79549 46.82076 
L 51.413839 46.82076 
L 51.413839 46.670616 
L 51.635966 46.670616 
L 51.635966 46.82076 
L 51.879247 46.82076 
L 51.879247 46.670616 
L 52.926415 46.670616 
L 52.926415 46.520471 
L 53.328358 46.670616 
L 53.328358 46.670616 
L 53.751456 41.565701 
L 53.751456 43.817869 
L 54.174554 43.367436 
L 54.174554 41.715845 
L 54.43899 36.610931 
L 54.43899 45.619604 
L 54.809201 43.968014 
L 54.809201 43.367436 
L 55.242876 43.367436 
L 55.242876 43.968014 
L 55.465003 43.968014 
L 55.465003 46.370327 
L 56.110227 46.220182 
L 56.110227 46.220182 
L 56.734297 46.220182 
L 56.734297 46.070038 
L 57.17855 46.070038 
L 57.17855 45.919893 
L 57.368944 45.919893 
L 57.368944 46.070038 
L 57.580493 46.070038 
L 57.580493 45.919893 
L 58.236295 45.919893 
L 58.236295 45.769748 
L 58.648815 45.769748 
L 58.648815 45.619604 
L 59.463279 45.619604 
L 59.463279 45.619604 
L 59.695983 45.469459 
L 59.695983 45.469459 
L 60.108503 45.469459 
L 60.108503 45.319315 
L 60.37294 45.319315 
L 60.37294 45.469459 
L 61.187403 45.469459 
L 61.187403 45.469459 
L 62.023022 45.319315 
L 62.023022 45.16917 
L 62.44612 45.16917 
L 62.44612 45.019026 
L 62.636514 45.019026 
L 62.636514 45.019026 
L 63.292316 44.868881 
L 63.292316 44.868881 
L 63.725991 44.868881 
L 63.725991 44.868881 
L 64.170244 44.718737 
L 64.170244 44.718737 
L 64.56161 44.718737 
L 64.56161 44.418447 
L 64.984708 44.118158 
L 64.984708 43.968014 
L 65.291454 43.968014 
L 65.291454 43.817869 
L 66.529016 43.367436 
L 66.529016 43.367436 
L 68.644506 43.367436 
L 68.644506 43.217291 
L 69.966687 43.217291 
L 69.966687 43.367436 
L 70.347475 43.367436 
L 70.347475 43.367436 
L 70.82346 43.067146 
L 70.82346 42.917002 
L 72.674514 39.463677 
L 74.239977 39.463677 
L 74.239977 39.463677 
L 80.607602 39.163388 
L 80.607602 39.163388 
L 81.44322 39.313533 
L 81.44322 39.163388 
L 94.125583 38.863099 
L 94.125583 38.712954 
L 94.516948 38.712954 
L 94.516948 38.56281 
L 94.823694 38.56281 
L 94.823694 38.412665 
L 94.971779 38.412665 
L 94.971779 38.262521 
L 95.17275 38.262521 
L 95.17275 38.412665 
L 95.807397 38.412665 
L 95.807397 38.112376 
L 96.262228 38.262521 
L 96.685326 38.262521 
L 96.685326 38.112376 
L 97.119001 38.262521 
L 97.119001 38.262521 
L 97.510367 37.962232 
L 97.510367 37.962232 
L 97.880577 38.112376 
L 97.880577 37.962232 
L 98.345985 37.962232 
L 98.345985 37.812087 
L 98.790238 37.812087 
L 98.790238 37.812087 
L 99.213336 37.661943 
L 99.213336 37.661943 
L 99.647012 37.661943 
L 99.647012 37.211509 
L 99.858561 37.211509 
L 99.858561 37.511798 
L 100.091264 37.511798 
L 100.091264 37.211509 
L 100.48263 37.361653 
L 100.48263 37.361653 
L 100.916306 37.361653 
L 100.916306 36.91122 
L 101.275939 37.211509 
L 101.275939 37.211509 
L 101.529798 37.211509 
L 101.529798 36.91122 
L 101.931741 36.761075 
L 101.931741 36.91122 
L 102.217332 36.91122 
L 102.217332 36.761075 
L 102.608698 36.91122 
L 102.608698 36.761075 
L 103.973189 36.761075 
L 103.973189 36.761075 
L 105.030934 36.160497 
L 105.030934 36.310642 
L 105.401144 36.010352 
L 105.401144 34.959341 
L 106.035791 35.559919 
L 106.035791 35.409774 
L 106.490622 34.809196 
L 106.490622 34.208618 
L 106.670438 34.208618 
L 106.670438 33.60804 
L 107.125269 33.457895 
L 107.125269 33.157606 
L 107.379128 33.157606 
L 107.379128 32.557028 
L 108.003197 32.106594 
L 108.003197 31.65616 
L 108.595534 30.755293 
L 108.595534 30.154715 
L 108.828238 30.154715 
L 108.828238 30.154715 
L 109.642702 29.403992 
L 109.642702 29.103703 
L 120.801912 25.800523 
L 120.801912 25.800523 
L 121.277897 26.100812 
L 121.277897 25.199945 
L 125.530032 18.593584 
L 127.40224 19.644596 
L 127.40224 20.09503 
L 128.02631 20.845753 
L 128.02631 21.146042 
L 128.280169 57.781313 
L 128.280169 57.781313 
L 134.82761 17.842862 
L 145.923355 16.941994 
L 145.923355 16.941994 
L 155.009385 29.253848 
L 155.009385 29.704281 
L 159.832702 57.781313 
L 159.832702 42.766857 
L 159.832702 42.766857 
L 159.832702 42.766857 
L 159.832702 57.781313 
L 159.832702 57.781313 
L 162.424177 42.766857 
L 162.424177 28.953558 
L 163.270373 25.350089 
L 163.270373 24.449222 
L 164.010795 22.797632 
L 164.010795 21.446331 
L 171.467897 25.800523 
L 171.467897 26.100812 
L 174.440161 28.35298 
L 174.440161 28.202836 
L 175.984468 24.299077 
L 175.984468 23.848644 
L 179.697153 23.39821 
L 179.697153 23.998788 
L 180.99818 26.401101 
L 180.99818 26.401101 
L 180.99818 57.781313 
L 180.99818 57.781313 
L 183.917556 24.599366 
L 183.917556 24.599366 
L 183.917556 57.781313 
L 183.917556 57.781313 
L 185.736877 24.599366 
L 185.736877 41.715845 
L 188.011029 49.973796 
L 188.011029 50.574374 
L 192.083347 42.016135 
L 192.083347 41.415556 
L 192.083347 41.415556 
L 192.083347 41.415556 
L 192.083347 57.781313 
L 192.083347 57.781313 
L 207.674509 57.781313 
L 207.674509 57.781313 
" style="fill:none;stroke:#1f77b4;stroke-linecap:square;"/>
   </g>
   <g id="line2d_26">
    <path clip-path="url(#pf7bbb88ff5)" d="M 28.651167 48.078551 
L 28.905026 48.016527 
L 29.074265 48.310389 
L 29.359856 47.906275 
L 29.931039 48.719999 
L 30.237785 47.673626 
L 30.449334 47.94225 
L 30.71377 47.44398 
L 30.967629 47.206557 
L 31.12629 47.421444 
L 31.380149 47.239528 
L 31.570543 47.454505 
L 31.75036 47.074715 
L 33.622569 46.918504 
L 34.077399 46.788419 
L 34.299525 47.148135 
L 34.542807 46.621143 
L 34.754356 46.847216 
L 34.997637 46.624431 
L 35.135144 46.814649 
L 35.336115 46.556521 
L 35.547664 46.7998 
L 35.812101 46.454077 
L 36.034227 46.628936 
L 36.171734 46.376723 
L 36.404438 46.32665 
L 36.690029 46.619176 
L 36.827536 46.153308 
L 37.10255 46.176955 
L 37.271789 45.959381 
L 37.694887 46.392893 
L 37.895858 45.986392 
L 38.160295 46.018072 
L 38.329534 46.210993 
L 38.519928 45.799807 
L 38.847829 45.740305 
L 39.027646 45.93282 
L 39.249772 45.603944 
L 39.408434 45.761791 
L 39.567095 45.47003 
L 39.873842 45.597157 
L 39.990193 45.433635 
L 40.402714 45.855841 
L 40.614263 46.163743 
L 40.825812 45.397105 
L 41.037361 45.65181 
L 41.322952 45.525553 
L 41.523924 45.718444 
L 41.693163 45.493182 
L 41.883557 45.681283 
L 42.750908 45.603568 
L 42.962457 45.808876 
L 44.009624 45.775048 
L 44.686581 46.288693 
L 44.887553 46.23844 
L 45.067369 46.430114 
L 45.278918 46.479332 
L 45.702016 46.83097 
L 45.924143 46.859438 
L 46.10396 47.163931 
L 46.347241 46.987991 
L 46.579945 47.242952 
L 46.749184 46.987241 
L 47.383831 47.307214 
L 47.648267 47.016128 
L 48.441576 47.216451 
L 48.695435 47.000558 
L 49.499321 47.051052 
L 49.922419 46.896748 
L 51.413839 46.618861 
L 51.635966 46.801947 
L 52.080219 46.765177 
L 52.270613 46.777444 
L 52.926415 46.503265 
L 53.539907 46.584117 
L 53.751456 43.791324 
L 53.973582 43.762886 
L 54.174554 41.715996 
L 54.43899 45.633838 
L 54.629384 45.647876 
L 54.809201 43.38781 
L 55.041905 43.376609 
L 55.242876 43.946873 
L 55.465003 46.351769 
L 55.676552 46.357985 
L 55.877523 46.211474 
L 56.110227 46.186805 
L 56.543903 46.317596 
L 56.967001 46.080608 
L 57.17855 45.972879 
L 57.368944 46.136056 
L 57.802619 45.896696 
L 57.982436 45.948916 
L 58.236295 45.764463 
L 58.437266 45.818861 
L 58.849787 45.74508 
L 59.061336 45.723774 
L 59.272885 45.82338 
L 59.695983 45.568375 
L 59.886377 45.73484 
L 60.108503 45.522295 
L 60.552756 45.663866 
L 61.187403 45.562879 
L 61.82205 45.903903 
L 62.023022 45.281298 
L 62.245148 45.376415 
L 62.636514 45.044595 
L 62.848063 45.129652 
L 63.080767 44.970048 
L 63.905808 44.922303 
L 64.170244 44.64988 
L 64.339483 44.648184 
L 64.984708 43.887731 
L 66.370354 43.374718 
L 67.17424 43.531318 
L 67.385789 43.448829 
L 67.607915 43.527565 
L 67.808887 43.456727 
L 68.031013 43.574079 
L 68.221408 43.49198 
L 68.432957 43.593313 
L 68.644506 43.31493 
L 68.877209 43.362361 
L 69.078181 43.289901 
L 70.135926 43.394717 
L 70.548447 42.978411 
L 71.035009 41.902926 
L 72.674514 35.538899 
L 74.239977 38.883969 
L 80.607602 38.336692 
L 81.44322 39.370437 
L 89.439772 42.152466 
L 93.882301 43.233402 
L 94.125583 38.679322 
L 94.516948 38.489089 
L 94.971779 38.239549 
L 95.17275 38.416869 
L 95.553538 38.466867 
L 95.807397 38.16868 
L 96.410312 38.38594 
L 96.685326 38.12724 
L 97.319973 38.265824 
L 97.510367 37.884757 
L 97.732493 37.813739 
L 97.880577 37.931602 
L 99.382575 37.58687 
L 99.647012 37.18133 
L 99.858561 37.498285 
L 100.091264 37.208956 
L 100.260504 37.207005 
L 100.630714 37.425465 
L 100.916306 36.950107 
L 101.074967 36.938246 
L 101.275939 37.237033 
L 101.529798 36.939447 
L 101.730769 37.048752 
L 101.931741 37.001006 
L 102.217332 36.742908 
L 102.788514 36.943651 
L 103.285654 36.785098 
L 103.973189 36.774438 
L 104.597258 36.827139 
L 104.79823 37.154004 
L 105.030934 36.842754 
L 105.274215 37.300845 
L 105.401144 35.189512 
L 105.813665 35.808108 
L 106.035791 35.739642 
L 106.342537 36.048339 
L 106.490622 34.361465 
L 106.670438 33.839863 
L 106.903142 34.119582 
L 107.379128 32.795307 
L 107.770493 33.066318 
L 108.003197 31.721924 
L 108.542647 31.615171 
L 108.595534 30.100363 
L 109.060942 29.747823 
L 109.209026 29.574256 
L 109.864828 28.252233 
L 120.801912 16.663476 
L 121.277897 25.490024 
L 125.530032 20.065001 
L 127.40224 18.413861 
L 128.02631 21.070519 
L 128.280169 21.027878 
L 134.82761 18.965793 
L 155.009385 26.96054 
L 159.832702 46.621819 
L 162.424177 20.868875 
L 162.635726 20.262891 
L 163.270373 21.750674 
L 164.010795 16.897702 
L 171.467897 9.608634 
L 174.440161 44.346363 
L 175.984468 19.22314 
L 179.697153 23.661714 
L 180.99818 27.267435 
L 183.917556 18.190446 
L 185.736877 40.77519 
L 188.011029 29.903823 
L 192.083347 38.509509 
L 194.748865 32.842002 
L 196.631651 28.028968 
L 197.668241 27.080505 
L 198.620211 27.575982 
L 200.175096 28.391417 
L 204.025288 27.32464 
L 205.379202 38.011779 
L 207.674509 38.606051 
L 207.674509 38.606051 
" style="fill:none;stroke:#ff7f0e;stroke-linecap:square;"/>
   </g>
   <g id="patch_3">
    <path d="M 19.7 60.189947 
L 19.7 7.2 
" style="fill:none;stroke:#000000;stroke-linecap:square;stroke-linejoin:miter;stroke-width:0.3;"/>
   </g>
   <g id="patch_4">
    <path d="M 216.625676 60.189947 
L 216.625676 7.2 
" style="fill:none;stroke:#000000;stroke-linecap:square;stroke-linejoin:miter;stroke-width:0.3;"/>
   </g>
   <g id="patch_5">
    <path d="M 19.7 60.189947 
L 216.625676 60.189947 
" style="fill:none;stroke:#000000;stroke-linecap:square;stroke-linejoin:miter;stroke-width:0.3;"/>
   </g>
   <g id="patch_6">
    <path d="M 19.7 7.2 
L 216.625676 7.2 
" style="fill:none;stroke:#000000;stroke-linecap:square;stroke-linejoin:miter;stroke-width:0.3;"/>
   </g>
  </g>
  <g id="axes_2">
   <g id="patch_7">
    <path d="M 19.7 134.375872 
L 216.625676 134.375872 
L 216.625676 81.385925 
L 19.7 81.385925 
z
" style="fill:#ffffff;"/>
   </g>
   <g id="matplotlib.axis_3">
    <g id="xtick_9">
     <g id="line2d_27">
      <path clip-path="url(#pddcc17d516)" d="M 23.267245 134.375872 
L 23.267245 81.385925 
" style="fill:none;opacity:0.1;stroke:#b0b0b0;stroke-linecap:square;stroke-width:0.1;"/>
     </g>
     <g id="line2d_28">
      <g>
       <use style="stroke:#000000;stroke-width:0.3;" x="23.267245" xlink:href="#m6f6f8e8005" y="134.375872"/>
      </g>
     </g>
     <g id="text_13">
      <!-- 277.5 -->
      <g transform="translate(16.517245 142.042122)scale(0.06 -0.06)">
       <use xlink:href="#TimesNewRomanPSMT-32"/>
       <use x="50" xlink:href="#TimesNewRomanPSMT-37"/>
       <use x="100" xlink:href="#TimesNewRomanPSMT-37"/>
       <use x="150" xlink:href="#TimesNewRomanPSMT-2e"/>
       <use x="175" xlink:href="#TimesNewRomanPSMT-35"/>
      </g>
     </g>
    </g>
    <g id="xtick_10">
     <g id="line2d_29">
      <path clip-path="url(#pddcc17d516)" d="M 49.71087 134.375872 
L 49.71087 81.385925 
" style="fill:none;opacity:0.1;stroke:#b0b0b0;stroke-linecap:square;stroke-width:0.1;"/>
     </g>
     <g id="line2d_30">
      <g>
       <use style="stroke:#000000;stroke-width:0.3;" x="49.71087" xlink:href="#m6f6f8e8005" y="134.375872"/>
      </g>
     </g>
     <g id="text_14">
      <!-- 280.0 -->
      <g transform="translate(42.96087 142.042122)scale(0.06 -0.06)">
       <use xlink:href="#TimesNewRomanPSMT-32"/>
       <use x="50" xlink:href="#TimesNewRomanPSMT-38"/>
       <use x="100" xlink:href="#TimesNewRomanPSMT-30"/>
       <use x="150" xlink:href="#TimesNewRomanPSMT-2e"/>
       <use x="175" xlink:href="#TimesNewRomanPSMT-30"/>
      </g>
     </g>
    </g>
    <g id="xtick_11">
     <g id="line2d_31">
      <path clip-path="url(#pddcc17d516)" d="M 76.154495 134.375872 
L 76.154495 81.385925 
" style="fill:none;opacity:0.1;stroke:#b0b0b0;stroke-linecap:square;stroke-width:0.1;"/>
     </g>
     <g id="line2d_32">
      <g>
       <use style="stroke:#000000;stroke-width:0.3;" x="76.154495" xlink:href="#m6f6f8e8005" y="134.375872"/>
      </g>
     </g>
     <g id="text_15">
      <!-- 282.5 -->
      <g transform="translate(69.404495 142.042122)scale(0.06 -0.06)">
       <use xlink:href="#TimesNewRomanPSMT-32"/>
       <use x="50" xlink:href="#TimesNewRomanPSMT-38"/>
       <use x="100" xlink:href="#TimesNewRomanPSMT-32"/>
       <use x="150" xlink:href="#TimesNewRomanPSMT-2e"/>
       <use x="175" xlink:href="#TimesNewRomanPSMT-35"/>
      </g>
     </g>
    </g>
    <g id="xtick_12">
     <g id="line2d_33">
      <path clip-path="url(#pddcc17d516)" d="M 102.59812 134.375872 
L 102.59812 81.385925 
" style="fill:none;opacity:0.1;stroke:#b0b0b0;stroke-linecap:square;stroke-width:0.1;"/>
     </g>
     <g id="line2d_34">
      <g>
       <use style="stroke:#000000;stroke-width:0.3;" x="102.59812" xlink:href="#m6f6f8e8005" y="134.375872"/>
      </g>
     </g>
     <g id="text_16">
      <!-- 285.0 -->
      <g transform="translate(95.84812 142.042122)scale(0.06 -0.06)">
       <use xlink:href="#TimesNewRomanPSMT-32"/>
       <use x="50" xlink:href="#TimesNewRomanPSMT-38"/>
       <use x="100" xlink:href="#TimesNewRomanPSMT-35"/>
       <use x="150" xlink:href="#TimesNewRomanPSMT-2e"/>
       <use x="175" xlink:href="#TimesNewRomanPSMT-30"/>
      </g>
     </g>
    </g>
    <g id="xtick_13">
     <g id="line2d_35">
      <path clip-path="url(#pddcc17d516)" d="M 129.041745 134.375872 
L 129.041745 81.385925 
" style="fill:none;opacity:0.1;stroke:#b0b0b0;stroke-linecap:square;stroke-width:0.1;"/>
     </g>
     <g id="line2d_36">
      <g>
       <use style="stroke:#000000;stroke-width:0.3;" x="129.041745" xlink:href="#m6f6f8e8005" y="134.375872"/>
      </g>
     </g>
     <g id="text_17">
      <!-- 287.5 -->
      <g transform="translate(122.291745 142.042122)scale(0.06 -0.06)">
       <use xlink:href="#TimesNewRomanPSMT-32"/>
       <use x="50" xlink:href="#TimesNewRomanPSMT-38"/>
       <use x="100" xlink:href="#TimesNewRomanPSMT-37"/>
       <use x="150" xlink:href="#TimesNewRomanPSMT-2e"/>
       <use x="175" xlink:href="#TimesNewRomanPSMT-35"/>
      </g>
     </g>
    </g>
    <g id="xtick_14">
     <g id="line2d_37">
      <path clip-path="url(#pddcc17d516)" d="M 155.48537 134.375872 
L 155.48537 81.385925 
" style="fill:none;opacity:0.1;stroke:#b0b0b0;stroke-linecap:square;stroke-width:0.1;"/>
     </g>
     <g id="line2d_38">
      <g>
       <use style="stroke:#000000;stroke-width:0.3;" x="155.48537" xlink:href="#m6f6f8e8005" y="134.375872"/>
      </g>
     </g>
     <g id="text_18">
      <!-- 290.0 -->
      <g transform="translate(148.73537 142.042122)scale(0.06 -0.06)">
       <use xlink:href="#TimesNewRomanPSMT-32"/>
       <use x="50" xlink:href="#TimesNewRomanPSMT-39"/>
       <use x="100" xlink:href="#TimesNewRomanPSMT-30"/>
       <use x="150" xlink:href="#TimesNewRomanPSMT-2e"/>
       <use x="175" xlink:href="#TimesNewRomanPSMT-30"/>
      </g>
     </g>
    </g>
    <g id="xtick_15">
     <g id="line2d_39">
      <path clip-path="url(#pddcc17d516)" d="M 181.928995 134.375872 
L 181.928995 81.385925 
" style="fill:none;opacity:0.1;stroke:#b0b0b0;stroke-linecap:square;stroke-width:0.1;"/>
     </g>
     <g id="line2d_40">
      <g>
       <use style="stroke:#000000;stroke-width:0.3;" x="181.928995" xlink:href="#m6f6f8e8005" y="134.375872"/>
      </g>
     </g>
     <g id="text_19">
      <!-- 292.5 -->
      <g transform="translate(175.178995 142.042122)scale(0.06 -0.06)">
       <use xlink:href="#TimesNewRomanPSMT-32"/>
       <use x="50" xlink:href="#TimesNewRomanPSMT-39"/>
       <use x="100" xlink:href="#TimesNewRomanPSMT-32"/>
       <use x="150" xlink:href="#TimesNewRomanPSMT-2e"/>
       <use x="175" xlink:href="#TimesNewRomanPSMT-35"/>
      </g>
     </g>
    </g>
    <g id="xtick_16">
     <g id="line2d_41">
      <path clip-path="url(#pddcc17d516)" d="M 208.37262 134.375872 
L 208.37262 81.385925 
" style="fill:none;opacity:0.1;stroke:#b0b0b0;stroke-linecap:square;stroke-width:0.1;"/>
     </g>
     <g id="line2d_42">
      <g>
       <use style="stroke:#000000;stroke-width:0.3;" x="208.37262" xlink:href="#m6f6f8e8005" y="134.375872"/>
      </g>
     </g>
     <g id="text_20">
      <!-- 295.0 -->
      <g transform="translate(201.62262 142.042122)scale(0.06 -0.06)">
       <use xlink:href="#TimesNewRomanPSMT-32"/>
       <use x="50" xlink:href="#TimesNewRomanPSMT-39"/>
       <use x="100" xlink:href="#TimesNewRomanPSMT-35"/>
       <use x="150" xlink:href="#TimesNewRomanPSMT-2e"/>
       <use x="175" xlink:href="#TimesNewRomanPSMT-30"/>
      </g>
     </g>
    </g>
   </g>
   <g id="matplotlib.axis_4">
    <g id="ytick_5">
     <g id="line2d_43">
      <path clip-path="url(#pddcc17d516)" d="M 19.7 131.856496 
L 216.625676 131.856496 
" style="fill:none;opacity:0.1;stroke:#b0b0b0;stroke-linecap:square;stroke-width:0.1;"/>
     </g>
     <g id="line2d_44">
      <g>
       <use style="stroke:#000000;stroke-width:0.3;" x="19.7" xlink:href="#m3f8cf4d884" y="131.856496"/>
      </g>
     </g>
     <g id="text_21">
      <!-- 0 -->
      <g transform="translate(13.2 133.939621)scale(0.06 -0.06)">
       <use xlink:href="#TimesNewRomanPSMT-30"/>
      </g>
     </g>
    </g>
    <g id="ytick_6">
     <g id="line2d_45">
      <path clip-path="url(#pddcc17d516)" d="M 19.7 109.708138 
L 216.625676 109.708138 
" style="fill:none;opacity:0.1;stroke:#b0b0b0;stroke-linecap:square;stroke-width:0.1;"/>
     </g>
     <g id="line2d_46">
      <g>
       <use style="stroke:#000000;stroke-width:0.3;" x="19.7" xlink:href="#m3f8cf4d884" y="109.708138"/>
      </g>
     </g>
     <g id="text_22">
      <!-- 200 -->
      <g transform="translate(7.2 111.791263)scale(0.06 -0.06)">
       <use xlink:href="#TimesNewRomanPSMT-32"/>
       <use x="50" xlink:href="#TimesNewRomanPSMT-30"/>
       <use x="100" xlink:href="#TimesNewRomanPSMT-30"/>
      </g>
     </g>
    </g>
    <g id="ytick_7">
     <g id="line2d_47">
      <path clip-path="url(#pddcc17d516)" d="M 19.7 87.55978 
L 216.625676 87.55978 
" style="fill:none;opacity:0.1;stroke:#b0b0b0;stroke-linecap:square;stroke-width:0.1;"/>
     </g>
     <g id="line2d_48">
      <g>
       <use style="stroke:#000000;stroke-width:0.3;" x="19.7" xlink:href="#m3f8cf4d884" y="87.55978"/>
      </g>
     </g>
     <g id="text_23">
      <!-- 400 -->
      <defs>
       <path d="M 46.53125 24.421875 
L 46.53125 17.484375 
L 37.640625 17.484375 
L 37.640625 0 
L 29.59375 0 
L 29.59375 17.484375 
L 1.5625 17.484375 
L 1.5625 23.734375 
L 32.28125 67.578125 
L 37.640625 67.578125 
L 37.640625 24.421875 
z
M 29.59375 24.421875 
L 29.59375 57.28125 
L 6.34375 24.421875 
z
" id="TimesNewRomanPSMT-34"/>
      </defs>
      <g transform="translate(7.2 89.642905)scale(0.06 -0.06)">
       <use xlink:href="#TimesNewRomanPSMT-34"/>
       <use x="50" xlink:href="#TimesNewRomanPSMT-30"/>
       <use x="100" xlink:href="#TimesNewRomanPSMT-30"/>
      </g>
     </g>
    </g>
   </g>
   <g id="line2d_49">
    <path clip-path="url(#pddcc17d516)" d="M 28.905026 98.301734 
L 28.905026 98.966184 
L 30.71377 99.741377 
L 30.71377 99.741377 
L 30.967629 99.741377 
L 30.967629 99.852119 
L 31.75036 100.073602 
L 31.75036 100.184344 
L 32.385007 100.295086 
L 32.385007 100.405828 
L 33.432174 100.295086 
L 33.432174 100.184344 
L 33.897582 100.184344 
L 33.897582 99.962861 
L 34.542807 99.852119 
L 34.542807 99.741377 
L 35.336115 99.519893 
L 35.336115 99.409152 
L 37.493915 99.409152 
L 37.493915 99.29841 
L 38.519928 99.076926 
L 38.519928 98.855443 
L 38.847829 98.855443 
L 38.847829 98.744701 
L 39.990193 98.523217 
L 39.990193 98.633959 
L 40.825812 98.523217 
L 41.693163 98.301734 
L 41.693163 98.190992 
L 42.423007 98.08025 
L 42.423007 98.08025 
L 42.750908 97.969508 
L 42.750908 98.08025 
L 44.009624 98.190992 
L 44.009624 98.412475 
L 44.432722 98.412475 
L 44.432722 98.633959 
L 44.887553 98.855443 
L 45.511622 98.966184 
L 45.511622 98.966184 
L 45.702016 98.966184 
L 45.702016 98.744701 
L 45.924143 98.744701 
L 45.924143 98.633959 
L 46.579945 98.190992 
L 46.579945 97.748025 
L 47.003043 97.637283 
L 47.003043 97.415799 
L 47.648267 97.305058 
L 47.648267 97.083574 
L 48.272337 96.972832 
L 48.272337 96.972832 
L 49.79549 97.305058 
L 49.79549 97.305058 
L 50.557066 97.194316 
L 50.557066 97.305058 
L 52.080219 97.969508 
L 52.080219 97.969508 
L 53.328358 98.08025 
L 53.328358 98.190992 
L 53.751456 98.08025 
L 53.751456 98.301734 
L 54.174554 98.412475 
L 54.174554 98.412475 
L 54.43899 98.633959 
L 54.43899 98.855443 
L 55.041905 99.076926 
L 55.041905 98.966184 
L 55.242876 98.966184 
L 55.242876 99.187668 
L 55.465003 99.187668 
L 55.465003 99.29841 
L 56.110227 99.741377 
L 56.110227 99.962861 
L 56.734297 100.073602 
L 56.734297 100.184344 
L 58.236295 100.295086 
L 58.236295 100.405828 
L 58.849787 100.516569 
L 58.849787 100.627311 
L 59.463279 100.627311 
L 59.463279 100.516569 
L 59.695983 100.405828 
L 59.695983 100.405828 
L 60.37294 100.295086 
L 60.37294 100.184344 
L 60.753728 100.184344 
L 60.753728 99.962861 
L 61.187403 99.852119 
L 61.187403 99.852119 
L 63.292316 99.409152 
L 63.292316 99.409152 
L 64.56161 99.519893 
L 64.56161 99.519893 
L 64.984708 99.630635 
L 64.984708 99.519893 
L 65.291454 99.519893 
L 65.291454 99.630635 
L 65.693397 99.852119 
L 65.989566 99.962861 
L 65.989566 100.184344 
L 66.22227 100.184344 
L 66.22227 100.627311 
L 66.529016 100.627311 
L 66.529016 100.848795 
L 67.385789 101.291762 
L 67.385789 101.402504 
L 69.363772 101.956213 
L 69.363772 102.066955 
L 69.966687 102.177696 
L 69.966687 102.288438 
L 70.347475 102.509922 
L 70.347475 102.509922 
L 70.82346 102.620663 
L 70.82346 102.620663 
L 72.674514 103.174372 
L 72.674514 103.395856 
L 74.239977 104.060307 
L 74.239977 104.060307 
L 81.44322 101.956213 
L 81.44322 101.734729 
L 94.125583 99.409152 
L 94.125583 99.519893 
L 94.516948 99.519893 
L 94.516948 99.741377 
L 96.262228 99.630635 
L 96.262228 99.409152 
L 97.119001 99.076926 
L 97.119001 99.076926 
L 97.880577 98.633959 
L 98.790238 98.744701 
L 98.790238 98.855443 
L 99.213336 98.966184 
L 99.647012 99.29841 
L 99.647012 99.29841 
L 100.091264 99.409152 
L 100.091264 99.409152 
L 100.48263 99.519893 
L 100.48263 99.519893 
L 101.529798 99.409152 
L 101.529798 99.29841 
L 101.931741 99.187668 
L 101.931741 98.966184 
L 102.217332 98.966184 
L 102.217332 98.744701 
L 102.608698 98.633959 
L 102.608698 98.412475 
L 103.285654 97.858766 
L 103.973189 97.858766 
L 103.973189 97.748025 
L 105.401144 97.637283 
L 105.401144 97.415799 
L 105.813665 97.415799 
L 105.813665 97.748025 
L 106.490622 97.748025 
L 106.490622 97.969508 
L 107.379128 98.08025 
L 107.379128 98.301734 
L 108.828238 98.412475 
L 108.828238 98.966184 
L 109.642702 99.409152 
L 109.642702 99.630635 
L 120.801912 103.61734 
L 120.801912 103.285114 
L 121.277897 102.509922 
L 121.277897 102.177696 
L 125.530032 98.966184 
L 125.530032 99.409152 
L 127.40224 104.724757 
L 127.40224 105.389208 
L 128.02631 107.271819 
L 128.02631 107.714786 
L 128.280169 131.967238 
L 128.280169 131.967238 
L 134.82761 108.157753 
L 145.923355 94.868738 
L 145.923355 95.200964 
L 155.009385 111.258523 
L 155.009385 110.372589 
L 159.832702 131.967238 
L 159.832702 84.569752 
L 159.832702 84.569752 
L 159.832702 84.569752 
L 159.832702 131.967238 
L 159.832702 131.967238 
L 162.424177 83.794559 
L 163.270373 84.569752 
L 164.010795 85.455686 
L 164.010795 86.784587 
L 171.467897 105.49995 
L 171.467897 104.614016 
L 174.440161 92.321677 
L 175.984468 93.539837 
L 175.984468 93.872062 
L 179.697153 109.597396 
L 179.697153 110.594072 
L 180.99818 119.564157 
L 180.99818 131.967238 
L 180.99818 131.967238 
L 185.736877 131.856496 
L 185.736877 129.64166 
L 188.011029 119.12119 
L 188.011029 118.235256 
L 192.083347 110.040363 
L 192.083347 108.379237 
L 192.083347 108.379237 
L 192.083347 108.379237 
L 192.083347 131.967238 
L 192.083347 131.967238 
L 207.674509 131.967238 
L 207.674509 131.967238 
" style="fill:none;stroke:#1f77b4;stroke-linecap:square;"/>
   </g>
   <g id="line2d_50">
    <path clip-path="url(#pddcc17d516)" d="M 28.651167 98.092875 
L 28.905026 98.867735 
L 29.074265 98.813693 
L 29.359856 99.192098 
L 29.931039 98.861533 
L 30.237785 99.566737 
L 30.449334 99.527867 
L 30.71377 99.729195 
L 31.12629 99.677036 
L 31.380149 100.022993 
L 31.570543 99.940269 
L 31.75036 100.137833 
L 32.564824 100.321664 
L 33.622569 100.107046 
L 33.897582 99.776925 
L 34.542807 99.645475 
L 35.336115 99.423659 
L 35.547664 99.475707 
L 36.034227 99.307934 
L 36.171734 99.46264 
L 36.690029 99.477147 
L 37.10255 99.304058 
L 37.271789 99.335619 
L 37.895858 99.009374 
L 38.160295 99.03861 
L 39.408434 98.468068 
L 39.567095 98.457326 
L 39.873842 98.297525 
L 39.990193 98.596639 
L 41.322952 98.245145 
L 41.693163 98.097083 
L 42.549936 97.898855 
L 42.750908 98.028534 
L 43.142274 98.090549 
L 43.798075 98.144923 
L 44.009624 98.442154 
L 44.887553 98.856882 
L 45.067369 98.831744 
L 45.278918 98.953338 
L 45.702016 98.739828 
L 46.10396 98.615465 
L 46.579945 97.685456 
L 46.749184 97.644592 
L 47.003043 97.353673 
L 47.383831 97.342599 
L 47.648267 96.998303 
L 48.060788 97.014803 
L 48.885829 97.141713 
L 49.076223 96.998746 
L 49.287772 96.985567 
L 49.499321 97.271614 
L 50.345517 97.271392 
L 51.191713 97.410262 
L 51.635966 97.897748 
L 52.080219 97.987116 
L 52.704288 97.729974 
L 52.926415 98.043927 
L 53.539907 98.11314 
L 53.751456 98.260759 
L 53.973582 98.23994 
L 54.174554 98.417016 
L 54.43899 98.872275 
L 54.629384 98.853117 
L 54.809201 99.102397 
L 55.041905 99.044811 
L 55.465003 99.275375 
L 55.676552 99.267624 
L 55.877523 99.737833 
L 56.290044 100.019339 
L 57.580493 100.159427 
L 57.802619 100.124986 
L 57.982436 100.285894 
L 58.437266 100.434399 
L 58.849787 100.661973 
L 59.463279 100.475816 
L 59.886377 100.242484 
L 60.108503 100.256216 
L 60.37294 100.102174 
L 60.552756 100.21059 
L 60.753728 99.905496 
L 61.187403 99.76574 
L 61.82205 99.735065 
L 62.023022 99.492429 
L 62.848063 99.313471 
L 63.292316 99.401067 
L 65.492425 99.674267 
L 65.989566 100.277589 
L 66.370354 100.680246 
L 66.529016 100.879581 
L 66.751142 100.880688 
L 66.973268 101.201286 
L 67.17424 101.231297 
L 67.385789 101.401396 
L 67.607915 101.364852 
L 67.808887 101.640599 
L 69.363772 102.110255 
L 69.712828 102.313134 
L 70.135926 102.428969 
L 70.548447 102.710918 
L 70.82346 102.708814 
L 71.035009 102.877141 
L 72.674514 104.384669 
L 74.239977 104.552 
L 81.44322 101.65721 
L 89.439772 100.550124 
L 93.564978 102.505603 
L 93.882301 102.512247 
L 94.125583 99.533293 
L 94.294822 99.584124 
L 94.516948 99.775707 
L 95.553538 99.912252 
L 95.807397 99.705718 
L 95.976636 99.712473 
L 96.262228 99.337723 
L 96.410312 99.337612 
L 96.685326 99.121666 
L 97.319973 98.971721 
L 97.510367 98.673605 
L 98.166169 98.620781 
L 98.568112 98.681467 
L 98.938322 98.962973 
L 99.382575 99.079363 
L 99.858561 99.398188 
L 100.630714 99.629195 
L 101.074967 99.401732 
L 101.275939 99.402839 
L 101.529798 99.26862 
L 101.730769 99.297524 
L 102.217332 98.623106 
L 102.365416 98.638167 
L 102.608698 98.403727 
L 102.788514 98.465189 
L 103.010641 98.016574 
L 103.285654 97.859652 
L 104.375132 97.912919 
L 104.597258 98.263085 
L 104.79823 99.057657 
L 105.030934 98.750349 
L 105.274215 99.968841 
L 105.401144 97.995976 
L 105.655003 99.160425 
L 105.813665 98.501401 
L 106.035791 98.865077 
L 106.342537 100.243702 
L 106.490622 98.568178 
L 106.670438 98.594867 
L 106.903142 99.51491 
L 107.125269 98.954778 
L 107.379128 99.197745 
L 107.770493 100.496636 
L 108.003197 98.823549 
L 108.542647 99.642706 
L 108.595534 98.4818 
L 108.828238 99.048466 
L 109.209026 99.041378 
L 109.642702 99.28645 
L 109.864828 99.132297 
L 120.801912 96.119456 
L 121.277897 102.097409 
L 125.530032 98.396972 
L 127.40224 101.8169 
L 128.02631 107.194189 
L 128.280169 107.077356 
L 134.82761 106.054656 
L 145.923355 96.532412 
L 155.009385 109.928182 
L 159.832702 101.844031 
L 162.424177 92.103405 
L 162.635726 91.964645 
L 163.270373 84.222355 
L 164.010795 86.331211 
L 171.467897 87.096879 
L 174.440161 94.454785 
L 175.984468 92.576715 
L 179.697153 105.183007 
L 180.99818 120.87008 
L 183.917556 122.18701 
L 185.736877 123.729643 
L 188.011029 117.334039 
L 192.083347 117.926397 
L 193.02474 119.366926 
L 194.748865 120.195496 
L 196.631651 120.673679 
L 197.668241 119.853747 
L 198.123071 118.624845 
L 200.175096 110.231836 
L 204.025288 97.690882 
L 205.379202 99.443039 
L 207.674509 100.751231 
L 207.674509 100.751231 
" style="fill:none;stroke:#ff7f0e;stroke-linecap:square;"/>
   </g>
   <g id="patch_8">
    <path d="M 19.7 134.375872 
L 19.7 81.385925 
" style="fill:none;stroke:#000000;stroke-linecap:square;stroke-linejoin:miter;stroke-width:0.3;"/>
   </g>
   <g id="patch_9">
    <path d="M 216.625676 134.375872 
L 216.625676 81.385925 
" style="fill:none;stroke:#000000;stroke-linecap:square;stroke-linejoin:miter;stroke-width:0.3;"/>
   </g>
   <g id="patch_10">
    <path d="M 19.7 134.375872 
L 216.625676 134.375872 
" style="fill:none;stroke:#000000;stroke-linecap:square;stroke-linejoin:miter;stroke-width:0.3;"/>
   </g>
   <g id="patch_11">
    <path d="M 19.7 81.385925 
L 216.625676 81.385925 
" style="fill:none;stroke:#000000;stroke-linecap:square;stroke-linejoin:miter;stroke-width:0.3;"/>
   </g>
  </g>
 </g>
 <defs>
  <clipPath id="pf7bbb88ff5">
   <rect height="52.989947" width="196.925676" x="19.7" y="7.2"/>
  </clipPath>
  <clipPath id="pddcc17d516">
   <rect height="52.989947" width="196.925676" x="19.7" y="81.385925"/>
  </clipPath>
 </defs>
</svg>
