<?xml version="1.0" encoding="utf-8" standalone="no"?>
<!DOCTYPE svg PUBLIC "-//W3C//DTD SVG 1.1//EN"
  "http://www.w3.org/Graphics/SVG/1.1/DTD/svg11.dtd">
<!-- Created with matplotlib (http://matplotlib.org/) -->
<svg height="150pt" version="1.1" viewBox="0 0 226 150" width="226pt" xmlns="http://www.w3.org/2000/svg" xmlns:xlink="http://www.w3.org/1999/xlink">
 <defs>
  <style type="text/css">
*{stroke-linecap:butt;stroke-linejoin:round;}
  </style>
 </defs>
 <g id="figure_1">
  <g id="patch_1">
   <path d="M 0 150.882747 
L 226.278176 150.882747 
L 226.278176 0 
L 0 0 
z
" style="fill:#ffffff;"/>
  </g>
  <g id="axes_1">
   <g id="patch_2">
    <path d="M 22.1525 60.189947 
L 219.078176 60.189947 
L 219.078176 7.2 
L 22.1525 7.2 
z
" style="fill:#ffffff;"/>
   </g>
   <g id="matplotlib.axis_1">
    <g id="xtick_1">
     <g id="line2d_1">
      <path clip-path="url(#pb078725733)" d="M 48.763682 60.189947 
L 48.763682 7.2 
" style="fill:none;opacity:0.1;stroke:#b0b0b0;stroke-linecap:square;stroke-width:0.1;"/>
     </g>
     <g id="line2d_2">
      <defs>
       <path d="M 0 0 
L 0 -2 
" id="m998c993c02" style="stroke:#000000;stroke-width:0.3;"/>
      </defs>
      <g>
       <use style="stroke:#000000;stroke-width:0.3;" x="48.763682" xlink:href="#m998c993c02" y="60.189947"/>
      </g>
     </g>
     <g id="text_1">
      <!-- 6 -->
      <defs>
       <path d="M 33.015625 40.375 
Q 26.375 40.375 22.484375 35.828125 
Q 18.609375 31.296875 18.609375 23.390625 
Q 18.609375 15.53125 22.484375 10.953125 
Q 26.375 6.390625 33.015625 6.390625 
Q 39.65625 6.390625 43.53125 10.953125 
Q 47.40625 15.53125 47.40625 23.390625 
Q 47.40625 31.296875 43.53125 35.828125 
Q 39.65625 40.375 33.015625 40.375 
z
M 52.59375 71.296875 
L 52.59375 62.3125 
Q 48.875 64.0625 45.09375 64.984375 
Q 41.3125 65.921875 37.59375 65.921875 
Q 27.828125 65.921875 22.671875 59.328125 
Q 17.53125 52.734375 16.796875 39.40625 
Q 19.671875 43.65625 24.015625 45.921875 
Q 28.375 48.1875 33.59375 48.1875 
Q 44.578125 48.1875 50.953125 41.515625 
Q 57.328125 34.859375 57.328125 23.390625 
Q 57.328125 12.15625 50.6875 5.359375 
Q 44.046875 -1.421875 33.015625 -1.421875 
Q 20.359375 -1.421875 13.671875 8.265625 
Q 6.984375 17.96875 6.984375 36.375 
Q 6.984375 53.65625 15.1875 63.9375 
Q 23.390625 74.21875 37.203125 74.21875 
Q 40.921875 74.21875 44.703125 73.484375 
Q 48.484375 72.75 52.59375 71.296875 
z
" id="DejaVuSans-36"/>
      </defs>
      <g transform="translate(46.854932 68.249009)scale(0.06 -0.06)">
       <use xlink:href="#DejaVuSans-36"/>
      </g>
     </g>
    </g>
    <g id="xtick_2">
     <g id="line2d_3">
      <path clip-path="url(#pb078725733)" d="M 84.780272 60.189947 
L 84.780272 7.2 
" style="fill:none;opacity:0.1;stroke:#b0b0b0;stroke-linecap:square;stroke-width:0.1;"/>
     </g>
     <g id="line2d_4">
      <g>
       <use style="stroke:#000000;stroke-width:0.3;" x="84.780272" xlink:href="#m998c993c02" y="60.189947"/>
      </g>
     </g>
     <g id="text_2">
      <!-- 8 -->
      <defs>
       <path d="M 31.78125 34.625 
Q 24.75 34.625 20.71875 30.859375 
Q 16.703125 27.09375 16.703125 20.515625 
Q 16.703125 13.921875 20.71875 10.15625 
Q 24.75 6.390625 31.78125 6.390625 
Q 38.8125 6.390625 42.859375 10.171875 
Q 46.921875 13.96875 46.921875 20.515625 
Q 46.921875 27.09375 42.890625 30.859375 
Q 38.875 34.625 31.78125 34.625 
z
M 21.921875 38.8125 
Q 15.578125 40.375 12.03125 44.71875 
Q 8.5 49.078125 8.5 55.328125 
Q 8.5 64.0625 14.71875 69.140625 
Q 20.953125 74.21875 31.78125 74.21875 
Q 42.671875 74.21875 48.875 69.140625 
Q 55.078125 64.0625 55.078125 55.328125 
Q 55.078125 49.078125 51.53125 44.71875 
Q 48 40.375 41.703125 38.8125 
Q 48.828125 37.15625 52.796875 32.3125 
Q 56.78125 27.484375 56.78125 20.515625 
Q 56.78125 9.90625 50.3125 4.234375 
Q 43.84375 -1.421875 31.78125 -1.421875 
Q 19.734375 -1.421875 13.25 4.234375 
Q 6.78125 9.90625 6.78125 20.515625 
Q 6.78125 27.484375 10.78125 32.3125 
Q 14.796875 37.15625 21.921875 38.8125 
z
M 18.3125 54.390625 
Q 18.3125 48.734375 21.84375 45.5625 
Q 25.390625 42.390625 31.78125 42.390625 
Q 38.140625 42.390625 41.71875 45.5625 
Q 45.3125 48.734375 45.3125 54.390625 
Q 45.3125 60.0625 41.71875 63.234375 
Q 38.140625 66.40625 31.78125 66.40625 
Q 25.390625 66.40625 21.84375 63.234375 
Q 18.3125 60.0625 18.3125 54.390625 
z
" id="DejaVuSans-38"/>
      </defs>
      <g transform="translate(82.871522 68.249009)scale(0.06 -0.06)">
       <use xlink:href="#DejaVuSans-38"/>
      </g>
     </g>
    </g>
    <g id="xtick_3">
     <g id="line2d_5">
      <path clip-path="url(#pb078725733)" d="M 120.796861 60.189947 
L 120.796861 7.2 
" style="fill:none;opacity:0.1;stroke:#b0b0b0;stroke-linecap:square;stroke-width:0.1;"/>
     </g>
     <g id="line2d_6">
      <g>
       <use style="stroke:#000000;stroke-width:0.3;" x="120.796861" xlink:href="#m998c993c02" y="60.189947"/>
      </g>
     </g>
     <g id="text_3">
      <!-- 10 -->
      <defs>
       <path d="M 12.40625 8.296875 
L 28.515625 8.296875 
L 28.515625 63.921875 
L 10.984375 60.40625 
L 10.984375 69.390625 
L 28.421875 72.90625 
L 38.28125 72.90625 
L 38.28125 8.296875 
L 54.390625 8.296875 
L 54.390625 0 
L 12.40625 0 
z
" id="DejaVuSans-31"/>
       <path d="M 31.78125 66.40625 
Q 24.171875 66.40625 20.328125 58.90625 
Q 16.5 51.421875 16.5 36.375 
Q 16.5 21.390625 20.328125 13.890625 
Q 24.171875 6.390625 31.78125 6.390625 
Q 39.453125 6.390625 43.28125 13.890625 
Q 47.125 21.390625 47.125 36.375 
Q 47.125 51.421875 43.28125 58.90625 
Q 39.453125 66.40625 31.78125 66.40625 
z
M 31.78125 74.21875 
Q 44.046875 74.21875 50.515625 64.515625 
Q 56.984375 54.828125 56.984375 36.375 
Q 56.984375 17.96875 50.515625 8.265625 
Q 44.046875 -1.421875 31.78125 -1.421875 
Q 19.53125 -1.421875 13.0625 8.265625 
Q 6.59375 17.96875 6.59375 36.375 
Q 6.59375 54.828125 13.0625 64.515625 
Q 19.53125 74.21875 31.78125 74.21875 
z
" id="DejaVuSans-30"/>
      </defs>
      <g transform="translate(116.979361 68.249009)scale(0.06 -0.06)">
       <use xlink:href="#DejaVuSans-31"/>
       <use x="63.623047" xlink:href="#DejaVuSans-30"/>
      </g>
     </g>
    </g>
    <g id="xtick_4">
     <g id="line2d_7">
      <path clip-path="url(#pb078725733)" d="M 156.813451 60.189947 
L 156.813451 7.2 
" style="fill:none;opacity:0.1;stroke:#b0b0b0;stroke-linecap:square;stroke-width:0.1;"/>
     </g>
     <g id="line2d_8">
      <g>
       <use style="stroke:#000000;stroke-width:0.3;" x="156.813451" xlink:href="#m998c993c02" y="60.189947"/>
      </g>
     </g>
     <g id="text_4">
      <!-- 12 -->
      <defs>
       <path d="M 19.1875 8.296875 
L 53.609375 8.296875 
L 53.609375 0 
L 7.328125 0 
L 7.328125 8.296875 
Q 12.9375 14.109375 22.625 23.890625 
Q 32.328125 33.6875 34.8125 36.53125 
Q 39.546875 41.84375 41.421875 45.53125 
Q 43.3125 49.21875 43.3125 52.78125 
Q 43.3125 58.59375 39.234375 62.25 
Q 35.15625 65.921875 28.609375 65.921875 
Q 23.96875 65.921875 18.8125 64.3125 
Q 13.671875 62.703125 7.8125 59.421875 
L 7.8125 69.390625 
Q 13.765625 71.78125 18.9375 73 
Q 24.125 74.21875 28.421875 74.21875 
Q 39.75 74.21875 46.484375 68.546875 
Q 53.21875 62.890625 53.21875 53.421875 
Q 53.21875 48.921875 51.53125 44.890625 
Q 49.859375 40.875 45.40625 35.40625 
Q 44.1875 33.984375 37.640625 27.21875 
Q 31.109375 20.453125 19.1875 8.296875 
z
" id="DejaVuSans-32"/>
      </defs>
      <g transform="translate(152.995951 68.249009)scale(0.06 -0.06)">
       <use xlink:href="#DejaVuSans-31"/>
       <use x="63.623047" xlink:href="#DejaVuSans-32"/>
      </g>
     </g>
    </g>
    <g id="xtick_5">
     <g id="line2d_9">
      <path clip-path="url(#pb078725733)" d="M 192.830041 60.189947 
L 192.830041 7.2 
" style="fill:none;opacity:0.1;stroke:#b0b0b0;stroke-linecap:square;stroke-width:0.1;"/>
     </g>
     <g id="line2d_10">
      <g>
       <use style="stroke:#000000;stroke-width:0.3;" x="192.830041" xlink:href="#m998c993c02" y="60.189947"/>
      </g>
     </g>
     <g id="text_5">
      <!-- 14 -->
      <defs>
       <path d="M 37.796875 64.3125 
L 12.890625 25.390625 
L 37.796875 25.390625 
z
M 35.203125 72.90625 
L 47.609375 72.90625 
L 47.609375 25.390625 
L 58.015625 25.390625 
L 58.015625 17.1875 
L 47.609375 17.1875 
L 47.609375 0 
L 37.796875 0 
L 37.796875 17.1875 
L 4.890625 17.1875 
L 4.890625 26.703125 
z
" id="DejaVuSans-34"/>
      </defs>
      <g transform="translate(189.012541 68.249009)scale(0.06 -0.06)">
       <use xlink:href="#DejaVuSans-31"/>
       <use x="63.623047" xlink:href="#DejaVuSans-34"/>
      </g>
     </g>
    </g>
   </g>
   <g id="matplotlib.axis_2">
    <g id="ytick_1">
     <g id="line2d_11">
      <path clip-path="url(#pb078725733)" d="M 22.1525 38.722387 
L 219.078176 38.722387 
" style="fill:none;opacity:0.1;stroke:#b0b0b0;stroke-linecap:square;stroke-width:0.1;"/>
     </g>
     <g id="line2d_12">
      <defs>
       <path d="M 0 0 
L 2 0 
" id="m23110196dc" style="stroke:#000000;stroke-width:0.3;"/>
      </defs>
      <g>
       <use style="stroke:#000000;stroke-width:0.3;" x="22.1525" xlink:href="#m23110196dc" y="38.722387"/>
      </g>
     </g>
     <g id="text_6">
      <!-- 0 -->
      <g transform="translate(14.835 41.001919)scale(0.06 -0.06)">
       <use xlink:href="#DejaVuSans-30"/>
      </g>
     </g>
    </g>
    <g id="ytick_2">
     <g id="line2d_13">
      <path clip-path="url(#pb078725733)" d="M 22.1525 13.785126 
L 219.078176 13.785126 
" style="fill:none;opacity:0.1;stroke:#b0b0b0;stroke-linecap:square;stroke-width:0.1;"/>
     </g>
     <g id="line2d_14">
      <g>
       <use style="stroke:#000000;stroke-width:0.3;" x="22.1525" xlink:href="#m23110196dc" y="13.785126"/>
      </g>
     </g>
     <g id="text_7">
      <!-- 200 -->
      <g transform="translate(7.2 16.064658)scale(0.06 -0.06)">
       <use xlink:href="#DejaVuSans-32"/>
       <use x="63.623047" xlink:href="#DejaVuSans-30"/>
       <use x="127.246094" xlink:href="#DejaVuSans-30"/>
      </g>
     </g>
    </g>
   </g>
   <g id="line2d_15">
    <path clip-path="url(#pb078725733)" d="M 31.103667 20.642873 
L 31.103667 19.645383 
L 31.484362 20.76756 
L 31.484362 21.390991 
L 31.824359 21.390991 
L 31.824359 20.892246 
L 32.575305 20.892246 
L 32.575305 21.016932 
L 32.915302 21.016932 
L 32.915302 20.144128 
L 33.251696 20.144128 
L 33.251696 21.141618 
L 33.640676 21.141618 
L 33.640676 20.144128 
L 33.987696 20.144128 
L 33.987696 22.014423 
L 34.377215 22.014423 
L 34.377215 21.515677 
L 34.729637 21.515677 
L 34.729637 20.642873 
L 35.053967 20.642873 
L 35.053967 22.388481 
L 35.424037 22.388481 
L 35.424037 21.390991 
L 36.141127 21.390991 
L 36.141127 22.76254 
L 36.504535 22.76254 
L 36.504535 21.640364 
L 36.883609 21.640364 
L 36.883609 22.263795 
L 38.700646 20.518187 
L 38.700646 21.390991 
L 39.027497 21.390991 
L 39.027497 21.016932 
L 39.40405 21.016932 
L 39.40405 20.76756 
L 39.736123 20.76756 
L 39.736123 20.144128 
L 40.107454 20.144128 
L 40.107454 19.39601 
L 40.449612 19.39601 
L 40.449612 18.897265 
L 40.828326 18.897265 
L 40.828326 17.650402 
L 41.224869 17.650402 
L 41.224869 19.520696 
L 41.52993 19.520696 
L 41.52993 20.642873 
L 41.937817 20.642873 
L 41.937817 18.897265 
L 42.314551 18.897265 
L 42.314551 18.149147 
L 42.642302 18.149147 
L 42.642302 18.647892 
L 43.337962 17.775088 
L 43.337962 19.520696 
L 43.737026 19.520696 
L 43.737026 16.652911 
L 44.068019 16.652911 
L 44.068019 19.271324 
L 44.448714 19.271324 
L 44.448714 18.772579 
L 44.797175 18.772579 
L 44.797175 19.271324 
L 45.513184 19.271324 
L 45.513184 19.894755 
L 46.963212 19.894755 
L 46.963212 20.019442 
L 48.077926 20.019442 
L 48.077926 18.523206 
L 48.378484 18.523206 
L 48.378484 19.894755 
L 48.789794 19.894755 
L 48.789794 17.276343 
L 49.15068 17.276343 
L 49.15068 19.770069 
L 50.206326 19.645383 
L 50.206326 19.645383 
L 50.525973 19.645383 
L 50.525973 19.770069 
L 50.969518 19.770069 
L 50.969518 19.770069 
L 51.633844 19.021951 
L 51.633844 19.770069 
L 52.427109 19.770069 
L 52.427109 19.645383 
L 54.64411 19.645383 
L 54.64411 19.520696 
L 54.938366 19.520696 
L 54.938366 19.39601 
L 55.242706 19.39601 
L 55.242706 19.39601 
L 56.676346 19.146638 
L 56.676346 19.021951 
L 57.410905 19.021951 
L 57.410905 18.897265 
L 57.778634 18.897265 
L 57.778634 18.772579 
L 58.552631 18.772579 
L 58.552631 18.647892 
L 58.895869 18.647892 
L 58.895869 18.523206 
L 59.295113 18.39852 
L 59.969343 18.39852 
L 59.969343 18.273833 
L 60.617462 18.273833 
L 60.617462 18.149147 
L 61.009322 18.024461 
L 61.009322 18.024461 
L 61.383715 18.024461 
L 61.383715 17.899774 
L 61.736137 17.899774 
L 61.736137 17.775088 
L 62.490324 17.775088 
L 62.490324 17.650402 
L 62.881825 17.650402 
L 62.881825 17.525716 
L 63.509594 17.525716 
L 63.509594 17.401029 
L 64.598916 17.401029 
L 64.598916 17.525716 
L 64.983933 17.525716 
L 64.983933 17.276343 
L 65.363728 17.276343 
L 65.363728 17.401029 
L 65.662486 17.401029 
L 65.662486 17.525716 
L 66.075416 17.525716 
L 66.075416 16.902284 
L 66.40983 16.902284 
L 66.40983 16.777598 
L 67.10495 16.777598 
L 67.10495 16.652911 
L 67.858417 16.652911 
L 67.858417 16.528225 
L 68.543272 16.528225 
L 68.543272 16.902284 
L 68.941796 16.902284 
L 68.941796 16.278853 
L 69.268106 16.278853 
L 69.268106 16.154166 
L 69.691841 16.278853 
L 69.691841 16.403539 
L 70.007167 16.403539 
L 70.007167 16.02948 
L 70.77396 16.02948 
L 70.77396 15.780107 
L 71.137908 15.780107 
L 71.137908 16.278853 
L 71.480065 16.278853 
L 71.480065 15.780107 
L 71.878769 15.780107 
L 71.878769 15.904794 
L 72.183829 15.904794 
L 72.183829 15.406048 
L 72.555701 15.406048 
L 72.555701 15.904794 
L 72.916227 15.904794 
L 72.916227 15.780107 
L 73.26991 15.780107 
L 73.26991 16.02948 
L 74.701209 16.154166 
L 74.701209 16.02948 
L 75.057413 16.02948 
L 75.057413 15.156676 
L 75.439909 15.156676 
L 75.439909 15.904794 
L 75.76694 15.904794 
L 75.76694 15.156676 
L 76.208503 15.281362 
L 76.208503 15.031989 
L 76.508701 15.031989 
L 76.508701 14.907303 
L 76.910106 14.907303 
L 76.910106 15.156676 
L 77.189235 15.156676 
L 77.189235 14.907303 
L 77.620534 14.907303 
L 77.620534 14.408558 
L 77.992585 14.408558 
L 77.992585 15.655421 
L 78.333842 15.655421 
L 78.333842 14.034499 
L 78.686805 14.034499 
L 78.686805 14.907303 
L 79.019418 14.907303 
L 79.019418 15.156676 
L 79.344468 15.156676 
L 79.344468 15.406048 
L 79.786751 14.907303 
L 79.786751 14.533244 
L 80.098475 14.533244 
L 80.098475 14.782617 
L 80.525992 14.782617 
L 80.525992 14.159185 
L 80.821688 14.159185 
L 80.821688 14.657931 
L 81.205985 14.657931 
L 81.205985 14.408558 
L 81.561109 14.408558 
L 81.561109 14.283872 
L 81.923436 14.283872 
L 81.923436 15.031989 
L 82.25947 15.031989 
L 82.25947 13.909813 
L 82.971879 13.909813 
L 82.971879 14.034499 
L 83.705717 14.034499 
L 83.705717 14.283872 
L 84.1046 14.283872 
L 84.1046 15.031989 
L 84.467107 15.530735 
L 84.467107 14.283872 
L 85.095777 14.283872 
L 85.095777 13.66044 
L 85.4925 14.283872 
L 85.4925 14.034499 
L 85.834117 14.034499 
L 85.834117 14.907303 
L 86.246147 14.907303 
L 86.246147 14.408558 
L 86.593347 14.408558 
L 86.593347 14.533244 
L 86.955133 14.533244 
L 86.955133 14.408558 
L 87.270819 14.408558 
L 87.270819 13.411067 
L 87.658357 13.411067 
L 87.658357 13.785126 
L 88.019964 13.785126 
L 88.019964 14.034499 
L 88.37995 13.909813 
L 88.37995 14.907303 
L 88.752001 14.907303 
L 88.752001 13.785126 
L 89.103163 13.785126 
L 89.103163 13.66044 
L 89.449102 13.66044 
L 89.449102 14.283872 
L 89.862212 14.283872 
L 89.862212 14.408558 
L 90.184741 14.408558 
L 90.184741 13.785126 
L 90.534642 13.785126 
L 90.534642 14.283872 
L 90.922901 14.283872 
L 90.922901 13.037009 
L 91.250832 13.037009 
L 91.250832 14.034499 
L 92.684472 14.034499 
L 92.684472 12.66295 
L 93.086598 12.66295 
L 93.086598 12.538263 
L 93.772534 12.538263 
L 93.772534 13.037009 
L 94.140263 13.037009 
L 94.140263 12.787636 
L 94.511054 12.787636 
L 94.511054 13.66044 
L 94.887607 13.66044 
L 94.887607 13.909813 
L 95.236608 13.909813 
L 95.236608 13.037009 
L 95.594253 13.037009 
L 95.594253 14.283872 
L 95.963963 13.286381 
L 96.670969 13.286381 
L 96.670969 13.161695 
L 96.996378 13.161695 
L 96.996378 12.288891 
L 97.4338 12.288891 
L 97.4338 13.286381 
L 97.815936 13.286381 
L 97.815936 12.538263 
L 98.097226 12.538263 
L 98.097226 12.787636 
L 98.520781 12.787636 
L 98.520781 12.538263 
L 98.837907 12.538263 
L 98.837907 12.413577 
L 99.197712 12.413577 
L 99.197712 13.161695 
L 99.535368 13.161695 
L 99.535368 12.039518 
L 99.911381 12.288891 
L 99.911381 11.665459 
L 100.641798 12.039518 
L 100.641798 12.787636 
L 100.989178 12.787636 
L 100.989178 12.413577 
L 101.355286 12.413577 
L 101.355286 12.288891 
L 101.697444 12.288891 
L 101.697444 11.540773 
L 102.077779 11.540773 
L 102.077779 12.164204 
L 102.461176 12.164204 
L 102.461176 12.912322 
L 102.802793 12.912322 
L 102.802793 12.039518 
L 103.162599 12.039518 
L 103.162599 12.66295 
L 103.51214 12.66295 
L 103.51214 13.286381 
L 103.873026 13.286381 
L 103.873026 11.665459 
L 104.220766 11.665459 
L 104.220766 12.912322 
L 104.574089 12.912322 
L 104.574089 11.790146 
L 104.920028 11.790146 
L 104.920028 11.540773 
L 105.309368 12.413577 
L 105.309368 11.665459 
L 105.680879 11.665459 
L 105.680879 11.914832 
L 106.026818 11.914832 
L 106.026818 10.917341 
L 106.385903 10.917341 
L 106.385903 11.790146 
L 106.74679 11.790146 
L 106.74679 11.166714 
L 107.115059 11.166714 
L 107.115059 11.540773 
L 107.459378 11.540773 
L 107.459378 11.665459 
L 107.842775 11.665459 
L 107.842775 10.667969 
L 108.149996 10.667969 
L 108.149996 11.2914 
L 108.555363 11.2914 
L 108.555363 11.540773 
L 108.900582 11.540773 
L 108.900582 11.166714 
L 109.230854 11.166714 
L 109.230854 12.039518 
L 110.683583 10.792655 
L 110.683583 12.538263 
L 111.027902 12.538263 
L 111.027902 10.917341 
L 111.442453 10.917341 
L 111.442453 11.665459 
L 111.796136 11.665459 
L 111.796136 10.667969 
L 112.183314 10.667969 
L 112.183314 10.418596 
L 112.485853 10.418596 
L 112.485853 10.667969 
L 112.875913 10.667969 
L 112.875913 9.919851 
L 113.189617 9.919851 
L 113.189617 9.670478 
L 113.578416 9.670478 
L 113.578416 10.29391 
L 113.972978 10.29391 
L 113.972978 10.792655 
L 114.292085 10.792655 
L 114.292085 11.2914 
L 114.678543 11.2914 
L 114.678543 10.418596 
L 115.071844 10.792655 
L 115.071844 9.919851 
L 115.772547 11.665459 
L 115.772547 11.166714 
L 116.086612 11.166714 
L 116.086612 11.042028 
L 116.461364 11.042028 
L 116.461364 10.543282 
L 116.817208 10.543282 
L 116.817208 10.044537 
L 117.175573 10.044537 
L 117.175573 10.418596 
L 117.576258 10.418596 
L 117.576258 12.413577 
L 117.88474 12.413577 
L 117.88474 10.418596 
L 118.247607 10.418596 
L 118.247607 10.792655 
L 118.618578 10.792655 
L 118.618578 10.543282 
L 118.987208 10.543282 
L 118.987208 10.418596 
L 119.414905 10.667969 
L 119.414905 10.169224 
L 119.701777 10.169224 
L 119.701777 11.416087 
L 120.075449 11.416087 
L 120.075449 10.044537 
L 120.439937 10.044537 
L 120.439937 10.418596 
L 120.778493 10.418596 
L 120.778493 10.667969 
L 121.185841 10.667969 
L 121.185841 10.044537 
L 121.486579 10.044537 
L 121.486579 10.792655 
L 121.893567 10.792655 
L 121.893567 9.670478 
L 122.242927 9.670478 
L 122.242927 10.792655 
L 122.570678 10.792655 
L 122.570678 10.044537 
L 122.948853 10.044537 
L 122.948853 10.169224 
L 123.303616 10.169224 
L 123.303616 10.044537 
L 123.66018 9.795165 
L 123.66018 10.169224 
L 124.061765 10.169224 
L 124.061765 10.418596 
L 124.362504 10.418596 
L 124.362504 10.29391 
L 124.774894 10.29391 
L 124.774894 10.418596 
L 125.11345 10.418596 
L 125.11345 10.29391 
L 125.538445 10.29391 
L 125.538445 10.667969 
L 125.902213 10.667969 
L 125.902213 10.29391 
L 126.208354 10.29391 
L 126.208354 10.667969 
L 126.572122 10.667969 
L 126.572122 10.917341 
L 127.004321 10.543282 
L 128.733117 11.2914 
L 128.733117 10.667969 
L 129.494868 10.667969 
L 129.494868 11.166714 
L 129.799208 11.166714 
L 129.799208 11.042028 
L 130.17198 11.042028 
L 130.17198 11.2914 
L 130.521341 11.2914 
L 130.521341 10.667969 
L 130.921125 10.418596 
L 130.921125 10.169224 
L 131.58383 10.169224 
L 131.58383 9.919851 
L 131.990818 9.919851 
L 131.990818 10.29391 
L 132.304162 10.29391 
L 132.304162 10.044537 
L 132.71295 10.044537 
L 132.71295 9.919851 
L 133.413473 9.919851 
L 133.413473 10.044537 
L 134.094186 10.044537 
L 134.094186 10.29391 
L 134.466958 10.29391 
L 134.466958 9.919851 
L 134.884751 9.919851 
L 134.884751 10.044537 
L 135.574468 10.543282 
L 135.574468 10.543282 
L 135.92563 10.543282 
L 135.92563 10.169224 
L 136.283995 10.169224 
L 136.283995 10.29391 
L 136.645962 10.29391 
L 136.645962 10.543282 
L 137.043945 10.543282 
L 137.043945 10.169224 
L 137.368094 10.169224 
L 137.368094 10.29391 
L 138.432385 10.29391 
L 138.432385 10.543282 
L 138.796152 10.543282 
L 138.796152 10.667969 
L 139.122102 10.667969 
L 139.122102 10.543282 
L 139.887455 10.543282 
L 139.887455 10.667969 
L 140.208003 10.667969 
L 140.208003 10.543282 
L 141.31011 10.543282 
L 141.31011 10.418596 
L 141.682882 10.418596 
L 141.682882 10.543282 
L 142.030442 10.543282 
L 142.030442 10.418596 
L 142.757977 10.418596 
L 142.757977 10.29391 
L 144.906367 10.29391 
L 144.906367 10.418596 
L 145.270134 10.418596 
L 145.270134 10.418596 
L 147.789495 10.792655 
L 147.789495 10.792655 
L 149.307594 10.792655 
L 149.307594 10.667969 
L 150.312457 10.667969 
L 150.312457 10.792655 
L 150.678025 10.792655 
L 150.678025 10.917341 
L 151.070606 11.042028 
L 151.070606 11.166714 
L 151.781934 11.166714 
L 151.781934 11.2914 
L 152.855228 11.2914 
L 152.855228 11.416087 
L 153.188382 11.416087 
L 153.188382 11.2914 
L 154.675867 11.2914 
L 154.675867 11.2914 
L 155.736555 11.416087 
L 155.736555 11.416087 
L 156.458688 11.416087 
L 156.458688 11.540773 
L 157.524779 11.540773 
L 157.524779 11.416087 
L 158.223501 11.416087 
L 158.223501 11.540773 
L 159.322007 11.540773 
L 159.322007 11.665459 
L 160.123376 11.665459 
L 160.123376 11.540773 
L 160.777077 11.540773 
L 160.777077 11.665459 
L 162.235749 11.665459 
L 162.235749 11.790146 
L 162.923666 11.790146 
L 162.923666 11.914832 
L 163.36667 11.914832 
L 163.36667 12.039518 
L 164.731699 12.538263 
L 164.731699 12.66295 
L 165.120678 12.66295 
L 165.120678 12.912322 
L 165.446628 12.912322 
L 165.446628 13.037009 
L 165.8194 13.037009 
L 165.8194 13.161695 
L 166.204777 13.161695 
L 166.204777 13.286381 
L 166.525325 13.286381 
L 166.525325 13.411067 
L 166.912503 13.411067 
L 166.912503 13.411067 
L 167.602221 13.535754 
L 167.602221 13.535754 
L 170.157598 13.535754 
L 170.157598 13.66044 
L 170.519565 13.66044 
L 170.519565 13.785126 
L 170.836511 13.785126 
L 170.836511 14.034499 
L 171.243498 14.408558 
L 171.243498 14.782617 
L 171.621672 14.782617 
L 171.621672 15.156676 
L 172.044867 15.156676 
L 172.044867 15.655421 
L 172.313191 15.655421 
L 172.313191 16.278853 
L 172.653548 16.278853 
L 172.653548 17.02697 
L 173.026319 17.02697 
L 173.026319 17.899774 
L 173.413498 17.899774 
L 173.413498 19.021951 
L 173.770062 19.021951 
L 173.770062 20.642873 
L 174.121224 20.642873 
L 174.121224 22.637854 
L 174.493995 25.006894 
L 174.493995 26.004384 
L 174.848759 26.004384 
L 174.848759 27.126561 
L 175.207124 27.126561 
L 175.207124 30.617778 
L 175.556485 30.617778 
L 175.556485 38.847074 
L 193.905136 38.847074 
L 193.905136 38.847074 
L 194.627269 38.720096 
L 194.627269 38.847074 
L 210.127009 38.847074 
L 210.127009 38.847074 
" style="fill:none;stroke:#1f77b4;stroke-linecap:square;"/>
   </g>
   <g id="line2d_16">
    <path clip-path="url(#pb078725733)" d="M 31.103667 19.738399 
L 31.484362 21.495852 
L 31.824359 21.012319 
L 32.232607 21.012693 
L 32.575305 21.18264 
L 32.915302 20.254226 
L 33.251696 21.325531 
L 33.640676 20.292255 
L 33.987696 22.119408 
L 34.377215 21.65171 
L 34.729637 20.803843 
L 35.053967 22.49434 
L 35.424037 21.501214 
L 35.808694 21.463434 
L 36.141127 22.828375 
L 36.504535 21.780012 
L 36.883609 22.317535 
L 38.31743 22.259182 
L 38.700646 21.298598 
L 39.40405 20.674793 
L 40.449612 18.856991 
L 40.828326 17.643045 
L 41.52993 20.60634 
L 41.937817 18.821456 
L 42.314551 18.094909 
L 42.642302 18.612232 
L 42.98626 18.572582 
L 43.337962 19.445261 
L 43.737026 16.59568 
L 44.068019 19.226936 
L 44.448714 18.663852 
L 44.797175 19.190776 
L 45.151758 19.255115 
L 45.513184 19.812338 
L 46.963212 20.004105 
L 47.683544 19.998245 
L 48.077926 18.429941 
L 48.378484 19.948745 
L 48.789794 17.235446 
L 49.15068 19.743636 
L 50.206326 19.602117 
L 50.525973 19.724933 
L 51.277099 19.716329 
L 51.633844 19.81533 
L 53.061001 19.596256 
L 53.807265 19.689896 
L 56.317981 19.290401 
L 56.676346 19.13155 
L 57.022106 19.126937 
L 57.778634 18.697517 
L 58.126734 18.777815 
L 59.295113 18.364356 
L 59.537144 18.37645 
L 61.009322 17.958626 
L 61.736137 17.690052 
L 62.146366 17.808504 
L 62.881825 17.520853 
L 64.230106 17.371853 
L 64.598916 17.459133 
L 64.983933 17.294173 
L 65.662486 17.480704 
L 66.075416 16.907022 
L 66.40983 16.747673 
L 66.760271 16.762261 
L 67.10495 16.626104 
L 67.858417 16.549297 
L 68.227227 16.514011 
L 68.543272 16.880339 
L 68.941796 16.207033 
L 69.268106 16.101549 
L 69.691841 16.420122 
L 70.007167 16.036338 
L 70.38246 15.995191 
L 70.77396 15.832725 
L 71.137908 16.223242 
L 71.480065 15.705545 
L 71.878769 15.889333 
L 72.183829 15.448816 
L 72.555701 15.931227 
L 72.916227 15.750806 
L 73.26991 15.946688 
L 74.343744 15.853423 
L 74.701209 16.027485 
L 75.057413 15.152935 
L 75.439909 15.898933 
L 75.76694 15.184481 
L 76.208503 15.120018 
L 76.508701 14.873014 
L 76.910106 15.192461 
L 77.189235 14.944086 
L 77.620534 14.37988 
L 77.992585 15.686219 
L 78.333842 14.023402 
L 78.686805 14.952066 
L 79.344468 15.4947 
L 79.786751 14.557932 
L 80.098475 14.827629 
L 80.525992 14.216167 
L 80.821688 14.650948 
L 81.561109 14.225643 
L 81.923436 15.017651 
L 82.25947 13.858816 
L 83.332044 14.04622 
L 83.705717 14.285493 
L 84.1046 15.015905 
L 84.467107 14.220531 
L 84.775589 14.186118 
L 85.095777 13.613932 
L 85.4925 13.969413 
L 85.834117 14.873264 
L 86.246147 14.381002 
L 86.593347 14.537484 
L 86.955133 14.457435 
L 87.270819 13.377652 
L 87.658357 13.845599 
L 88.019964 13.993851 
L 88.37995 14.910296 
L 88.752001 13.765426 
L 89.103163 13.627648 
L 89.449102 14.313298 
L 89.862212 14.403446 
L 90.184741 13.782882 
L 90.534642 14.316415 
L 90.922901 13.01444 
L 91.250832 14.062179 
L 91.997996 14.079511 
L 92.325747 14.012928 
L 92.684472 12.611828 
L 93.421192 12.47218 
L 93.772534 13.04449 
L 94.140263 12.800853 
L 94.511054 13.59498 
L 94.887607 13.865175 
L 95.236608 12.997857 
L 95.594253 14.252949 
L 95.963963 13.349472 
L 96.286131 13.321418 
L 96.670969 13.141496 
L 96.996378 12.279789 
L 97.4338 13.25122 
L 97.815936 12.551355 
L 98.097226 12.777038 
L 98.837907 12.35485 
L 99.197712 13.178403 
L 99.535368 11.996751 
L 99.911381 11.613216 
L 100.23409 11.558354 
L 100.641798 12.762075 
L 100.989178 12.388515 
L 101.355286 12.269564 
L 101.697444 11.513716 
L 102.461176 12.922172 
L 102.802793 12.053982 
L 103.51214 13.28476 
L 103.873026 11.672068 
L 104.220766 12.92928 
L 104.574089 11.741892 
L 104.920028 11.461722 
L 105.309368 11.600498 
L 105.680879 11.887775 
L 106.026818 10.892279 
L 106.385903 11.791268 
L 106.74679 11.188659 
L 107.459378 11.658976 
L 107.842775 10.614603 
L 108.149996 11.259979 
L 108.555363 11.513841 
L 108.900582 11.096142 
L 109.230854 12.013459 
L 110.386086 11.937774 
L 110.683583 12.510832 
L 111.027902 10.905496 
L 111.442453 11.653614 
L 111.796136 10.663854 
L 112.183314 10.403883 
L 112.485853 10.620713 
L 112.875913 9.907632 
L 113.189617 9.608634 
L 113.972978 10.761982 
L 114.292085 11.229307 
L 114.678543 10.395155 
L 115.071844 9.887807 
L 115.369161 9.840675 
L 115.772547 11.141153 
L 116.086612 11.004746 
L 116.817208 10.010747 
L 117.175573 10.404257 
L 117.576258 12.428664 
L 117.88474 10.393285 
L 118.247607 10.737918 
L 119.414905 10.129449 
L 119.701777 11.381174 
L 120.075449 10.026084 
L 120.778493 10.636049 
L 121.185841 10.040423 
L 121.486579 10.767468 
L 121.893567 9.653646 
L 122.242927 10.796396 
L 122.570678 10.067978 
L 122.948853 10.1787 
L 123.303616 9.995286 
L 124.061765 10.41922 
L 124.362504 10.238799 
L 124.774894 10.360617 
L 125.11345 10.304134 
L 125.538445 10.658368 
L 125.902213 10.319471 
L 126.572122 10.874449 
L 127.004321 10.535926 
L 127.634611 10.453508 
L 128.385557 10.447897 
L 128.733117 10.634428 
L 129.093283 10.634802 
L 129.494868 11.166589 
L 129.799208 11.035793 
L 130.17198 11.314592 
L 130.521341 10.642034 
L 130.921125 10.167977 
L 131.256079 10.137429 
L 131.58383 9.924963 
L 131.990818 10.31386 
L 132.304162 10.022343 
L 132.71295 9.889303 
L 133.791647 10.003266 
L 134.094186 10.298399 
L 134.466958 9.900026 
L 135.221506 10.050522 
L 135.574468 10.515976 
L 135.92563 10.135808 
L 136.283995 10.266853 
L 136.645962 10.556 
L 137.043945 10.192789 
L 137.708451 10.253512 
L 138.432385 10.512485 
L 138.796152 10.662109 
L 139.122102 10.545153 
L 139.514683 10.547522 
L 139.887455 10.663605 
L 140.208003 10.52458 
L 140.993164 10.570589 
L 141.31011 10.436052 
L 141.682882 10.534928 
L 142.757977 10.33144 
L 146.39025 10.406128 
L 146.718001 10.669839 
L 147.40952 10.809986 
L 148.884399 10.786171 
L 149.95049 10.662981 
L 151.416365 11.206489 
L 151.781934 11.30549 
L 152.466249 11.306363 
L 152.855228 11.419453 
L 153.188382 11.296014 
L 154.98741 11.343769 
L 155.736555 11.515586 
L 156.085916 11.506235 
L 156.458688 11.687279 
L 156.85487 11.736904 
L 157.177219 11.238284 
L 157.524779 11.454116 
L 157.899351 11.426186 
L 158.223501 11.555112 
L 158.990654 11.509726 
L 159.322007 11.645759 
L 159.756007 11.656856 
L 160.389899 11.499003 
L 160.777077 11.690272 
L 162.594114 11.786904 
L 163.36667 12.033533 
L 164.016769 11.987773 
L 164.385939 12.054231 
L 164.731699 12.617564 
L 165.120678 12.961573 
L 166.525325 13.385881 
L 166.912503 13.39436 
L 167.602221 13.733132 
L 167.989399 13.769915 
L 168.369374 13.431017 
L 170.519565 13.619917 
L 170.836511 13.908316 
L 171.243498 14.67389 
L 172.044867 15.532979 
L 173.413498 18.956491 
L 174.121224 22.669524 
L 174.493995 26.178696 
L 174.848759 27.4588 
L 175.556485 34.771515 
L 179.15094 43.644878 
L 179.476891 44.613142 
L 179.840658 49.702438 
L 180.21343 49.115988 
L 180.976981 49.350187 
L 181.331745 49.39359 
L 181.700915 49.128482 
L 182.397836 48.381786 
L 182.743595 48.239793 
L 183.141579 47.842131 
L 183.517952 47.648805 
L 183.824093 47.684166 
L 184.542624 48.174732 
L 185.632126 49.829406 
L 185.999495 50.534545 
L 187.820134 55.868126 
L 188.187503 56.85614 
L 188.934847 57.781313 
L 189.246391 57.342542 
L 189.586747 57.266358 
L 189.973926 56.038447 
L 191.736938 48.58086 
L 192.478879 45.226025 
L 194.295916 38.120458 
L 194.627269 37.219007 
L 195.682555 32.856533 
L 196.806273 29.165469 
L 197.483385 27.365622 
L 198.205517 25.363372 
L 199.680397 22.436361 
L 200.748289 20.710453 
L 201.83599 18.887789 
L 202.932695 17.152155 
L 203.602603 15.641955 
L 204.002387 14.269657 
L 204.364354 11.582792 
L 204.710113 15.699435 
L 205.037864 16.723484 
L 205.797814 17.725463 
L 206.518146 18.244657 
L 207.22047 18.530687 
L 209.015897 18.872951 
L 209.39227 19.004745 
L 210.127009 19.425311 
L 210.127009 19.425311 
" style="fill:none;stroke:#ff7f0e;stroke-linecap:square;"/>
   </g>
   <g id="patch_3">
    <path d="M 22.1525 60.189947 
L 22.1525 7.2 
" style="fill:none;stroke:#000000;stroke-linecap:square;stroke-linejoin:miter;stroke-width:0.3;"/>
   </g>
   <g id="patch_4">
    <path d="M 219.078176 60.189947 
L 219.078176 7.2 
" style="fill:none;stroke:#000000;stroke-linecap:square;stroke-linejoin:miter;stroke-width:0.3;"/>
   </g>
   <g id="patch_5">
    <path d="M 22.1525 60.189947 
L 219.078176 60.189947 
" style="fill:none;stroke:#000000;stroke-linecap:square;stroke-linejoin:miter;stroke-width:0.3;"/>
   </g>
   <g id="patch_6">
    <path d="M 22.1525 7.2 
L 219.078176 7.2 
" style="fill:none;stroke:#000000;stroke-linecap:square;stroke-linejoin:miter;stroke-width:0.3;"/>
   </g>
  </g>
  <g id="axes_2">
   <g id="patch_7">
    <path d="M 22.1525 134.375872 
L 219.078176 134.375872 
L 219.078176 81.385925 
L 22.1525 81.385925 
z
" style="fill:#ffffff;"/>
   </g>
   <g id="matplotlib.axis_3">
    <g id="xtick_6">
     <g id="line2d_17">
      <path clip-path="url(#p3311a2e14c)" d="M 48.763682 134.375872 
L 48.763682 81.385925 
" style="fill:none;opacity:0.1;stroke:#b0b0b0;stroke-linecap:square;stroke-width:0.1;"/>
     </g>
     <g id="line2d_18">
      <g>
       <use style="stroke:#000000;stroke-width:0.3;" x="48.763682" xlink:href="#m998c993c02" y="134.375872"/>
      </g>
     </g>
     <g id="text_8">
      <!-- 6 -->
      <g transform="translate(46.854932 142.434934)scale(0.06 -0.06)">
       <use xlink:href="#DejaVuSans-36"/>
      </g>
     </g>
    </g>
    <g id="xtick_7">
     <g id="line2d_19">
      <path clip-path="url(#p3311a2e14c)" d="M 84.780272 134.375872 
L 84.780272 81.385925 
" style="fill:none;opacity:0.1;stroke:#b0b0b0;stroke-linecap:square;stroke-width:0.1;"/>
     </g>
     <g id="line2d_20">
      <g>
       <use style="stroke:#000000;stroke-width:0.3;" x="84.780272" xlink:href="#m998c993c02" y="134.375872"/>
      </g>
     </g>
     <g id="text_9">
      <!-- 8 -->
      <g transform="translate(82.871522 142.434934)scale(0.06 -0.06)">
       <use xlink:href="#DejaVuSans-38"/>
      </g>
     </g>
    </g>
    <g id="xtick_8">
     <g id="line2d_21">
      <path clip-path="url(#p3311a2e14c)" d="M 120.796861 134.375872 
L 120.796861 81.385925 
" style="fill:none;opacity:0.1;stroke:#b0b0b0;stroke-linecap:square;stroke-width:0.1;"/>
     </g>
     <g id="line2d_22">
      <g>
       <use style="stroke:#000000;stroke-width:0.3;" x="120.796861" xlink:href="#m998c993c02" y="134.375872"/>
      </g>
     </g>
     <g id="text_10">
      <!-- 10 -->
      <g transform="translate(116.979361 142.434934)scale(0.06 -0.06)">
       <use xlink:href="#DejaVuSans-31"/>
       <use x="63.623047" xlink:href="#DejaVuSans-30"/>
      </g>
     </g>
    </g>
    <g id="xtick_9">
     <g id="line2d_23">
      <path clip-path="url(#p3311a2e14c)" d="M 156.813451 134.375872 
L 156.813451 81.385925 
" style="fill:none;opacity:0.1;stroke:#b0b0b0;stroke-linecap:square;stroke-width:0.1;"/>
     </g>
     <g id="line2d_24">
      <g>
       <use style="stroke:#000000;stroke-width:0.3;" x="156.813451" xlink:href="#m998c993c02" y="134.375872"/>
      </g>
     </g>
     <g id="text_11">
      <!-- 12 -->
      <g transform="translate(152.995951 142.434934)scale(0.06 -0.06)">
       <use xlink:href="#DejaVuSans-31"/>
       <use x="63.623047" xlink:href="#DejaVuSans-32"/>
      </g>
     </g>
    </g>
    <g id="xtick_10">
     <g id="line2d_25">
      <path clip-path="url(#p3311a2e14c)" d="M 192.830041 134.375872 
L 192.830041 81.385925 
" style="fill:none;opacity:0.1;stroke:#b0b0b0;stroke-linecap:square;stroke-width:0.1;"/>
     </g>
     <g id="line2d_26">
      <g>
       <use style="stroke:#000000;stroke-width:0.3;" x="192.830041" xlink:href="#m998c993c02" y="134.375872"/>
      </g>
     </g>
     <g id="text_12">
      <!-- 14 -->
      <g transform="translate(189.012541 142.434934)scale(0.06 -0.06)">
       <use xlink:href="#DejaVuSans-31"/>
       <use x="63.623047" xlink:href="#DejaVuSans-34"/>
      </g>
     </g>
    </g>
   </g>
   <g id="matplotlib.axis_4">
    <g id="ytick_3">
     <g id="line2d_27">
      <path clip-path="url(#p3311a2e14c)" d="M 22.1525 131.858801 
L 219.078176 131.858801 
" style="fill:none;opacity:0.1;stroke:#b0b0b0;stroke-linecap:square;stroke-width:0.1;"/>
     </g>
     <g id="line2d_28">
      <g>
       <use style="stroke:#000000;stroke-width:0.3;" x="22.1525" xlink:href="#m23110196dc" y="131.858801"/>
      </g>
     </g>
     <g id="text_13">
      <!-- 0 -->
      <g transform="translate(14.835 134.138333)scale(0.06 -0.06)">
       <use xlink:href="#DejaVuSans-30"/>
      </g>
     </g>
    </g>
    <g id="ytick_4">
     <g id="line2d_29">
      <path clip-path="url(#p3311a2e14c)" d="M 22.1525 110.17151 
L 219.078176 110.17151 
" style="fill:none;opacity:0.1;stroke:#b0b0b0;stroke-linecap:square;stroke-width:0.1;"/>
     </g>
     <g id="line2d_30">
      <g>
       <use style="stroke:#000000;stroke-width:0.3;" x="22.1525" xlink:href="#m23110196dc" y="110.17151"/>
      </g>
     </g>
     <g id="text_14">
      <!-- 200 -->
      <g transform="translate(7.2 112.451041)scale(0.06 -0.06)">
       <use xlink:href="#DejaVuSans-32"/>
       <use x="63.623047" xlink:href="#DejaVuSans-30"/>
       <use x="127.246094" xlink:href="#DejaVuSans-30"/>
      </g>
     </g>
    </g>
    <g id="ytick_5">
     <g id="line2d_31">
      <path clip-path="url(#p3311a2e14c)" d="M 22.1525 88.484219 
L 219.078176 88.484219 
" style="fill:none;opacity:0.1;stroke:#b0b0b0;stroke-linecap:square;stroke-width:0.1;"/>
     </g>
     <g id="line2d_32">
      <g>
       <use style="stroke:#000000;stroke-width:0.3;" x="22.1525" xlink:href="#m23110196dc" y="88.484219"/>
      </g>
     </g>
     <g id="text_15">
      <!-- 400 -->
      <g transform="translate(7.2 90.76375)scale(0.06 -0.06)">
       <use xlink:href="#DejaVuSans-34"/>
       <use x="63.623047" xlink:href="#DejaVuSans-30"/>
       <use x="127.246094" xlink:href="#DejaVuSans-30"/>
      </g>
     </g>
    </g>
   </g>
   <g id="line2d_33">
    <path clip-path="url(#p3311a2e14c)" d="M 31.103667 99.110992 
L 31.103667 98.568809 
L 31.484362 99.219428 
L 31.484362 99.544738 
L 31.824359 99.544738 
L 31.824359 99.327865 
L 32.915302 99.327865 
L 32.915302 98.677246 
L 33.251696 98.677246 
L 33.251696 99.219428 
L 33.640676 99.219428 
L 33.640676 98.568809 
L 33.987696 98.568809 
L 33.987696 99.436301 
L 34.377215 99.436301 
L 34.377215 99.110992 
L 34.729637 99.110992 
L 34.729637 98.460373 
L 35.053967 98.460373 
L 35.053967 99.436301 
L 35.424037 99.436301 
L 35.424037 98.677246 
L 36.141127 98.677246 
L 36.141127 99.327865 
L 36.504535 99.327865 
L 36.504535 98.568809 
L 36.883609 98.568809 
L 36.883609 98.785682 
L 38.700646 99.436301 
L 38.700646 100.737539 
L 39.027497 100.737539 
L 39.027497 101.713467 
L 39.40405 101.713467 
L 39.40405 102.147212 
L 40.828326 102.038776 
L 40.828326 101.496594 
L 41.224869 101.496594 
L 41.224869 103.231577 
L 41.52993 103.231577 
L 41.52993 104.315942 
L 41.937817 104.315942 
L 41.937817 103.340013 
L 42.314551 103.340013 
L 42.314551 103.123141 
L 42.642302 103.123141 
L 42.642302 103.773759 
L 43.337962 103.773759 
L 43.337962 105.183433 
L 43.737026 105.183433 
L 43.737026 103.231577 
L 44.068019 103.231577 
L 44.068019 105.508743 
L 44.448714 105.508743 
L 44.448714 105.29187 
L 44.797175 105.29187 
L 44.797175 105.834052 
L 45.151758 105.834052 
L 45.151758 106.050925 
L 45.513184 106.050925 
L 45.513184 106.593107 
L 46.231175 106.701544 
L 46.231175 106.80998 
L 46.963212 106.918417 
L 46.963212 107.026853 
L 48.077926 107.135289 
L 48.077926 106.050925 
L 48.378484 106.050925 
L 48.378484 107.135289 
L 48.789794 107.135289 
L 48.789794 105.29187 
L 49.15068 105.29187 
L 49.15068 107.135289 
L 50.525973 107.026853 
L 50.525973 106.918417 
L 50.969518 106.918417 
L 50.969518 106.80998 
L 51.633844 106.159361 
L 51.633844 106.593107 
L 52.427109 106.484671 
L 52.427109 106.376234 
L 53.061001 106.376234 
L 53.061001 106.159361 
L 53.807265 106.159361 
L 53.807265 105.942488 
L 54.64411 105.834052 
L 54.64411 105.617179 
L 55.242706 105.508743 
L 55.242706 105.29187 
L 56.676346 104.858124 
L 56.676346 104.641251 
L 57.410905 104.532814 
L 57.410905 104.207505 
L 57.778634 104.207505 
L 57.778634 103.990632 
L 58.552631 103.882196 
L 58.552631 103.773759 
L 63.986453 103.882196 
L 63.986453 103.990632 
L 64.598916 103.990632 
L 64.598916 103.556886 
L 64.983933 103.556886 
L 64.983933 104.207505 
L 65.363728 104.207505 
L 65.363728 103.665323 
L 65.662486 103.665323 
L 65.662486 103.123141 
L 66.075416 103.123141 
L 66.075416 104.641251 
L 67.10495 104.749687 
L 67.10495 104.858124 
L 68.227227 104.858124 
L 68.227227 104.532814 
L 68.543272 104.532814 
L 68.543272 103.773759 
L 68.941796 103.773759 
L 68.941796 105.074997 
L 69.268106 105.074997 
L 69.268106 104.96656 
L 69.691841 104.532814 
L 69.691841 104.641251 
L 70.007167 104.641251 
L 70.007167 105.074997 
L 70.38246 105.074997 
L 70.38246 104.858124 
L 70.77396 104.858124 
L 70.77396 105.508743 
L 71.137908 105.508743 
L 71.137908 104.532814 
L 71.480065 104.532814 
L 71.480065 105.725615 
L 71.878769 105.725615 
L 71.878769 104.96656 
L 72.183829 104.96656 
L 72.183829 106.267798 
L 72.555701 106.267798 
L 72.555701 105.400306 
L 72.916227 105.400306 
L 72.916227 105.617179 
L 73.26991 105.617179 
L 73.26991 105.074997 
L 75.057413 105.074997 
L 75.057413 106.593107 
L 75.439909 106.593107 
L 75.439909 105.29187 
L 75.76694 105.29187 
L 75.76694 106.593107 
L 76.208503 106.267798 
L 76.208503 106.593107 
L 76.910106 106.484671 
L 76.910106 105.942488 
L 77.189235 105.942488 
L 77.189235 106.484671 
L 77.620534 106.484671 
L 77.620534 107.135289 
L 77.992585 107.135289 
L 77.992585 105.074997 
L 78.333842 105.074997 
L 78.333842 107.894345 
L 78.686805 107.894345 
L 78.686805 106.267798 
L 79.019418 106.267798 
L 79.019418 105.834052 
L 79.344468 105.834052 
L 79.344468 105.400306 
L 79.786751 105.942488 
L 79.786751 106.593107 
L 80.525992 106.593107 
L 80.525992 107.569035 
L 80.821688 107.569035 
L 80.821688 106.484671 
L 81.205985 106.484671 
L 81.205985 107.026853 
L 81.561109 107.026853 
L 81.561109 107.352162 
L 81.923436 107.352162 
L 81.923436 106.159361 
L 82.25947 106.159361 
L 82.25947 107.026853 
L 82.604329 107.026853 
L 82.604329 108.219654 
L 82.971879 108.219654 
L 82.971879 108.002781 
L 83.332044 108.002781 
L 83.332044 108.436527 
L 83.705717 108.436527 
L 83.705717 107.894345 
L 84.1046 107.894345 
L 84.1046 107.026853 
L 84.467107 106.484671 
L 84.467107 108.436527 
L 85.095777 108.436527 
L 85.095777 109.520891 
L 85.4925 108.436527 
L 85.4925 109.087146 
L 85.834117 109.087146 
L 85.834117 107.352162 
L 86.246147 107.352162 
L 86.246147 108.002781 
L 86.593347 108.002781 
L 86.593347 107.785908 
L 87.270819 107.785908 
L 87.270819 109.304019 
L 87.658357 109.304019 
L 87.658357 108.6534 
L 88.019964 108.6534 
L 88.019964 108.111218 
L 88.37995 108.436527 
L 88.37995 106.484671 
L 88.752001 106.484671 
L 88.752001 108.436527 
L 89.103163 108.436527 
L 89.103163 108.6534 
L 89.449102 108.6534 
L 89.449102 107.569035 
L 90.184741 107.460599 
L 90.184741 108.436527 
L 90.534642 108.436527 
L 90.534642 107.677472 
L 90.922901 107.677472 
L 90.922901 109.412455 
L 91.250832 109.412455 
L 91.250832 107.677472 
L 92.684472 107.460599 
L 92.684472 109.304019 
L 93.772534 109.304019 
L 93.772534 108.870273 
L 94.140263 108.870273 
L 94.140263 109.087146 
L 94.511054 109.087146 
L 94.511054 107.677472 
L 94.887607 107.677472 
L 94.887607 107.460599 
L 95.236608 107.460599 
L 95.236608 108.978709 
L 95.594253 108.978709 
L 95.594253 107.569035 
L 95.963963 108.870273 
L 96.286131 108.870273 
L 96.286131 108.544963 
L 96.670969 108.544963 
L 96.670969 108.761836 
L 96.996378 108.761836 
L 96.996378 109.520891 
L 97.4338 109.520891 
L 97.4338 108.111218 
L 97.815936 108.111218 
L 97.815936 108.870273 
L 98.097226 108.870273 
L 98.097226 108.436527 
L 98.520781 108.436527 
L 98.520781 108.6534 
L 99.197712 108.761836 
L 99.197712 107.894345 
L 99.535368 107.894345 
L 99.535368 109.304019 
L 99.911381 109.087146 
L 99.911381 109.846201 
L 100.641798 109.412455 
L 100.641798 108.544963 
L 100.989178 108.544963 
L 100.989178 109.087146 
L 101.355286 109.087146 
L 101.355286 109.412455 
L 101.697444 109.412455 
L 101.697444 110.279947 
L 102.077779 110.279947 
L 102.077779 109.846201 
L 102.461176 109.846201 
L 102.461176 109.087146 
L 102.802793 109.087146 
L 102.802793 109.954637 
L 103.162599 109.954637 
L 103.162599 109.087146 
L 103.51214 109.087146 
L 103.51214 108.544963 
L 103.873026 108.544963 
L 103.873026 110.17151 
L 104.220766 110.17151 
L 104.220766 108.870273 
L 104.574089 108.870273 
L 104.574089 109.954637 
L 104.920028 109.954637 
L 104.920028 110.17151 
L 105.309368 108.761836 
L 105.309368 109.520891 
L 105.680879 109.520891 
L 105.680879 109.195582 
L 106.026818 109.195582 
L 106.026818 110.063074 
L 106.385903 110.063074 
L 106.385903 109.195582 
L 106.74679 109.195582 
L 106.74679 109.954637 
L 107.115059 109.954637 
L 107.115059 109.520891 
L 107.459378 109.520891 
L 107.459378 109.304019 
L 107.842775 109.304019 
L 107.842775 110.388383 
L 108.149996 110.388383 
L 108.149996 109.846201 
L 108.900582 109.846201 
L 108.900582 110.063074 
L 109.230854 110.063074 
L 109.230854 109.304019 
L 110.683583 110.388383 
L 110.683583 108.32809 
L 111.027902 108.32809 
L 111.027902 110.063074 
L 111.442453 110.063074 
L 111.442453 108.6534 
L 111.796136 108.6534 
L 111.796136 109.412455 
L 112.485853 109.412455 
L 112.485853 108.978709 
L 112.875913 108.978709 
L 112.875913 109.304019 
L 113.189617 109.304019 
L 113.189617 109.520891 
L 113.578416 109.520891 
L 113.578416 108.870273 
L 113.972978 108.870273 
L 113.972978 108.32809 
L 114.678543 108.219654 
L 114.678543 109.195582 
L 115.071844 109.195582 
L 115.071844 110.279947 
L 115.772547 108.544963 
L 115.772547 109.195582 
L 116.461364 109.304019 
L 116.461364 109.629328 
L 116.817208 109.629328 
L 116.817208 110.063074 
L 117.175573 110.063074 
L 117.175573 109.737764 
L 117.576258 109.737764 
L 117.576258 107.785908 
L 117.88474 107.785908 
L 117.88474 109.629328 
L 118.247607 109.629328 
L 118.247607 109.195582 
L 118.618578 109.195582 
L 118.618578 109.412455 
L 118.987208 109.412455 
L 118.987208 109.629328 
L 119.414905 109.412455 
L 119.414905 109.846201 
L 119.701777 109.846201 
L 119.701777 108.544963 
L 120.075449 108.544963 
L 120.075449 109.954637 
L 120.439937 109.954637 
L 120.439937 109.412455 
L 120.778493 109.412455 
L 120.778493 109.195582 
L 121.185841 109.195582 
L 121.185841 109.846201 
L 121.486579 109.846201 
L 121.486579 108.978709 
L 121.893567 108.978709 
L 121.893567 109.954637 
L 122.242927 109.954637 
L 122.242927 108.6534 
L 122.570678 108.6534 
L 122.570678 109.304019 
L 123.303616 109.304019 
L 123.303616 109.520891 
L 123.66018 109.954637 
L 123.66018 109.846201 
L 124.061765 109.846201 
L 124.061765 109.629328 
L 124.362504 109.629328 
L 124.362504 109.846201 
L 125.11345 109.737764 
L 125.11345 110.063074 
L 125.538445 110.063074 
L 125.538445 109.737764 
L 125.902213 109.737764 
L 125.902213 110.279947 
L 126.208354 110.279947 
L 126.208354 109.737764 
L 126.572122 109.737764 
L 126.572122 109.520891 
L 127.004321 109.737764 
L 127.004321 109.954637 
L 128.733117 108.870273 
L 128.733117 109.737764 
L 129.494868 109.629328 
L 129.494868 108.978709 
L 129.799208 108.978709 
L 129.799208 109.195582 
L 130.17198 109.195582 
L 130.17198 108.761836 
L 130.521341 108.761836 
L 130.521341 109.304019 
L 130.921125 109.412455 
L 130.921125 109.737764 
L 131.256079 109.737764 
L 131.256079 109.520891 
L 131.990818 109.629328 
L 131.990818 108.978709 
L 132.304162 108.978709 
L 132.304162 109.195582 
L 134.094186 109.304019 
L 134.094186 108.978709 
L 134.466958 108.978709 
L 134.466958 109.629328 
L 134.884751 109.520891 
L 135.574468 109.195582 
L 135.574468 109.304019 
L 135.92563 109.304019 
L 135.92563 109.737764 
L 136.283995 109.737764 
L 136.283995 109.520891 
L 136.645962 109.520891 
L 136.645962 109.195582 
L 137.043945 109.195582 
L 137.043945 109.629328 
L 137.708451 109.520891 
L 137.708451 109.412455 
L 138.432385 109.412455 
L 138.432385 108.978709 
L 139.887455 109.087146 
L 139.887455 109.195582 
L 140.208003 109.195582 
L 140.208003 109.412455 
L 142.030442 109.520891 
L 142.030442 109.629328 
L 145.270134 109.737764 
L 145.270134 109.846201 
L 147.40952 109.737764 
L 147.40952 109.629328 
L 149.95049 109.737764 
L 149.95049 109.846201 
L 152.466249 109.954637 
L 152.466249 110.063074 
L 154.675867 110.063074 
L 154.675867 109.954637 
L 155.736555 109.846201 
L 155.736555 109.846201 
L 157.524779 109.954637 
L 157.524779 110.063074 
L 158.223501 110.17151 
L 158.223501 110.279947 
L 159.756007 110.388383 
L 159.756007 110.49682 
L 161.533425 110.388383 
L 161.533425 110.279947 
L 162.594114 110.17151 
L 162.594114 110.063074 
L 166.204777 110.17151 
L 166.204777 110.279947 
L 166.912503 110.388383 
L 166.912503 110.605256 
L 167.602221 110.822129 
L 167.602221 111.039002 
L 168.369374 111.147438 
L 168.369374 111.255875 
L 168.682719 111.255875 
L 168.682719 111.472748 
L 169.422859 111.581184 
L 169.422859 111.798057 
L 169.763216 111.798057 
L 169.763216 112.123366 
L 170.519565 112.231803 
L 170.519565 112.340239 
L 172.044867 112.448676 
L 172.044867 112.557112 
L 173.026319 112.665549 
L 173.026319 112.773985 
L 173.770062 112.882422 
L 173.770062 113.099295 
L 174.121224 113.099295 
L 174.121224 113.316167 
L 174.493995 113.641477 
L 174.493995 113.316167 
L 174.848759 113.316167 
L 174.848759 113.099295 
L 175.207124 113.099295 
L 175.207124 112.123366 
L 175.556485 112.123366 
L 175.556485 131.967238 
L 210.127009 131.967238 
L 210.127009 131.967238 
" style="fill:none;stroke:#1f77b4;stroke-linecap:square;"/>
   </g>
   <g id="line2d_34">
    <path clip-path="url(#p3311a2e14c)" d="M 31.103667 98.669113 
L 31.484362 99.682669 
L 31.824359 99.444759 
L 32.575305 99.424698 
L 32.915302 98.710319 
L 33.251696 99.250875 
L 33.640676 98.624654 
L 33.987696 99.506026 
L 34.377215 99.186138 
L 34.729637 98.516543 
L 35.053967 99.500604 
L 35.424037 98.696222 
L 35.808694 98.705656 
L 36.141127 99.379155 
L 36.504535 98.726368 
L 38.31743 101.37547 
L 38.700646 101.181369 
L 39.027497 102.022294 
L 39.40405 102.442051 
L 40.449612 102.250878 
L 40.828326 101.698936 
L 41.52993 104.456475 
L 41.937817 103.399979 
L 42.314551 103.169985 
L 42.642302 103.85346 
L 42.98626 104.030862 
L 43.337962 105.331774 
L 43.737026 103.305422 
L 44.068019 105.612408 
L 44.448714 105.39033 
L 44.797175 105.938693 
L 45.151758 106.05266 
L 45.513184 106.596577 
L 47.683544 107.270293 
L 48.077926 106.278208 
L 48.378484 107.27051 
L 48.789794 105.466561 
L 49.15068 107.203604 
L 49.496079 107.243292 
L 49.833734 107.048866 
L 50.525973 107.00625 
L 50.969518 106.939453 
L 51.277099 107.018286 
L 51.633844 106.702086 
L 52.427109 106.436416 
L 52.698854 106.420476 
L 53.061001 106.193085 
L 53.439896 106.208158 
L 55.242706 105.322232 
L 56.317981 105.580744 
L 56.676346 104.658926 
L 57.022106 104.539971 
L 57.778634 104.057212 
L 58.552631 103.793495 
L 58.895869 103.793495 
L 59.537144 103.628238 
L 61.009322 103.680612 
L 62.146366 103.72865 
L 62.490324 103.704902 
L 63.198411 103.860292 
L 63.509594 103.863762 
L 64.230106 104.027826 
L 64.598916 103.617502 
L 64.983933 104.180179 
L 65.662486 103.153069 
L 66.075416 104.60178 
L 66.40983 104.749362 
L 67.858417 104.872437 
L 68.227227 104.537369 
L 68.543272 103.806073 
L 68.941796 105.100046 
L 69.268106 104.950729 
L 69.691841 104.548538 
L 70.007167 105.061876 
L 70.38246 104.799243 
L 70.77396 105.433054 
L 71.137908 104.53726 
L 71.480065 105.75305 
L 71.878769 104.95615 
L 72.183829 106.22323 
L 72.555701 105.382848 
L 72.916227 105.572829 
L 73.26991 105.071527 
L 73.949002 104.998007 
L 74.701209 105.046261 
L 75.057413 106.596143 
L 75.439909 105.358016 
L 75.76694 106.637024 
L 76.508701 106.567841 
L 76.910106 105.96526 
L 77.620534 107.176062 
L 77.992585 105.077274 
L 78.333842 107.906381 
L 78.686805 106.225941 
L 79.344468 105.35357 
L 79.786751 106.509069 
L 80.098475 106.597119 
L 80.525992 107.598205 
L 80.821688 106.513081 
L 81.205985 107.071529 
L 81.561109 107.361922 
L 81.923436 106.160229 
L 82.604329 108.149062 
L 82.971879 107.999636 
L 83.332044 108.458323 
L 83.705717 107.887296 
L 84.1046 106.945634 
L 84.467107 108.487926 
L 84.775589 108.493131 
L 85.095777 109.588664 
L 85.4925 109.243077 
L 85.834117 107.414188 
L 86.246147 108.02089 
L 86.593347 107.77051 
L 86.955133 107.816053 
L 87.270819 109.3719 
L 88.019964 108.149929 
L 88.37995 106.444549 
L 88.752001 108.406382 
L 89.103163 108.597772 
L 89.449102 107.533468 
L 89.862212 107.416248 
L 90.184741 108.501155 
L 90.534642 107.699918 
L 90.922901 109.435877 
L 91.250832 107.715208 
L 92.325747 107.810089 
L 92.684472 109.297621 
L 93.421192 109.315621 
L 93.772534 108.836766 
L 94.140263 109.066976 
L 94.511054 107.627266 
L 94.887607 107.324294 
L 95.236608 108.938154 
L 95.594253 107.640603 
L 95.963963 108.935877 
L 96.286131 108.591266 
L 96.670969 108.826248 
L 96.996378 109.625966 
L 97.4338 108.19775 
L 97.815936 108.895864 
L 98.097226 108.431214 
L 98.837907 108.755222 
L 99.197712 107.883284 
L 99.535368 109.322236 
L 99.911381 109.825164 
L 100.23409 109.827441 
L 100.641798 108.514059 
L 100.989178 109.038241 
L 101.355286 109.360189 
L 101.697444 110.243729 
L 102.077779 109.832755 
L 102.461176 109.118809 
L 102.802793 109.975457 
L 103.162599 109.083676 
L 103.51214 108.529999 
L 103.873026 110.183872 
L 104.220766 108.882309 
L 104.574089 110.077496 
L 104.920028 110.256308 
L 105.680879 109.196558 
L 106.026818 110.048977 
L 106.385903 109.138219 
L 106.74679 109.88925 
L 107.459378 109.230499 
L 107.842775 110.353033 
L 108.149996 109.82061 
L 108.555363 109.851948 
L 108.900582 110.047784 
L 109.230854 109.271054 
L 110.386086 109.221607 
L 110.683583 108.396189 
L 111.027902 110.144401 
L 111.442453 108.828416 
L 111.796136 109.534446 
L 112.183314 109.540302 
L 112.485853 109.050494 
L 113.189617 109.478493 
L 113.972978 108.159689 
L 114.292085 108.067192 
L 115.071844 110.20762 
L 115.369161 110.207945 
L 115.772547 109.23592 
L 116.461364 109.620545 
L 116.817208 110.076737 
L 117.175573 109.777561 
L 117.576258 107.830259 
L 117.88474 109.64581 
L 118.247607 109.152099 
L 118.987208 109.698836 
L 119.414905 109.87331 
L 119.701777 108.544421 
L 120.075449 109.93436 
L 120.439937 109.40378 
L 120.778493 109.2228 
L 121.185841 109.9413 
L 121.486579 109.078471 
L 121.893567 110.002783 
L 122.242927 108.658063 
L 122.570678 109.266283 
L 122.948853 109.19016 
L 123.66018 109.843056 
L 124.061765 109.594195 
L 124.362504 109.831453 
L 124.774894 109.69298 
L 125.11345 109.999096 
L 125.538445 109.657196 
L 125.902213 110.243295 
L 126.208354 109.747198 
L 126.572122 109.545398 
L 127.004321 109.989771 
L 128.385557 110.139955 
L 128.733117 109.797621 
L 129.093283 109.670208 
L 129.494868 109.026747 
L 129.799208 109.262271 
L 130.17198 108.865393 
L 130.921125 109.821044 
L 131.256079 109.648521 
L 131.58383 109.733535 
L 131.990818 109.052771 
L 132.304162 109.229197 
L 133.024494 109.153726 
L 133.413473 109.168907 
L 133.791647 109.313127 
L 134.094186 108.935551 
L 134.466958 109.625641 
L 135.574468 109.304127 
L 135.92563 109.749584 
L 136.645962 109.238848 
L 137.043945 109.7048 
L 138.077621 109.408226 
L 138.432385 109.018722 
L 138.796152 108.898249 
L 139.122102 109.106447 
L 139.514683 109.127159 
L 140.602384 109.465806 
L 142.030442 109.667498 
L 143.453097 109.665763 
L 144.906367 109.691462 
L 145.270134 109.833514 
L 146.39025 109.806947 
L 146.718001 109.852056 
L 147.40952 109.694607 
L 147.789495 109.809007 
L 148.520631 109.696667 
L 149.590324 109.720089 
L 149.95049 109.881443 
L 150.312457 109.813128 
L 151.416365 109.973614 
L 151.781934 109.947589 
L 152.466249 110.130196 
L 155.352979 109.951926 
L 155.736555 109.871033 
L 160.123376 110.573809 
L 160.389899 110.479903 
L 161.113832 110.482723 
L 161.826961 110.367563 
L 163.625989 110.137027 
L 164.385939 110.360949 
L 164.731699 110.094954 
L 165.120678 110.245789 
L 165.446628 110.235813 
L 166.912503 110.930349 
L 169.422859 112.259454 
L 170.157598 112.913543 
L 170.519565 112.851951 
L 171.243498 113.030112 
L 171.621672 113.195911 
L 172.044867 113.211309 
L 172.313191 113.022413 
L 173.026319 113.479906 
L 173.413498 113.759889 
L 173.770062 113.812047 
L 174.121224 114.2266 
L 174.493995 114.30077 
L 174.848759 113.975027 
L 175.207124 112.99975 
L 175.913049 113.865181 
L 177.018758 115.344688 
L 177.656252 115.717059 
L 179.476891 117.042586 
L 179.840658 120.861176 
L 180.21343 120.375814 
L 180.606011 120.126844 
L 181.700915 118.276918 
L 182.397836 116.412896 
L 182.743595 115.898365 
L 183.517952 115.366809 
L 183.824093 114.192334 
L 184.542624 110.151883 
L 185.999495 101.260744 
L 187.411345 94.056226 
L 188.934847 88.575631 
L 189.973926 85.659449 
L 190.642033 84.482263 
L 191.736938 83.794559 
L 192.801228 84.038975 
L 193.541369 84.603278 
L 193.905136 84.686015 
L 194.295916 85.120412 
L 194.627269 85.124532 
L 195.005443 85.664546 
L 195.32419 85.860707 
L 196.125559 86.642643 
L 196.806273 87.12757 
L 197.483385 87.491592 
L 197.850754 87.984761 
L 198.205517 88.24902 
L 198.567484 88.312022 
L 199.320231 88.657067 
L 200.022554 88.881747 
L 200.368313 88.921326 
L 201.463218 89.470665 
L 202.932695 89.14297 
L 204.002387 89.125187 
L 204.364354 88.984979 
L 204.710113 89.315168 
L 205.797814 89.569017 
L 207.569831 89.494305 
L 208.331582 89.483786 
L 209.39227 89.200008 
L 210.127009 88.938785 
L 210.127009 88.938785 
" style="fill:none;stroke:#ff7f0e;stroke-linecap:square;"/>
   </g>
   <g id="patch_8">
    <path d="M 22.1525 134.375872 
L 22.1525 81.385925 
" style="fill:none;stroke:#000000;stroke-linecap:square;stroke-linejoin:miter;stroke-width:0.3;"/>
   </g>
   <g id="patch_9">
    <path d="M 219.078176 134.375872 
L 219.078176 81.385925 
" style="fill:none;stroke:#000000;stroke-linecap:square;stroke-linejoin:miter;stroke-width:0.3;"/>
   </g>
   <g id="patch_10">
    <path d="M 22.1525 134.375872 
L 219.078176 134.375872 
" style="fill:none;stroke:#000000;stroke-linecap:square;stroke-linejoin:miter;stroke-width:0.3;"/>
   </g>
   <g id="patch_11">
    <path d="M 22.1525 81.385925 
L 219.078176 81.385925 
" style="fill:none;stroke:#000000;stroke-linecap:square;stroke-linejoin:miter;stroke-width:0.3;"/>
   </g>
  </g>
 </g>
 <defs>
  <clipPath id="pb078725733">
   <rect height="52.989947" width="196.925676" x="22.1525" y="7.2"/>
  </clipPath>
  <clipPath id="p3311a2e14c">
   <rect height="52.989947" width="196.925676" x="22.1525" y="81.385925"/>
  </clipPath>
 </defs>
</svg>
