<?xml version="1.0" encoding="utf-8" standalone="no"?>
<!DOCTYPE svg PUBLIC "-//W3C//DTD SVG 1.1//EN"
  "http://www.w3.org/Graphics/SVG/1.1/DTD/svg11.dtd">
<!-- Created with matplotlib (http://matplotlib.org/) -->
<svg height="159pt" version="1.1" viewBox="0 0 248 159" width="248pt" xmlns="http://www.w3.org/2000/svg" xmlns:xlink="http://www.w3.org/1999/xlink">
 <defs>
  <style type="text/css">
*{stroke-linecap:butt;stroke-linejoin:round;}
  </style>
 </defs>
 <g id="figure_1">
  <g id="patch_1">
   <path d="M 0 159.790097 
L 248.706306 159.790097 
L 248.706306 0 
L 0 0 
z
" style="fill:#ffffff;"/>
  </g>
  <g id="axes_1">
   <g id="patch_2">
    <path d="M 22.7 65.265327 
L 241.506306 65.265327 
L 241.506306 9.283125 
L 22.7 9.283125 
z
" style="fill:#ffffff;"/>
   </g>
   <g id="matplotlib.axis_1">
    <g id="xtick_1">
     <g id="line2d_1">
      <path clip-path="url(#p7344ffb19d)" d="M 32.524847 65.265327 
L 32.524847 9.283125 
" style="fill:none;opacity:0.3;stroke:#b0b0b0;stroke-linecap:square;stroke-width:0.8;"/>
     </g>
     <g id="line2d_2">
      <defs>
       <path d="M 0 0 
L 0 -3.5 
" id="m4835dcbba4" style="stroke:#000000;stroke-width:0.8;"/>
      </defs>
      <g>
       <use style="stroke:#000000;stroke-width:0.8;" x="32.524847" xlink:href="#m4835dcbba4" y="65.265327"/>
      </g>
     </g>
     <g id="text_1">
      <!-- 10 -->
      <defs>
       <path d="M 11.71875 59.71875 
L 27.828125 67.578125 
L 29.4375 67.578125 
L 29.4375 11.671875 
Q 29.4375 6.109375 29.90625 4.734375 
Q 30.375 3.375 31.828125 2.640625 
Q 33.296875 1.90625 37.796875 1.8125 
L 37.796875 0 
L 12.890625 0 
L 12.890625 1.8125 
Q 17.578125 1.90625 18.9375 2.609375 
Q 20.3125 3.328125 20.84375 4.515625 
Q 21.390625 5.71875 21.390625 11.671875 
L 21.390625 47.40625 
Q 21.390625 54.640625 20.90625 56.6875 
Q 20.5625 58.25 19.65625 58.984375 
Q 18.75 59.71875 17.484375 59.71875 
Q 15.671875 59.71875 12.453125 58.203125 
z
" id="TimesNewRomanPSMT-31"/>
       <path d="M 3.609375 32.71875 
Q 3.609375 44.046875 7.03125 52.21875 
Q 10.453125 60.40625 16.109375 64.40625 
Q 20.515625 67.578125 25.203125 67.578125 
Q 32.8125 67.578125 38.875 59.8125 
Q 46.4375 50.203125 46.4375 33.734375 
Q 46.4375 22.21875 43.109375 14.15625 
Q 39.796875 6.109375 34.640625 2.46875 
Q 29.5 -1.171875 24.703125 -1.171875 
Q 15.234375 -1.171875 8.9375 10.015625 
Q 3.609375 19.4375 3.609375 32.71875 
z
M 13.1875 31.5 
Q 13.1875 17.828125 16.546875 9.1875 
Q 19.34375 1.90625 24.859375 1.90625 
Q 27.484375 1.90625 30.3125 4.265625 
Q 33.15625 6.640625 34.625 12.203125 
Q 36.859375 20.609375 36.859375 35.890625 
Q 36.859375 47.21875 34.515625 54.78125 
Q 32.765625 60.40625 29.984375 62.75 
Q 27.984375 64.359375 25.140625 64.359375 
Q 21.828125 64.359375 19.234375 61.375 
Q 15.71875 57.328125 14.453125 48.625 
Q 13.1875 39.9375 13.1875 31.5 
z
" id="TimesNewRomanPSMT-30"/>
      </defs>
      <g transform="translate(29.524847 72.931577)scale(0.06 -0.06)">
       <use xlink:href="#TimesNewRomanPSMT-31"/>
       <use x="50" xlink:href="#TimesNewRomanPSMT-30"/>
      </g>
     </g>
    </g>
    <g id="xtick_2">
     <g id="line2d_3">
      <path clip-path="url(#p7344ffb19d)" d="M 68.720793 65.265327 
L 68.720793 9.283125 
" style="fill:none;opacity:0.3;stroke:#b0b0b0;stroke-linecap:square;stroke-width:0.8;"/>
     </g>
     <g id="line2d_4">
      <g>
       <use style="stroke:#000000;stroke-width:0.8;" x="68.720793" xlink:href="#m4835dcbba4" y="65.265327"/>
      </g>
     </g>
     <g id="text_2">
      <!-- 15 -->
      <defs>
       <path d="M 43.40625 66.21875 
L 39.59375 57.90625 
L 19.671875 57.90625 
L 15.328125 49.03125 
Q 28.265625 47.125 35.84375 39.40625 
Q 42.328125 32.765625 42.328125 23.78125 
Q 42.328125 18.5625 40.203125 14.109375 
Q 38.09375 9.671875 34.859375 6.546875 
Q 31.640625 3.421875 27.6875 1.515625 
Q 22.078125 -1.171875 16.15625 -1.171875 
Q 10.203125 -1.171875 7.484375 0.84375 
Q 4.78125 2.875 4.78125 5.328125 
Q 4.78125 6.6875 5.90625 7.734375 
Q 7.03125 8.796875 8.734375 8.796875 
Q 10.015625 8.796875 10.96875 8.40625 
Q 11.921875 8.015625 14.203125 6.390625 
Q 17.875 3.859375 21.625 3.859375 
Q 27.34375 3.859375 31.65625 8.171875 
Q 35.984375 12.5 35.984375 18.703125 
Q 35.984375 24.703125 32.125 29.90625 
Q 28.265625 35.109375 21.484375 37.9375 
Q 16.15625 40.140625 6.984375 40.484375 
L 19.671875 66.21875 
z
" id="TimesNewRomanPSMT-35"/>
      </defs>
      <g transform="translate(65.720793 72.931577)scale(0.06 -0.06)">
       <use xlink:href="#TimesNewRomanPSMT-31"/>
       <use x="50" xlink:href="#TimesNewRomanPSMT-35"/>
      </g>
     </g>
    </g>
    <g id="xtick_3">
     <g id="line2d_5">
      <path clip-path="url(#p7344ffb19d)" d="M 104.91674 65.265327 
L 104.91674 9.283125 
" style="fill:none;opacity:0.3;stroke:#b0b0b0;stroke-linecap:square;stroke-width:0.8;"/>
     </g>
     <g id="line2d_6">
      <g>
       <use style="stroke:#000000;stroke-width:0.8;" x="104.91674" xlink:href="#m4835dcbba4" y="65.265327"/>
      </g>
     </g>
     <g id="text_3">
      <!-- 20 -->
      <defs>
       <path d="M 45.84375 12.75 
L 41.21875 0 
L 2.15625 0 
L 2.15625 1.8125 
Q 19.390625 17.53125 26.421875 27.484375 
Q 33.453125 37.453125 33.453125 45.703125 
Q 33.453125 52 29.59375 56.046875 
Q 25.734375 60.109375 20.359375 60.109375 
Q 15.484375 60.109375 11.59375 57.25 
Q 7.71875 54.390625 5.859375 48.875 
L 4.046875 48.875 
Q 5.28125 57.90625 10.328125 62.734375 
Q 15.375 67.578125 22.953125 67.578125 
Q 31 67.578125 36.390625 62.40625 
Q 41.796875 57.234375 41.796875 50.203125 
Q 41.796875 45.171875 39.453125 40.140625 
Q 35.84375 32.234375 27.734375 23.390625 
Q 15.578125 10.109375 12.546875 7.375 
L 29.828125 7.375 
Q 35.109375 7.375 37.234375 7.765625 
Q 39.359375 8.15625 41.0625 9.34375 
Q 42.78125 10.546875 44.046875 12.75 
z
" id="TimesNewRomanPSMT-32"/>
      </defs>
      <g transform="translate(101.91674 72.931577)scale(0.06 -0.06)">
       <use xlink:href="#TimesNewRomanPSMT-32"/>
       <use x="50" xlink:href="#TimesNewRomanPSMT-30"/>
      </g>
     </g>
    </g>
    <g id="xtick_4">
     <g id="line2d_7">
      <path clip-path="url(#p7344ffb19d)" d="M 141.112686 65.265327 
L 141.112686 9.283125 
" style="fill:none;opacity:0.3;stroke:#b0b0b0;stroke-linecap:square;stroke-width:0.8;"/>
     </g>
     <g id="line2d_8">
      <g>
       <use style="stroke:#000000;stroke-width:0.8;" x="141.112686" xlink:href="#m4835dcbba4" y="65.265327"/>
      </g>
     </g>
     <g id="text_4">
      <!-- 25 -->
      <g transform="translate(138.112686 72.931577)scale(0.06 -0.06)">
       <use xlink:href="#TimesNewRomanPSMT-32"/>
       <use x="50" xlink:href="#TimesNewRomanPSMT-35"/>
      </g>
     </g>
    </g>
    <g id="xtick_5">
     <g id="line2d_9">
      <path clip-path="url(#p7344ffb19d)" d="M 177.308633 65.265327 
L 177.308633 9.283125 
" style="fill:none;opacity:0.3;stroke:#b0b0b0;stroke-linecap:square;stroke-width:0.8;"/>
     </g>
     <g id="line2d_10">
      <g>
       <use style="stroke:#000000;stroke-width:0.8;" x="177.308633" xlink:href="#m4835dcbba4" y="65.265327"/>
      </g>
     </g>
     <g id="text_5">
      <!-- 30 -->
      <defs>
       <path d="M 5.078125 53.609375 
Q 7.90625 60.296875 12.21875 63.9375 
Q 16.546875 67.578125 23 67.578125 
Q 30.953125 67.578125 35.203125 62.40625 
Q 38.421875 58.546875 38.421875 54.15625 
Q 38.421875 46.921875 29.34375 39.203125 
Q 35.453125 36.8125 38.578125 32.375 
Q 41.703125 27.9375 41.703125 21.921875 
Q 41.703125 13.328125 36.234375 7.03125 
Q 29.109375 -1.171875 15.578125 -1.171875 
Q 8.890625 -1.171875 6.46875 0.484375 
Q 4.046875 2.15625 4.046875 4.046875 
Q 4.046875 5.46875 5.1875 6.546875 
Q 6.34375 7.625 7.953125 7.625 
Q 9.1875 7.625 10.453125 7.234375 
Q 11.28125 6.984375 14.203125 5.4375 
Q 17.140625 3.90625 18.265625 3.609375 
Q 20.0625 3.078125 22.125 3.078125 
Q 27.09375 3.078125 30.78125 6.9375 
Q 34.46875 10.796875 34.46875 16.0625 
Q 34.46875 19.921875 32.765625 23.578125 
Q 31.5 26.3125 29.984375 27.734375 
Q 27.875 29.6875 24.21875 31.265625 
Q 20.5625 32.859375 16.75 32.859375 
L 15.1875 32.859375 
L 15.1875 34.328125 
Q 19.046875 34.8125 22.921875 37.109375 
Q 26.8125 39.40625 28.5625 42.625 
Q 30.328125 45.84375 30.328125 49.703125 
Q 30.328125 54.734375 27.171875 57.828125 
Q 24.03125 60.9375 19.34375 60.9375 
Q 11.765625 60.9375 6.6875 52.828125 
z
" id="TimesNewRomanPSMT-33"/>
      </defs>
      <g transform="translate(174.308633 72.931577)scale(0.06 -0.06)">
       <use xlink:href="#TimesNewRomanPSMT-33"/>
       <use x="50" xlink:href="#TimesNewRomanPSMT-30"/>
      </g>
     </g>
    </g>
    <g id="xtick_6">
     <g id="line2d_11">
      <path clip-path="url(#p7344ffb19d)" d="M 213.504579 65.265327 
L 213.504579 9.283125 
" style="fill:none;opacity:0.3;stroke:#b0b0b0;stroke-linecap:square;stroke-width:0.8;"/>
     </g>
     <g id="line2d_12">
      <g>
       <use style="stroke:#000000;stroke-width:0.8;" x="213.504579" xlink:href="#m4835dcbba4" y="65.265327"/>
      </g>
     </g>
     <g id="text_6">
      <!-- 35 -->
      <g transform="translate(210.504579 72.931577)scale(0.06 -0.06)">
       <use xlink:href="#TimesNewRomanPSMT-33"/>
       <use x="50" xlink:href="#TimesNewRomanPSMT-35"/>
      </g>
     </g>
    </g>
   </g>
   <g id="matplotlib.axis_2">
    <g id="ytick_1">
     <g id="line2d_13">
      <path clip-path="url(#p7344ffb19d)" d="M 22.7 62.599508 
L 241.506306 62.599508 
" style="fill:none;opacity:0.3;stroke:#b0b0b0;stroke-linecap:square;stroke-width:0.8;"/>
     </g>
     <g id="line2d_14">
      <defs>
       <path d="M 0 0 
L 3.5 0 
" id="md4eb307669" style="stroke:#000000;stroke-width:0.8;"/>
      </defs>
      <g>
       <use style="stroke:#000000;stroke-width:0.8;" x="22.7" xlink:href="#md4eb307669" y="62.599508"/>
      </g>
     </g>
     <g id="text_7">
      <!-- 0 -->
      <g transform="translate(16.2 64.682633)scale(0.06 -0.06)">
       <use xlink:href="#TimesNewRomanPSMT-30"/>
      </g>
     </g>
    </g>
    <g id="ytick_2">
     <g id="line2d_15">
      <path clip-path="url(#p7344ffb19d)" d="M 22.7 35.941316 
L 241.506306 35.941316 
" style="fill:none;opacity:0.3;stroke:#b0b0b0;stroke-linecap:square;stroke-width:0.8;"/>
     </g>
     <g id="line2d_16">
      <g>
       <use style="stroke:#000000;stroke-width:0.8;" x="22.7" xlink:href="#md4eb307669" y="35.941316"/>
      </g>
     </g>
     <g id="text_8">
      <!-- 500 -->
      <g transform="translate(10.2 38.024441)scale(0.06 -0.06)">
       <use xlink:href="#TimesNewRomanPSMT-35"/>
       <use x="50" xlink:href="#TimesNewRomanPSMT-30"/>
       <use x="100" xlink:href="#TimesNewRomanPSMT-30"/>
      </g>
     </g>
    </g>
    <g id="ytick_3">
     <g id="line2d_17">
      <path clip-path="url(#p7344ffb19d)" d="M 22.7 9.283125 
L 241.506306 9.283125 
" style="fill:none;opacity:0.3;stroke:#b0b0b0;stroke-linecap:square;stroke-width:0.8;"/>
     </g>
     <g id="line2d_18">
      <g>
       <use style="stroke:#000000;stroke-width:0.8;" x="22.7" xlink:href="#md4eb307669" y="9.283125"/>
      </g>
     </g>
     <g id="text_9">
      <!-- 1000 -->
      <g transform="translate(7.2 11.36625)scale(0.06 -0.06)">
       <use xlink:href="#TimesNewRomanPSMT-31"/>
       <use x="50" xlink:href="#TimesNewRomanPSMT-30"/>
       <use x="100" xlink:href="#TimesNewRomanPSMT-30"/>
       <use x="150" xlink:href="#TimesNewRomanPSMT-30"/>
      </g>
     </g>
    </g>
   </g>
   <g id="line2d_19">
    <path clip-path="url(#p7344ffb19d)" d="M 32.645741 62.652824 
L 43.188896 62.652824 
L 44.213242 49.963525 
L 154.676755 50.070158 
L 154.676755 50.123474 
L 156.453976 50.230107 
L 156.453976 50.230107 
L 158.449821 50.33674 
L 158.449821 50.33674 
L 163.065528 50.230107 
L 163.065528 50.17679 
L 183.920184 50.123474 
L 183.920184 50.016841 
L 184.085962 50.016841 
L 184.085962 49.856892 
L 184.682471 49.750259 
L 184.682471 49.59031 
L 184.795402 49.59031 
L 184.795402 49.430361 
L 185.223238 49.430361 
L 185.223238 49.163779 
L 185.674964 49.057146 
L 185.674964 48.737248 
L 185.79803 48.737248 
L 185.79803 48.577299 
L 185.994936 48.577299 
L 185.994936 48.364033 
L 186.393815 48.364033 
L 186.393815 48.150768 
L 186.527016 48.150768 
L 186.527016 47.990819 
L 186.959196 47.990819 
L 186.959196 47.777553 
L 187.104704 47.777553 
L 187.104704 47.564288 
L 187.40151 47.564288 
L 187.40151 47.404339 
L 187.704832 47.404339 
L 187.704832 47.137757 
L 187.985713 47.137757 
L 187.985713 46.977808 
L 189.304693 46.284695 
L 189.304693 46.071429 
L 189.893963 45.964796 
L 189.893963 45.858164 
L 190.142267 45.858164 
L 190.142267 45.698214 
L 190.722126 45.591582 
L 190.722126 45.538265 
L 191.020381 45.538265 
L 191.020381 45.378316 
L 191.470659 45.325 
L 191.470659 45.218367 
L 191.923108 45.111734 
L 191.923108 45.058418 
L 192.335742 45.005101 
L 192.335742 44.898469 
L 193.040839 44.845152 
L 193.040839 44.738519 
L 193.943566 44.631887 
L 193.943566 44.57857 
L 194.791999 44.471938 
L 194.791999 44.418621 
L 195.355932 44.365305 
L 195.355932 44.311988 
L 199.992632 43.885457 
L 199.992632 43.885457 
L 202.773205 43.778825 
L 202.773205 43.725508 
L 211.285768 43.618875 
L 211.285768 43.565559 
L 221.858604 43.565559 
L 221.858604 43.778825 
L 222.026553 43.778825 
L 222.026553 43.565559 
L 222.576007 43.672192 
L 222.576007 43.725508 
L 223.76251 43.832141 
L 223.76251 43.99209 
L 224.031084 43.99209 
L 224.031084 43.565559 
L 224.500184 43.672192 
L 224.500184 43.618875 
L 225.062669 43.99209 
L 225.062669 24.69156 
L 225.217587 62.652824 
L 231.560565 62.652824 
L 231.560565 62.652824 
" style="fill:none;stroke:#1f77b4;stroke-linecap:square;stroke-width:2;"/>
   </g>
   <g id="line2d_20">
    <path clip-path="url(#p7344ffb19d)" d="M 43.629039 43.890362 
L 44.073525 43.866637 
L 44.213242 49.964218 
L 44.667139 49.740449 
L 44.974081 50.467525 
L 45.07181 49.807095 
L 45.254237 49.527717 
L 45.509781 50.340099 
L 45.647325 50.560615 
L 45.951371 49.507883 
L 46.225736 50.270094 
L 46.384275 50.059175 
L 46.537022 50.538489 
L 46.67167 49.918579 
L 46.982956 51.631421 
L 47.098783 49.985011 
L 47.402829 51.691935 
L 47.529514 50.082154 
L 47.67285 50.059548 
L 47.980516 49.144372 
L 48.168735 48.816796 
L 48.271531 50.045792 
L 48.580645 48.001482 
L 48.706607 49.873047 
L 49.152541 50.185268 
L 49.718645 49.882591 
L 49.998802 49.97792 
L 51.161416 49.974668 
L 51.457498 49.967577 
L 53.473613 49.908129 
L 55.206675 49.90717 
L 55.50131 50.015722 
L 55.650437 49.906583 
L 55.934937 50.016042 
L 56.573434 49.892508 
L 56.957111 50.024252 
L 57.226408 49.965444 
L 58.826993 49.913248 
L 58.975397 50.015615 
L 59.456803 49.947743 
L 60.589012 49.901145 
L 60.853966 50.017268 
L 61.289041 49.907703 
L 61.714706 50.016308 
L 65.05342 49.958513 
L 65.336472 50.01007 
L 68.126456 49.947104 
L 69.257217 49.945771 
L 77.64237 49.963738 
L 77.976821 50.006391 
L 86.786914 49.961606 
L 87.083721 50.068078 
L 87.353019 50.069145 
L 87.493459 49.962032 
L 88.082729 50.013962 
L 92.121473 49.892721 
L 92.589124 49.945771 
L 94.155685 49.958833 
L 96.031359 49.908822 
L 96.176866 50.017055 
L 109.374632 49.958193 
L 111.243067 49.95862 
L 113.125256 50.015402 
L 113.561056 49.958673 
L 113.845556 49.89608 
L 114.028707 50.059654 
L 114.330581 49.960486 
L 122.266905 49.95926 
L 122.540546 50.009857 
L 125.717826 49.950676 
L 125.89953 49.953501 
L 126.173171 50.071224 
L 126.444641 49.967684 
L 126.871753 50.013642 
L 127.464643 49.947263 
L 127.892479 49.874753 
L 128.178427 49.974188 
L 128.89945 49.919166 
L 130.945969 49.938093 
L 131.100887 49.86233 
L 131.374529 49.96939 
L 131.655409 49.982506 
L 131.8125 49.862437 
L 132.252642 49.918313 
L 135.433542 49.975521 
L 137.880388 49.976428 
L 143.089709 50.019134 
L 151.966403 50.063173 
L 153.949941 50.066479 
L 155.136444 50.117396 
L 155.538219 50.174764 
L 157.878649 50.266415 
L 158.160253 50.322717 
L 160.180711 50.263696 
L 160.609995 50.224562 
L 160.772876 50.243543 
L 160.922728 50.101294 
L 161.210123 50.426631 
L 161.334638 50.304057 
L 161.931147 50.287795 
L 162.374185 50.262043 
L 163.794514 50.185108 
L 166.114674 50.213579 
L 166.70684 50.20009 
L 168.001207 50.186387 
L 168.586857 50.163301 
L 168.864118 49.652216 
L 169.15079 50.191346 
L 169.589485 49.52745 
L 169.879053 50.267588 
L 170.175859 50.294193 
L 170.308337 50.346443 
L 170.606591 50.047605 
L 170.912085 50.183988 
L 171.90313 50.279265 
L 172.04719 50.369049 
L 172.481541 50.182069 
L 174.072715 50.084393 
L 174.242112 50.054323 
L 174.362283 50.169966 
L 175.820979 50.19929 
L 176.846772 50.17951 
L 181.745532 50.177804 
L 182.633056 50.274093 
L 182.952305 50.351295 
L 183.201333 50.235172 
L 184.682471 49.545631 
L 184.95756 49.327087 
L 185.223238 49.106784 
L 185.541763 48.953499 
L 185.79803 48.520197 
L 186.238173 48.133493 
L 186.527016 47.901621 
L 186.816584 47.630933 
L 186.959196 47.65178 
L 187.104704 47.181103 
L 187.250935 48.632002 
L 187.40151 47.869897 
L 187.54557 47.906419 
L 187.704832 47.15791 
L 187.83007 47.27526 
L 187.985713 47.100169 
L 188.698773 47.728396 
L 188.840661 46.291732 
L 189.130953 46.324309 
L 189.304693 46.125225 
L 189.568924 46.208132 
L 189.893963 45.908707 
L 190.035127 45.950561 
L 190.142267 45.727698 
L 190.435455 45.813644 
L 190.722126 45.577986 
L 190.898763 45.628583 
L 191.157926 45.363707 
L 191.307777 45.40652 
L 191.590829 45.296475 
L 191.923108 45.097232 
L 192.034591 45.126343 
L 192.463151 44.963781 
L 192.631825 45.00814 
L 192.755615 44.875223 
L 192.932251 44.921448 
L 193.040839 44.763898 
L 194.338825 44.597391 
L 194.49302 44.636952 
L 194.791999 44.458555 
L 194.934611 44.492358 
L 195.072879 44.396761 
L 195.239381 44.436002 
L 195.355932 44.336781 
L 196.110979 44.512671 
L 196.389688 44.266723 
L 196.674912 44.188774 
L 196.839965 44.228655 
L 196.948553 44.121436 
L 197.384352 44.220124 
L 197.705048 44.074411 
L 198.113339 44.052391 
L 198.257399 44.020774 
L 198.717087 44.084594 
L 198.987833 43.989904 
L 199.593029 43.984892 
L 199.711752 44.009898 
L 199.992632 43.914835 
L 200.297402 43.974602 
L 200.423364 43.853308 
L 201.057517 43.859759 
L 201.442642 43.883005 
L 201.603352 43.912009 
L 201.737277 43.798712 
L 202.196965 43.886524 
L 202.476398 43.811294 
L 202.773205 43.724069 
L 203.31904 41.565555 
L 203.489161 43.533782 
L 203.943058 44.439628 
L 204.360035 42.317582 
L 204.47731 43.714738 
L 205.075991 43.680029 
L 207.527904 43.602827 
L 207.957912 43.653424 
L 208.096181 43.846483 
L 208.24386 43.590671 
L 208.851228 43.65721 
L 211.020813 43.644574 
L 211.150395 43.758404 
L 211.285768 43.528771 
L 212.99494 43.678003 
L 213.023173 43.562147 
L 213.309845 43.681202 
L 213.490101 43.716178 
L 213.805005 43.570144 
L 214.510102 43.571371 
L 218.547398 43.565932 
L 218.815972 43.564493 
L 221.737709 43.562573 
L 221.858604 43.779891 
L 222.141656 43.565666 
L 222.430499 43.671819 
L 222.931451 43.785596 
L 223.597457 43.837419 
L 223.879785 44.009578 
L 224.031084 43.57169 
L 224.9244 43.646867 
L 225.062669 22.987301 
L 225.334138 23.412819 
L 225.479646 23.281235 
L 225.617191 22.945288 
L 225.816268 22.092439 
L 226.099321 16.159925 
L 226.508335 11.406397 
L 226.649499 11.110437 
L 226.775461 11.329248 
L 227.067924 12.907359 
L 228.089374 21.394421 
L 228.223299 21.385251 
L 228.549062 20.478819 
L 228.814017 19.719594 
L 228.947218 19.739747 
L 229.096345 20.048236 
L 229.578475 22.150714 
L 230.42908 25.87545 
L 230.835922 26.530975 
L 231.134901 26.686605 
L 231.440394 26.716356 
L 231.560565 26.860257 
L 231.560565 26.860257 
" style="fill:none;stroke:#ff7f0e;stroke-linecap:square;stroke-width:2;"/>
   </g>
   <g id="patch_3">
    <path d="M 22.7 65.265327 
L 22.7 9.283125 
" style="fill:none;stroke:#000000;stroke-linecap:square;stroke-linejoin:miter;stroke-width:0.8;"/>
   </g>
   <g id="patch_4">
    <path d="M 241.506306 65.265327 
L 241.506306 9.283125 
" style="fill:none;stroke:#000000;stroke-linecap:square;stroke-linejoin:miter;stroke-width:0.8;"/>
   </g>
   <g id="patch_5">
    <path d="M 22.7 65.265327 
L 241.506306 65.265327 
" style="fill:none;stroke:#000000;stroke-linecap:square;stroke-linejoin:miter;stroke-width:0.8;"/>
   </g>
   <g id="patch_6">
    <path d="M 22.7 9.283125 
L 241.506306 9.283125 
" style="fill:none;stroke:#000000;stroke-linecap:square;stroke-linejoin:miter;stroke-width:0.8;"/>
   </g>
  </g>
  <g id="axes_2">
   <g id="patch_7">
    <path d="M 22.7 143.640409 
L 241.506306 143.640409 
L 241.506306 87.658208 
L 22.7 87.658208 
z
" style="fill:#ffffff;"/>
   </g>
   <g id="matplotlib.axis_3">
    <g id="xtick_7">
     <g id="line2d_21">
      <path clip-path="url(#p612734e338)" d="M 32.524847 143.640409 
L 32.524847 87.658208 
" style="fill:none;opacity:0.3;stroke:#b0b0b0;stroke-linecap:square;stroke-width:0.8;"/>
     </g>
     <g id="line2d_22">
      <g>
       <use style="stroke:#000000;stroke-width:0.8;" x="32.524847" xlink:href="#m4835dcbba4" y="143.640409"/>
      </g>
     </g>
     <g id="text_10">
      <!-- 10 -->
      <g transform="translate(29.524847 151.306659)scale(0.06 -0.06)">
       <use xlink:href="#TimesNewRomanPSMT-31"/>
       <use x="50" xlink:href="#TimesNewRomanPSMT-30"/>
      </g>
     </g>
    </g>
    <g id="xtick_8">
     <g id="line2d_23">
      <path clip-path="url(#p612734e338)" d="M 68.720793 143.640409 
L 68.720793 87.658208 
" style="fill:none;opacity:0.3;stroke:#b0b0b0;stroke-linecap:square;stroke-width:0.8;"/>
     </g>
     <g id="line2d_24">
      <g>
       <use style="stroke:#000000;stroke-width:0.8;" x="68.720793" xlink:href="#m4835dcbba4" y="143.640409"/>
      </g>
     </g>
     <g id="text_11">
      <!-- 15 -->
      <g transform="translate(65.720793 151.306659)scale(0.06 -0.06)">
       <use xlink:href="#TimesNewRomanPSMT-31"/>
       <use x="50" xlink:href="#TimesNewRomanPSMT-35"/>
      </g>
     </g>
    </g>
    <g id="xtick_9">
     <g id="line2d_25">
      <path clip-path="url(#p612734e338)" d="M 104.91674 143.640409 
L 104.91674 87.658208 
" style="fill:none;opacity:0.3;stroke:#b0b0b0;stroke-linecap:square;stroke-width:0.8;"/>
     </g>
     <g id="line2d_26">
      <g>
       <use style="stroke:#000000;stroke-width:0.8;" x="104.91674" xlink:href="#m4835dcbba4" y="143.640409"/>
      </g>
     </g>
     <g id="text_12">
      <!-- 20 -->
      <g transform="translate(101.91674 151.306659)scale(0.06 -0.06)">
       <use xlink:href="#TimesNewRomanPSMT-32"/>
       <use x="50" xlink:href="#TimesNewRomanPSMT-30"/>
      </g>
     </g>
    </g>
    <g id="xtick_10">
     <g id="line2d_27">
      <path clip-path="url(#p612734e338)" d="M 141.112686 143.640409 
L 141.112686 87.658208 
" style="fill:none;opacity:0.3;stroke:#b0b0b0;stroke-linecap:square;stroke-width:0.8;"/>
     </g>
     <g id="line2d_28">
      <g>
       <use style="stroke:#000000;stroke-width:0.8;" x="141.112686" xlink:href="#m4835dcbba4" y="143.640409"/>
      </g>
     </g>
     <g id="text_13">
      <!-- 25 -->
      <g transform="translate(138.112686 151.306659)scale(0.06 -0.06)">
       <use xlink:href="#TimesNewRomanPSMT-32"/>
       <use x="50" xlink:href="#TimesNewRomanPSMT-35"/>
      </g>
     </g>
    </g>
    <g id="xtick_11">
     <g id="line2d_29">
      <path clip-path="url(#p612734e338)" d="M 177.308633 143.640409 
L 177.308633 87.658208 
" style="fill:none;opacity:0.3;stroke:#b0b0b0;stroke-linecap:square;stroke-width:0.8;"/>
     </g>
     <g id="line2d_30">
      <g>
       <use style="stroke:#000000;stroke-width:0.8;" x="177.308633" xlink:href="#m4835dcbba4" y="143.640409"/>
      </g>
     </g>
     <g id="text_14">
      <!-- 30 -->
      <g transform="translate(174.308633 151.306659)scale(0.06 -0.06)">
       <use xlink:href="#TimesNewRomanPSMT-33"/>
       <use x="50" xlink:href="#TimesNewRomanPSMT-30"/>
      </g>
     </g>
    </g>
    <g id="xtick_12">
     <g id="line2d_31">
      <path clip-path="url(#p612734e338)" d="M 213.504579 143.640409 
L 213.504579 87.658208 
" style="fill:none;opacity:0.3;stroke:#b0b0b0;stroke-linecap:square;stroke-width:0.8;"/>
     </g>
     <g id="line2d_32">
      <g>
       <use style="stroke:#000000;stroke-width:0.8;" x="213.504579" xlink:href="#m4835dcbba4" y="143.640409"/>
      </g>
     </g>
     <g id="text_15">
      <!-- 35 -->
      <g transform="translate(210.504579 151.306659)scale(0.06 -0.06)">
       <use xlink:href="#TimesNewRomanPSMT-33"/>
       <use x="50" xlink:href="#TimesNewRomanPSMT-35"/>
      </g>
     </g>
    </g>
   </g>
   <g id="matplotlib.axis_4">
    <g id="ytick_4">
     <g id="line2d_33">
      <path clip-path="url(#p612734e338)" d="M 22.7 140.987961 
L 241.506306 140.987961 
" style="fill:none;opacity:0.3;stroke:#b0b0b0;stroke-linecap:square;stroke-width:0.8;"/>
     </g>
     <g id="line2d_34">
      <g>
       <use style="stroke:#000000;stroke-width:0.8;" x="22.7" xlink:href="#md4eb307669" y="140.987961"/>
      </g>
     </g>
     <g id="text_16">
      <!-- 0 -->
      <g transform="translate(16.2 143.071086)scale(0.06 -0.06)">
       <use xlink:href="#TimesNewRomanPSMT-30"/>
      </g>
     </g>
    </g>
    <g id="ytick_5">
     <g id="line2d_35">
      <path clip-path="url(#p612734e338)" d="M 22.7 119.427417 
L 241.506306 119.427417 
" style="fill:none;opacity:0.3;stroke:#b0b0b0;stroke-linecap:square;stroke-width:0.8;"/>
     </g>
     <g id="line2d_36">
      <g>
       <use style="stroke:#000000;stroke-width:0.8;" x="22.7" xlink:href="#md4eb307669" y="119.427417"/>
      </g>
     </g>
     <g id="text_17">
      <!-- 200 -->
      <g transform="translate(10.2 121.510542)scale(0.06 -0.06)">
       <use xlink:href="#TimesNewRomanPSMT-32"/>
       <use x="50" xlink:href="#TimesNewRomanPSMT-30"/>
       <use x="100" xlink:href="#TimesNewRomanPSMT-30"/>
      </g>
     </g>
    </g>
    <g id="ytick_6">
     <g id="line2d_37">
      <path clip-path="url(#p612734e338)" d="M 22.7 97.866872 
L 241.506306 97.866872 
" style="fill:none;opacity:0.3;stroke:#b0b0b0;stroke-linecap:square;stroke-width:0.8;"/>
     </g>
     <g id="line2d_38">
      <g>
       <use style="stroke:#000000;stroke-width:0.8;" x="22.7" xlink:href="#md4eb307669" y="97.866872"/>
      </g>
     </g>
     <g id="text_18">
      <!-- 400 -->
      <defs>
       <path d="M 46.53125 24.421875 
L 46.53125 17.484375 
L 37.640625 17.484375 
L 37.640625 0 
L 29.59375 0 
L 29.59375 17.484375 
L 1.5625 17.484375 
L 1.5625 23.734375 
L 32.28125 67.578125 
L 37.640625 67.578125 
L 37.640625 24.421875 
z
M 29.59375 24.421875 
L 29.59375 57.28125 
L 6.34375 24.421875 
z
" id="TimesNewRomanPSMT-34"/>
      </defs>
      <g transform="translate(10.2 99.949997)scale(0.06 -0.06)">
       <use xlink:href="#TimesNewRomanPSMT-34"/>
       <use x="50" xlink:href="#TimesNewRomanPSMT-30"/>
       <use x="100" xlink:href="#TimesNewRomanPSMT-30"/>
      </g>
     </g>
    </g>
   </g>
   <g id="line2d_39">
    <path clip-path="url(#p612734e338)" d="M 32.645741 141.095764 
L 43.188896 141.095764 
L 44.213242 121.583471 
L 44.213242 121.583471 
L 44.667139 121.583471 
L 44.667139 121.799076 
L 44.974081 121.799076 
L 45.07181 121.583471 
L 45.07181 121.691274 
L 45.856538 121.583471 
L 45.856538 121.583471 
L 46.08964 121.475668 
L 46.08964 121.475668 
L 50.150101 121.583471 
L 50.150101 121.691274 
L 50.574317 121.583471 
L 50.574317 121.475668 
L 60.709182 121.583471 
L 60.709182 121.691274 
L 61.0154 121.691274 
L 61.0154 121.475668 
L 87.669371 121.583471 
L 87.669371 121.691274 
L 87.785922 121.691274 
L 87.785922 121.475668 
L 93.431766 121.475668 
L 93.431766 121.691274 
L 93.764769 121.691274 
L 93.764769 121.475668 
L 122.389247 121.583471 
L 122.389247 121.691274 
L 123.690129 121.583471 
L 123.690129 121.583471 
L 127.321307 121.691274 
L 127.321307 121.799076 
L 127.600015 121.799076 
L 127.600015 121.475668 
L 127.892479 121.475668 
L 127.892479 121.691274 
L 128.794482 121.799076 
L 128.794482 121.906879 
L 128.89945 121.906879 
L 128.89945 121.906879 
L 128.89945 121.799076 
L 129.914384 121.799076 
L 129.914384 122.014682 
L 130.39579 121.906879 
L 130.39579 121.799076 
L 131.100887 121.799076 
L 131.100887 121.367866 
L 131.251462 121.367866 
L 131.251462 121.691274 
L 131.8125 121.583471 
L 131.8125 121.475668 
L 131.975381 121.475668 
L 131.975381 121.15226 
L 133.105419 121.044457 
L 133.105419 120.936655 
L 133.533979 120.936655 
L 133.533979 120.721049 
L 134.109494 120.613246 
L 134.109494 120.505444 
L 135.576878 120.397641 
L 135.576878 120.182036 
L 136.875589 120.074233 
L 136.875589 119.96643 
L 138.311844 119.858627 
L 138.311844 119.750825 
L 139.387587 119.643022 
L 139.387587 119.535219 
L 140.77172 119.427417 
L 140.77172 119.211811 
L 142.092148 119.104008 
L 142.092148 118.996206 
L 142.942029 118.996206 
L 142.942029 118.7806 
L 144.845212 118.672797 
L 144.845212 118.672797 
L 145.732737 118.457192 
L 145.732737 118.349389 
L 147.575834 118.241587 
L 147.575834 118.133784 
L 148.4858 118.025981 
L 148.4858 117.918178 
L 149.605703 117.810376 
L 149.605703 117.702573 
L 150.52508 117.59477 
L 150.52508 117.486968 
L 153.2405 117.379165 
L 153.2405 117.271362 
L 155.271093 117.163559 
L 155.271093 117.055757 
L 158.449821 116.947954 
L 158.449821 116.840151 
L 160.525296 116.732348 
L 160.525296 116.624546 
L 162.215647 116.516743 
L 162.215647 116.40894 
L 163.794514 116.301138 
L 163.794514 116.193335 
L 169.15079 116.085532 
L 169.15079 115.977729 
L 182.633056 115.977729 
L 182.633056 116.193335 
L 183.061616 116.193335 
L 183.061616 117.918178 
L 183.396067 117.918178 
L 183.489452 120.397641 
L 184.085962 120.397641 
L 184.085962 119.750825 
L 184.22785 119.750825 
L 184.22785 119.319614 
L 184.795402 119.211811 
L 184.795402 119.104008 
L 185.674964 119.211811 
L 185.674964 119.858627 
L 185.79803 119.858627 
L 185.79803 120.397641 
L 185.994936 120.397641 
L 185.994936 120.828852 
L 186.527016 120.828852 
L 186.527016 120.397641 
L 186.959196 120.397641 
L 186.959196 119.643022 
L 187.104704 119.643022 
L 187.104704 119.427417 
L 187.704832 119.427417 
L 187.704832 119.211811 
L 187.985713 119.211811 
L 187.985713 119.104008 
L 188.840661 120.074233 
L 188.840661 120.397641 
L 189.304693 120.397641 
L 189.304693 119.750825 
L 189.724566 119.750825 
L 189.724566 119.319614 
L 191.020381 119.211811 
L 191.020381 119.643022 
L 191.157926 119.643022 
L 191.157926 119.96643 
L 191.470659 119.96643 
L 191.470659 120.397641 
L 191.923108 120.397641 
L 191.923108 120.074233 
L 192.205436 120.074233 
L 192.205436 119.750825 
L 193.785027 119.750825 
L 193.785027 120.074233 
L 193.943566 120.074233 
L 193.943566 120.289838 
L 194.224446 120.289838 
L 194.224446 120.613246 
L 194.791999 120.505444 
L 194.791999 120.074233 
L 196.280376 120.074233 
L 196.280376 120.289838 
L 196.519993 120.289838 
L 196.519993 120.613246 
L 196.674912 120.613246 
L 196.674912 120.828852 
L 196.948553 120.828852 
L 196.948553 120.721049 
L 197.705048 120.397641 
L 197.705048 120.289838 
L 199.126101 120.397641 
L 199.126101 120.613246 
L 199.316492 120.613246 
L 199.316492 120.936655 
L 199.85002 121.044457 
L 199.85002 120.828852 
L 199.992632 120.828852 
L 199.992632 120.613246 
L 201.737277 120.613246 
L 201.737277 120.828852 
L 202.62263 121.044457 
L 202.62263 120.936655 
L 205.492244 121.044457 
L 205.492244 121.15226 
L 205.983785 121.260063 
L 205.983785 121.367866 
L 206.074275 121.367866 
L 207.957912 121.475668 
L 207.957912 121.583471 
L 208.53198 121.691274 
L 208.53198 121.799076 
L 209.984161 121.691274 
L 209.984161 121.799076 
L 211.020813 122.122485 
L 211.020813 122.33809 
L 213.168681 122.230287 
L 213.168681 122.122485 
L 213.889704 122.230287 
L 213.889704 122.33809 
L 214.783744 122.445893 
L 214.783744 122.661498 
L 216.227238 122.769301 
L 216.227238 122.877104 
L 216.928716 122.769301 
L 216.928716 122.877104 
L 218.382345 123.308315 
L 218.382345 123.308315 
L 219.536996 123.308315 
L 219.536996 123.52392 
L 219.852624 123.52392 
L 219.852624 123.200512 
L 220.006819 123.200512 
L 220.006819 123.416117 
L 220.727118 123.416117 
L 220.727118 123.631723 
L 220.99714 123.631723 
L 220.99714 123.416117 
L 221.299738 123.416117 
L 221.299738 123.739525 
L 221.858604 123.739525 
L 221.858604 124.278539 
L 222.723687 124.278539 
L 222.723687 124.817553 
L 223.302098 124.278539 
L 223.302098 124.70975 
L 223.451949 124.70975 
L 223.451949 123.955131 
L 223.76251 123.955131 
L 223.76251 122.553695 
L 224.031084 122.553695 
L 224.031084 122.230287 
L 224.313413 122.230287 
L 224.313413 122.553695 
L 224.500184 122.553695 
L 224.500184 122.33809 
L 225.062669 125.033158 
L 225.062669 97.866872 
L 225.217587 141.095764 
L 231.560565 141.095764 
L 231.560565 141.095764 
" style="fill:none;stroke:#1f77b4;stroke-linecap:square;stroke-width:2;"/>
   </g>
   <g id="line2d_40">
    <path clip-path="url(#p612734e338)" d="M 43.629039 122.944696 
L 44.073525 122.958387 
L 44.213242 121.584765 
L 44.49919 121.560293 
L 44.667139 121.937603 
L 44.845223 123.388304 
L 45.254237 119.695414 
L 45.647325 124.160064 
L 45.951371 119.939264 
L 46.08964 120.990556 
L 46.225736 120.90992 
L 46.537022 122.048963 
L 46.67167 121.456264 
L 46.982956 122.043142 
L 47.402829 120.656152 
L 47.529514 121.53151 
L 47.67285 121.369806 
L 47.980516 129.593752 
L 48.168735 132.585774 
L 48.393874 116.152478 
L 48.580645 110.802875 
L 48.706607 121.429097 
L 48.83474 121.597701 
L 49.2966 121.584118 
L 49.555763 121.735581 
L 49.718645 121.767706 
L 49.853294 121.59285 
L 50.437497 121.585088 
L 50.716206 121.448071 
L 51.161416 121.393415 
L 51.457498 121.585304 
L 52.177074 121.474914 
L 53.909412 121.470817 
L 54.19174 121.585843 
L 55.206675 121.58843 
L 55.50131 121.478687 
L 55.814767 121.590047 
L 56.147769 121.484292 
L 56.220161 121.474698 
L 56.573434 121.595114 
L 56.708806 121.476099 
L 56.957111 121.581854 
L 57.226408 121.472434 
L 57.526111 121.581315 
L 60.589012 121.5894 
L 60.853966 121.695586 
L 61.149325 121.479118 
L 61.476536 121.593389 
L 65.336472 121.585088 
L 65.942392 121.592526 
L 66.06763 121.473404 
L 66.360817 121.582824 
L 66.539625 121.585627 
L 66.785758 121.46823 
L 67.094871 121.583579 
L 67.372132 121.468984 
L 67.507505 121.581746 
L 68.126456 121.585627 
L 68.266896 121.364847 
L 68.539813 121.578189 
L 69.257217 121.584118 
L 69.682158 121.470817 
L 70.015884 121.586274 
L 72.60679 121.594467 
L 72.886223 121.601258 
L 73.011461 121.474482 
L 73.595663 121.585735 
L 74.045941 121.586058 
L 74.315239 121.474267 
L 74.801712 121.468014 
L 75.042777 121.587028 
L 75.186837 121.589831 
L 75.333069 121.476962 
L 75.908584 121.46284 
L 76.210458 121.582932 
L 78.234536 121.583471 
L 78.557404 121.469631 
L 78.811499 121.587567 
L 80.257889 121.599318 
L 80.553972 121.473943 
L 80.837748 121.58207 
L 81.316983 121.586058 
L 81.452355 121.475992 
L 81.715138 121.580237 
L 83.456887 121.581531 
L 83.752246 121.471895 
L 84.30894 121.471141 
L 84.594887 121.582609 
L 85.757501 121.584226 
L 86.228049 121.36323 
L 86.367765 121.579267 
L 86.62548 121.473943 
L 86.954863 121.58207 
L 87.669371 121.694616 
L 87.785922 121.477177 
L 87.93143 121.470709 
L 88.258641 121.576679 
L 88.369401 121.473081 
L 88.543865 121.462624 
L 88.643766 121.579159 
L 91.865205 121.47017 
L 92.121473 121.339837 
L 92.589124 121.570535 
L 92.857698 121.588214 
L 93.150161 121.471464 
L 93.28843 121.466182 
L 93.431766 121.690842 
L 93.577997 121.704965 
L 93.863222 121.474806 
L 94.155685 121.581531 
L 101.866145 121.425109 
L 102.120241 121.58498 
L 102.577034 121.588322 
L 102.895558 121.466505 
L 103.42981 121.471464 
L 103.564459 121.579482 
L 106.608538 121.569457 
L 106.768524 121.579806 
L 107.079809 121.459282 
L 107.215182 121.452598 
L 107.336801 121.579267 
L 110.227409 121.455401 
L 110.508289 121.578835 
L 114.028707 121.45842 
L 114.14743 121.58207 
L 119.383536 121.581531 
L 119.501534 121.584441 
L 119.66152 121.476315 
L 119.781691 121.584549 
L 120.79373 121.590263 
L 121.104291 121.476962 
L 122.266905 121.581854 
L 122.540546 121.697634 
L 123.020504 121.706797 
L 123.111718 121.479441 
L 123.568511 121.458743 
L 123.832741 121.575601 
L 125.426811 121.581962 
L 125.717826 121.470602 
L 126.030559 121.583148 
L 126.173171 121.587028 
L 126.444641 121.479334 
L 126.589425 121.69343 
L 127.464643 121.809318 
L 127.600015 121.478256 
L 127.750591 121.439123 
L 128.074906 121.812336 
L 128.178427 121.582824 
L 128.326106 121.577326 
L 128.462203 121.803065 
L 129.779011 121.813091 
L 129.914384 122.021473 
L 130.06134 122.024168 
L 130.496415 121.778163 
L 130.945969 121.729005 
L 131.100887 121.347383 
L 131.251462 121.674241 
L 131.509902 121.56536 
L 131.8125 121.461869 
L 132.096276 121.103318 
L 132.388739 121.20918 
L 132.524836 121.021064 
L 132.969322 121.02128 
L 133.254546 120.891485 
L 133.422495 120.866152 
L 133.673695 120.672969 
L 133.839473 120.691296 
L 134.294818 120.445182 
L 134.546741 120.455208 
L 134.839929 120.479571 
L 135.319163 120.37414 
L 135.433542 120.353011 
L 135.718042 120.124253 
L 135.879476 120.260839 
L 136.160357 120.015265 
L 136.583125 120.052025 
L 138.487756 119.686251 
L 138.748367 119.588043 
L 139.202988 119.580281 
L 139.627205 119.477329 
L 139.913876 119.468813 
L 140.358363 119.371683 
L 140.628384 119.378474 
L 140.77172 119.187987 
L 140.951252 119.157479 
L 141.06346 119.29525 
L 141.968358 119.067679 
L 142.388231 118.853906 
L 142.667664 118.787607 
L 142.804485 118.962895 
L 143.089709 118.705246 
L 143.542158 118.745672 
L 143.815799 118.603912 
L 144.26101 118.615123 
L 144.72287 118.613183 
L 144.971174 118.614907 
L 145.583609 118.420216 
L 145.842772 118.280611 
L 146.312596 118.278779 
L 146.454484 118.312413 
L 146.859155 118.17863 
L 147.439014 118.168604 
L 147.911009 117.992886 
L 148.305545 117.928096 
L 149.316135 117.717773 
L 149.484809 117.774801 
L 149.605703 117.672173 
L 150.370885 117.552835 
L 150.765421 117.393503 
L 150.921788 117.363965 
L 151.056437 117.570191 
L 152.806873 117.348118 
L 153.092821 117.320412 
L 153.2405 117.240962 
L 159.163605 116.701517 
L 159.912137 116.440203 
L 160.180711 116.685993 
L 160.609995 116.48548 
L 160.772876 116.525475 
L 160.922728 116.429962 
L 161.334638 116.708524 
L 162.062176 116.488606 
L 162.374185 116.334772 
L 162.644931 116.342318 
L 162.959112 116.221687 
L 163.217551 116.23527 
L 163.654798 116.240229 
L 163.942917 116.127144 
L 164.227418 116.160563 
L 165.683219 116.044783 
L 165.828002 116.005435 
L 165.980025 116.16757 
L 166.114674 116.014059 
L 166.70684 116.023114 
L 167.013058 115.955414 
L 167.270049 116.053191 
L 167.707296 116.054269 
L 168.586857 116.033032 
L 168.749739 115.285636 
L 168.864118 116.140425 
L 169.15079 115.915527 
L 169.589485 116.109572 
L 169.732097 115.951533 
L 169.879053 116.115178 
L 170.026732 116.056857 
L 170.308337 116.283135 
L 170.452396 116.041333 
L 170.606591 114.326084 
L 170.746308 115.873915 
L 171.038771 116.335419 
L 171.465883 115.723099 
L 171.639623 115.554927 
L 171.90313 116.053515 
L 172.252783 116.131779 
L 172.481541 115.959187 
L 172.772557 115.862919 
L 172.928923 115.741749 
L 173.065744 115.883186 
L 173.213423 115.754686 
L 173.388612 115.844701 
L 173.521813 115.723531 
L 173.657186 115.89429 
L 174.831382 116.016431 
L 174.943589 115.868094 
L 176.680271 115.860548 
L 181.631153 115.997242 
L 182.051026 115.97967 
L 182.185674 116.045214 
L 182.633056 116.704428 
L 183.061616 118.222613 
L 183.201333 118.443609 
L 183.489452 120.282831 
L 183.776124 119.531985 
L 183.920184 119.991656 
L 184.22785 119.200276 
L 184.682471 119.313685 
L 184.795402 119.132253 
L 185.223238 119.054096 
L 185.541763 118.96408 
L 185.79803 120.462215 
L 186.129585 121.165304 
L 186.238173 121.307927 
L 186.393815 121.042086 
L 186.527016 120.569802 
L 186.816584 120.932127 
L 186.959196 119.726246 
L 187.250935 119.402837 
L 187.40151 119.434316 
L 187.985713 119.206421 
L 188.569192 119.901209 
L 188.698773 120.112072 
L 188.840661 120.667363 
L 188.986893 120.688924 
L 189.130953 120.412518 
L 189.304693 119.755999 
L 189.568924 119.725383 
L 189.724566 119.295574 
L 190.035127 119.274983 
L 190.142267 119.417391 
L 190.580962 119.302689 
L 190.898763 119.16233 
L 191.157926 119.94778 
L 191.307777 119.929777 
L 191.470659 120.382441 
L 191.78122 120.386106 
L 192.034591 120.054074 
L 192.335742 119.624911 
L 192.932251 119.592786 
L 193.040839 119.733361 
L 193.224714 119.60928 
L 193.339093 119.731205 
L 193.650379 119.674932 
L 193.943566 120.269032 
L 194.049982 120.257282 
L 194.338825 120.585649 
L 194.631289 120.494771 
L 194.791999 120.055044 
L 196.110979 119.923632 
L 196.674912 120.811711 
L 197.384352 120.667579 
L 197.705048 120.263858 
L 198.257399 120.259977 
L 198.717087 120.194756 
L 198.861871 120.370475 
L 198.987833 120.346974 
L 199.316492 120.911644 
L 199.85002 120.815916 
L 200.13814 120.564951 
L 200.590589 120.557405 
L 200.902598 120.551368 
L 201.148007 120.48647 
L 201.442642 120.547487 
L 201.603352 120.511481 
L 201.737277 120.807399 
L 202.196965 120.755223 
L 202.353332 121.154416 
L 202.62263 120.943985 
L 202.773205 120.871757 
L 203.31904 113.442964 
L 203.489161 120.278411 
L 203.943058 122.35135 
L 204.227558 118.689076 
L 204.360035 118.445118 
L 204.47731 120.925982 
L 204.947857 121.202712 
L 205.200505 121.106336 
L 205.983785 121.469955 
L 206.074275 121.408184 
L 206.220507 121.4844 
L 206.394971 121.337573 
L 206.654858 121.474806 
L 206.954561 121.326038 
L 207.422936 121.516525 
L 207.957912 121.60902 
L 208.096181 122.234168 
L 208.24386 121.799615 
L 208.678212 121.904939 
L 209.828519 121.638343 
L 209.984161 121.811905 
L 210.443126 121.639852 
L 210.556781 121.983958 
L 211.020813 122.255837 
L 211.150395 121.99905 
L 211.285768 122.344019 
L 212.153022 122.326124 
L 213.168681 122.222741 
L 213.309845 122.394794 
L 213.490101 122.42886 
L 213.805005 122.173799 
L 214.038107 122.4225 
L 214.510102 122.705374 
L 214.656334 122.774691 
L 214.901743 122.684245 
L 215.197102 122.888315 
L 215.49246 122.773936 
L 216.097657 122.768223 
L 216.378537 122.893597 
L 217.842301 122.922057 
L 217.952337 123.317909 
L 219.104092 123.435198 
L 219.388592 123.365342 
L 219.687571 123.58817 
L 219.852624 123.227894 
L 220.145087 123.476918 
L 220.26381 123.325455 
L 220.598985 123.450506 
L 220.871178 123.690799 
L 220.99714 123.445547 
L 221.22807 123.504192 
L 221.299738 123.757528 
L 221.737709 123.816281 
L 221.858604 124.317564 
L 222.141656 124.239299 
L 222.430499 124.361655 
L 222.576007 124.317025 
L 222.723687 124.859272 
L 223.166001 124.969231 
L 223.302098 124.742522 
L 223.451949 123.989304 
L 223.597457 124.020136 
L 223.76251 122.572238 
L 223.879785 122.561026 
L 224.031084 122.216489 
L 224.209168 122.118711 
L 224.313413 122.590672 
L 224.616735 122.388542 
L 224.9244 122.459691 
L 225.062669 95.776901 
L 225.334138 96.336505 
L 225.617191 96.141597 
L 225.816268 96.541222 
L 225.906758 94.462246 
L 226.099321 94.974094 
L 226.34111 99.013138 
L 226.775461 106.739791 
L 226.939067 107.679076 
L 227.067924 107.308666 
L 227.353148 104.607129 
L 228.396315 90.56852 
L 228.549062 90.202853 
L 228.672128 90.909608 
L 229.096345 98.678842 
L 229.412698 103.207742 
L 229.673308 104.442191 
L 229.818816 104.251704 
L 230.42908 102.246142 
L 230.568072 102.269427 
L 230.684623 102.577959 
L 230.985049 104.01788 
L 231.560565 102.09069 
L 231.560565 102.09069 
" style="fill:none;stroke:#ff7f0e;stroke-linecap:square;stroke-width:2;"/>
   </g>
   <g id="patch_8">
    <path d="M 22.7 143.640409 
L 22.7 87.658208 
" style="fill:none;stroke:#000000;stroke-linecap:square;stroke-linejoin:miter;stroke-width:0.8;"/>
   </g>
   <g id="patch_9">
    <path d="M 241.506306 143.640409 
L 241.506306 87.658208 
" style="fill:none;stroke:#000000;stroke-linecap:square;stroke-linejoin:miter;stroke-width:0.8;"/>
   </g>
   <g id="patch_10">
    <path d="M 22.7 143.640409 
L 241.506306 143.640409 
" style="fill:none;stroke:#000000;stroke-linecap:square;stroke-linejoin:miter;stroke-width:0.8;"/>
   </g>
   <g id="patch_11">
    <path d="M 22.7 87.658208 
L 241.506306 87.658208 
" style="fill:none;stroke:#000000;stroke-linecap:square;stroke-linejoin:miter;stroke-width:0.8;"/>
   </g>
  </g>
 </g>
 <defs>
  <clipPath id="p7344ffb19d">
   <rect height="55.982202" width="218.806306" x="22.7" y="9.283125"/>
  </clipPath>
  <clipPath id="p612734e338">
   <rect height="55.982202" width="218.806306" x="22.7" y="87.658208"/>
  </clipPath>
 </defs>
</svg>
