<?xml version="1.0" encoding="utf-8" standalone="no"?>
<!DOCTYPE svg PUBLIC "-//W3C//DTD SVG 1.1//EN"
  "http://www.w3.org/Graphics/SVG/1.1/DTD/svg11.dtd">
<!-- Created with matplotlib (http://matplotlib.org/) -->
<svg height="152pt" version="1.1" viewBox="0 0 226 152" width="226pt" xmlns="http://www.w3.org/2000/svg" xmlns:xlink="http://www.w3.org/1999/xlink">
 <defs>
  <style type="text/css">
*{stroke-linecap:butt;stroke-linejoin:round;}
  </style>
 </defs>
 <g id="figure_1">
  <g id="patch_1">
   <path d="M 0 152.608684 
L 226.825676 152.608684 
L 226.825676 0 
L 0 0 
z
" style="fill:#ffffff;"/>
  </g>
  <g id="axes_1">
   <g id="patch_2">
    <path d="M 22.7 62.273072 
L 219.625676 62.273072 
L 219.625676 9.283125 
L 22.7 9.283125 
z
" style="fill:#ffffff;"/>
   </g>
   <g id="matplotlib.axis_1">
    <g id="xtick_1">
     <g id="line2d_1">
      <path clip-path="url(#p751b4e9594)" d="M 31.542362 62.273072 
L 31.542362 9.283125 
" style="fill:none;opacity:0.1;stroke:#b0b0b0;stroke-linecap:square;stroke-width:0.1;"/>
     </g>
     <g id="line2d_2">
      <defs>
       <path d="M 0 0 
L 0 -2 
" id="mc6e9882b09" style="stroke:#000000;stroke-width:0.3;"/>
      </defs>
      <g>
       <use style="stroke:#000000;stroke-width:0.3;" x="31.542362" xlink:href="#mc6e9882b09" y="62.273072"/>
      </g>
     </g>
     <g id="text_1">
      <!-- 10 -->
      <defs>
       <path d="M 11.71875 59.71875 
L 27.828125 67.578125 
L 29.4375 67.578125 
L 29.4375 11.671875 
Q 29.4375 6.109375 29.90625 4.734375 
Q 30.375 3.375 31.828125 2.640625 
Q 33.296875 1.90625 37.796875 1.8125 
L 37.796875 0 
L 12.890625 0 
L 12.890625 1.8125 
Q 17.578125 1.90625 18.9375 2.609375 
Q 20.3125 3.328125 20.84375 4.515625 
Q 21.390625 5.71875 21.390625 11.671875 
L 21.390625 47.40625 
Q 21.390625 54.640625 20.90625 56.6875 
Q 20.5625 58.25 19.65625 58.984375 
Q 18.75 59.71875 17.484375 59.71875 
Q 15.671875 59.71875 12.453125 58.203125 
z
" id="TimesNewRomanPSMT-31"/>
       <path d="M 3.609375 32.71875 
Q 3.609375 44.046875 7.03125 52.21875 
Q 10.453125 60.40625 16.109375 64.40625 
Q 20.515625 67.578125 25.203125 67.578125 
Q 32.8125 67.578125 38.875 59.8125 
Q 46.4375 50.203125 46.4375 33.734375 
Q 46.4375 22.21875 43.109375 14.15625 
Q 39.796875 6.109375 34.640625 2.46875 
Q 29.5 -1.171875 24.703125 -1.171875 
Q 15.234375 -1.171875 8.9375 10.015625 
Q 3.609375 19.4375 3.609375 32.71875 
z
M 13.1875 31.5 
Q 13.1875 17.828125 16.546875 9.1875 
Q 19.34375 1.90625 24.859375 1.90625 
Q 27.484375 1.90625 30.3125 4.265625 
Q 33.15625 6.640625 34.625 12.203125 
Q 36.859375 20.609375 36.859375 35.890625 
Q 36.859375 47.21875 34.515625 54.78125 
Q 32.765625 60.40625 29.984375 62.75 
Q 27.984375 64.359375 25.140625 64.359375 
Q 21.828125 64.359375 19.234375 61.375 
Q 15.71875 57.328125 14.453125 48.625 
Q 13.1875 39.9375 13.1875 31.5 
z
" id="TimesNewRomanPSMT-30"/>
      </defs>
      <g transform="translate(28.542362 69.939322)scale(0.06 -0.06)">
       <use xlink:href="#TimesNewRomanPSMT-31"/>
       <use x="50" xlink:href="#TimesNewRomanPSMT-30"/>
      </g>
     </g>
    </g>
    <g id="xtick_2">
     <g id="line2d_3">
      <path clip-path="url(#p751b4e9594)" d="M 64.118714 62.273072 
L 64.118714 9.283125 
" style="fill:none;opacity:0.1;stroke:#b0b0b0;stroke-linecap:square;stroke-width:0.1;"/>
     </g>
     <g id="line2d_4">
      <g>
       <use style="stroke:#000000;stroke-width:0.3;" x="64.118714" xlink:href="#mc6e9882b09" y="62.273072"/>
      </g>
     </g>
     <g id="text_2">
      <!-- 15 -->
      <defs>
       <path d="M 43.40625 66.21875 
L 39.59375 57.90625 
L 19.671875 57.90625 
L 15.328125 49.03125 
Q 28.265625 47.125 35.84375 39.40625 
Q 42.328125 32.765625 42.328125 23.78125 
Q 42.328125 18.5625 40.203125 14.109375 
Q 38.09375 9.671875 34.859375 6.546875 
Q 31.640625 3.421875 27.6875 1.515625 
Q 22.078125 -1.171875 16.15625 -1.171875 
Q 10.203125 -1.171875 7.484375 0.84375 
Q 4.78125 2.875 4.78125 5.328125 
Q 4.78125 6.6875 5.90625 7.734375 
Q 7.03125 8.796875 8.734375 8.796875 
Q 10.015625 8.796875 10.96875 8.40625 
Q 11.921875 8.015625 14.203125 6.390625 
Q 17.875 3.859375 21.625 3.859375 
Q 27.34375 3.859375 31.65625 8.171875 
Q 35.984375 12.5 35.984375 18.703125 
Q 35.984375 24.703125 32.125 29.90625 
Q 28.265625 35.109375 21.484375 37.9375 
Q 16.15625 40.140625 6.984375 40.484375 
L 19.671875 66.21875 
z
" id="TimesNewRomanPSMT-35"/>
      </defs>
      <g transform="translate(61.118714 69.939322)scale(0.06 -0.06)">
       <use xlink:href="#TimesNewRomanPSMT-31"/>
       <use x="50" xlink:href="#TimesNewRomanPSMT-35"/>
      </g>
     </g>
    </g>
    <g id="xtick_3">
     <g id="line2d_5">
      <path clip-path="url(#p751b4e9594)" d="M 96.695066 62.273072 
L 96.695066 9.283125 
" style="fill:none;opacity:0.1;stroke:#b0b0b0;stroke-linecap:square;stroke-width:0.1;"/>
     </g>
     <g id="line2d_6">
      <g>
       <use style="stroke:#000000;stroke-width:0.3;" x="96.695066" xlink:href="#mc6e9882b09" y="62.273072"/>
      </g>
     </g>
     <g id="text_3">
      <!-- 20 -->
      <defs>
       <path d="M 45.84375 12.75 
L 41.21875 0 
L 2.15625 0 
L 2.15625 1.8125 
Q 19.390625 17.53125 26.421875 27.484375 
Q 33.453125 37.453125 33.453125 45.703125 
Q 33.453125 52 29.59375 56.046875 
Q 25.734375 60.109375 20.359375 60.109375 
Q 15.484375 60.109375 11.59375 57.25 
Q 7.71875 54.390625 5.859375 48.875 
L 4.046875 48.875 
Q 5.28125 57.90625 10.328125 62.734375 
Q 15.375 67.578125 22.953125 67.578125 
Q 31 67.578125 36.390625 62.40625 
Q 41.796875 57.234375 41.796875 50.203125 
Q 41.796875 45.171875 39.453125 40.140625 
Q 35.84375 32.234375 27.734375 23.390625 
Q 15.578125 10.109375 12.546875 7.375 
L 29.828125 7.375 
Q 35.109375 7.375 37.234375 7.765625 
Q 39.359375 8.15625 41.0625 9.34375 
Q 42.78125 10.546875 44.046875 12.75 
z
" id="TimesNewRomanPSMT-32"/>
      </defs>
      <g transform="translate(93.695066 69.939322)scale(0.06 -0.06)">
       <use xlink:href="#TimesNewRomanPSMT-32"/>
       <use x="50" xlink:href="#TimesNewRomanPSMT-30"/>
      </g>
     </g>
    </g>
    <g id="xtick_4">
     <g id="line2d_7">
      <path clip-path="url(#p751b4e9594)" d="M 129.271418 62.273072 
L 129.271418 9.283125 
" style="fill:none;opacity:0.1;stroke:#b0b0b0;stroke-linecap:square;stroke-width:0.1;"/>
     </g>
     <g id="line2d_8">
      <g>
       <use style="stroke:#000000;stroke-width:0.3;" x="129.271418" xlink:href="#mc6e9882b09" y="62.273072"/>
      </g>
     </g>
     <g id="text_4">
      <!-- 25 -->
      <g transform="translate(126.271418 69.939322)scale(0.06 -0.06)">
       <use xlink:href="#TimesNewRomanPSMT-32"/>
       <use x="50" xlink:href="#TimesNewRomanPSMT-35"/>
      </g>
     </g>
    </g>
    <g id="xtick_5">
     <g id="line2d_9">
      <path clip-path="url(#p751b4e9594)" d="M 161.847769 62.273072 
L 161.847769 9.283125 
" style="fill:none;opacity:0.1;stroke:#b0b0b0;stroke-linecap:square;stroke-width:0.1;"/>
     </g>
     <g id="line2d_10">
      <g>
       <use style="stroke:#000000;stroke-width:0.3;" x="161.847769" xlink:href="#mc6e9882b09" y="62.273072"/>
      </g>
     </g>
     <g id="text_5">
      <!-- 30 -->
      <defs>
       <path d="M 5.078125 53.609375 
Q 7.90625 60.296875 12.21875 63.9375 
Q 16.546875 67.578125 23 67.578125 
Q 30.953125 67.578125 35.203125 62.40625 
Q 38.421875 58.546875 38.421875 54.15625 
Q 38.421875 46.921875 29.34375 39.203125 
Q 35.453125 36.8125 38.578125 32.375 
Q 41.703125 27.9375 41.703125 21.921875 
Q 41.703125 13.328125 36.234375 7.03125 
Q 29.109375 -1.171875 15.578125 -1.171875 
Q 8.890625 -1.171875 6.46875 0.484375 
Q 4.046875 2.15625 4.046875 4.046875 
Q 4.046875 5.46875 5.1875 6.546875 
Q 6.34375 7.625 7.953125 7.625 
Q 9.1875 7.625 10.453125 7.234375 
Q 11.28125 6.984375 14.203125 5.4375 
Q 17.140625 3.90625 18.265625 3.609375 
Q 20.0625 3.078125 22.125 3.078125 
Q 27.09375 3.078125 30.78125 6.9375 
Q 34.46875 10.796875 34.46875 16.0625 
Q 34.46875 19.921875 32.765625 23.578125 
Q 31.5 26.3125 29.984375 27.734375 
Q 27.875 29.6875 24.21875 31.265625 
Q 20.5625 32.859375 16.75 32.859375 
L 15.1875 32.859375 
L 15.1875 34.328125 
Q 19.046875 34.8125 22.921875 37.109375 
Q 26.8125 39.40625 28.5625 42.625 
Q 30.328125 45.84375 30.328125 49.703125 
Q 30.328125 54.734375 27.171875 57.828125 
Q 24.03125 60.9375 19.34375 60.9375 
Q 11.765625 60.9375 6.6875 52.828125 
z
" id="TimesNewRomanPSMT-33"/>
      </defs>
      <g transform="translate(158.847769 69.939322)scale(0.06 -0.06)">
       <use xlink:href="#TimesNewRomanPSMT-33"/>
       <use x="50" xlink:href="#TimesNewRomanPSMT-30"/>
      </g>
     </g>
    </g>
    <g id="xtick_6">
     <g id="line2d_11">
      <path clip-path="url(#p751b4e9594)" d="M 194.424121 62.273072 
L 194.424121 9.283125 
" style="fill:none;opacity:0.1;stroke:#b0b0b0;stroke-linecap:square;stroke-width:0.1;"/>
     </g>
     <g id="line2d_12">
      <g>
       <use style="stroke:#000000;stroke-width:0.3;" x="194.424121" xlink:href="#mc6e9882b09" y="62.273072"/>
      </g>
     </g>
     <g id="text_6">
      <!-- 35 -->
      <g transform="translate(191.424121 69.939322)scale(0.06 -0.06)">
       <use xlink:href="#TimesNewRomanPSMT-33"/>
       <use x="50" xlink:href="#TimesNewRomanPSMT-35"/>
      </g>
     </g>
    </g>
   </g>
   <g id="matplotlib.axis_2">
    <g id="ytick_1">
     <g id="line2d_13">
      <path clip-path="url(#p751b4e9594)" d="M 22.7 59.749741 
L 219.625676 59.749741 
" style="fill:none;opacity:0.1;stroke:#b0b0b0;stroke-linecap:square;stroke-width:0.1;"/>
     </g>
     <g id="line2d_14">
      <defs>
       <path d="M 0 0 
L 2 0 
" id="m411783688a" style="stroke:#000000;stroke-width:0.3;"/>
      </defs>
      <g>
       <use style="stroke:#000000;stroke-width:0.3;" x="22.7" xlink:href="#m411783688a" y="59.749741"/>
      </g>
     </g>
     <g id="text_7">
      <!-- 0 -->
      <g transform="translate(16.2 61.832866)scale(0.06 -0.06)">
       <use xlink:href="#TimesNewRomanPSMT-30"/>
      </g>
     </g>
    </g>
    <g id="ytick_2">
     <g id="line2d_15">
      <path clip-path="url(#p751b4e9594)" d="M 22.7 34.516433 
L 219.625676 34.516433 
" style="fill:none;opacity:0.1;stroke:#b0b0b0;stroke-linecap:square;stroke-width:0.1;"/>
     </g>
     <g id="line2d_16">
      <g>
       <use style="stroke:#000000;stroke-width:0.3;" x="22.7" xlink:href="#m411783688a" y="34.516433"/>
      </g>
     </g>
     <g id="text_8">
      <!-- 500 -->
      <g transform="translate(10.2 36.599558)scale(0.06 -0.06)">
       <use xlink:href="#TimesNewRomanPSMT-35"/>
       <use x="50" xlink:href="#TimesNewRomanPSMT-30"/>
       <use x="100" xlink:href="#TimesNewRomanPSMT-30"/>
      </g>
     </g>
    </g>
    <g id="ytick_3">
     <g id="line2d_17">
      <path clip-path="url(#p751b4e9594)" d="M 22.7 9.283125 
L 219.625676 9.283125 
" style="fill:none;opacity:0.1;stroke:#b0b0b0;stroke-linecap:square;stroke-width:0.1;"/>
     </g>
     <g id="line2d_18">
      <g>
       <use style="stroke:#000000;stroke-width:0.3;" x="22.7" xlink:href="#m411783688a" y="9.283125"/>
      </g>
     </g>
     <g id="text_9">
      <!-- 1000 -->
      <g transform="translate(7.2 11.36625)scale(0.06 -0.06)">
       <use xlink:href="#TimesNewRomanPSMT-31"/>
       <use x="50" xlink:href="#TimesNewRomanPSMT-30"/>
       <use x="100" xlink:href="#TimesNewRomanPSMT-30"/>
       <use x="150" xlink:href="#TimesNewRomanPSMT-30"/>
      </g>
     </g>
    </g>
   </g>
   <g id="line2d_19">
    <path clip-path="url(#p751b4e9594)" d="M 31.651167 59.800207 
L 41.140007 59.800207 
L 42.061918 47.789153 
L 141.47908 47.890086 
L 141.47908 47.940553 
L 143.078578 48.041486 
L 143.078578 48.041486 
L 145.126328 48.142419 
L 145.126328 48.142419 
L 149.028975 48.041486 
L 149.028975 47.991019 
L 167.798166 47.940553 
L 167.798166 47.839619 
L 167.947365 47.839619 
L 167.947365 47.68822 
L 168.484224 47.587286 
L 168.585862 47.284487 
L 168.970914 47.284487 
L 168.970914 47.032154 
L 169.377467 46.93122 
L 169.488227 46.477021 
L 169.665442 46.477021 
L 169.665442 46.275154 
L 170.024434 46.275154 
L 170.024434 46.073288 
L 170.144315 46.073288 
L 170.144315 45.921888 
L 170.533276 45.921888 
L 170.533276 45.720022 
L 170.664233 45.720022 
L 170.664233 45.518155 
L 170.931359 45.518155 
L 170.931359 45.366755 
L 171.204349 45.366755 
L 171.204349 45.114422 
L 171.457142 45.114422 
L 171.457142 44.963022 
L 172.644224 44.306956 
L 172.644224 44.10509 
L 173.174567 44.004157 
L 173.174567 43.903223 
L 173.398041 43.903223 
L 173.398041 43.751824 
L 173.919914 43.65089 
L 173.919914 43.600424 
L 174.188343 43.600424 
L 174.188343 43.449024 
L 174.593593 43.398557 
L 174.593593 43.297624 
L 175.000797 43.196691 
L 175.000797 43.146224 
L 175.372168 43.095758 
L 175.372168 42.994824 
L 176.006755 42.944358 
L 176.006755 42.843424 
L 176.819209 42.742491 
L 176.819209 42.692025 
L 177.582799 42.591091 
L 177.582799 42.540625 
L 178.090338 42.490158 
L 178.090338 42.439692 
L 182.263369 42.035959 
L 182.263369 42.035959 
L 184.765884 41.935025 
L 184.765884 41.884559 
L 192.427191 41.783626 
L 192.427191 41.733159 
L 201.942743 41.733159 
L 201.942743 41.935025 
L 202.093897 41.935025 
L 202.093897 41.733159 
L 202.588406 41.834092 
L 202.588406 41.884559 
L 203.656259 41.985492 
L 203.656259 42.136892 
L 203.897976 42.136892 
L 203.897976 41.733159 
L 204.320165 41.834092 
L 204.320165 41.783626 
L 204.826402 42.136892 
L 204.826402 23.867977 
L 204.965829 59.800207 
L 210.674509 59.800207 
L 210.674509 59.800207 
" style="fill:none;stroke:#1f77b4;stroke-linecap:square;"/>
   </g>
   <g id="line2d_20">
    <path clip-path="url(#p751b4e9594)" d="M 41.536135 42.040602 
L 41.936173 42.018144 
L 42.061918 47.789809 
L 42.470425 47.578001 
L 42.746673 48.266214 
L 42.834629 47.641084 
L 42.998813 47.376639 
L 43.228803 48.145599 
L 43.352593 48.354328 
L 43.626234 47.357865 
L 43.873163 48.079336 
L 44.015847 47.87969 
L 44.153319 48.333385 
L 44.274503 47.746609 
L 44.55466 49.3679 
L 44.658904 47.809491 
L 44.932546 49.42518 
L 45.046563 47.901441 
L 45.175565 47.880043 
L 45.452464 47.013784 
L 45.621861 46.703717 
L 45.714378 47.867023 
L 45.99258 45.931981 
L 46.221266 47.805504 
L 46.507287 47.999044 
L 47.016781 47.712545 
L 47.268922 47.802779 
L 48.315274 47.7997 
L 48.698372 47.795865 
L 50.916822 47.789102 
L 63.026755 47.733236 
L 63.710206 47.78557 
L 64.113502 47.830334 
L 64.498554 47.774063 
L 68.238971 47.773962 
L 68.643569 47.827962 
L 69.328976 47.699272 
L 69.689922 47.840679 
L 74.768575 47.737626 
L 75.023973 47.845272 
L 75.179688 47.737122 
L 75.455284 47.790919 
L 75.697652 47.793392 
L 77.381198 47.743279 
L 78.405399 47.787891 
L 78.671873 47.836894 
L 79.101881 47.784056 
L 80.378223 47.787336 
L 80.645349 47.888118 
L 81.702777 47.829021 
L 81.959479 47.72501 
L 82.049389 47.789203 
L 83.256669 47.775325 
L 86.105145 47.784207 
L 93.521478 47.734649 
L 94.052472 47.785015 
L 96.930918 47.781633 
L 101.344363 47.737324 
L 103.076122 47.772549 
L 104.731 47.725313 
L 104.895837 47.880144 
L 105.167523 47.786276 
L 113.719467 47.778757 
L 113.978123 47.828719 
L 114.268053 47.827306 
L 121.419865 47.75312 
L 121.542352 47.846483 
L 121.94239 47.745903 
L 122.350246 47.809794 
L 122.871467 47.796218 
L 123.135336 47.856122 
L 124.929641 47.7943 
L 129.227114 47.843253 
L 144.360784 48.075854 
L 144.614228 48.129146 
L 146.43264 48.07328 
L 146.818995 48.036237 
L 146.965589 48.054204 
L 147.100455 47.919559 
L 147.359111 48.227506 
L 147.604085 48.122939 
L 147.860135 48.074188 
L 148.406767 48.071715 
L 149.685063 47.998892 
L 152.033166 48.006765 
L 153.998172 47.978251 
L 154.247706 47.494483 
L 154.505711 48.004797 
L 154.900537 47.376386 
L 155.161147 48.076964 
L 155.428273 48.102147 
L 155.547503 48.151604 
L 155.815932 47.868739 
L 156.090876 47.997832 
L 156.982817 48.088016 
L 157.112471 48.173002 
L 157.503387 47.996016 
L 158.935443 47.903561 
L 159.087901 47.875097 
L 159.196054 47.98456 
L 160.508881 48.012316 
L 161.432095 47.993593 
L 167.151199 48.04628 
L 168.484224 47.393596 
L 168.731804 47.186733 
L 169.099917 46.912447 
L 169.257586 46.833113 
L 169.665442 46.184264 
L 170.144315 45.837457 
L 170.533276 45.600971 
L 170.664233 45.155452 
L 170.795842 46.5288 
L 170.931359 45.80743 
L 171.061013 45.841999 
L 171.204349 45.133499 
L 171.317063 45.244576 
L 171.457142 45.078843 
L 172.098896 45.673491 
L 172.226595 44.313618 
L 172.487857 44.344453 
L 172.756938 44.193053 
L 172.882031 44.234486 
L 173.174567 43.951066 
L 173.301615 43.990682 
L 173.398041 43.779732 
L 173.661909 43.861084 
L 173.919914 43.638021 
L 174.078886 43.685914 
L 174.312133 43.435196 
L 174.446999 43.475721 
L 174.701746 43.371558 
L 175.101132 43.210519 
L 175.486836 43.056646 
L 175.638642 43.098634 
L 175.750053 42.972821 
L 175.909026 43.016575 
L 176.006755 42.867447 
L 178.360722 42.529118 
L 178.769881 42.629648 
L 179.020719 42.396845 
L 179.277421 42.323063 
L 179.425969 42.360812 
L 179.523698 42.259324 
L 179.915917 42.352738 
L 180.204544 42.214812 
L 180.572005 42.19397 
L 180.994194 42.205577 
L 181.35905 42.134823 
L 181.903726 42.130079 
L 182.010577 42.153748 
L 182.263369 42.063766 
L 182.537662 42.120339 
L 182.651028 42.005527 
L 183.221765 42.011634 
L 183.568378 42.033637 
L 183.713017 42.061091 
L 183.833549 41.953849 
L 184.387999 41.958341 
L 184.765884 41.883196 
L 185.257136 39.840055 
L 185.541202 41.948601 
L 185.818752 42.560509 
L 186.194032 40.551887 
L 186.299579 41.874365 
L 186.838392 41.841511 
L 189.045114 41.768435 
L 189.432121 41.816328 
L 189.556563 41.999068 
L 189.689474 41.756929 
L 190.236105 41.819911 
L 192.188732 41.80795 
L 192.305355 41.915697 
L 192.427191 41.698337 
L 193.965446 41.839593 
L 193.990856 41.729929 
L 195.329092 41.73866 
L 198.962659 41.733512 
L 199.204375 41.73215 
L 201.833938 41.730333 
L 201.942743 41.936035 
L 202.19749 41.73326 
L 202.45745 41.833739 
L 203.035354 41.941939 
L 203.507711 41.990488 
L 203.761807 42.153445 
L 203.897976 41.738963 
L 204.70196 41.810121 
L 204.826402 22.254812 
L 205.070724 22.657586 
L 205.201681 22.533034 
L 205.325472 22.215044 
L 205.504641 21.40778 
L 205.856466 14.187874 
L 206.127501 11.292908 
L 206.254549 11.012767 
L 206.367915 11.219882 
L 206.631132 12.713644 
L 207.550436 20.747071 
L 207.670969 20.738391 
L 207.964156 19.880408 
L 208.202615 19.161763 
L 208.322496 19.18084 
L 208.611122 20.066882 
L 209.781265 25.286139 
L 210.156545 25.740591 
L 210.566355 25.784548 
L 210.674509 25.920757 
L 210.674509 25.920757 
" style="fill:none;stroke:#ff7f0e;stroke-linecap:square;"/>
   </g>
   <g id="patch_3">
    <path d="M 22.7 62.273072 
L 22.7 9.283125 
" style="fill:none;stroke:#000000;stroke-linecap:square;stroke-linejoin:miter;stroke-width:0.3;"/>
   </g>
   <g id="patch_4">
    <path d="M 219.625676 62.273072 
L 219.625676 9.283125 
" style="fill:none;stroke:#000000;stroke-linecap:square;stroke-linejoin:miter;stroke-width:0.3;"/>
   </g>
   <g id="patch_5">
    <path d="M 22.7 62.273072 
L 219.625676 62.273072 
" style="fill:none;stroke:#000000;stroke-linecap:square;stroke-linejoin:miter;stroke-width:0.3;"/>
   </g>
   <g id="patch_6">
    <path d="M 22.7 9.283125 
L 219.625676 9.283125 
" style="fill:none;stroke:#000000;stroke-linecap:square;stroke-linejoin:miter;stroke-width:0.3;"/>
   </g>
  </g>
  <g id="axes_2">
   <g id="patch_7">
    <path d="M 22.7 136.458997 
L 219.625676 136.458997 
L 219.625676 83.46905 
L 22.7 83.46905 
z
" style="fill:#ffffff;"/>
   </g>
   <g id="matplotlib.axis_3">
    <g id="xtick_7">
     <g id="line2d_21">
      <path clip-path="url(#pb69a1b8969)" d="M 31.542362 136.458997 
L 31.542362 83.46905 
" style="fill:none;opacity:0.1;stroke:#b0b0b0;stroke-linecap:square;stroke-width:0.1;"/>
     </g>
     <g id="line2d_22">
      <g>
       <use style="stroke:#000000;stroke-width:0.3;" x="31.542362" xlink:href="#mc6e9882b09" y="136.458997"/>
      </g>
     </g>
     <g id="text_10">
      <!-- 10 -->
      <g transform="translate(28.542362 144.125247)scale(0.06 -0.06)">
       <use xlink:href="#TimesNewRomanPSMT-31"/>
       <use x="50" xlink:href="#TimesNewRomanPSMT-30"/>
      </g>
     </g>
    </g>
    <g id="xtick_8">
     <g id="line2d_23">
      <path clip-path="url(#pb69a1b8969)" d="M 64.118714 136.458997 
L 64.118714 83.46905 
" style="fill:none;opacity:0.1;stroke:#b0b0b0;stroke-linecap:square;stroke-width:0.1;"/>
     </g>
     <g id="line2d_24">
      <g>
       <use style="stroke:#000000;stroke-width:0.3;" x="64.118714" xlink:href="#mc6e9882b09" y="136.458997"/>
      </g>
     </g>
     <g id="text_11">
      <!-- 15 -->
      <g transform="translate(61.118714 144.125247)scale(0.06 -0.06)">
       <use xlink:href="#TimesNewRomanPSMT-31"/>
       <use x="50" xlink:href="#TimesNewRomanPSMT-35"/>
      </g>
     </g>
    </g>
    <g id="xtick_9">
     <g id="line2d_25">
      <path clip-path="url(#pb69a1b8969)" d="M 96.695066 136.458997 
L 96.695066 83.46905 
" style="fill:none;opacity:0.1;stroke:#b0b0b0;stroke-linecap:square;stroke-width:0.1;"/>
     </g>
     <g id="line2d_26">
      <g>
       <use style="stroke:#000000;stroke-width:0.3;" x="96.695066" xlink:href="#mc6e9882b09" y="136.458997"/>
      </g>
     </g>
     <g id="text_12">
      <!-- 20 -->
      <g transform="translate(93.695066 144.125247)scale(0.06 -0.06)">
       <use xlink:href="#TimesNewRomanPSMT-32"/>
       <use x="50" xlink:href="#TimesNewRomanPSMT-30"/>
      </g>
     </g>
    </g>
    <g id="xtick_10">
     <g id="line2d_27">
      <path clip-path="url(#pb69a1b8969)" d="M 129.271418 136.458997 
L 129.271418 83.46905 
" style="fill:none;opacity:0.1;stroke:#b0b0b0;stroke-linecap:square;stroke-width:0.1;"/>
     </g>
     <g id="line2d_28">
      <g>
       <use style="stroke:#000000;stroke-width:0.3;" x="129.271418" xlink:href="#mc6e9882b09" y="136.458997"/>
      </g>
     </g>
     <g id="text_13">
      <!-- 25 -->
      <g transform="translate(126.271418 144.125247)scale(0.06 -0.06)">
       <use xlink:href="#TimesNewRomanPSMT-32"/>
       <use x="50" xlink:href="#TimesNewRomanPSMT-35"/>
      </g>
     </g>
    </g>
    <g id="xtick_11">
     <g id="line2d_29">
      <path clip-path="url(#pb69a1b8969)" d="M 161.847769 136.458997 
L 161.847769 83.46905 
" style="fill:none;opacity:0.1;stroke:#b0b0b0;stroke-linecap:square;stroke-width:0.1;"/>
     </g>
     <g id="line2d_30">
      <g>
       <use style="stroke:#000000;stroke-width:0.3;" x="161.847769" xlink:href="#mc6e9882b09" y="136.458997"/>
      </g>
     </g>
     <g id="text_14">
      <!-- 30 -->
      <g transform="translate(158.847769 144.125247)scale(0.06 -0.06)">
       <use xlink:href="#TimesNewRomanPSMT-33"/>
       <use x="50" xlink:href="#TimesNewRomanPSMT-30"/>
      </g>
     </g>
    </g>
    <g id="xtick_12">
     <g id="line2d_31">
      <path clip-path="url(#pb69a1b8969)" d="M 194.424121 136.458997 
L 194.424121 83.46905 
" style="fill:none;opacity:0.1;stroke:#b0b0b0;stroke-linecap:square;stroke-width:0.1;"/>
     </g>
     <g id="line2d_32">
      <g>
       <use style="stroke:#000000;stroke-width:0.3;" x="194.424121" xlink:href="#mc6e9882b09" y="136.458997"/>
      </g>
     </g>
     <g id="text_15">
      <!-- 35 -->
      <g transform="translate(191.424121 144.125247)scale(0.06 -0.06)">
       <use xlink:href="#TimesNewRomanPSMT-33"/>
       <use x="50" xlink:href="#TimesNewRomanPSMT-35"/>
      </g>
     </g>
    </g>
   </g>
   <g id="matplotlib.axis_4">
    <g id="ytick_4">
     <g id="line2d_33">
      <path clip-path="url(#pb69a1b8969)" d="M 22.7 133.948322 
L 219.625676 133.948322 
" style="fill:none;opacity:0.1;stroke:#b0b0b0;stroke-linecap:square;stroke-width:0.1;"/>
     </g>
     <g id="line2d_34">
      <g>
       <use style="stroke:#000000;stroke-width:0.3;" x="22.7" xlink:href="#m411783688a" y="133.948322"/>
      </g>
     </g>
     <g id="text_16">
      <!-- 0 -->
      <g transform="translate(16.2 136.031447)scale(0.06 -0.06)">
       <use xlink:href="#TimesNewRomanPSMT-30"/>
      </g>
     </g>
    </g>
    <g id="ytick_5">
     <g id="line2d_35">
      <path clip-path="url(#pb69a1b8969)" d="M 22.7 113.540191 
L 219.625676 113.540191 
" style="fill:none;opacity:0.1;stroke:#b0b0b0;stroke-linecap:square;stroke-width:0.1;"/>
     </g>
     <g id="line2d_36">
      <g>
       <use style="stroke:#000000;stroke-width:0.3;" x="22.7" xlink:href="#m411783688a" y="113.540191"/>
      </g>
     </g>
     <g id="text_17">
      <!-- 200 -->
      <g transform="translate(10.2 115.623316)scale(0.06 -0.06)">
       <use xlink:href="#TimesNewRomanPSMT-32"/>
       <use x="50" xlink:href="#TimesNewRomanPSMT-30"/>
       <use x="100" xlink:href="#TimesNewRomanPSMT-30"/>
      </g>
     </g>
    </g>
    <g id="ytick_6">
     <g id="line2d_37">
      <path clip-path="url(#pb69a1b8969)" d="M 22.7 93.13206 
L 219.625676 93.13206 
" style="fill:none;opacity:0.1;stroke:#b0b0b0;stroke-linecap:square;stroke-width:0.1;"/>
     </g>
     <g id="line2d_38">
      <g>
       <use style="stroke:#000000;stroke-width:0.3;" x="22.7" xlink:href="#m411783688a" y="93.13206"/>
      </g>
     </g>
     <g id="text_18">
      <!-- 400 -->
      <defs>
       <path d="M 46.53125 24.421875 
L 46.53125 17.484375 
L 37.640625 17.484375 
L 37.640625 0 
L 29.59375 0 
L 29.59375 17.484375 
L 1.5625 17.484375 
L 1.5625 23.734375 
L 32.28125 67.578125 
L 37.640625 67.578125 
L 37.640625 24.421875 
z
M 29.59375 24.421875 
L 29.59375 57.28125 
L 6.34375 24.421875 
z
" id="TimesNewRomanPSMT-34"/>
      </defs>
      <g transform="translate(10.2 95.215185)scale(0.06 -0.06)">
       <use xlink:href="#TimesNewRomanPSMT-34"/>
       <use x="50" xlink:href="#TimesNewRomanPSMT-30"/>
       <use x="100" xlink:href="#TimesNewRomanPSMT-30"/>
      </g>
     </g>
    </g>
   </g>
   <g id="line2d_39">
    <path clip-path="url(#pb69a1b8969)" d="M 31.651167 134.050363 
L 41.140007 134.050363 
L 42.061918 115.581004 
L 42.061918 115.581004 
L 42.470425 115.581004 
L 42.470425 115.785086 
L 42.746673 115.785086 
L 42.746673 115.581004 
L 42.834629 115.683045 
L 43.540884 115.581004 
L 43.540884 115.581004 
L 43.750676 115.478964 
L 43.750676 115.478964 
L 47.405091 115.581004 
L 47.405091 115.683045 
L 47.786886 115.581004 
L 47.786886 115.478964 
L 56.908264 115.581004 
L 56.908264 115.683045 
L 57.18386 115.683045 
L 57.18386 115.478964 
L 81.172434 115.581004 
L 81.172434 115.683045 
L 81.27733 115.683045 
L 81.27733 115.683045 
L 81.27733 115.478964 
L 86.358589 115.478964 
L 86.358589 115.683045 
L 86.658292 115.683045 
L 86.658292 115.478964 
L 112.420322 115.581004 
L 112.420322 115.683045 
L 113.591116 115.581004 
L 113.591116 115.581004 
L 116.859176 115.683045 
L 116.859176 115.785086 
L 117.110014 115.785086 
L 117.110014 115.478964 
L 117.373231 115.478964 
L 117.373231 115.683045 
L 118.185033 115.785086 
L 118.279505 115.887126 
L 118.279505 115.887126 
L 118.279505 115.887126 
L 118.279505 115.785086 
L 119.192946 115.785086 
L 119.192946 115.989167 
L 119.626211 115.887126 
L 119.626211 115.785086 
L 120.260799 115.785086 
L 120.260799 115.376923 
L 120.396316 115.376923 
L 120.396316 115.683045 
L 120.507076 115.581004 
L 121.047843 115.478964 
L 121.047843 115.172842 
L 122.064877 115.070801 
L 122.064877 114.96876 
L 122.450581 114.96876 
L 122.450581 114.764679 
L 122.968545 114.662638 
L 122.968545 114.560598 
L 124.28919 114.458557 
L 124.28919 114.254476 
L 125.45803 114.152435 
L 125.45803 114.050395 
L 126.750659 113.948354 
L 126.750659 113.846313 
L 127.718829 113.744273 
L 127.718829 113.642232 
L 128.964548 113.540191 
L 128.964548 113.33611 
L 130.152934 113.234069 
L 130.152934 113.132029 
L 130.917826 113.132029 
L 130.917826 112.927947 
L 132.630691 112.825907 
L 132.630691 112.825907 
L 133.429463 112.621825 
L 133.429463 112.519785 
L 135.088251 112.417744 
L 135.088251 112.315703 
L 135.90722 112.213663 
L 135.90722 112.111622 
L 136.915133 112.009581 
L 136.915133 111.907541 
L 137.742572 111.8055 
L 137.742572 111.70346 
L 140.18645 111.601419 
L 140.18645 111.499378 
L 142.013983 111.397338 
L 142.122788 111.295297 
L 142.122788 111.295297 
L 142.122788 111.295297 
L 142.122788 111.397338 
L 144.208326 111.295297 
L 144.208326 111.193256 
L 145.517244 111.091216 
L 145.517244 110.989175 
L 147.744164 110.887134 
L 147.744164 110.887134 
L 149.30001 110.581012 
L 149.30001 110.581012 
L 151.384897 110.478972 
L 151.384897 110.376931 
L 159.719231 110.27489 
L 159.719231 110.17285 
L 164.283829 110.27489 
L 164.283829 110.376931 
L 167.025455 110.478972 
L 167.025455 112.111622 
L 167.32646 112.111622 
L 167.410507 114.458557 
L 167.947365 114.458557 
L 167.947365 113.846313 
L 168.075065 113.846313 
L 168.075065 113.438151 
L 168.585862 113.33611 
L 168.585862 113.234069 
L 169.377467 113.33611 
L 169.488227 114.458557 
L 169.665442 114.458557 
L 169.665442 114.86672 
L 170.144315 114.86672 
L 170.144315 114.458557 
L 170.533276 114.458557 
L 170.533276 113.744273 
L 170.664233 113.744273 
L 170.664233 113.540191 
L 171.204349 113.540191 
L 171.204349 113.33611 
L 171.457142 113.33611 
L 171.457142 113.234069 
L 172.226595 114.152435 
L 172.226595 114.458557 
L 172.644224 114.458557 
L 172.644224 113.846313 
L 173.02211 113.846313 
L 173.02211 113.438151 
L 174.188343 113.33611 
L 174.188343 113.744273 
L 174.312133 113.744273 
L 174.312133 114.050395 
L 174.593593 114.050395 
L 174.593593 114.458557 
L 175.000797 114.458557 
L 175.000797 114.152435 
L 175.254893 114.152435 
L 175.254893 113.846313 
L 176.676525 113.846313 
L 176.676525 114.152435 
L 176.819209 114.152435 
L 176.819209 114.356517 
L 177.072002 114.356517 
L 177.072002 114.662638 
L 177.582799 114.560598 
L 177.582799 114.152435 
L 178.922338 114.152435 
L 178.922338 114.356517 
L 179.137994 114.356517 
L 179.137994 114.662638 
L 179.277421 114.662638 
L 179.277421 114.86672 
L 179.523698 114.86672 
L 179.523698 114.764679 
L 180.204544 114.458557 
L 180.204544 114.356517 
L 181.483491 114.458557 
L 181.483491 114.662638 
L 181.654843 114.662638 
L 181.654843 114.96876 
L 182.135018 115.070801 
L 182.135018 114.86672 
L 182.263369 114.86672 
L 182.263369 114.662638 
L 183.833549 114.662638 
L 183.833549 114.86672 
L 184.630367 115.070801 
L 184.630367 114.96876 
L 187.21302 115.070801 
L 187.21302 115.172842 
L 187.655407 115.274882 
L 187.655407 115.376923 
L 187.736848 115.376923 
L 189.432121 115.478964 
L 189.432121 115.581004 
L 189.948782 115.683045 
L 189.948782 115.785086 
L 191.255745 115.683045 
L 191.255745 115.785086 
L 192.188732 116.091208 
L 192.188732 116.295289 
L 194.121813 116.193248 
L 194.121813 116.091208 
L 194.770734 116.193248 
L 194.770734 116.295289 
L 195.575369 116.39733 
L 195.575369 116.601411 
L 195.681568 116.601411 
L 196.874514 116.703452 
L 196.874514 116.805492 
L 197.505844 116.703452 
L 197.505844 116.805492 
L 198.81411 117.213655 
L 198.81411 117.213655 
L 199.853296 117.213655 
L 199.853296 117.417736 
L 200.137362 117.417736 
L 200.137362 117.111614 
L 200.276137 117.111614 
L 200.276137 117.315696 
L 200.924406 117.315696 
L 200.924406 117.519777 
L 201.167426 117.519777 
L 201.167426 117.315696 
L 201.439764 117.315696 
L 201.439764 117.621817 
L 201.942743 117.621817 
L 201.942743 118.132021 
L 202.721318 118.132021 
L 202.721318 118.642224 
L 203.241888 118.132021 
L 203.241888 118.540183 
L 203.376754 118.540183 
L 203.376754 117.825899 
L 203.656259 117.825899 
L 203.656259 116.49937 
L 203.897976 116.49937 
L 203.897976 116.193248 
L 204.152071 116.193248 
L 204.152071 116.49937 
L 204.320165 116.49937 
L 204.320165 116.295289 
L 204.826402 118.846305 
L 204.826402 93.13206 
L 204.965829 134.050363 
L 210.674509 134.050363 
L 210.674509 134.050363 
" style="fill:none;stroke:#1f77b4;stroke-linecap:square;"/>
   </g>
   <g id="line2d_40">
    <path clip-path="url(#pb69a1b8969)" d="M 41.536135 116.869472 
L 41.936173 116.882431 
L 42.061918 115.582229 
L 42.319271 115.559066 
L 42.470425 115.916208 
L 42.630701 117.289369 
L 42.998813 113.793864 
L 43.352593 118.019878 
L 43.626234 114.02468 
L 43.750676 115.019781 
L 43.873163 114.943454 
L 44.153319 116.021616 
L 44.274503 115.460596 
L 44.55466 116.016106 
L 44.932546 114.703251 
L 45.046563 115.531821 
L 45.175565 115.37876 
L 45.452464 123.163135 
L 45.621861 125.995233 
L 45.824486 110.440298 
L 45.99258 105.376633 
L 46.105946 115.434882 
L 46.221266 115.594474 
L 46.63694 115.581617 
L 46.870187 115.724984 
L 47.016781 115.755392 
L 47.268922 115.589474 
L 47.405091 115.692841 
L 47.786886 115.46927 
L 48.315274 115.401107 
L 48.581749 115.582739 
L 49.484114 115.473351 
L 50.788471 115.474372 
L 51.042566 115.583249 
L 51.956007 115.585698 
L 52.221179 115.481821 
L 52.50329 115.587229 
L 56.908264 115.683759 
L 57.03857 115.687127 
L 57.304393 115.482229 
L 57.598883 115.590392 
L 61.339951 115.585188 
L 61.618153 115.589576 
L 61.730867 115.476821 
L 61.994736 115.580392 
L 62.254044 115.474984 
L 62.377182 115.471923 
L 62.655384 115.581106 
L 62.904919 115.472637 
L 63.190939 115.581821 
L 63.58381 115.583045 
L 63.710206 115.374066 
L 63.955832 115.576004 
L 64.601495 115.581617 
L 64.983942 115.474372 
L 65.284296 115.583657 
L 67.718401 115.592739 
L 67.8676 115.597841 
L 67.980315 115.477841 
L 79.739075 115.474678 
L 79.875244 115.372535 
L 80.132597 115.578964 
L 80.378223 115.476005 
L 80.645349 115.580902 
L 81.802461 115.476515 
L 81.959479 115.466617 
L 82.049389 115.576923 
L 84.948685 115.47376 
L 85.179325 115.350393 
L 85.600212 115.56876 
L 85.841928 115.585494 
L 86.105145 115.474984 
L 86.229587 115.469984 
L 86.490198 115.696004 
L 86.746899 115.478147 
L 87.010116 115.579168 
L 93.949531 115.431107 
L 94.178217 115.582433 
L 94.713772 115.477433 
L 94.957443 115.46978 
L 95.139219 115.573657 
L 95.356829 115.474984 
L 95.478013 115.577229 
L 98.217684 115.567739 
L 98.361672 115.577535 
L 98.641828 115.463454 
L 98.763664 115.457127 
L 98.873121 115.577025 
L 101.599761 115.575188 
L 103.192745 115.565902 
L 103.44228 115.470188 
L 103.558252 115.467739 
L 103.818211 115.57529 
L 106.295968 115.584882 
L 112.310214 115.579474 
L 112.556491 115.689065 
L 112.988454 115.697739 
L 113.070546 115.482535 
L 113.48166 115.462943 
L 113.719467 115.573555 
L 115.15413 115.579576 
L 115.416044 115.474168 
L 115.697503 115.580698 
L 116.746462 115.688555 
L 116.988178 115.79478 
L 117.110014 115.481413 
L 117.245531 115.444372 
L 117.537416 115.797637 
L 117.630584 115.580392 
L 117.763495 115.575188 
L 117.885983 115.788861 
L 119.07111 115.798351 
L 119.192946 115.995596 
L 119.325206 115.998147 
L 119.716774 115.76529 
L 120.121372 115.718759 
L 120.260799 115.357535 
L 120.396316 115.666923 
L 120.628911 115.563862 
L 120.90125 115.465903 
L 121.156648 115.126515 
L 121.419865 115.226719 
L 121.672006 115.050495 
L 122.350246 114.902026 
L 122.576326 114.719169 
L 122.725525 114.736516 
L 123.135336 114.503557 
L 123.362067 114.513047 
L 124.561529 114.329068 
L 124.814321 114.096619 
L 125.194813 114.131415 
L 128.835546 113.493865 
L 128.964548 113.313559 
L 129.126127 113.284681 
L 129.227114 113.415089 
L 130.041522 113.199682 
L 130.419408 112.997335 
L 130.670898 112.93458 
L 130.794036 113.100498 
L 131.050738 112.856621 
L 131.457942 112.894886 
L 131.704219 112.760703 
L 132.104909 112.771315 
L 132.520583 112.769478 
L 132.744057 112.771111 
L 133.295249 112.586825 
L 133.695938 112.412132 
L 133.789106 112.492234 
L 134.73382 112.339581 
L 134.965112 112.348663 
L 135.48894 112.1855 
L 136.654522 111.921929 
L 136.806328 111.975908 
L 136.915133 111.878765 
L 137.603797 111.765806 
L 137.958879 111.61499 
L 138.099609 111.587031 
L 138.220793 111.782235 
L 139.796185 111.572031 
L 140.18645 111.470603 
L 145.517244 110.959991 
L 146.190923 110.712645 
L 146.43264 110.945297 
L 147.100455 110.702951 
L 147.471174 110.966624 
L 148.125958 110.758461 
L 148.406767 110.612849 
L 148.650438 110.619992 
L 148.9332 110.505808 
L 149.165796 110.518665 
L 149.559318 110.523359 
L 149.818626 110.416319 
L 150.361348 110.443768 
L 150.881266 110.388564 
L 151.115816 110.42887 
L 151.515202 110.301115 
L 151.652023 110.454584 
L 151.773207 110.309278 
L 152.306156 110.317849 
L 152.581752 110.253768 
L 152.813044 110.346319 
L 153.206566 110.347339 
L 153.998172 110.327237 
L 154.144765 109.619789 
L 154.247706 110.42889 
L 154.505711 110.216013 
L 154.900537 110.399686 
L 155.028887 110.250094 
L 155.161147 110.404992 
L 155.294059 110.349788 
L 155.547503 110.563972 
L 155.677157 110.335094 
L 155.815932 108.711525 
L 155.941677 110.176625 
L 156.204894 110.613461 
L 156.589295 110.03387 
L 156.745661 109.874687 
L 156.982817 110.346625 
L 157.370476 110.35336 
L 157.906031 110.051523 
L 158.029169 110.185401 
L 158.162081 110.063768 
L 158.31975 110.148972 
L 158.439631 110.034278 
L 158.561467 110.195911 
L 159.618244 110.311523 
L 159.719231 110.171115 
L 161.282244 110.163972 
L 165.840979 110.27387 
L 166.237107 110.338768 
L 166.639751 110.962746 
L 167.025455 112.399785 
L 167.151199 112.608968 
L 167.410507 114.349884 
L 167.668512 113.639171 
L 167.798166 114.074272 
L 168.075065 113.325192 
L 168.484224 113.432538 
L 168.585862 113.260804 
L 168.970914 113.186825 
L 169.257586 113.101621 
L 169.488227 114.51968 
L 169.786626 115.185189 
L 169.884355 115.320188 
L 170.024434 115.068556 
L 170.144315 114.621516 
L 170.404925 114.964475 
L 170.664233 113.574069 
L 171.457142 113.331008 
L 171.982272 113.98866 
L 172.098896 114.188251 
L 172.226595 114.713863 
L 172.358204 114.734271 
L 172.487857 114.472639 
L 172.756938 113.839681 
L 172.882031 113.822232 
L 173.02211 113.415396 
L 173.301615 113.395906 
L 173.398041 113.530702 
L 173.792866 113.42213 
L 174.078886 113.289273 
L 174.312133 114.032742 
L 174.446999 114.015701 
L 174.701746 114.437741 
L 174.873098 114.447639 
L 175.101132 114.133354 
L 175.372168 113.72713 
L 175.909026 113.696722 
L 176.006755 113.829783 
L 176.172243 113.712334 
L 176.275184 113.827742 
L 176.555341 113.774477 
L 176.819209 114.336823 
L 176.914984 114.3257 
L 177.174943 114.636516 
L 177.43816 114.550496 
L 177.582799 114.134272 
L 178.769881 114.009884 
L 179.277421 114.850495 
L 179.915917 114.714067 
L 180.204544 114.331925 
L 180.701659 114.328251 
L 181.115378 114.266517 
L 181.654843 114.945087 
L 182.135018 114.854475 
L 182.394326 114.616924 
L 182.80153 114.609781 
L 183.082339 114.604067 
L 183.303206 114.542639 
L 183.568378 114.600394 
L 183.713017 114.566312 
L 183.833549 114.846414 
L 184.247269 114.797026 
L 184.387999 115.174883 
L 184.630367 114.975699 
L 184.765884 114.907332 
L 185.257136 107.875608 
L 185.410245 114.3457 
L 185.818752 116.30784 
L 186.074802 112.841315 
L 186.194032 112.610397 
L 186.299579 114.958658 
L 186.838392 115.126923 
L 187.21302 115.224576 
L 187.868456 115.487229 
L 188.025474 115.34825 
L 188.259372 115.478147 
L 188.529105 115.337331 
L 188.950643 115.517637 
L 189.432121 115.605188 
L 189.556563 116.196922 
L 189.689474 115.785596 
L 190.08039 115.88529 
L 191.115667 115.632943 
L 191.255745 115.797229 
L 191.668813 115.634372 
L 191.771103 115.960085 
L 192.188732 116.217432 
L 192.305355 115.974371 
L 192.427191 116.300901 
L 193.20772 116.283962 
L 194.121813 116.186105 
L 194.411091 116.381207 
L 194.694505 116.139779 
L 194.904297 116.375187 
L 195.329092 116.642941 
L 195.575369 116.64835 
L 195.681568 116.622942 
L 195.947391 116.816104 
L 196.38196 116.705696 
L 196.757891 116.702431 
L 197.010684 116.821104 
L 198.328071 116.848043 
L 198.427103 117.222736 
L 199.463683 117.333757 
L 199.719733 117.267634 
L 199.988814 117.478552 
L 200.137362 117.137533 
L 200.400579 117.373246 
L 200.507429 117.229879 
L 200.809086 117.348246 
L 201.05406 117.575695 
L 201.167426 117.343553 
L 201.375263 117.399063 
L 201.439764 117.638858 
L 201.833938 117.69447 
L 201.942743 118.168959 
L 202.19749 118.094878 
L 202.45745 118.210694 
L 202.588406 118.168449 
L 202.721318 118.681714 
L 203.119401 118.785795 
L 203.241888 118.571204 
L 203.376754 117.858246 
L 203.507711 117.887429 
L 203.761807 116.506309 
L 203.897976 116.180187 
L 204.058251 116.087636 
L 204.152071 116.53437 
L 204.425061 116.343044 
L 204.70196 116.410391 
L 204.826402 91.153798 
L 205.070724 91.683491 
L 205.325472 91.499002 
L 205.504641 91.877266 
L 205.586082 89.909412 
L 205.759389 90.393901 
L 205.976999 94.217059 
L 206.367915 101.530721 
L 206.51516 102.419801 
L 206.631132 102.069189 
L 206.887833 99.51205 
L 207.826684 86.223806 
L 207.964156 85.877684 
L 208.074916 86.546663 
L 208.45671 93.900631 
L 208.741428 98.187461 
L 208.975978 99.355928 
L 209.106934 99.175622 
L 209.656172 97.277258 
L 209.781265 97.299299 
L 209.886161 97.591339 
L 210.156545 98.954296 
L 210.674509 97.130115 
L 210.674509 97.130115 
" style="fill:none;stroke:#ff7f0e;stroke-linecap:square;"/>
   </g>
   <g id="patch_8">
    <path d="M 22.7 136.458997 
L 22.7 83.46905 
" style="fill:none;stroke:#000000;stroke-linecap:square;stroke-linejoin:miter;stroke-width:0.3;"/>
   </g>
   <g id="patch_9">
    <path d="M 219.625676 136.458997 
L 219.625676 83.46905 
" style="fill:none;stroke:#000000;stroke-linecap:square;stroke-linejoin:miter;stroke-width:0.3;"/>
   </g>
   <g id="patch_10">
    <path d="M 22.7 136.458997 
L 219.625676 136.458997 
" style="fill:none;stroke:#000000;stroke-linecap:square;stroke-linejoin:miter;stroke-width:0.3;"/>
   </g>
   <g id="patch_11">
    <path d="M 22.7 83.46905 
L 219.625676 83.46905 
" style="fill:none;stroke:#000000;stroke-linecap:square;stroke-linejoin:miter;stroke-width:0.3;"/>
   </g>
  </g>
 </g>
 <defs>
  <clipPath id="p751b4e9594">
   <rect height="52.989947" width="196.925676" x="22.7" y="9.283125"/>
  </clipPath>
  <clipPath id="pb69a1b8969">
   <rect height="52.989947" width="196.925676" x="22.7" y="83.46905"/>
  </clipPath>
 </defs>
</svg>
