<?xml version="1.0" encoding="utf-8" standalone="no"?>
<!DOCTYPE svg PUBLIC "-//W3C//DTD SVG 1.1//EN"
  "http://www.w3.org/Graphics/SVG/1.1/DTD/svg11.dtd">
<!-- Created with matplotlib (http://matplotlib.org/) -->
<svg height="150pt" version="1.1" viewBox="0 0 223 150" width="223pt" xmlns="http://www.w3.org/2000/svg" xmlns:xlink="http://www.w3.org/1999/xlink">
 <defs>
  <style type="text/css">
*{stroke-linecap:butt;stroke-linejoin:round;}
  </style>
 </defs>
 <g id="figure_1">
  <g id="patch_1">
   <path d="M 0 150.525559 
L 223.825676 150.525559 
L 223.825676 0 
L 0 0 
z
" style="fill:#ffffff;"/>
  </g>
  <g id="axes_1">
   <g id="patch_2">
    <path d="M 19.7 60.189947 
L 216.625676 60.189947 
L 216.625676 7.2 
L 19.7 7.2 
z
" style="fill:#ffffff;"/>
   </g>
   <g id="matplotlib.axis_1">
    <g id="xtick_1">
     <g id="line2d_1">
      <path clip-path="url(#p320decb640)" d="M 28.226847 60.189947 
L 28.226847 7.2 
" style="fill:none;opacity:0.1;stroke:#b0b0b0;stroke-linecap:square;stroke-width:0.1;"/>
     </g>
     <g id="line2d_2">
      <defs>
       <path d="M 0 0 
L 0 -2 
" id="m28677d4c47" style="stroke:#000000;stroke-width:0.3;"/>
      </defs>
      <g>
       <use style="stroke:#000000;stroke-width:0.3;" x="28.226847" xlink:href="#m28677d4c47" y="60.189947"/>
      </g>
     </g>
     <g id="text_1">
      <!-- 5 -->
      <defs>
       <path d="M 43.40625 66.21875 
L 39.59375 57.90625 
L 19.671875 57.90625 
L 15.328125 49.03125 
Q 28.265625 47.125 35.84375 39.40625 
Q 42.328125 32.765625 42.328125 23.78125 
Q 42.328125 18.5625 40.203125 14.109375 
Q 38.09375 9.671875 34.859375 6.546875 
Q 31.640625 3.421875 27.6875 1.515625 
Q 22.078125 -1.171875 16.15625 -1.171875 
Q 10.203125 -1.171875 7.484375 0.84375 
Q 4.78125 2.875 4.78125 5.328125 
Q 4.78125 6.6875 5.90625 7.734375 
Q 7.03125 8.796875 8.734375 8.796875 
Q 10.015625 8.796875 10.96875 8.40625 
Q 11.921875 8.015625 14.203125 6.390625 
Q 17.875 3.859375 21.625 3.859375 
Q 27.34375 3.859375 31.65625 8.171875 
Q 35.984375 12.5 35.984375 18.703125 
Q 35.984375 24.703125 32.125 29.90625 
Q 28.265625 35.109375 21.484375 37.9375 
Q 16.15625 40.140625 6.984375 40.484375 
L 19.671875 66.21875 
z
" id="TimesNewRomanPSMT-35"/>
      </defs>
      <g transform="translate(26.726847 67.856197)scale(0.06 -0.06)">
       <use xlink:href="#TimesNewRomanPSMT-35"/>
      </g>
     </g>
    </g>
    <g id="xtick_2">
     <g id="line2d_3">
      <path clip-path="url(#p320decb640)" d="M 50.166896 60.189947 
L 50.166896 7.2 
" style="fill:none;opacity:0.1;stroke:#b0b0b0;stroke-linecap:square;stroke-width:0.1;"/>
     </g>
     <g id="line2d_4">
      <g>
       <use style="stroke:#000000;stroke-width:0.3;" x="50.166896" xlink:href="#m28677d4c47" y="60.189947"/>
      </g>
     </g>
     <g id="text_2">
      <!-- 6 -->
      <defs>
       <path d="M 44.828125 67.578125 
L 44.828125 65.765625 
Q 38.375 65.140625 34.296875 63.203125 
Q 30.21875 61.28125 26.234375 57.328125 
Q 22.265625 53.375 19.65625 48.515625 
Q 17.046875 43.65625 15.28125 36.96875 
Q 22.3125 41.796875 29.390625 41.796875 
Q 36.1875 41.796875 41.15625 36.328125 
Q 46.140625 30.859375 46.140625 22.265625 
Q 46.140625 13.96875 41.109375 7.125 
Q 35.0625 -1.171875 25.09375 -1.171875 
Q 18.3125 -1.171875 13.578125 3.328125 
Q 4.296875 12.0625 4.296875 25.984375 
Q 4.296875 34.859375 7.859375 42.859375 
Q 11.421875 50.875 18.03125 57.078125 
Q 24.65625 63.28125 30.703125 65.421875 
Q 36.765625 67.578125 42 67.578125 
z
M 14.453125 33.40625 
Q 13.578125 26.8125 13.578125 22.75 
Q 13.578125 18.0625 15.3125 12.5625 
Q 17.046875 7.078125 20.453125 3.859375 
Q 22.953125 1.5625 26.515625 1.5625 
Q 30.765625 1.5625 34.109375 5.5625 
Q 37.453125 9.578125 37.453125 17 
Q 37.453125 25.34375 34.125 31.4375 
Q 30.8125 37.546875 24.703125 37.546875 
Q 22.859375 37.546875 20.734375 36.765625 
Q 18.609375 35.984375 14.453125 33.40625 
z
" id="TimesNewRomanPSMT-36"/>
      </defs>
      <g transform="translate(48.666896 67.856197)scale(0.06 -0.06)">
       <use xlink:href="#TimesNewRomanPSMT-36"/>
      </g>
     </g>
    </g>
    <g id="xtick_3">
     <g id="line2d_5">
      <path clip-path="url(#p320decb640)" d="M 72.106945 60.189947 
L 72.106945 7.2 
" style="fill:none;opacity:0.1;stroke:#b0b0b0;stroke-linecap:square;stroke-width:0.1;"/>
     </g>
     <g id="line2d_6">
      <g>
       <use style="stroke:#000000;stroke-width:0.3;" x="72.106945" xlink:href="#m28677d4c47" y="60.189947"/>
      </g>
     </g>
     <g id="text_3">
      <!-- 7 -->
      <defs>
       <path d="M 10.0625 66.21875 
L 45.5625 66.21875 
L 45.5625 64.359375 
L 23.484375 -1.375 
L 18.015625 -1.375 
L 37.796875 58.25 
L 19.578125 58.25 
Q 14.0625 58.25 11.71875 56.9375 
Q 7.625 54.6875 5.125 50 
L 3.71875 50.53125 
z
" id="TimesNewRomanPSMT-37"/>
      </defs>
      <g transform="translate(70.606945 67.856197)scale(0.06 -0.06)">
       <use xlink:href="#TimesNewRomanPSMT-37"/>
      </g>
     </g>
    </g>
    <g id="xtick_4">
     <g id="line2d_7">
      <path clip-path="url(#p320decb640)" d="M 94.046994 60.189947 
L 94.046994 7.2 
" style="fill:none;opacity:0.1;stroke:#b0b0b0;stroke-linecap:square;stroke-width:0.1;"/>
     </g>
     <g id="line2d_8">
      <g>
       <use style="stroke:#000000;stroke-width:0.3;" x="94.046994" xlink:href="#m28677d4c47" y="60.189947"/>
      </g>
     </g>
     <g id="text_4">
      <!-- 8 -->
      <defs>
       <path d="M 19.1875 33.34375 
Q 11.328125 39.796875 9.046875 43.703125 
Q 6.78125 47.609375 6.78125 51.8125 
Q 6.78125 58.25 11.765625 62.90625 
Q 16.75 67.578125 25 67.578125 
Q 33.015625 67.578125 37.890625 63.234375 
Q 42.78125 58.890625 42.78125 53.328125 
Q 42.78125 49.609375 40.140625 45.75 
Q 37.5 41.890625 29.15625 36.671875 
Q 37.75 30.03125 40.53125 26.21875 
Q 44.234375 21.234375 44.234375 15.71875 
Q 44.234375 8.734375 38.90625 3.78125 
Q 33.59375 -1.171875 24.953125 -1.171875 
Q 15.53125 -1.171875 10.25 4.734375 
Q 6.0625 9.46875 6.0625 15.09375 
Q 6.0625 19.484375 9.015625 23.796875 
Q 11.96875 28.125 19.1875 33.34375 
z
M 26.859375 38.578125 
Q 32.71875 43.84375 34.28125 46.890625 
Q 35.84375 49.953125 35.84375 53.8125 
Q 35.84375 58.9375 32.953125 61.84375 
Q 30.078125 64.75 25.09375 64.75 
Q 20.125 64.75 17 61.859375 
Q 13.875 58.984375 13.875 55.125 
Q 13.875 52.59375 15.15625 50.046875 
Q 16.453125 47.515625 18.84375 45.21875 
z
M 21.484375 31.5 
Q 17.4375 28.078125 15.484375 24.046875 
Q 13.53125 20.015625 13.53125 15.328125 
Q 13.53125 9.03125 16.96875 5.25 
Q 20.40625 1.46875 25.734375 1.46875 
Q 31 1.46875 34.171875 4.4375 
Q 37.359375 7.421875 37.359375 11.671875 
Q 37.359375 15.1875 35.5 17.96875 
Q 32.03125 23.140625 21.484375 31.5 
z
" id="TimesNewRomanPSMT-38"/>
      </defs>
      <g transform="translate(92.546994 67.856197)scale(0.06 -0.06)">
       <use xlink:href="#TimesNewRomanPSMT-38"/>
      </g>
     </g>
    </g>
    <g id="xtick_5">
     <g id="line2d_9">
      <path clip-path="url(#p320decb640)" d="M 115.987043 60.189947 
L 115.987043 7.2 
" style="fill:none;opacity:0.1;stroke:#b0b0b0;stroke-linecap:square;stroke-width:0.1;"/>
     </g>
     <g id="line2d_10">
      <g>
       <use style="stroke:#000000;stroke-width:0.3;" x="115.987043" xlink:href="#m28677d4c47" y="60.189947"/>
      </g>
     </g>
     <g id="text_5">
      <!-- 9 -->
      <defs>
       <path d="M 5.28125 -1.375 
L 5.28125 0.4375 
Q 11.625 0.53125 17.09375 3.390625 
Q 22.5625 6.25 27.65625 13.375 
Q 32.765625 20.515625 34.765625 29.046875 
Q 27.09375 24.125 20.90625 24.125 
Q 13.921875 24.125 8.9375 29.515625 
Q 3.953125 34.90625 3.953125 43.84375 
Q 3.953125 52.546875 8.9375 59.328125 
Q 14.9375 67.578125 24.609375 67.578125 
Q 32.765625 67.578125 38.578125 60.84375 
Q 45.703125 52.484375 45.703125 40.234375 
Q 45.703125 29.203125 40.28125 19.65625 
Q 34.859375 10.109375 25.203125 3.8125 
Q 17.328125 -1.375 8.0625 -1.375 
z
M 35.546875 32.671875 
Q 36.421875 39.015625 36.421875 42.828125 
Q 36.421875 47.5625 34.8125 53.046875 
Q 33.203125 58.546875 30.25 61.46875 
Q 27.296875 64.40625 23.53125 64.40625 
Q 19.1875 64.40625 15.90625 60.5 
Q 12.640625 56.59375 12.640625 48.875 
Q 12.640625 38.578125 17 32.765625 
Q 20.171875 28.5625 24.8125 28.5625 
Q 27.046875 28.5625 30.125 29.640625 
Q 33.203125 30.71875 35.546875 32.671875 
z
" id="TimesNewRomanPSMT-39"/>
      </defs>
      <g transform="translate(114.487043 67.856197)scale(0.06 -0.06)">
       <use xlink:href="#TimesNewRomanPSMT-39"/>
      </g>
     </g>
    </g>
    <g id="xtick_6">
     <g id="line2d_11">
      <path clip-path="url(#p320decb640)" d="M 137.927092 60.189947 
L 137.927092 7.2 
" style="fill:none;opacity:0.1;stroke:#b0b0b0;stroke-linecap:square;stroke-width:0.1;"/>
     </g>
     <g id="line2d_12">
      <g>
       <use style="stroke:#000000;stroke-width:0.3;" x="137.927092" xlink:href="#m28677d4c47" y="60.189947"/>
      </g>
     </g>
     <g id="text_6">
      <!-- 10 -->
      <defs>
       <path d="M 11.71875 59.71875 
L 27.828125 67.578125 
L 29.4375 67.578125 
L 29.4375 11.671875 
Q 29.4375 6.109375 29.90625 4.734375 
Q 30.375 3.375 31.828125 2.640625 
Q 33.296875 1.90625 37.796875 1.8125 
L 37.796875 0 
L 12.890625 0 
L 12.890625 1.8125 
Q 17.578125 1.90625 18.9375 2.609375 
Q 20.3125 3.328125 20.84375 4.515625 
Q 21.390625 5.71875 21.390625 11.671875 
L 21.390625 47.40625 
Q 21.390625 54.640625 20.90625 56.6875 
Q 20.5625 58.25 19.65625 58.984375 
Q 18.75 59.71875 17.484375 59.71875 
Q 15.671875 59.71875 12.453125 58.203125 
z
" id="TimesNewRomanPSMT-31"/>
       <path d="M 3.609375 32.71875 
Q 3.609375 44.046875 7.03125 52.21875 
Q 10.453125 60.40625 16.109375 64.40625 
Q 20.515625 67.578125 25.203125 67.578125 
Q 32.8125 67.578125 38.875 59.8125 
Q 46.4375 50.203125 46.4375 33.734375 
Q 46.4375 22.21875 43.109375 14.15625 
Q 39.796875 6.109375 34.640625 2.46875 
Q 29.5 -1.171875 24.703125 -1.171875 
Q 15.234375 -1.171875 8.9375 10.015625 
Q 3.609375 19.4375 3.609375 32.71875 
z
M 13.1875 31.5 
Q 13.1875 17.828125 16.546875 9.1875 
Q 19.34375 1.90625 24.859375 1.90625 
Q 27.484375 1.90625 30.3125 4.265625 
Q 33.15625 6.640625 34.625 12.203125 
Q 36.859375 20.609375 36.859375 35.890625 
Q 36.859375 47.21875 34.515625 54.78125 
Q 32.765625 60.40625 29.984375 62.75 
Q 27.984375 64.359375 25.140625 64.359375 
Q 21.828125 64.359375 19.234375 61.375 
Q 15.71875 57.328125 14.453125 48.625 
Q 13.1875 39.9375 13.1875 31.5 
z
" id="TimesNewRomanPSMT-30"/>
      </defs>
      <g transform="translate(134.927092 67.856197)scale(0.06 -0.06)">
       <use xlink:href="#TimesNewRomanPSMT-31"/>
       <use x="50" xlink:href="#TimesNewRomanPSMT-30"/>
      </g>
     </g>
    </g>
    <g id="xtick_7">
     <g id="line2d_13">
      <path clip-path="url(#p320decb640)" d="M 159.867141 60.189947 
L 159.867141 7.2 
" style="fill:none;opacity:0.1;stroke:#b0b0b0;stroke-linecap:square;stroke-width:0.1;"/>
     </g>
     <g id="line2d_14">
      <g>
       <use style="stroke:#000000;stroke-width:0.3;" x="159.867141" xlink:href="#m28677d4c47" y="60.189947"/>
      </g>
     </g>
     <g id="text_7">
      <!-- 11 -->
      <g transform="translate(156.868548 67.856197)scale(0.06 -0.06)">
       <use xlink:href="#TimesNewRomanPSMT-31"/>
       <use x="49.953125" xlink:href="#TimesNewRomanPSMT-31"/>
      </g>
     </g>
    </g>
    <g id="xtick_8">
     <g id="line2d_15">
      <path clip-path="url(#p320decb640)" d="M 181.807191 60.189947 
L 181.807191 7.2 
" style="fill:none;opacity:0.1;stroke:#b0b0b0;stroke-linecap:square;stroke-width:0.1;"/>
     </g>
     <g id="line2d_16">
      <g>
       <use style="stroke:#000000;stroke-width:0.3;" x="181.807191" xlink:href="#m28677d4c47" y="60.189947"/>
      </g>
     </g>
     <g id="text_8">
      <!-- 12 -->
      <defs>
       <path d="M 45.84375 12.75 
L 41.21875 0 
L 2.15625 0 
L 2.15625 1.8125 
Q 19.390625 17.53125 26.421875 27.484375 
Q 33.453125 37.453125 33.453125 45.703125 
Q 33.453125 52 29.59375 56.046875 
Q 25.734375 60.109375 20.359375 60.109375 
Q 15.484375 60.109375 11.59375 57.25 
Q 7.71875 54.390625 5.859375 48.875 
L 4.046875 48.875 
Q 5.28125 57.90625 10.328125 62.734375 
Q 15.375 67.578125 22.953125 67.578125 
Q 31 67.578125 36.390625 62.40625 
Q 41.796875 57.234375 41.796875 50.203125 
Q 41.796875 45.171875 39.453125 40.140625 
Q 35.84375 32.234375 27.734375 23.390625 
Q 15.578125 10.109375 12.546875 7.375 
L 29.828125 7.375 
Q 35.109375 7.375 37.234375 7.765625 
Q 39.359375 8.15625 41.0625 9.34375 
Q 42.78125 10.546875 44.046875 12.75 
z
" id="TimesNewRomanPSMT-32"/>
      </defs>
      <g transform="translate(178.807191 67.856197)scale(0.06 -0.06)">
       <use xlink:href="#TimesNewRomanPSMT-31"/>
       <use x="50" xlink:href="#TimesNewRomanPSMT-32"/>
      </g>
     </g>
    </g>
    <g id="xtick_9">
     <g id="line2d_17">
      <path clip-path="url(#p320decb640)" d="M 203.74724 60.189947 
L 203.74724 7.2 
" style="fill:none;opacity:0.1;stroke:#b0b0b0;stroke-linecap:square;stroke-width:0.1;"/>
     </g>
     <g id="line2d_18">
      <g>
       <use style="stroke:#000000;stroke-width:0.3;" x="203.74724" xlink:href="#m28677d4c47" y="60.189947"/>
      </g>
     </g>
     <g id="text_9">
      <!-- 13 -->
      <defs>
       <path d="M 5.078125 53.609375 
Q 7.90625 60.296875 12.21875 63.9375 
Q 16.546875 67.578125 23 67.578125 
Q 30.953125 67.578125 35.203125 62.40625 
Q 38.421875 58.546875 38.421875 54.15625 
Q 38.421875 46.921875 29.34375 39.203125 
Q 35.453125 36.8125 38.578125 32.375 
Q 41.703125 27.9375 41.703125 21.921875 
Q 41.703125 13.328125 36.234375 7.03125 
Q 29.109375 -1.171875 15.578125 -1.171875 
Q 8.890625 -1.171875 6.46875 0.484375 
Q 4.046875 2.15625 4.046875 4.046875 
Q 4.046875 5.46875 5.1875 6.546875 
Q 6.34375 7.625 7.953125 7.625 
Q 9.1875 7.625 10.453125 7.234375 
Q 11.28125 6.984375 14.203125 5.4375 
Q 17.140625 3.90625 18.265625 3.609375 
Q 20.0625 3.078125 22.125 3.078125 
Q 27.09375 3.078125 30.78125 6.9375 
Q 34.46875 10.796875 34.46875 16.0625 
Q 34.46875 19.921875 32.765625 23.578125 
Q 31.5 26.3125 29.984375 27.734375 
Q 27.875 29.6875 24.21875 31.265625 
Q 20.5625 32.859375 16.75 32.859375 
L 15.1875 32.859375 
L 15.1875 34.328125 
Q 19.046875 34.8125 22.921875 37.109375 
Q 26.8125 39.40625 28.5625 42.625 
Q 30.328125 45.84375 30.328125 49.703125 
Q 30.328125 54.734375 27.171875 57.828125 
Q 24.03125 60.9375 19.34375 60.9375 
Q 11.765625 60.9375 6.6875 52.828125 
z
" id="TimesNewRomanPSMT-33"/>
      </defs>
      <g transform="translate(200.74724 67.856197)scale(0.06 -0.06)">
       <use xlink:href="#TimesNewRomanPSMT-31"/>
       <use x="50" xlink:href="#TimesNewRomanPSMT-33"/>
      </g>
     </g>
    </g>
   </g>
   <g id="matplotlib.axis_2">
    <g id="ytick_1">
     <g id="line2d_19">
      <path clip-path="url(#p320decb640)" d="M 19.7 54.196713 
L 216.625676 54.196713 
" style="fill:none;opacity:0.1;stroke:#b0b0b0;stroke-linecap:square;stroke-width:0.1;"/>
     </g>
     <g id="line2d_20">
      <defs>
       <path d="M 0 0 
L 2 0 
" id="m55dcb24a04" style="stroke:#000000;stroke-width:0.3;"/>
      </defs>
      <g>
       <use style="stroke:#000000;stroke-width:0.3;" x="19.7" xlink:href="#m55dcb24a04" y="54.196713"/>
      </g>
     </g>
     <g id="text_10">
      <!-- 0 -->
      <g transform="translate(13.2 56.279838)scale(0.06 -0.06)">
       <use xlink:href="#TimesNewRomanPSMT-30"/>
      </g>
     </g>
    </g>
    <g id="ytick_2">
     <g id="line2d_21">
      <path clip-path="url(#p320decb640)" d="M 19.7 35.100849 
L 216.625676 35.100849 
" style="fill:none;opacity:0.1;stroke:#b0b0b0;stroke-linecap:square;stroke-width:0.1;"/>
     </g>
     <g id="line2d_22">
      <g>
       <use style="stroke:#000000;stroke-width:0.3;" x="19.7" xlink:href="#m55dcb24a04" y="35.100849"/>
      </g>
     </g>
     <g id="text_11">
      <!-- 100 -->
      <g transform="translate(7.2 37.183974)scale(0.06 -0.06)">
       <use xlink:href="#TimesNewRomanPSMT-31"/>
       <use x="50" xlink:href="#TimesNewRomanPSMT-30"/>
       <use x="100" xlink:href="#TimesNewRomanPSMT-30"/>
      </g>
     </g>
    </g>
    <g id="ytick_3">
     <g id="line2d_23">
      <path clip-path="url(#p320decb640)" d="M 19.7 16.004985 
L 216.625676 16.004985 
" style="fill:none;opacity:0.1;stroke:#b0b0b0;stroke-linecap:square;stroke-width:0.1;"/>
     </g>
     <g id="line2d_24">
      <g>
       <use style="stroke:#000000;stroke-width:0.3;" x="19.7" xlink:href="#m55dcb24a04" y="16.004985"/>
      </g>
     </g>
     <g id="text_12">
      <!-- 200 -->
      <g transform="translate(7.2 18.08811)scale(0.06 -0.06)">
       <use xlink:href="#TimesNewRomanPSMT-32"/>
       <use x="50" xlink:href="#TimesNewRomanPSMT-30"/>
       <use x="100" xlink:href="#TimesNewRomanPSMT-30"/>
      </g>
     </g>
    </g>
   </g>
   <g id="line2d_25">
    <path clip-path="url(#p320decb640)" d="M 28.651167 26.50771 
L 28.651167 24.980041 
L 29.11498 26.698669 
L 29.11498 27.653462 
L 29.529208 27.653462 
L 29.529208 26.889627 
L 30.444108 26.889627 
L 30.444108 27.080586 
L 30.858336 27.080586 
L 30.858336 25.743875 
L 31.268176 25.743875 
L 31.268176 27.271545 
L 31.742081 27.271545 
L 31.742081 25.743875 
L 32.164866 25.743875 
L 32.164866 28.608255 
L 32.639429 28.608255 
L 32.639429 27.844421 
L 33.068796 27.844421 
L 33.068796 26.50771 
L 33.463936 26.50771 
L 33.463936 29.181131 
L 33.914804 29.181131 
L 33.914804 27.653462 
L 34.788457 27.653462 
L 34.788457 29.754007 
L 35.231207 29.754007 
L 35.231207 28.035379 
L 35.693045 28.035379 
L 35.693045 28.990172 
L 37.906796 26.316751 
L 37.906796 27.653462 
L 38.305008 27.653462 
L 38.305008 27.080586 
L 38.763775 27.080586 
L 38.763775 26.698669 
L 39.168349 26.698669 
L 39.168349 25.743875 
L 39.620753 25.743875 
L 39.620753 24.598124 
L 40.037614 24.598124 
L 40.037614 23.834289 
L 40.499013 23.834289 
L 40.499013 21.924703 
L 40.982133 21.924703 
L 40.982133 24.789082 
L 41.353797 24.789082 
L 41.353797 26.50771 
L 41.850739 26.50771 
L 41.850739 23.834289 
L 42.309725 23.834289 
L 42.309725 22.688537 
L 42.709034 22.688537 
L 42.709034 23.452372 
L 43.556578 22.115661 
L 43.556578 24.789082 
L 44.04277 24.789082 
L 44.04277 20.397033 
L 44.446028 20.397033 
L 44.446028 24.407165 
L 44.90984 24.407165 
L 44.90984 23.64333 
L 45.33438 23.64333 
L 45.33438 24.407165 
L 46.206717 24.407165 
L 46.206717 25.361958 
L 47.97333 25.361958 
L 47.97333 25.552917 
L 49.331419 25.552917 
L 49.331419 23.261413 
L 49.697598 23.261413 
L 49.697598 25.361958 
L 50.198709 25.361958 
L 50.198709 21.351827 
L 50.638387 21.351827 
L 50.638387 25.171 
L 51.924513 24.980041 
L 51.924513 24.980041 
L 52.313949 24.980041 
L 52.313949 25.171 
L 52.854332 25.171 
L 52.854332 25.171 
L 53.663701 24.025248 
L 53.663701 25.171 
L 54.63016 25.171 
L 54.63016 24.980041 
L 57.331199 24.980041 
L 57.331199 24.789082 
L 57.6897 24.789082 
L 57.6897 24.598124 
L 58.060487 24.598124 
L 58.060487 24.598124 
L 59.807134 24.216206 
L 59.807134 24.025248 
L 60.702068 24.025248 
L 60.702068 23.834289 
L 61.150084 23.834289 
L 61.150084 23.64333 
L 62.093068 23.64333 
L 62.093068 23.452372 
L 62.511245 23.452372 
L 62.511245 23.261413 
L 62.997656 23.070454 
L 62.997656 23.070454 
L 63.819091 23.070454 
L 63.819091 22.879496 
L 64.608714 22.879496 
L 64.608714 22.688537 
L 65.086129 22.497579 
L 65.542263 22.497579 
L 65.542263 22.30662 
L 65.971629 22.30662 
L 65.971629 22.115661 
L 66.890479 22.115661 
L 66.890479 21.924703 
L 67.367455 21.924703 
L 67.367455 21.733744 
L 68.132286 21.733744 
L 68.132286 21.542785 
L 69.459439 21.542785 
L 69.459439 21.733744 
L 69.928517 21.733744 
L 69.928517 21.351827 
L 70.391233 21.351827 
L 70.391233 21.542785 
L 70.755218 21.542785 
L 70.755218 21.733744 
L 71.258304 21.733744 
L 71.258304 20.778951 
L 71.66573 20.778951 
L 71.66573 20.587992 
L 72.512616 20.587992 
L 72.512616 20.397033 
L 73.430588 20.397033 
L 73.430588 20.206075 
L 74.264968 20.206075 
L 74.264968 20.778951 
L 74.750501 20.778951 
L 74.750501 19.824158 
L 75.148055 19.824158 
L 75.148055 19.633199 
L 75.664304 19.824158 
L 75.664304 20.015116 
L 76.048475 20.015116 
L 76.048475 19.44224 
L 76.982682 19.44224 
L 76.982682 19.060323 
L 77.42609 19.060323 
L 77.42609 19.824158 
L 77.842951 19.824158 
L 77.842951 19.060323 
L 78.328704 19.060323 
L 78.328704 19.251282 
L 78.700368 19.251282 
L 78.700368 18.487447 
L 79.15343 18.487447 
L 79.15343 19.251282 
L 79.59267 19.251282 
L 79.59267 19.060323 
L 80.023573 19.060323 
L 80.023573 19.44224 
L 81.767368 19.633199 
L 81.767368 19.44224 
L 82.201342 19.44224 
L 82.201342 18.10553 
L 82.667349 18.10553 
L 82.667349 19.251282 
L 83.06578 19.251282 
L 83.06578 18.10553 
L 83.60375 18.296488 
L 83.60375 17.914571 
L 83.969491 17.914571 
L 83.969491 17.723612 
L 84.458534 17.723612 
L 84.458534 18.10553 
L 84.798605 18.10553 
L 84.798605 17.723612 
L 85.324069 17.723612 
L 85.324069 16.959778 
L 85.777351 16.959778 
L 85.777351 18.869364 
L 86.193115 18.869364 
L 86.193115 16.386902 
L 86.62314 16.386902 
L 86.62314 17.723612 
L 87.028372 17.723612 
L 87.028372 18.10553 
L 87.42439 18.10553 
L 87.42439 18.487447 
L 87.963238 17.723612 
L 87.963238 17.150737 
L 88.34302 17.150737 
L 88.34302 17.532654 
L 88.863877 17.532654 
L 88.863877 16.577861 
L 89.224132 16.577861 
L 89.224132 17.341695 
L 89.692333 17.341695 
L 89.692333 16.959778 
L 90.124991 16.959778 
L 90.124991 16.768819 
L 90.566425 16.768819 
L 90.566425 17.914571 
L 90.975826 17.914571 
L 90.975826 16.195943 
L 91.843774 16.195943 
L 91.843774 16.386902 
L 92.737831 16.386902 
L 92.737831 16.768819 
L 93.223803 16.768819 
L 93.223803 17.914571 
L 93.665457 18.678406 
L 93.665457 16.768819 
L 94.431384 16.768819 
L 94.431384 15.814026 
L 94.914723 16.768819 
L 94.914723 16.386902 
L 95.330926 16.386902 
L 95.330926 17.723612 
L 95.832914 17.723612 
L 95.832914 16.959778 
L 96.255918 16.959778 
L 96.255918 17.150737 
L 96.696694 17.150737 
L 96.696694 16.959778 
L 97.081303 16.959778 
L 97.081303 15.432109 
L 97.553453 15.432109 
L 97.553453 16.004985 
L 97.994009 16.004985 
L 97.994009 16.386902 
L 98.43259 16.195943 
L 98.43259 17.723612 
L 98.885872 17.723612 
L 98.885872 16.004985 
L 99.313703 16.004985 
L 99.313703 15.814026 
L 99.735171 15.814026 
L 99.735171 16.768819 
L 100.238476 16.768819 
L 100.238476 16.959778 
L 100.631422 16.959778 
L 100.631422 16.004985 
L 101.057717 16.004985 
L 101.057717 16.768819 
L 101.530745 16.768819 
L 101.530745 14.859233 
L 101.930273 14.859233 
L 101.930273 16.386902 
L 103.67692 16.386902 
L 103.67692 14.286357 
L 104.166842 14.286357 
L 104.166842 14.095398 
L 105.002538 14.095398 
L 105.002538 14.859233 
L 105.450554 14.859233 
L 105.450554 14.477316 
L 105.9023 14.477316 
L 105.9023 15.814026 
L 106.361066 15.814026 
L 106.361066 16.195943 
L 106.786264 16.195943 
L 106.786264 14.859233 
L 107.221993 14.859233 
L 107.221993 16.768819 
L 107.672423 15.24115 
L 107.672423 15.24115 
L 108.533789 15.24115 
L 108.533789 15.050191 
L 108.930246 15.050191 
L 108.930246 13.713481 
L 109.46317 13.713481 
L 109.46317 15.24115 
L 109.928737 15.24115 
L 109.928737 14.095398 
L 110.271441 14.095398 
L 110.271441 14.477316 
L 110.787471 14.477316 
L 110.787471 14.095398 
L 111.173835 14.095398 
L 111.173835 13.90444 
L 111.612197 13.90444 
L 111.612197 15.050191 
L 112.023573 15.050191 
L 112.023573 13.331564 
L 112.481681 13.713481 
L 112.481681 12.758688 
L 113.37157 13.331564 
L 113.37157 14.477316 
L 113.794793 14.477316 
L 113.794793 13.90444 
L 114.240835 13.90444 
L 114.240835 13.713481 
L 114.657696 13.713481 
L 114.657696 12.567729 
L 115.121069 12.567729 
L 115.121069 13.522522 
L 115.588173 13.522522 
L 115.588173 14.668274 
L 116.004376 14.668274 
L 116.004376 13.331564 
L 116.442738 13.331564 
L 116.442738 14.286357 
L 116.868594 14.286357 
L 116.868594 15.24115 
L 117.308273 15.24115 
L 117.308273 12.758688 
L 117.731935 12.758688 
L 117.731935 14.668274 
L 118.162399 14.668274 
L 118.162399 12.949646 
L 118.583867 12.949646 
L 118.583867 12.567729 
L 119.058211 13.90444 
L 119.058211 12.758688 
L 119.510834 12.758688 
L 119.510834 13.140605 
L 119.932303 13.140605 
L 119.932303 11.612936 
L 120.369787 11.612936 
L 120.369787 12.949646 
L 120.809466 12.949646 
L 120.809466 11.994853 
L 121.25814 11.994853 
L 121.25814 12.567729 
L 121.677634 12.567729 
L 121.677634 12.758688 
L 122.144737 12.758688 
L 122.144737 11.231019 
L 122.519035 11.231019 
L 122.519035 12.185812 
L 123.012905 12.185812 
L 123.012905 12.567729 
L 123.433496 12.567729 
L 123.433496 11.994853 
L 123.835876 11.994853 
L 123.835876 13.331564 
L 125.60578 11.421977 
L 125.60578 14.095398 
L 126.025274 14.095398 
L 126.025274 11.612936 
L 126.530334 11.612936 
L 126.530334 12.758688 
L 126.961236 12.758688 
L 126.961236 11.231019 
L 127.432947 11.231019 
L 127.432947 10.849101 
L 127.80154 10.849101 
L 127.80154 11.231019 
L 128.276762 11.231019 
L 128.276762 10.085267 
L 128.658957 10.085267 
L 128.658957 9.703349 
L 129.132643 9.703349 
L 129.132643 10.658143 
L 129.613349 10.658143 
L 129.613349 11.421977 
L 130.002127 11.421977 
L 130.002127 12.185812 
L 130.472961 12.185812 
L 130.472961 10.849101 
L 130.952131 11.421977 
L 130.952131 10.085267 
L 131.805819 12.758688 
L 131.805819 11.994853 
L 132.188453 11.994853 
L 132.188453 11.803895 
L 132.645025 11.803895 
L 132.645025 11.04006 
L 133.078561 11.04006 
L 133.078561 10.276225 
L 133.515168 10.276225 
L 133.515168 10.849101 
L 134.003334 10.849101 
L 134.003334 13.90444 
L 134.379167 13.90444 
L 134.379167 10.849101 
L 134.821259 10.849101 
L 134.821259 11.421977 
L 135.273224 11.421977 
L 135.273224 11.04006 
L 135.722337 11.04006 
L 135.722337 10.849101 
L 136.243413 11.231019 
L 136.243413 10.467184 
L 136.592918 10.467184 
L 136.592918 12.37677 
L 137.048174 12.37677 
L 137.048174 10.276225 
L 137.49224 10.276225 
L 137.49224 10.849101 
L 137.904713 10.849101 
L 137.904713 11.231019 
L 138.400997 11.231019 
L 138.400997 10.276225 
L 138.767396 10.276225 
L 138.767396 11.421977 
L 139.263241 11.421977 
L 139.263241 9.703349 
L 139.688878 9.703349 
L 139.688878 11.421977 
L 140.088187 11.421977 
L 140.088187 10.276225 
L 140.548928 10.276225 
L 140.548928 10.467184 
L 140.981147 10.467184 
L 140.981147 10.276225 
L 141.41556 9.894308 
L 141.41556 10.467184 
L 141.904823 10.467184 
L 141.904823 10.849101 
L 142.271222 10.849101 
L 142.271222 10.658143 
L 142.773649 10.658143 
L 142.773649 10.849101 
L 143.186122 10.849101 
L 143.186122 10.658143 
L 143.703907 10.658143 
L 143.703907 11.231019 
L 144.147096 11.231019 
L 144.147096 10.658143 
L 144.520077 10.658143 
L 144.520077 11.231019 
L 144.963266 11.231019 
L 144.963266 11.612936 
L 145.489827 11.231019 
L 145.489827 11.04006 
L 147.596072 12.185812 
L 147.596072 11.231019 
L 148.524136 11.231019 
L 148.524136 11.994853 
L 148.894923 11.994853 
L 148.894923 11.803895 
L 149.349082 11.803895 
L 149.349082 12.185812 
L 149.774719 12.185812 
L 149.774719 11.231019 
L 150.261788 10.849101 
L 150.261788 10.467184 
L 151.069182 10.467184 
L 151.069182 10.085267 
L 151.565027 10.085267 
L 151.565027 10.658143 
L 151.946784 10.658143 
L 151.946784 10.276225 
L 152.444823 10.276225 
L 152.444823 10.085267 
L 153.298291 10.085267 
L 153.298291 10.276225 
L 154.127625 10.276225 
L 154.127625 10.658143 
L 154.581784 10.658143 
L 154.581784 10.085267 
L 155.090793 10.085267 
L 155.090793 10.276225 
L 155.931097 11.04006 
L 155.931097 11.04006 
L 156.358928 11.04006 
L 156.358928 10.467184 
L 156.795535 10.467184 
L 156.795535 10.658143 
L 157.23653 10.658143 
L 157.23653 11.04006 
L 157.721405 11.04006 
L 157.721405 10.467184 
L 158.116326 10.467184 
L 158.116326 10.658143 
L 159.412982 10.658143 
L 159.412982 11.04006 
L 159.856171 11.04006 
L 159.856171 11.231019 
L 160.253286 11.231019 
L 160.253286 11.04006 
L 161.185738 11.04006 
L 161.185738 11.231019 
L 161.576271 11.231019 
L 161.576271 11.04006 
L 162.919002 11.04006 
L 162.919002 10.849101 
L 163.373161 10.849101 
L 163.373161 11.04006 
L 163.796604 11.04006 
L 163.796604 10.849101 
L 164.682982 10.849101 
L 164.682982 10.658143 
L 167.30043 10.658143 
L 167.30043 10.849101 
L 167.743619 10.849101 
L 167.743619 10.849101 
L 170.813032 11.421977 
L 170.813032 11.421977 
L 172.662578 11.421977 
L 172.662578 11.231019 
L 173.886833 11.231019 
L 173.886833 11.421977 
L 174.332216 11.421977 
L 174.332216 11.612936 
L 174.810509 11.803895 
L 174.810509 11.994853 
L 175.677141 11.994853 
L 175.677141 12.185812 
L 176.984768 12.185812 
L 176.984768 12.37677 
L 177.390659 12.37677 
L 177.390659 12.185812 
L 179.202907 12.185812 
L 179.202907 12.185812 
L 180.495176 12.37677 
L 180.495176 12.37677 
L 181.374972 12.37677 
L 181.374972 12.567729 
L 182.673823 12.567729 
L 182.673823 12.37677 
L 183.525096 12.37677 
L 183.525096 12.567729 
L 184.863439 12.567729 
L 184.863439 12.758688 
L 185.839772 12.758688 
L 185.839772 12.567729 
L 186.636195 12.567729 
L 186.636195 12.758688 
L 188.413339 12.758688 
L 188.413339 12.949646 
L 189.251449 12.949646 
L 189.251449 13.140605 
L 189.791174 13.140605 
L 189.791174 13.331564 
L 191.45423 14.095398 
L 191.45423 14.286357 
L 191.928135 14.286357 
L 191.928135 14.668274 
L 192.32525 14.668274 
L 192.32525 14.859233 
L 192.779409 14.859233 
L 192.779409 15.050191 
L 193.248926 15.050191 
L 193.248926 15.24115 
L 193.639459 15.24115 
L 193.639459 15.432109 
L 194.11117 15.432109 
L 194.563135 15.623067 
L 194.563135 15.623067 
L 198.064767 15.623067 
L 198.064767 15.814026 
L 198.505762 15.814026 
L 198.505762 16.004985 
L 198.891907 16.004985 
L 198.891907 16.386902 
L 199.387752 16.959778 
L 199.387752 17.532654 
L 199.848493 17.532654 
L 199.848493 18.10553 
L 200.364084 18.10553 
L 200.364084 18.869364 
L 200.690991 18.869364 
L 200.690991 19.824158 
L 201.105658 19.824158 
L 201.105658 20.969909 
L 201.559817 20.969909 
L 201.559817 22.30662 
L 202.031528 22.30662 
L 202.031528 24.025248 
L 202.465941 24.025248 
L 202.465941 26.50771 
L 202.893772 26.50771 
L 202.893772 29.563048 
L 203.347931 33.191263 
L 203.347931 34.718932 
L 203.78015 34.718932 
L 203.78015 36.43756 
L 204.216757 36.43756 
L 204.216757 41.784402 
L 204.642394 41.784402 
L 204.642394 54.387672 
L 207.674509 54.387672 
L 207.674509 54.387672 
" style="fill:none;stroke:#1f77b4;stroke-linecap:square;"/>
   </g>
   <g id="line2d_26">
    <path clip-path="url(#p320decb640)" d="M 28.651167 25.122496 
L 29.11498 27.814058 
L 29.529208 27.073521 
L 30.026589 27.074093 
L 30.444108 27.33437 
L 30.858336 25.912492 
L 31.268176 27.553209 
L 31.742081 25.970734 
L 32.164866 28.769042 
L 32.639429 28.052756 
L 33.068796 26.754238 
L 33.463936 29.343255 
L 33.914804 27.822269 
L 34.383444 27.764409 
L 34.788457 29.854833 
L 35.231207 28.249253 
L 35.693045 29.072476 
L 37.032266 29.124034 
L 37.439912 28.983107 
L 37.906796 27.511962 
L 38.763775 26.556595 
L 39.168349 25.721151 
L 39.620753 24.51773 
L 40.037614 23.772609 
L 40.499013 21.913436 
L 41.353797 26.451759 
L 41.850739 23.718186 
L 42.309725 22.60547 
L 42.709034 23.397758 
L 43.128089 23.337033 
L 43.556578 24.673552 
L 44.04277 20.309383 
L 44.446028 24.339184 
L 44.90984 23.476814 
L 45.33438 24.283806 
L 45.76638 24.38234 
L 46.206717 25.235735 
L 47.081467 25.39213 
L 47.545279 25.394803 
L 47.97333 25.529429 
L 48.373297 25.453045 
L 48.850932 25.520454 
L 49.331419 23.118576 
L 49.697598 25.444643 
L 50.198709 21.289192 
L 50.638387 25.130516 
L 51.924513 24.913778 
L 52.313949 25.101873 
L 52.854332 25.014413 
L 53.663701 25.240318 
L 55.40245 24.904803 
L 56.311645 25.048213 
L 57.331199 24.847707 
L 57.6897 24.66706 
L 58.060487 24.701814 
L 58.53483 24.561841 
L 58.904959 24.612255 
L 60.702068 23.839445 
L 61.150084 23.528373 
L 61.574185 23.651351 
L 62.511245 23.231051 
L 62.997656 23.018132 
L 63.29253 23.036655 
L 64.608714 22.628003 
L 65.971629 21.985427 
L 66.471424 22.166838 
L 67.367455 21.726297 
L 69.010107 21.498101 
L 69.459439 21.631772 
L 69.928517 21.379134 
L 70.391233 21.471367 
L 70.755218 21.664808 
L 71.258304 20.786207 
L 71.66573 20.542162 
L 72.092684 20.564504 
L 72.512616 20.355977 
L 73.018334 20.362088 
L 73.87992 20.184306 
L 74.264968 20.745342 
L 74.750501 19.714165 
L 75.148055 19.552614 
L 75.664304 20.040514 
L 76.048475 19.452743 
L 76.505705 19.389727 
L 76.982682 19.140908 
L 77.42609 19.73899 
L 77.842951 18.94613 
L 78.328704 19.227603 
L 78.700368 18.552946 
L 79.15343 19.291765 
L 79.59267 19.015448 
L 80.023573 19.315444 
L 81.331858 19.172607 
L 81.767368 19.439185 
L 82.201342 18.099801 
L 82.667349 19.242307 
L 83.06578 18.148114 
L 83.60375 18.049388 
L 83.969491 17.671099 
L 84.458534 18.160335 
L 84.798605 17.779945 
L 85.324069 16.915857 
L 85.777351 18.916531 
L 86.193115 16.369907 
L 86.62314 17.792167 
L 87.42439 18.623219 
L 87.963238 17.188546 
L 88.34302 17.60159 
L 88.863877 16.665129 
L 89.224132 17.331001 
L 90.124991 16.679642 
L 90.566425 17.892611 
L 90.975826 16.117841 
L 92.282575 16.404852 
L 92.737831 16.771302 
L 93.223803 17.889937 
L 93.665457 16.671812 
L 94.04129 16.619108 
L 94.431384 15.742798 
L 94.914723 16.287222 
L 95.330926 17.671481 
L 95.832914 16.917576 
L 96.255918 17.157229 
L 96.696694 17.034634 
L 97.081303 15.380932 
L 97.553453 16.0976 
L 97.994009 16.324649 
L 98.43259 17.728195 
L 98.885872 15.974813 
L 99.313703 15.763804 
L 99.735171 16.813885 
L 100.238476 16.951949 
L 100.631422 16.001547 
L 101.057717 16.818659 
L 101.530745 14.824669 
L 101.930273 16.429295 
L 102.362053 16.515608 
L 103.239875 16.353866 
L 103.67692 14.208064 
L 104.574488 13.99419 
L 105.002538 14.87069 
L 105.450554 14.497557 
L 105.9023 15.713773 
L 106.361066 16.12758 
L 106.786264 14.799272 
L 107.221993 16.721461 
L 107.672423 15.337775 
L 108.06493 15.294809 
L 108.533789 15.019256 
L 108.930246 13.699541 
L 109.46317 15.1873 
L 109.928737 14.115449 
L 110.271441 14.461084 
L 111.173835 13.814498 
L 111.612197 15.07578 
L 112.023573 13.266065 
L 112.481681 12.678676 
L 112.874847 12.594654 
L 113.37157 14.438169 
L 113.794793 13.866057 
L 114.240835 13.683882 
L 114.657696 12.526291 
L 115.588173 14.68336 
L 116.004376 13.353715 
L 116.868594 15.238668 
L 117.308273 12.768809 
L 117.731935 14.694245 
L 118.162399 12.875745 
L 118.583867 12.446661 
L 119.058211 12.659198 
L 119.510834 13.099167 
L 119.932303 11.574553 
L 120.369787 12.951365 
L 120.809466 12.028462 
L 121.677634 12.748758 
L 122.144737 11.149288 
L 122.519035 12.13769 
L 123.012905 12.526482 
L 123.433496 11.886771 
L 123.835876 13.291653 
L 125.24333 13.175741 
L 125.60578 14.053387 
L 126.025274 11.594795 
L 126.530334 12.740547 
L 126.961236 11.224717 
L 127.432947 10.826568 
L 127.80154 11.158645 
L 128.276762 10.066553 
L 128.658957 9.608634 
L 129.132643 10.62186 
L 130.002127 12.090714 
L 130.472961 10.813201 
L 130.952131 10.03619 
L 131.314361 9.964008 
L 131.805819 11.955707 
L 132.188453 11.746798 
L 133.078561 10.224476 
L 133.515168 10.827141 
L 134.003334 13.927546 
L 134.379167 10.810337 
L 134.821259 11.338146 
L 135.273224 10.981245 
L 135.722337 10.803653 
L 136.243413 10.406268 
L 136.592918 12.323302 
L 137.048174 10.247963 
L 137.904713 11.182133 
L 138.400997 10.269924 
L 138.767396 11.383404 
L 139.263241 9.67757 
L 139.688878 11.427706 
L 140.088187 10.312126 
L 140.548928 10.481697 
L 140.981147 10.200797 
L 141.41556 10.428037 
L 141.904823 10.850056 
L 142.271222 10.573739 
L 142.773649 10.760306 
L 143.186122 10.673801 
L 143.703907 11.216315 
L 144.147096 10.697289 
L 144.963266 11.547246 
L 145.489827 11.028793 
L 146.257729 10.90257 
L 147.172629 10.893977 
L 147.596072 11.179651 
L 148.034873 11.180224 
L 148.524136 11.994662 
L 148.894923 11.794347 
L 149.349082 12.22133 
L 149.774719 11.191299 
L 150.261788 10.465274 
L 150.669873 10.41849 
L 151.069182 10.093096 
L 151.565027 10.688696 
L 151.946784 10.242235 
L 152.444823 10.038482 
L 152.824386 10.071136 
L 153.298291 10.266105 
L 153.759032 10.213018 
L 154.127625 10.665017 
L 154.581784 10.054904 
L 155.090793 10.280426 
L 155.501072 10.285391 
L 155.931097 10.99824 
L 156.358928 10.416007 
L 156.795535 10.616705 
L 157.23653 11.059538 
L 157.721405 10.503275 
L 158.116326 10.628544 
L 158.530992 10.596272 
L 158.980763 10.721541 
L 159.856171 11.222044 
L 160.253286 11.042924 
L 160.731579 11.046553 
L 161.185738 11.224335 
L 161.576271 11.011416 
L 162.532857 11.08188 
L 162.919002 10.875835 
L 163.373161 11.027266 
L 164.682982 10.715621 
L 166.442574 10.687741 
L 166.833107 10.660243 
L 167.30043 10.868579 
L 169.10829 10.830005 
L 169.507599 11.233883 
L 169.988086 11.446611 
L 172.146987 11.412047 
L 173.007037 11.246104 
L 173.445838 11.22338 
L 174.810509 12.065699 
L 175.231758 12.055769 
L 175.677141 12.20739 
L 176.510863 12.208727 
L 176.984768 12.381926 
L 177.390659 12.192877 
L 179.58247 12.266014 
L 180.495176 12.529155 
L 180.920813 12.514834 
L 181.374972 12.792105 
L 181.857653 12.868107 
L 182.25038 12.104463 
L 182.673823 12.435013 
L 183.130176 12.392238 
L 183.525096 12.589689 
L 184.459743 12.52018 
L 184.863439 12.728516 
L 185.392195 12.745512 
L 185.839772 12.521517 
L 186.164484 12.503758 
L 186.636195 12.796688 
L 187.557677 12.751813 
L 187.9153 12.718586 
L 188.413339 12.993758 
L 188.849946 12.944681 
L 189.791174 13.322398 
L 190.58321 13.252316 
L 191.032981 13.354097 
L 191.45423 14.216848 
L 191.928135 14.743703 
L 193.639459 15.393535 
L 194.11117 15.40652 
L 194.563135 15.762276 
L 194.951474 15.925355 
L 195.423185 15.981688 
L 195.88612 15.462662 
L 196.7352 15.414731 
L 197.58428 15.4703 
L 198.064767 15.726758 
L 198.505762 15.751964 
L 198.891907 16.193652 
L 199.387752 17.366138 
L 200.364084 18.681843 
L 202.031528 23.924994 
L 202.893772 29.611552 
L 203.347931 34.985892 
L 203.78015 36.946388 
L 204.642394 48.145902 
L 206.812265 54.99628 
L 207.674509 57.781313 
L 207.674509 57.781313 
" style="fill:none;stroke:#ff7f0e;stroke-linecap:square;"/>
   </g>
   <g id="patch_3">
    <path d="M 19.7 60.189947 
L 19.7 7.2 
" style="fill:none;stroke:#000000;stroke-linecap:square;stroke-linejoin:miter;stroke-width:0.3;"/>
   </g>
   <g id="patch_4">
    <path d="M 216.625676 60.189947 
L 216.625676 7.2 
" style="fill:none;stroke:#000000;stroke-linecap:square;stroke-linejoin:miter;stroke-width:0.3;"/>
   </g>
   <g id="patch_5">
    <path d="M 19.7 60.189947 
L 216.625676 60.189947 
" style="fill:none;stroke:#000000;stroke-linecap:square;stroke-linejoin:miter;stroke-width:0.3;"/>
   </g>
   <g id="patch_6">
    <path d="M 19.7 7.2 
L 216.625676 7.2 
" style="fill:none;stroke:#000000;stroke-linecap:square;stroke-linejoin:miter;stroke-width:0.3;"/>
   </g>
  </g>
  <g id="axes_2">
   <g id="patch_7">
    <path d="M 19.7 134.375872 
L 216.625676 134.375872 
L 216.625676 81.385925 
L 19.7 81.385925 
z
" style="fill:#ffffff;"/>
   </g>
   <g id="matplotlib.axis_3">
    <g id="xtick_10">
     <g id="line2d_27">
      <path clip-path="url(#pcdce830534)" d="M 28.226847 134.375872 
L 28.226847 81.385925 
" style="fill:none;opacity:0.1;stroke:#b0b0b0;stroke-linecap:square;stroke-width:0.1;"/>
     </g>
     <g id="line2d_28">
      <g>
       <use style="stroke:#000000;stroke-width:0.3;" x="28.226847" xlink:href="#m28677d4c47" y="134.375872"/>
      </g>
     </g>
     <g id="text_13">
      <!-- 5 -->
      <g transform="translate(26.726847 142.042122)scale(0.06 -0.06)">
       <use xlink:href="#TimesNewRomanPSMT-35"/>
      </g>
     </g>
    </g>
    <g id="xtick_11">
     <g id="line2d_29">
      <path clip-path="url(#pcdce830534)" d="M 50.166896 134.375872 
L 50.166896 81.385925 
" style="fill:none;opacity:0.1;stroke:#b0b0b0;stroke-linecap:square;stroke-width:0.1;"/>
     </g>
     <g id="line2d_30">
      <g>
       <use style="stroke:#000000;stroke-width:0.3;" x="50.166896" xlink:href="#m28677d4c47" y="134.375872"/>
      </g>
     </g>
     <g id="text_14">
      <!-- 6 -->
      <g transform="translate(48.666896 142.042122)scale(0.06 -0.06)">
       <use xlink:href="#TimesNewRomanPSMT-36"/>
      </g>
     </g>
    </g>
    <g id="xtick_12">
     <g id="line2d_31">
      <path clip-path="url(#pcdce830534)" d="M 72.106945 134.375872 
L 72.106945 81.385925 
" style="fill:none;opacity:0.1;stroke:#b0b0b0;stroke-linecap:square;stroke-width:0.1;"/>
     </g>
     <g id="line2d_32">
      <g>
       <use style="stroke:#000000;stroke-width:0.3;" x="72.106945" xlink:href="#m28677d4c47" y="134.375872"/>
      </g>
     </g>
     <g id="text_15">
      <!-- 7 -->
      <g transform="translate(70.606945 142.042122)scale(0.06 -0.06)">
       <use xlink:href="#TimesNewRomanPSMT-37"/>
      </g>
     </g>
    </g>
    <g id="xtick_13">
     <g id="line2d_33">
      <path clip-path="url(#pcdce830534)" d="M 94.046994 134.375872 
L 94.046994 81.385925 
" style="fill:none;opacity:0.1;stroke:#b0b0b0;stroke-linecap:square;stroke-width:0.1;"/>
     </g>
     <g id="line2d_34">
      <g>
       <use style="stroke:#000000;stroke-width:0.3;" x="94.046994" xlink:href="#m28677d4c47" y="134.375872"/>
      </g>
     </g>
     <g id="text_16">
      <!-- 8 -->
      <g transform="translate(92.546994 142.042122)scale(0.06 -0.06)">
       <use xlink:href="#TimesNewRomanPSMT-38"/>
      </g>
     </g>
    </g>
    <g id="xtick_14">
     <g id="line2d_35">
      <path clip-path="url(#pcdce830534)" d="M 115.987043 134.375872 
L 115.987043 81.385925 
" style="fill:none;opacity:0.1;stroke:#b0b0b0;stroke-linecap:square;stroke-width:0.1;"/>
     </g>
     <g id="line2d_36">
      <g>
       <use style="stroke:#000000;stroke-width:0.3;" x="115.987043" xlink:href="#m28677d4c47" y="134.375872"/>
      </g>
     </g>
     <g id="text_17">
      <!-- 9 -->
      <g transform="translate(114.487043 142.042122)scale(0.06 -0.06)">
       <use xlink:href="#TimesNewRomanPSMT-39"/>
      </g>
     </g>
    </g>
    <g id="xtick_15">
     <g id="line2d_37">
      <path clip-path="url(#pcdce830534)" d="M 137.927092 134.375872 
L 137.927092 81.385925 
" style="fill:none;opacity:0.1;stroke:#b0b0b0;stroke-linecap:square;stroke-width:0.1;"/>
     </g>
     <g id="line2d_38">
      <g>
       <use style="stroke:#000000;stroke-width:0.3;" x="137.927092" xlink:href="#m28677d4c47" y="134.375872"/>
      </g>
     </g>
     <g id="text_18">
      <!-- 10 -->
      <g transform="translate(134.927092 142.042122)scale(0.06 -0.06)">
       <use xlink:href="#TimesNewRomanPSMT-31"/>
       <use x="50" xlink:href="#TimesNewRomanPSMT-30"/>
      </g>
     </g>
    </g>
    <g id="xtick_16">
     <g id="line2d_39">
      <path clip-path="url(#pcdce830534)" d="M 159.867141 134.375872 
L 159.867141 81.385925 
" style="fill:none;opacity:0.1;stroke:#b0b0b0;stroke-linecap:square;stroke-width:0.1;"/>
     </g>
     <g id="line2d_40">
      <g>
       <use style="stroke:#000000;stroke-width:0.3;" x="159.867141" xlink:href="#m28677d4c47" y="134.375872"/>
      </g>
     </g>
     <g id="text_19">
      <!-- 11 -->
      <g transform="translate(156.868548 142.042122)scale(0.06 -0.06)">
       <use xlink:href="#TimesNewRomanPSMT-31"/>
       <use x="49.953125" xlink:href="#TimesNewRomanPSMT-31"/>
      </g>
     </g>
    </g>
    <g id="xtick_17">
     <g id="line2d_41">
      <path clip-path="url(#pcdce830534)" d="M 181.807191 134.375872 
L 181.807191 81.385925 
" style="fill:none;opacity:0.1;stroke:#b0b0b0;stroke-linecap:square;stroke-width:0.1;"/>
     </g>
     <g id="line2d_42">
      <g>
       <use style="stroke:#000000;stroke-width:0.3;" x="181.807191" xlink:href="#m28677d4c47" y="134.375872"/>
      </g>
     </g>
     <g id="text_20">
      <!-- 12 -->
      <g transform="translate(178.807191 142.042122)scale(0.06 -0.06)">
       <use xlink:href="#TimesNewRomanPSMT-31"/>
       <use x="50" xlink:href="#TimesNewRomanPSMT-32"/>
      </g>
     </g>
    </g>
    <g id="xtick_18">
     <g id="line2d_43">
      <path clip-path="url(#pcdce830534)" d="M 203.74724 134.375872 
L 203.74724 81.385925 
" style="fill:none;opacity:0.1;stroke:#b0b0b0;stroke-linecap:square;stroke-width:0.1;"/>
     </g>
     <g id="line2d_44">
      <g>
       <use style="stroke:#000000;stroke-width:0.3;" x="203.74724" xlink:href="#m28677d4c47" y="134.375872"/>
      </g>
     </g>
     <g id="text_21">
      <!-- 13 -->
      <g transform="translate(200.74724 142.042122)scale(0.06 -0.06)">
       <use xlink:href="#TimesNewRomanPSMT-31"/>
       <use x="50" xlink:href="#TimesNewRomanPSMT-33"/>
      </g>
     </g>
    </g>
   </g>
   <g id="matplotlib.axis_4">
    <g id="ytick_4">
     <g id="line2d_45">
      <path clip-path="url(#pcdce830534)" d="M 19.7 131.811339 
L 216.625676 131.811339 
" style="fill:none;opacity:0.1;stroke:#b0b0b0;stroke-linecap:square;stroke-width:0.1;"/>
     </g>
     <g id="line2d_46">
      <g>
       <use style="stroke:#000000;stroke-width:0.3;" x="19.7" xlink:href="#m55dcb24a04" y="131.811339"/>
      </g>
     </g>
     <g id="text_22">
      <!-- 0 -->
      <g transform="translate(13.2 133.894464)scale(0.06 -0.06)">
       <use xlink:href="#TimesNewRomanPSMT-30"/>
      </g>
     </g>
    </g>
    <g id="ytick_5">
     <g id="line2d_47">
      <path clip-path="url(#pcdce830534)" d="M 19.7 116.221476 
L 216.625676 116.221476 
" style="fill:none;opacity:0.1;stroke:#b0b0b0;stroke-linecap:square;stroke-width:0.1;"/>
     </g>
     <g id="line2d_48">
      <g>
       <use style="stroke:#000000;stroke-width:0.3;" x="19.7" xlink:href="#m55dcb24a04" y="116.221476"/>
      </g>
     </g>
     <g id="text_23">
      <!-- 100 -->
      <g transform="translate(7.2 118.304601)scale(0.06 -0.06)">
       <use xlink:href="#TimesNewRomanPSMT-31"/>
       <use x="50" xlink:href="#TimesNewRomanPSMT-30"/>
       <use x="100" xlink:href="#TimesNewRomanPSMT-30"/>
      </g>
     </g>
    </g>
    <g id="ytick_6">
     <g id="line2d_49">
      <path clip-path="url(#pcdce830534)" d="M 19.7 100.631612 
L 216.625676 100.631612 
" style="fill:none;opacity:0.1;stroke:#b0b0b0;stroke-linecap:square;stroke-width:0.1;"/>
     </g>
     <g id="line2d_50">
      <g>
       <use style="stroke:#000000;stroke-width:0.3;" x="19.7" xlink:href="#m55dcb24a04" y="100.631612"/>
      </g>
     </g>
     <g id="text_24">
      <!-- 200 -->
      <g transform="translate(7.2 102.714737)scale(0.06 -0.06)">
       <use xlink:href="#TimesNewRomanPSMT-32"/>
       <use x="50" xlink:href="#TimesNewRomanPSMT-30"/>
       <use x="100" xlink:href="#TimesNewRomanPSMT-30"/>
      </g>
     </g>
    </g>
    <g id="ytick_7">
     <g id="line2d_51">
      <path clip-path="url(#pcdce830534)" d="M 19.7 85.041748 
L 216.625676 85.041748 
" style="fill:none;opacity:0.1;stroke:#b0b0b0;stroke-linecap:square;stroke-width:0.1;"/>
     </g>
     <g id="line2d_52">
      <g>
       <use style="stroke:#000000;stroke-width:0.3;" x="19.7" xlink:href="#m55dcb24a04" y="85.041748"/>
      </g>
     </g>
     <g id="text_25">
      <!-- 300 -->
      <g transform="translate(7.2 87.124873)scale(0.06 -0.06)">
       <use xlink:href="#TimesNewRomanPSMT-33"/>
       <use x="50" xlink:href="#TimesNewRomanPSMT-30"/>
       <use x="100" xlink:href="#TimesNewRomanPSMT-30"/>
      </g>
     </g>
    </g>
   </g>
   <g id="line2d_53">
    <path clip-path="url(#pcdce830534)" d="M 28.651167 84.729951 
L 28.651167 83.950458 
L 29.11498 84.88585 
L 29.11498 85.353546 
L 29.529208 85.353546 
L 29.529208 85.041748 
L 30.858336 85.041748 
L 30.858336 84.106356 
L 31.268176 84.106356 
L 31.268176 84.88585 
L 31.742081 84.88585 
L 31.742081 83.950458 
L 32.164866 83.950458 
L 32.164866 85.197647 
L 32.639429 85.197647 
L 32.639429 84.729951 
L 33.068796 84.729951 
L 33.068796 83.794559 
L 33.463936 83.794559 
L 33.463936 85.197647 
L 33.914804 85.197647 
L 33.914804 84.106356 
L 34.788457 84.106356 
L 34.788457 85.041748 
L 35.231207 85.041748 
L 35.231207 83.950458 
L 35.693045 83.950458 
L 35.693045 84.262255 
L 37.906796 85.197647 
L 37.906796 87.068431 
L 38.305008 87.068431 
L 38.305008 88.471518 
L 38.763775 88.471518 
L 38.763775 89.095113 
L 39.620753 89.095113 
L 39.620753 88.939214 
L 40.499013 88.939214 
L 40.499013 88.159721 
L 40.982133 88.159721 
L 40.982133 90.654099 
L 41.353797 90.654099 
L 41.353797 92.213086 
L 41.850739 92.213086 
L 41.850739 90.809998 
L 42.309725 90.809998 
L 42.309725 90.498201 
L 42.709034 90.498201 
L 42.709034 91.433592 
L 43.556578 91.433592 
L 43.556578 93.460275 
L 44.04277 93.460275 
L 44.04277 90.654099 
L 44.446028 90.654099 
L 44.446028 93.927971 
L 44.90984 93.927971 
L 44.90984 93.616173 
L 45.33438 93.616173 
L 45.33438 94.395666 
L 45.76638 94.395666 
L 45.76638 94.707464 
L 46.206717 94.707464 
L 46.206717 95.486957 
L 46.647054 95.486957 
L 46.647054 95.642856 
L 47.081467 95.642856 
L 47.081467 95.798754 
L 47.545279 95.798754 
L 47.545279 95.954653 
L 47.97333 95.954653 
L 47.97333 96.110551 
L 48.850932 96.110551 
L 48.850932 96.26645 
L 49.331419 96.26645 
L 49.331419 94.707464 
L 49.697598 94.707464 
L 49.697598 96.26645 
L 50.198709 96.26645 
L 50.198709 93.616173 
L 50.638387 93.616173 
L 50.638387 96.26645 
L 51.470573 96.26645 
L 51.470573 96.110551 
L 52.313949 96.110551 
L 52.313949 95.954653 
L 52.854332 95.954653 
L 52.854332 95.798754 
L 53.663701 94.863362 
L 53.663701 95.486957 
L 54.07398 95.486957 
L 54.07398 95.331058 
L 54.63016 95.331058 
L 54.63016 95.17516 
L 55.40245 95.17516 
L 55.40245 94.863362 
L 56.311645 94.863362 
L 56.311645 94.551565 
L 56.805955 94.551565 
L 56.805955 94.395666 
L 57.331199 94.395666 
L 57.331199 94.083869 
L 57.6897 94.083869 
L 57.6897 93.927971 
L 58.060487 93.927971 
L 58.060487 93.616173 
L 59.807134 92.992579 
L 59.807134 92.680781 
L 60.228383 92.680781 
L 60.228383 92.524883 
L 60.702068 92.524883 
L 60.702068 92.057187 
L 61.150084 92.057187 
L 61.150084 91.74539 
L 61.574185 91.74539 
L 61.574185 91.589491 
L 62.093068 91.589491 
L 62.093068 91.433592 
L 62.997656 91.433592 
L 62.997656 91.277694 
L 65.971629 91.277694 
L 65.971629 91.433592 
L 67.367455 91.433592 
L 67.367455 91.589491 
L 68.713258 91.589491 
L 68.713258 91.74539 
L 69.459439 91.74539 
L 69.459439 91.121795 
L 69.928517 91.121795 
L 69.928517 92.057187 
L 70.391233 92.057187 
L 70.391233 91.277694 
L 70.755218 91.277694 
L 70.755218 90.498201 
L 71.258304 90.498201 
L 71.258304 92.680781 
L 71.66573 92.680781 
L 71.66573 92.83668 
L 72.512616 92.83668 
L 72.512616 92.992579 
L 73.87992 92.992579 
L 73.87992 92.524883 
L 74.264968 92.524883 
L 74.264968 91.433592 
L 74.750501 91.433592 
L 74.750501 93.304376 
L 75.148055 93.304376 
L 75.148055 93.148477 
L 75.664304 92.524883 
L 75.664304 92.680781 
L 76.048475 92.680781 
L 76.048475 93.304376 
L 76.505705 93.304376 
L 76.505705 92.992579 
L 76.982682 92.992579 
L 76.982682 93.927971 
L 77.42609 93.927971 
L 77.42609 92.524883 
L 77.842951 92.524883 
L 77.842951 94.239768 
L 78.328704 94.239768 
L 78.328704 93.148477 
L 78.700368 93.148477 
L 78.700368 95.019261 
L 79.15343 95.019261 
L 79.15343 93.772072 
L 79.59267 93.772072 
L 79.59267 94.083869 
L 80.023573 94.083869 
L 80.023573 93.304376 
L 82.201342 93.304376 
L 82.201342 95.486957 
L 82.667349 95.486957 
L 82.667349 93.616173 
L 83.06578 93.616173 
L 83.06578 95.486957 
L 83.60375 95.019261 
L 83.60375 95.486957 
L 83.969491 95.486957 
L 83.969491 95.331058 
L 84.458534 95.331058 
L 84.458534 94.551565 
L 84.798605 94.551565 
L 84.798605 95.331058 
L 85.324069 95.331058 
L 85.324069 96.26645 
L 85.777351 96.26645 
L 85.777351 93.304376 
L 86.193115 93.304376 
L 86.193115 97.357741 
L 86.62314 97.357741 
L 86.62314 95.019261 
L 87.028372 95.019261 
L 87.028372 94.395666 
L 87.42439 94.395666 
L 87.42439 93.772072 
L 87.963238 94.551565 
L 87.963238 95.486957 
L 88.863877 95.486957 
L 88.863877 96.890045 
L 89.224132 96.890045 
L 89.224132 95.331058 
L 89.692333 95.331058 
L 89.692333 96.110551 
L 90.124991 96.110551 
L 90.124991 96.578247 
L 90.566425 96.578247 
L 90.566425 94.863362 
L 90.975826 94.863362 
L 90.975826 96.110551 
L 91.395978 96.110551 
L 91.395978 97.825436 
L 91.843774 97.825436 
L 91.843774 97.513639 
L 92.282575 97.513639 
L 92.282575 98.137234 
L 92.737831 98.137234 
L 92.737831 97.357741 
L 93.223803 97.357741 
L 93.223803 96.110551 
L 93.665457 95.331058 
L 93.665457 98.137234 
L 94.431384 98.137234 
L 94.431384 99.69622 
L 94.914723 98.137234 
L 94.914723 99.072626 
L 95.330926 99.072626 
L 95.330926 96.578247 
L 95.832914 96.578247 
L 95.832914 97.513639 
L 96.255918 97.513639 
L 96.255918 97.201842 
L 97.081303 97.201842 
L 97.081303 99.384423 
L 97.553453 99.384423 
L 97.553453 98.449031 
L 97.994009 98.449031 
L 97.994009 97.669538 
L 98.43259 98.137234 
L 98.43259 95.331058 
L 98.885872 95.331058 
L 98.885872 98.137234 
L 99.313703 98.137234 
L 99.313703 98.449031 
L 99.735171 98.449031 
L 99.735171 96.890045 
L 100.238476 96.890045 
L 100.238476 96.734146 
L 100.631422 96.734146 
L 100.631422 98.137234 
L 101.057717 98.137234 
L 101.057717 97.045943 
L 101.530745 97.045943 
L 101.530745 99.540321 
L 101.930273 99.540321 
L 101.930273 97.045943 
L 103.67692 96.734146 
L 103.67692 99.384423 
L 104.166842 99.384423 
L 104.166842 99.540321 
L 104.574488 99.540321 
L 104.574488 99.384423 
L 105.002538 99.384423 
L 105.002538 98.760828 
L 105.450554 98.760828 
L 105.450554 99.072626 
L 105.9023 99.072626 
L 105.9023 97.045943 
L 106.361066 97.045943 
L 106.361066 96.734146 
L 106.786264 96.734146 
L 106.786264 98.916727 
L 107.221993 98.916727 
L 107.221993 96.890045 
L 107.672423 98.760828 
L 108.06493 98.760828 
L 108.06493 98.293132 
L 108.533789 98.293132 
L 108.533789 98.60493 
L 108.930246 98.60493 
L 108.930246 99.69622 
L 109.46317 99.69622 
L 109.46317 97.669538 
L 109.928737 97.669538 
L 109.928737 98.760828 
L 110.271441 98.760828 
L 110.271441 98.137234 
L 110.787471 98.137234 
L 110.787471 98.449031 
L 111.173835 98.449031 
L 111.173835 98.60493 
L 111.612197 98.60493 
L 111.612197 97.357741 
L 112.023573 97.357741 
L 112.023573 99.384423 
L 112.481681 99.072626 
L 112.481681 100.163916 
L 113.37157 99.540321 
L 113.37157 98.293132 
L 113.794793 98.293132 
L 113.794793 99.072626 
L 114.240835 99.072626 
L 114.240835 99.540321 
L 114.657696 99.540321 
L 114.657696 100.787511 
L 115.121069 100.787511 
L 115.121069 100.163916 
L 115.588173 100.163916 
L 115.588173 99.072626 
L 116.004376 99.072626 
L 116.004376 100.319815 
L 116.442738 100.319815 
L 116.442738 99.072626 
L 116.868594 99.072626 
L 116.868594 98.293132 
L 117.308273 98.293132 
L 117.308273 100.631612 
L 117.731935 100.631612 
L 117.731935 98.760828 
L 118.162399 98.760828 
L 118.162399 100.319815 
L 118.583867 100.319815 
L 118.583867 100.631612 
L 119.058211 98.60493 
L 119.058211 99.69622 
L 119.510834 99.69622 
L 119.510834 99.228524 
L 119.932303 99.228524 
L 119.932303 100.475713 
L 120.369787 100.475713 
L 120.369787 99.228524 
L 120.809466 99.228524 
L 120.809466 100.319815 
L 121.25814 100.319815 
L 121.25814 99.69622 
L 121.677634 99.69622 
L 121.677634 99.384423 
L 122.144737 99.384423 
L 122.144737 100.943409 
L 122.519035 100.943409 
L 122.519035 100.163916 
L 123.433496 100.163916 
L 123.433496 100.475713 
L 123.835876 100.475713 
L 123.835876 99.384423 
L 125.60578 100.943409 
L 125.60578 97.981335 
L 126.025274 97.981335 
L 126.025274 100.475713 
L 126.530334 100.475713 
L 126.530334 98.449031 
L 126.961236 98.449031 
L 126.961236 99.540321 
L 127.80154 99.540321 
L 127.80154 98.916727 
L 128.276762 98.916727 
L 128.276762 99.384423 
L 128.658957 99.384423 
L 128.658957 99.69622 
L 129.132643 99.69622 
L 129.132643 98.760828 
L 129.613349 98.760828 
L 129.613349 97.981335 
L 130.002127 97.981335 
L 130.002127 97.825436 
L 130.472961 97.825436 
L 130.472961 99.228524 
L 130.952131 99.228524 
L 130.952131 100.787511 
L 131.805819 98.293132 
L 131.805819 99.228524 
L 132.188453 99.228524 
L 132.188453 99.384423 
L 132.645025 99.384423 
L 132.645025 99.852119 
L 133.078561 99.852119 
L 133.078561 100.475713 
L 133.515168 100.475713 
L 133.515168 100.008017 
L 134.003334 100.008017 
L 134.003334 97.201842 
L 134.379167 97.201842 
L 134.379167 99.852119 
L 134.821259 99.852119 
L 134.821259 99.228524 
L 135.273224 99.228524 
L 135.273224 99.540321 
L 135.722337 99.540321 
L 135.722337 99.852119 
L 136.243413 99.540321 
L 136.243413 100.163916 
L 136.592918 100.163916 
L 136.592918 98.293132 
L 137.048174 98.293132 
L 137.048174 100.319815 
L 137.49224 100.319815 
L 137.49224 99.540321 
L 137.904713 99.540321 
L 137.904713 99.228524 
L 138.400997 99.228524 
L 138.400997 100.163916 
L 138.767396 100.163916 
L 138.767396 98.916727 
L 139.263241 98.916727 
L 139.263241 100.319815 
L 139.688878 100.319815 
L 139.688878 98.449031 
L 140.088187 98.449031 
L 140.088187 99.384423 
L 140.981147 99.384423 
L 140.981147 99.69622 
L 141.41556 100.319815 
L 141.41556 100.163916 
L 141.904823 100.163916 
L 141.904823 99.852119 
L 142.271222 99.852119 
L 142.271222 100.163916 
L 142.773649 100.163916 
L 142.773649 100.008017 
L 143.186122 100.008017 
L 143.186122 100.475713 
L 143.703907 100.475713 
L 143.703907 100.008017 
L 144.147096 100.008017 
L 144.147096 100.787511 
L 144.520077 100.787511 
L 144.520077 100.008017 
L 144.963266 100.008017 
L 144.963266 99.69622 
L 145.489827 100.008017 
L 145.489827 100.319815 
L 147.596072 98.760828 
L 147.596072 100.008017 
L 148.034873 100.008017 
L 148.034873 99.852119 
L 148.524136 99.852119 
L 148.524136 98.916727 
L 148.894923 98.916727 
L 148.894923 99.228524 
L 149.349082 99.228524 
L 149.349082 98.60493 
L 149.774719 98.60493 
L 149.774719 99.384423 
L 150.261788 99.540321 
L 150.261788 100.008017 
L 150.669873 100.008017 
L 150.669873 99.69622 
L 151.069182 99.69622 
L 151.069182 99.852119 
L 151.565027 99.852119 
L 151.565027 98.916727 
L 151.946784 98.916727 
L 151.946784 99.228524 
L 153.759032 99.228524 
L 153.759032 99.384423 
L 154.127625 99.384423 
L 154.127625 98.916727 
L 154.581784 98.916727 
L 154.581784 99.852119 
L 155.090793 99.852119 
L 155.090793 99.69622 
L 155.931097 99.228524 
L 155.931097 99.384423 
L 156.358928 99.384423 
L 156.358928 100.008017 
L 156.795535 100.008017 
L 156.795535 99.69622 
L 157.23653 99.69622 
L 157.23653 99.228524 
L 157.721405 99.228524 
L 157.721405 99.852119 
L 158.116326 99.852119 
L 158.116326 99.69622 
L 158.530992 99.69622 
L 158.530992 99.540321 
L 159.412982 99.540321 
L 159.412982 98.916727 
L 159.856171 98.916727 
L 159.856171 98.760828 
L 160.253286 98.760828 
L 160.253286 99.072626 
L 161.185738 99.072626 
L 161.185738 99.228524 
L 161.576271 99.228524 
L 161.576271 99.540321 
L 162.919002 99.540321 
L 162.919002 99.69622 
L 163.796604 99.69622 
L 163.796604 99.852119 
L 166.442574 99.852119 
L 166.442574 100.008017 
L 167.743619 100.008017 
L 167.743619 100.163916 
L 169.988086 100.163916 
L 169.988086 100.008017 
L 170.350097 100.008017 
L 170.350097 99.852119 
L 170.813032 99.852119 
L 170.813032 100.008017 
L 171.319847 100.008017 
L 171.319847 99.852119 
L 172.662578 99.852119 
L 172.662578 100.008017 
L 173.445838 100.008017 
L 173.445838 100.163916 
L 174.332216 100.163916 
L 174.332216 100.163916 
L 174.810509 100.319815 
L 174.810509 100.319815 
L 176.510863 100.319815 
L 176.510863 100.475713 
L 179.202907 100.475713 
L 179.202907 100.319815 
L 180.495176 100.163916 
L 180.495176 100.163916 
L 181.857653 100.163916 
L 181.857653 100.319815 
L 182.673823 100.319815 
L 182.673823 100.475713 
L 183.130176 100.475713 
L 183.130176 100.631612 
L 183.525096 100.631612 
L 183.525096 100.787511 
L 183.990225 100.787511 
L 186.164484 101.099308 
L 186.164484 100.943409 
L 187.557677 100.943409 
L 187.557677 100.787511 
L 188.413339 100.787511 
L 188.413339 100.631612 
L 188.849946 100.631612 
L 188.849946 100.475713 
L 189.251449 100.475713 
L 189.251449 100.475713 
L 189.791174 100.319815 
L 189.791174 100.319815 
L 191.928135 100.319815 
L 191.928135 100.475713 
L 192.779409 100.475713 
L 192.779409 100.631612 
L 193.248926 100.631612 
L 193.248926 100.787511 
L 193.639459 100.787511 
L 193.639459 100.943409 
L 194.11117 100.943409 
L 194.11117 101.255206 
L 194.563135 101.411105 
L 194.563135 101.567004 
L 194.951474 101.567004 
L 194.951474 101.878801 
L 195.423185 101.878801 
L 195.423185 102.0347 
L 195.88612 102.0347 
L 195.88612 102.190598 
L 196.267877 102.190598 
L 196.267877 102.502396 
L 196.7352 102.502396 
L 196.7352 102.658294 
L 197.169613 102.658294 
L 197.169613 102.970091 
L 197.58428 102.970091 
L 197.58428 103.437787 
L 198.064767 103.437787 
L 198.064767 103.593686 
L 198.505762 103.593686 
L 198.505762 103.749585 
L 198.891907 103.749585 
L 198.891907 103.905483 
L 200.364084 103.905483 
L 200.364084 104.061382 
L 201.105658 104.061382 
L 201.105658 104.217281 
L 201.559817 104.217281 
L 201.559817 104.373179 
L 202.031528 104.373179 
L 202.031528 104.529078 
L 202.465941 104.529078 
L 202.465941 104.840875 
L 202.893772 104.840875 
L 202.893772 105.152672 
L 203.347931 105.620368 
L 203.347931 105.152672 
L 203.78015 105.152672 
L 203.78015 104.840875 
L 204.216757 104.840875 
L 204.216757 103.437787 
L 204.642394 103.437787 
L 204.642394 131.967238 
L 207.674509 131.967238 
L 207.674509 131.967238 
" style="fill:none;stroke:#1f77b4;stroke-linecap:square;"/>
   </g>
   <g id="line2d_54">
    <path clip-path="url(#pcdce830534)" d="M 28.651167 84.094664 
L 29.11498 85.551849 
L 29.529208 85.209807 
L 30.444108 85.180966 
L 30.858336 84.153906 
L 31.268176 84.93106 
L 31.742081 84.030746 
L 32.164866 85.29789 
L 32.639429 84.837989 
L 33.068796 83.875315 
L 33.463936 85.290095 
L 33.914804 84.133639 
L 34.383444 84.147202 
L 34.788457 85.115488 
L 35.231207 84.176978 
L 37.439912 87.985582 
L 37.906796 87.706524 
L 38.305008 88.915518 
L 38.763775 89.519001 
L 40.037614 89.244152 
L 40.499013 88.450628 
L 41.353797 92.41513 
L 41.850739 90.89621 
L 42.309725 90.565549 
L 42.709034 91.548178 
L 43.128089 91.803228 
L 43.556578 93.673544 
L 44.04277 90.760266 
L 44.446028 94.07701 
L 44.90984 93.757729 
L 45.33438 94.546109 
L 45.76638 94.709958 
L 46.206717 95.491946 
L 47.545279 96.041956 
L 47.97333 96.272218 
L 48.850932 96.460544 
L 49.331419 95.034227 
L 49.697598 96.460856 
L 50.198709 93.867326 
L 50.638387 96.364666 
L 51.059197 96.421725 
L 51.470573 96.142199 
L 52.313949 96.080931 
L 52.854332 95.984897 
L 53.229068 96.098235 
L 53.663701 95.643635 
L 54.63016 95.261683 
L 54.961235 95.238766 
L 55.40245 94.911847 
L 55.864068 94.933517 
L 57.6897 94.013091 
L 58.060487 93.659825 
L 59.370527 94.031487 
L 59.807134 92.706193 
L 60.228383 92.535172 
L 61.150084 91.841111 
L 62.093068 91.461966 
L 62.511245 91.461966 
L 63.29253 91.224376 
L 64.172326 91.258518 
L 65.086129 91.299675 
L 66.471424 91.368739 
L 66.890479 91.334597 
L 67.753161 91.557999 
L 68.132286 91.562988 
L 69.010107 91.798863 
L 69.459439 91.208942 
L 69.928517 92.0179 
L 70.755218 90.541229 
L 71.258304 92.624034 
L 71.66573 92.836212 
L 73.430588 93.013157 
L 73.87992 92.531431 
L 74.264968 91.48005 
L 74.750501 93.340389 
L 75.148055 93.125716 
L 75.664304 92.547488 
L 76.048475 93.285512 
L 76.505705 92.907926 
L 76.982682 93.819153 
L 77.42609 92.531275 
L 77.842951 94.27921 
L 78.328704 93.133511 
L 78.700368 94.955187 
L 79.15343 93.746972 
L 79.59267 94.020107 
L 80.023573 93.299387 
L 80.445699 93.179501 
L 81.767368 93.263063 
L 82.201342 95.491322 
L 82.667349 93.711271 
L 83.06578 95.550096 
L 83.60375 95.57504 
L 83.969491 95.450633 
L 84.458534 94.584304 
L 85.324069 96.325068 
L 85.777351 93.30765 
L 86.193115 97.375045 
L 86.62314 94.959084 
L 87.42439 93.70488 
L 87.963238 95.366135 
L 88.34302 95.492725 
L 88.863877 96.931981 
L 89.224132 95.371904 
L 89.692333 96.174782 
L 90.124991 96.592278 
L 90.566425 94.86461 
L 91.395978 97.723946 
L 91.843774 97.509118 
L 92.282575 98.168569 
L 92.737831 97.347607 
L 93.223803 95.993783 
L 93.665457 98.21113 
L 94.04129 98.218613 
L 94.431384 99.793657 
L 94.914723 99.296808 
L 95.330926 96.667421 
L 95.832914 97.539674 
L 96.255918 97.179704 
L 96.696694 97.245182 
L 97.081303 99.482015 
L 97.994009 97.725194 
L 98.43259 95.273376 
L 98.885872 98.093894 
L 99.313703 98.369055 
L 99.735171 96.83891 
L 100.238476 96.670383 
L 100.631422 98.230149 
L 101.057717 97.078214 
L 101.530745 99.573996 
L 101.930273 97.100196 
L 103.239875 97.236607 
L 103.67692 99.375225 
L 104.166842 99.452395 
L 104.574488 99.401104 
L 105.002538 98.712656 
L 105.450554 99.043628 
L 105.9023 96.973762 
L 106.361066 96.538181 
L 106.786264 98.858421 
L 107.221993 96.992938 
L 107.672423 98.855147 
L 108.06493 98.359701 
L 108.533789 98.697533 
L 108.930246 99.847286 
L 109.46317 97.793945 
L 109.928737 98.79762 
L 110.271441 98.129595 
L 110.787471 98.315114 
L 111.173835 98.59542 
L 111.612197 97.341839 
L 112.023573 99.410614 
L 112.481681 100.133672 
L 112.874847 100.136946 
L 113.37157 98.248701 
L 113.794793 99.002315 
L 114.240835 99.465178 
L 114.657696 100.73544 
L 115.121069 100.144585 
L 115.588173 99.118148 
L 116.004376 100.349747 
L 116.442738 99.067637 
L 116.868594 98.271618 
L 117.308273 100.649384 
L 117.731935 98.778133 
L 118.162399 100.496448 
L 118.583867 100.753525 
L 119.058211 99.824836 
L 119.510834 99.229927 
L 119.932303 100.455446 
L 120.369787 99.146054 
L 120.809466 100.225808 
L 121.25814 99.631054 
L 121.677634 99.278724 
L 122.144737 100.892586 
L 122.519035 100.127124 
L 123.012905 100.172179 
L 123.433496 100.453732 
L 123.835876 99.33703 
L 124.781492 99.233825 
L 125.24333 99.26594 
L 125.60578 98.079239 
L 126.025274 100.592637 
L 126.530334 98.700651 
L 126.961236 99.715707 
L 127.432947 99.724126 
L 127.80154 99.019932 
L 128.658957 99.635264 
L 129.613349 97.739224 
L 130.002127 97.606243 
L 130.952131 100.683526 
L 131.314361 100.683994 
L 131.805819 99.286518 
L 132.188453 99.46549 
L 132.645025 99.839491 
L 133.078561 100.495356 
L 133.515168 100.065232 
L 134.003334 97.265604 
L 134.379167 99.875815 
L 134.821259 99.166009 
L 135.722337 99.95205 
L 136.243413 100.202891 
L 136.592918 98.292353 
L 137.048174 100.290662 
L 137.49224 99.52785 
L 137.904713 99.267655 
L 138.400997 100.300639 
L 138.767396 99.060154 
L 139.263241 100.389034 
L 139.688878 98.455735 
L 140.088187 99.33017 
L 140.548928 99.220729 
L 141.41556 100.159395 
L 141.904823 99.801608 
L 142.271222 100.142714 
L 142.773649 99.943631 
L 143.186122 100.383733 
L 143.703907 99.892185 
L 144.147096 100.734817 
L 144.520077 100.021581 
L 144.963266 99.731453 
L 145.489827 100.370326 
L 147.172629 100.586245 
L 147.596072 100.094073 
L 148.034873 99.910892 
L 148.524136 98.98579 
L 148.894923 99.324402 
L 149.349082 98.753813 
L 149.774719 99.504465 
L 150.261788 100.127748 
L 150.669873 99.879713 
L 151.069182 100.001937 
L 151.565027 99.023206 
L 151.946784 99.276853 
L 152.824386 99.168347 
L 153.298291 99.190173 
L 153.759032 99.397518 
L 154.127625 98.854679 
L 154.581784 99.846818 
L 155.090793 99.632302 
L 155.501072 99.618427 
L 155.931097 99.384579 
L 156.358928 100.02501 
L 157.23653 99.290728 
L 157.721405 99.960624 
L 158.530992 99.614529 
L 158.980763 99.534241 
L 159.412982 98.974253 
L 159.856171 98.80105 
L 160.253286 99.100375 
L 160.731579 99.130152 
L 161.185738 99.318634 
L 161.576271 99.622792 
L 162.532857 99.65288 
L 162.919002 99.787577 
L 166.833107 99.978397 
L 167.30043 99.941449 
L 167.743619 100.145676 
L 168.660713 100.103427 
L 169.507599 100.172335 
L 170.350097 99.94597 
L 170.813032 100.110443 
L 171.319847 99.929756 
L 173.007037 99.982606 
L 173.445838 100.214583 
L 173.886833 100.116367 
L 175.231758 100.347097 
L 175.677141 100.309681 
L 176.510863 100.572215 
L 177.875534 100.557872 
L 178.704868 100.569876 
L 179.202907 100.442663 
L 179.58247 100.515156 
L 180.495176 100.199617 
L 180.920813 100.287544 
L 181.374972 100.228302 
L 181.857653 100.419746 
L 182.673823 100.523418 
L 183.525096 100.885571 
L 183.990225 100.905526 
L 185.392195 101.290751 
L 189.791174 100.455602 
L 191.032981 100.903967 
L 191.45423 100.521547 
L 191.928135 100.738402 
L 192.32525 100.72406 
L 193.639459 101.308368 
L 194.951474 102.341664 
L 195.423185 102.583463 
L 195.88612 102.960114 
L 196.7352 103.34378 
L 197.169613 103.63344 
L 198.064767 104.573821 
L 198.505762 104.48527 
L 199.387752 104.741412 
L 199.848493 104.979781 
L 200.364084 105.001918 
L 200.690991 104.730343 
L 201.105658 105.122116 
L 202.465941 105.865597 
L 202.893772 106.461597 
L 203.347931 106.568232 
L 203.78015 106.099912 
L 204.216757 104.69776 
L 204.642394 105.203495 
L 206.423926 108.069068 
L 206.812265 108.272984 
L 207.674509 109.037822 
L 207.674509 109.037822 
" style="fill:none;stroke:#ff7f0e;stroke-linecap:square;"/>
   </g>
   <g id="patch_8">
    <path d="M 19.7 134.375872 
L 19.7 81.385925 
" style="fill:none;stroke:#000000;stroke-linecap:square;stroke-linejoin:miter;stroke-width:0.3;"/>
   </g>
   <g id="patch_9">
    <path d="M 216.625676 134.375872 
L 216.625676 81.385925 
" style="fill:none;stroke:#000000;stroke-linecap:square;stroke-linejoin:miter;stroke-width:0.3;"/>
   </g>
   <g id="patch_10">
    <path d="M 19.7 134.375872 
L 216.625676 134.375872 
" style="fill:none;stroke:#000000;stroke-linecap:square;stroke-linejoin:miter;stroke-width:0.3;"/>
   </g>
   <g id="patch_11">
    <path d="M 19.7 81.385925 
L 216.625676 81.385925 
" style="fill:none;stroke:#000000;stroke-linecap:square;stroke-linejoin:miter;stroke-width:0.3;"/>
   </g>
  </g>
 </g>
 <defs>
  <clipPath id="p320decb640">
   <rect height="52.989947" width="196.925676" x="19.7" y="7.2"/>
  </clipPath>
  <clipPath id="pcdce830534">
   <rect height="52.989947" width="196.925676" x="19.7" y="81.385925"/>
  </clipPath>
 </defs>
</svg>
